<?xml version="1.0" encoding="utf-8"?>
<!-- Generator: Adobe Illustrator 16.0.0, SVG Export Plug-In . SVG Version: 6.00 Build 0)  -->
<!DOCTYPE svg PUBLIC "-//W3C//DTD SVG 1.1//EN" "http://www.w3.org/Graphics/SVG/1.1/DTD/svg11.dtd">
<svg version="1.1" id="Layer_1" xmlns="http://www.w3.org/2000/svg" xmlns:xlink="http://www.w3.org/1999/xlink" x="0px" y="0px"
	 width="800px" height="500px" viewBox="0 0 800 500" enable-background="new 0 0 800 500" xml:space="preserve">
<g>
	<path fill="none" stroke="#EF25B2" stroke-width="0.75" stroke-linejoin="round" stroke-miterlimit="10" d="M145.1,252.5l-2,0.1
		l-2.2,0.3l-2.5,0.6l-2.8,1.1l-2.8,1.7l-2.3,2.1l-1.5,2.4l-0.6,2.1l-0.1,1.4l0.1,0.5l0.1-0.2l0.4-0.4l0.6-0.3l0.7-0.1l0.4,0.2
		l0.3,0.5l0.2,0.8l0.3,0.7l0.1,0.4v0.1l-0.3-0.1h-0.3l-0.2,0.1l-0.1,0.2l0.1,0.2l0.2,0.2l0.3,0.1l0.3-0.2l0.2-0.4l0.1-0.2l-0.1,0.1
		l-0.2,0.5l-0.3,0.5l-0.1,0.2l0.2-0.2l0.3-0.3l0.4-0.3l0.3-0.2l0.1-0.2l-0.1,0.1l-0.3,0.3l-0.4,0.4l-0.2,0.3v0.1h0.3l0.3-0.1
		l0.1-0.2l-0.1-0.1h-0.4l-0.4,0.1l-0.2,0.1l0.2-0.1l0.5-0.4l0.9-0.6l1.1-0.4h0.9l0.4,0.6l-0.4,1.1l-1.2,1.1l-1.5,0.8L131,270
		l-0.5,0.5l-0.1,0.4l0.2,0.2l0.2-0.1l0.1-0.2l0.1-0.1h0.1l0.2,0.1h0.2l0.4,0.1l0.4,0.1l0.5,0.1l0.6-0.2l0.6-0.6l0.5-0.8l0.3-0.8
		l0.1-0.6l-0.2-0.3h-0.2l-0.1,0.2l0.2,0.2l0.5,0.1l0.4-0.1l0.1-0.2l-0.4-0.4l-0.6-0.4l-0.6-0.5l-0.4-0.4l-0.2-0.1v0.2l0.1,0.5
		l0.1,0.4h-0.1l-0.3-0.3l-0.5-0.5l-0.5-0.3H132l-0.1,0.4l0.1,0.5l0.1,0.2l-0.2-0.3l-0.5-0.9l-0.6-1.5l-0.2-2.1l0.2-2.5l0.9-2.9
		l1.5-2.8l1.8-2.6l1.8-2l1.7-1.3l1.2-0.6l0.5-0.2l-0.1-0.2l-0.5-0.3l-0.6-0.5l-0.5-0.4l-0.4-0.1l-0.3,0.2l-0.3,0.4l-0.4,0.5
		l-0.5,0.5l-0.6,0.3H136l0.6-0.5l1.2-0.7l1.5-0.5l1.2,0.1l0.8,0.6l0.5,0.8l0.5,0.8l0.8,0.6l1.7,0.1l3.2-0.6l5.2-1.2l7-0.9l8.4,0.3
		l9.6,1.7l11,2.7l13,2.8l15.3,2.1l17.1,0.5l18.1-1.7l18.3-3.9l18.1-5.6l17.1-6.1l15.1-5.5l12.1-4.2l8.6-2.9l5.4-1.9l2.8-1.3l1.3-0.9
		l0.6-0.6l0.3-0.5l-0.1-0.4l-0.4-0.2l-0.5,0.1l-0.4,0.4v0.8l0.2,0.8l0.1,0.6l-0.2,0.2h-0.6l-0.7,0.1l-0.7,0.4l-0.4,0.8l-0.2,1
		l-0.2,0.9l-0.1,0.6l0.1,0.4l0.1,0.2l-0.2,0.4l-0.5,0.5l-0.5,0.4l-0.2,0.1l0.1,0.1h0.4l0.5-0.2l0.6-0.5l0.4-0.7l-0.2-0.2l-0.6,0.3
		l-0.4,0.2l0.5-0.5l1.4-1.2l1.6-1.4l1.2-0.9l0.5-0.2l-0.1,0.2l-0.5,0.5L352,226l-1,1.1l-1.2,1.2l-1.2,1.1l-0.9,0.6l-0.5,0.1
		l-0.2-0.2l-0.1-0.3l0.1-0.2l0.3-0.2l0.5-0.2l0.4-0.2l0.2-0.4l0.2-0.6l-0.1-0.7l-0.5-0.2l-1,0.5l-1,0.9l-0.4,0.7l0.5,0.1l1.1-0.5
		l1.3-0.8l0.9-0.9l0.3-0.9l-0.3-0.6l-0.4-0.4l0.2-0.4l0.6-0.3l0.6-0.2v-0.2l-0.5-0.1l-0.7-0.1l-0.5,0.1l-0.4,0.2l-0.4,0.5l-0.4,0.7
		l-0.5,0.8l-0.4,0.6l-0.2,0.5l-0.1,0.5l0.1,0.5l0.1,0.4l0.2,0.1l0.2-0.2l0.2-0.5l0.1-0.6l-0.1-0.5l-0.2-0.5l-0.1-0.5l0.2-0.4
		l0.4-0.4l0.5-0.3l0.3-0.2v-0.2h-0.2l-0.2,0.3l-0.2,0.6l-0.1,0.6l0.2,0.3l0.5-0.1l0.5-0.3l0.4-0.2l-0.1-0.1l-0.5,0.1l-0.8-0.1
		l-0.6-0.4l-0.1-0.8l0.2-0.9l0.2-0.5l-0.4,0.2l-0.7,0.8l-0.6,0.9l-0.2,0.5l0.1-0.1l0.2-0.9l0.4-1.7l0.7-2.1l1-1.7l1.4-0.4l1.2,0.8
		l0.5,1.4l-0.4,0.6l-1.1-0.7l-1.1-2.2l-0.5-3.8l0.5-5.1l1.4-6.3l2-7.5l2.3-8.6l2.5-9.2l2.5-9.2l2.4-8.1l2-6.3l1.4-4.1l0.6-2.3
		l-0.1-1.2l-0.7-0.8l-1.1-0.8l-1.4-0.5h-1.8l-1.7,0.5l-1,0.5l0.4-0.4l1.7-1.7l2.2-2.7l1.6-2.8l0.5-1.8l-1-1.7l1.2,3 M78.1,188.3
		l-0.2-0.2h-0.1l-0.1,0.1h-0.1h-0.1l-0.1-0.1l-0.1-0.2l-0.1-0.5l0.4-0.6l0.8-0.5l0.9-0.1l0.8,0.4l0.3,0.6l-0.1,0.7l-0.4,0.6
		l-0.4,0.5l-0.4,0.3l-0.6,0.3l-1,0.2h-1.1l-0.6-0.1l0.2-0.1l0.8,0.1l0.9,0.4l0.5,0.3l0.1-0.1l-0.2-0.8l-0.2-1.2l-0.1-1.1l0.2-0.5
		l0.4,0.2l0.4,0.6l0.3,0.5l0.2,0.1l-0.1-0.1l-0.1-0.4v-0.2l0.1-0.1l0.1,0.2l-0.1,0.4l-0.3,0.2l-0.4-0.1l-0.2-0.3l-0.2-0.2l-0.1-0.2
		v-0.1l0.2-0.2l0.3-0.2l0.2-0.2l0.1-0.1v0.2l-0.2,0.5l-0.2,0.5l-0.2,0.4l-0.1,0.2v-0.1l-0.2-0.1l-0.4-0.1l-0.2,0.1l0.1,0.2l0.4,0.2
		l0.5-0.1l0.5-0.4l0.4-0.5l0.1-0.4l-0.3-0.1l-0.4,0.1l-0.4-0.1h0.1l0.5,0.1l0.6,0.2l0.4,0.2v0.1l-0.4-0.2l-0.5-0.4l-0.4-0.4h-0.2
		l-0.1,0.5l0.1,0.9l0.1,0.7l-0.1,0.3l-0.4-0.1l-0.4-0.5l-0.2-0.7l-0.1-0.7l-0.1-0.4l-0.2,0.1l-0.3,0.8l-0.3,0.9l-0.1,0.6l0.3,0.1
		l0.4-0.4l0.1-0.5l-0.3-0.4l-0.6-0.5l-0.6-0.4l-0.2-0.2l0.2-0.2l0.4-0.3l0.3-0.4l0.1-0.4l-0.1-0.1l-0.1,0.2l0.1,0.4l0.2,0.4l0.1,0.5
		v0.5l-0.1,0.4l-0.1,0.3l0.1,0.1l0.4,0.3l0.4,0.3l0.2,0.2l0.1-0.2l0.4-0.7l0.7-1.2l0.8-1.4l0.4-1.4l-0.2-1.1l-0.6-0.5l-0.6,0.1v0.3
		l1.1,0.1l2.4-0.6l3.5-1.7l4.1-2.6l4.5-3.3l5-3.8l5.6-4.1l5.9-4.1l5.8-3.8l5.3-3.2l4.4-2.5l3.4-2l2.2-1.5l1.2-1.1l0.4-0.6l-0.1-0.4
		l-0.3-0.7l-0.4-0.9l-0.4-0.9l-0.4-0.5l-0.1,0.1l0.7,0.7l1.9,1.1l2.7,1.2l2.5,1.3l1.2,1.1l-0.4,0.6l-0.9,0.3l-0.2,0.1l1.9,0.2
		l4.7,0.8l7.3,1.8l9.5,3.4l10.6,5.3l11.5,6.5l12.6,7.2l15.1,7.4l18.5,7.4l21.5,7l22.3,6.1l20.4,5l16.6,4l12.4,3.4l8.4,2.6l5.3,1.5
		l2.9,0.5l1.2-0.2l-0.1-0.2l-0.7,0.2l-0.9,0.7l-0.9,1.1l-0.9,1.3l-0.9,1.2l-0.8,0.9l-0.4,0.4l0.1-0.5l0.7-1l1.1-1.2l1-0.9l0.6-0.3
		l0.1,0.2l-0.4,0.5l-0.5,0.5l-0.5,0.4l-0.4,0.5l-0.3,0.6l-0.2,0.8l-0.1,0.9l0.2,1.1l0.4,0.9l0.5,0.7l0.6,0.4l0.7,0.1l0.8-0.4
		l0.6-0.5l0.6-0.5l0.3-0.2l-0.1-0.1l-0.4-0.2l-0.4-1l0.1-1.9l0.8-2.6l1.1-2.5l0.9-1.8l0.5-0.9l0.1-0.2l-0.1,0.1v0.4l-0.1,0.5
		l-0.1,0.5v0.2l0.1-0.1l0.2-0.1l0.2,0.2l-0.3,0.8l-0.8,1l-0.9,0.9l-0.6,0.6l-0.1,0.2l0.3-0.1l0.4-0.2l0.2-0.2h0.1l-0.1,0.4l-0.3,0.5
		l-0.5,0.5L342,225l-0.9,0.7l-0.9,1l-1.1,1.2l-1.1,0.9l-0.6,0.2l0.2-0.7l1.5-1.5l2.4-1.9l2.4-1.8l1.5-1.4l0.7-1l-0.1-0.8l-0.5-1
		l-0.8-1.4l-0.9-1.8l-1.1-2.4l-1.4-3l-1.5-3.5l-1.5-3.8l-1.4-3.5l-1.1-2.8l-0.8-1.8l-0.6-0.6l-0.7,0.5l-0.8,1.2l-0.8,1.2l-0.5,0.7
		l-0.1-0.3l0.3-1.2l0.3-1.7l0.3-1.8l1-1.6l2.5-1.1l4-0.2l4.4,0.8l3.5,1.4l2,1.5l0.8,1.5l0.1,1.8l-0.7,2.7l-2.2,3.4l-5,3.6l-8.7,3.1
		l-12.5,2.3L306,214l-17.5,2.2l-18.8,3.2l-19.9,4.8l-20.2,6.3l-19,7.3l-16.3,6.9l-13.2,5.2l-10.6,2.8l-8.3,0.6l-6.4-0.5l-4.4-0.6
		L149,252l-1.1,0.1l-0.5,0.1l-0.5,0.2l-0.5,0.5l-0.2,1l0.4,1.1l0.9,0.7l1.1-0.1l0.8-0.8v-1.1l-0.9-0.8l-1.5-0.4l-1.8-0.1
		 M92.2,333.8l0.1-0.5l0.1-0.5l0.2-0.4l0.4-0.2l0.5-0.1h0.4l0.1-0.1l-0.1-0.1V332l-0.1,0.1l-0.3,0.3l-0.6,0.5l-0.7,0.7l-0.6,0.6
		l-0.3,0.2l0.1-0.4l0.5-1.1l0.9-1.5l1.3-1.9l1.5-2.5l1.2-3.5l0.8-4.7l0.3-5.7l0.2-6.2l0.2-6.1l0.5-5.8l0.8-5.4l0.9-5l0.8-4l0.2-2.7
		l-0.7-1.1l-1.7,0.2l-2.5,0.7l-2.5,0.4l-1.7,0.1l-0.4,0.2l0.9,0.7l1.4,0.8l1.2,0.4l0.6-0.5l0.3-1l0.2-1l0.1-0.5l-0.1,0.1v0.5
		l0.6,0.4l1.5-0.1l2.5-0.5l4-0.9l6.1-1.2l9.3-1.8l12.6-2.1l15.7-2.2l18-2.2l19.7-2.4l20.7-3l21.3-4l21.3-4.8l20.3-5l17.8-4.1
		l14.1-3.1l10.1-2.4l6.6-1.9l4.1-1.2l2.4-0.3l1.1,0.9l-0.1,1.7l-0.8,1.7l-0.8,1.1l-0.5,0.2l0.1-0.4l0.3-0.4l-0.1,0.1l-0.5,0.3
		l-0.7,0.2l-0.4-0.1l0.2-0.1h0.5l0.8,0.1h0.9l0.9-0.1l0.9-0.2l0.8-0.2l0.7-0.1l0.5,0.1l0.2,0.5v1.7l0.5,0.8l1.1,0.5l1.3,0.5l1.1,0.4
		l0.4,0.1l-0.2-0.4l-0.8-0.9l-0.7-1.1l-0.5-0.8l-0.4-0.3l-0.4,0.1l-0.5,0.1l-0.5,0.1l-0.2,0.1l0.2-0.1l0.5-0.1l0.5-0.1l0.2,0.1
		l-0.2,0.4l-0.3,0.5l-0.2,0.3v-0.1l0.2-0.4l0.2-0.6v-0.5l-0.3-0.4l-0.5-0.1h-0.5l-0.4,0.1l-0.2,0.1v-0.1l0.2-0.2l0.4-0.1h0.5
		l0.4,0.1l0.1,0.1l-0.2-0.1l-0.5-0.3l-0.6-0.4l-0.5-0.4l-0.3-0.1l-0.2,0.2l-0.1,0.4l0.1,0.4l0.2,0.2l0.3,0.2l0.4,0.3l0.3,0.2
		l0.2-0.1l-0.2-0.5l-0.5-0.8l-0.5-0.4l-0.2,0.2l0.2,0.5l0.5,0.4l0.4,0.2l0.1-0.1l-0.4-0.1l-0.5,0.1l-0.4,0.2l-0.2,0.1l0.1-0.2
		l0.4-0.5l0.4-1l0.5-1.5l0.4-2.2l0.4-2.9l0.2-3.7v-4.4l-0.4-5.1l-0.8-5.4l-1.3-4.8l-1.7-3.5l-2-1.8l-2-0.5H321l-0.8-0.2l0.1-0.9
		l0.8-1.5l1.1-1.7l0.9-1.4l0.4-0.7l-0.1-0.2l-0.3,0.2l-0.2,0.4l0.5,0.2l1.1-0.2l1.5-0.7l1.3-0.9l0.7-0.5l-0.1,0.2l-0.7,0.9l-0.9,1.3
		L325,199l-1.9,1.8L320,203l-4.5,3l-6.3,3.8l-8.2,4.7l-10.2,5.4l-12.3,5.5l-14,5.2l-15.2,4.7l-15.5,4.1l-14.9,3.8l-13.8,3.4
		l-12.3,2.7l-10.5,1.7l-8.4,0.7l-6.2,0.1l-4.1,0.4l-2.2,0.8l-0.6,1l0.3,0.7l0.6,0.1l0.7-0.4l0.7-0.4l0.5-0.1l0.3,0.1l-0.1,0.1
		l-0.4-0.1l-0.7-0.2l-0.9-0.4l-1.1-0.3l-1.2-0.4l-1.5-0.8l-1.8-1.4l-2.8-2.2l-4.3-2.8l-5.6-2.8l-6.4-2.2l-6.3-1.1l-5.3-0.3l-3.8,0.2
		l-2.2,0.2l-1.1,0.2l-0.7,0.2l-1.2,0.3l-2.3,0.6l-3,0.9l-2.3,1.1l-0.4,0.6l1.9-0.3l3.4-1.1l3.5-1.7l2.4-1.7l0.6-1.4L119,236
		l-2.2-1.5l-2.7-2.2l-2.8-3.3l-3-4.3l-3.4-4.9l-3.7-5l-3.7-4.9l-3.1-4.3l-2.2-3.6l-1.4-2.7l-0.7-1.8l-0.1-1.4l-0.1-1.1l-0.2-1
		l-0.5-0.9l-0.6-0.8l-0.5-0.7l-0.6-0.6l-0.9-0.5l-1.2-0.5l-1.4-0.5l-1.4-0.3l-1.1-0.1l-0.8,0.1l-0.4,0.2l-0.2,0.2l-0.1,0.2l-0.1-0.1
		l-0.1-0.2L80,189l0.2-0.5l0.2-0.8l0.1-1.1l0.2-0.7l0.2,0.2l0.1,0.9l-0.1,1.1l-0.4,0.8l-0.4,0.2l-0.3-0.2l-0.1-0.5l0.2-0.6l0.4-0.4
		l0.4,0.5v1.3l-0.5,1.9l-1.1,1.9l-1.5,1.7l-1.5,1.4l-1.2,1l-0.4,0.2l0.7-0.8l1.3-1.5l1.3-1.5l0.6-0.9l0.1-0.5l-0.3-0.4l-0.1-0.5
		l0.2-0.4l0.4-0.4l0.2-0.5l-0.2-0.6l-0.4-0.5l-0.3-0.4 M239,310.2l2.2,5.1l1.2-2.3l1.1-0.5l0.6-0.8l0.1-0.4l-0.4-0.2l-0.7-0.2
		l-0.9-0.4l-1.4-0.9l-2.7-1.3l-4.7-1.5l-7.2-1h-9.5l-11.2,1.4l-11.9,2.9l-11.8,4l-10.9,4.2l-9.5,3.6l-7.7,2.4l-5.8,1.1h-4l-2.5-0.3
		l-1.6-0.4l-0.9-0.2l-0.5-0.2V324l0.3-0.2h0.6l0.6,0.3l0.4,0.4h-0.1l-0.8-0.4l-1.6-0.5l-2.4-0.5l-3.4-0.4h-4.4l-5.3,0.4l-6.1,0.9
		l-6.3,1.5l-5.8,1.8l-4.7,1.9l-3.4,1.5l-2.4,0.8l-1.5,0.2l-0.8-0.2l-0.2-0.3l0.2-0.1l0.6,0.2l0.7,0.4l0.5,0.5l0.3,0.8l0.1,0.8
		l-0.2,0.7l-0.4,0.4l-0.4-0.1l-0.2-0.4v-0.5"/>
	<path fill="none" stroke="#EF25B2" stroke-width="0.75" stroke-linejoin="round" stroke-miterlimit="10" d="M243.7,262.6l3.5,5.8
		l-0.7-1.1v0.2l-0.4-0.5l-0.4-0.6l-0.4-0.7l-0.6-0.2L244,266l-0.8,0.8l-0.4,0.4l0.4-0.2l0.9-0.6l0.9-0.8l0.7-0.5l0.5-0.2l0.1,0.1
		l-0.5,0.5l-1.2,0.5l-2.1,0.5l-3.5,0.4l-5.6,0.7l-8.2,1.2l-11.1,2.5l-13.5,3.9l-15.3,5.1l-16.5,5.8l-17.2,5.6l-18.1,5l-19.1,4.8
		l-19.1,5.4l-17.2,6.3l-13.1,6.4l-8.2,5.3l-4.1,3.2l-1.4,1.1l-0.5-0.8l-0.7-2.3l-1.4-3.2l-2-3.6l-2.1-3.1l-1.7-2.2l-1-1.4l-0.4-0.7
		l0.1-0.4l0.2-0.2l0.2-0.1l-0.1-0.1l-0.3-0.1l-0.4,0.1l-0.4,0.2l-0.1,0.2l0.2,0.1l0.4-0.1l0.4-0.3l0.4-0.2l0.3-0.1l0.3,0.3l0.2,0.7
		l0.1,1.2l-0.2,1.4l-0.5,1.2l-0.5,0.7h-0.4l-0.1-0.4l0.2-0.6l0.2-0.5l0.2-0.4l0.2-0.1v0.1l-0.2,0.3l-0.2,0.4l-0.1,0.4l0.2,0.1
		l0.3-0.2l0.4-0.4l0.1-0.3l-0.3-0.1l-0.9,0.2l-1.2,0.3l-1.4,0.3l-0.8,0.3l-0.4,0.4l-0.3,0.3l-0.7,0.2l-1,0.1l-0.5,0.2 M79.9,242.7
		l-1.7,0.4l-0.7-0.5l-0.4-1.4l-0.2-1.9l-0.1-2l0.1-1.5l0.3-0.9l0.3-0.2l0.2,0.3l0.1,0.6l-0.1,0.7l-0.2,0.6l-0.4,0.3h-0.5l-0.4-0.2
		l-0.1-0.1l0.4-0.1l0.6-0.3l0.7-0.4l0.4-0.1l0.2,0.4l0.1,1l-0.2,1.2l-0.4,0.8l-0.5,0.4l-0.2,0.1l0.4,0.2l0.8,0.4l0.8,0.4l0.4,0.2
		l-0.2,0.1l-0.7-0.1l-0.8-0.1l-0.6-0.2l-0.3-0.3l-0.2-0.4l-0.2-0.2h-0.4l-0.4,0.1l-0.2,0.1l0.1,0.2l0.4,0.5l0.5,0.8l0.4,0.8l0.4,0.5
		l0.4,0.2l0.4,0.2l0.4,0.4l0.7,0.6l0.9,0.4h0.9l0.4-0.3l-0.5-0.7L79.9,242.7l-1.4-1.7l-1.1-1.7l-0.3-1.3l0.4-0.7l0.6-0.2l0.4,0.1
		v0.2l-0.2,0.3l-0.1,0.2l0.1,0.1h0.1l-0.1,0.1l0.1,0.1h0.4l0.7-0.1l0.5-0.4l0.1-0.5l-0.4-0.4H79l-0.2,0.5l0.2,0.7l0.2,0.8l-0.1,0.8
		l-0.4,0.7l-0.5,0.1l-0.6-0.7l-0.6-1.3l-0.6-1.1l-0.5-0.4l-0.2,0.4l0.3,0.8l0.5,0.9l0.5,0.9l0.5,1.1l0.5,1.6l0.6,1.8l0.5,1.7
		l0.2,1.1l-0.1,0.3l-0.1-0.4l-0.1-0.6l0.1-0.8l0.2-0.7l0.3-0.4l0.2-0.1l0.1,0.2l-0.1,0.3l-0.1,0.2l0.1-0.1l0.2-0.2l0.2-0.2l0.1,0.1
		l-0.2,0.2l-0.4,0.1l-0.5-0.1l-0.6-0.1l-0.7-0.1l-0.9-0.1l-1-0.2l-0.9-0.2l-0.6-0.2l-0.1-0.1l0.4,0.2l0.8,0.5l1.4,0.8l2.2,1.2
		l3.6,1.9l5.4,2.6l7.4,3.1l9.5,3.1l11.8,3.1l13.9,3.7l15.8,5.1l16.7,6.9l16.6,7.6l15.8,7l14.6,5l13,2.7l11.1,0.7l9-0.6l6.4-1.2
		l3.8-1.2l1.5-0.8l0.1-0.2l-0.5,0.4l-0.5,0.6l-0.4,0.4l-0.5-0.1l-0.6-0.6l-0.5-0.7l-0.1-0.5l0.4,0.1l0.6,0.4l0.6,0.4h0.6l1-0.5
		l1.8-1.2l3-1.7l4.4-2.1l5.8-2.7l7.4-3.4l8.9-4.3l10.3-5l11.9-5l13.2-4.1l13.7-2.8l12.6-1.4l9.5-0.5l5.7,0.1l2.4,0.4l0.5,0.6
		l-0.2,0.6l-0.4,0.4l-0.5,0.2l-0.5,0.4l-0.5,0.7l-0.5,0.9l-0.4,0.8l-0.2,0.4l0.2-0.2l0.6-0.4l0.7-0.5l0.5-0.4l-0.1-0.1l-0.3,0.2
		l-0.4,0.4l-0.4,0.4l-0.1,0.2h0.1l0.2-0.4l0.4-0.4l0.2-0.4l0.1-0.1l0.1,0.1l0.1,0.2l-0.2,0.3l-0.5,0.2h-0.8l-0.9-0.2l-0.5,0.1
		l0.3,0.4l0.9,0.7l1.1,0.7l0.7,0.2V267l-0.4-0.7l-0.4-0.4l-0.4,0.4l-0.5,0.8l-0.2,0.6h0.1l0.5-0.5l0.7-0.6l0.6-0.6l0.2-0.4l-0.2-0.1
		l-0.7,0.2l-0.8,0.4l-0.5,0.4l0.4,0.4l0.9,0.4l0.9,0.3l0.5,0.1l0.1-0.1l-0.1-0.4l-0.2-0.4l-0.1-0.4l0.1-0.4l0.2-0.3l0.2-0.2
		l-0.1,0.1l-0.6,0.2L365,266l-0.9,0.6l-0.6,0.6l-0.2,0.5l0.2,0.1l0.5-0.2l0.5-0.3l0.4-0.4l0.1-0.4l-0.1-0.4l-0.1-0.5l0.1-0.5
		l0.2-0.4l0.3-0.3l0.5-0.2l0.6-0.1l0.6-0.1l0.3,0.2l-0.2,0.5l-0.4,0.6l-0.4,0.4l-0.2,0.1l-0.1-0.1l-0.4-0.1l-0.5,0.1l-0.6,0.2
		l-0.4,0.4l-0.2,0.2v-0.2L364,266l-0.2-0.2l-0.3-0.2l-0.4-0.3l-0.7-0.8l-1.2-1.9l-2.2-3.1l-3.4-4.1l-4.4-4.3l-5.2-4l-6-3.9l-6.8-4.1
		l-7.1-4.5l-6.6-4.5l-5.6-3.8l-4.1-2.7l-2.4-1.5l-1-0.8l-0.1-0.6l0.5-1l0.5-1.6l0.3-1.9l0.1-1.5l-0.3-0.8h-0.4l-0.4,0.2l-0.3-0.1
		l-0.2-0.2l-0.1-0.1l0.3,0.1h1.1l2-0.5l3-1.5l3.9-2.5l5-3.9l6.7-5.5l8.7-7.1l10.6-8.7l12.1-9.5l13.2-9.5l15.3-9.3l17-8.3l24.2-11.2
		l6.1,1.5 M55.5,128.4l0.4-0.4l0.6-0.6l0.8-0.6l0.5-0.2v0.7l-0.5,1.4l-0.7,1.8l-0.6,1.3l-0.4,0.5l-0.3-0.2l-0.2-0.7l0.1-0.7l0.5-0.5
		l0.7-0.2l0.5-0.2l0.1-0.1h-0.2H56l-0.6,0.2l-0.5,0.5l-0.2,0.4h0.1l0.3-0.5l0.1-0.5H55l-0.2,0.6l-0.1,0.6l0.2,0.2l0.4-0.3l0.2-0.5
		l-0.1-0.3l-0.2-0.1l-0.2,0.1l-0.1,0.2l0.2,0.1l0.5-0.3l0.6-0.8l0.7-1.1l0.6-0.9l0.5-0.5h0.2l-0.2,0.4l-0.5,0.5l-0.5,0.6l-0.3,0.4
		l0.1,0.2l0.4,0.1l0.3-0.2l0.1-0.5l-0.2-1l-0.3-1.4l-0.2-1.3v-0.9l0.1-0.2v0.2l-0.1,0.4l-0.2,0.3l-0.2,0.2v0.2l0.2,0.6l0.4,1.1
		l0.4,1.1l0.4,0.6l0.5-0.1l0.5-0.2l0.4-0.1l-0.1,0.3l-0.6,0.3l-1-0.2l-0.8-0.6l-0.5-1l-0.2-0.9l-0.1-0.6l-0.1-0.2l-0.2-0.1l-0.2-0.2
		l-0.2-0.4v-0.4h0.3l0.6,0.6l0.7,0.8l0.5,0.8l0.2,0.4l0.1,0.1v-0.2l-0.2-0.3l-0.4-0.2l-0.6-0.1h-0.5l-0.2-0.1l0.4-0.1l1.4,0.2
		l2.1,0.8l2.1,1.1l0.8,0.6l-1.2-0.4l-2.4-1.2l-2.3-1.1l-1.4-0.5l-0.5,0.1l-0.1,0.4l0.1,0.2l0.1,0.1l0.1,0.1l0.1,0.1l0.1,0.2l0.3,0.2
		l0.2,0.2l0.1,0.3l-0.1,0.4l0.2,0.3l0.6-0.1l0.8-0.2l0.5-0.2h-0.1l-0.5,0.3l-0.6,0.4h-0.5l-0.2-0.6l-0.1-1.1l0.2-1l0.3-0.1l0.5,0.8
		l1.1,1.2l1.7,0.6l2.3-0.2l2.2-0.9l1.5-0.6l0.3,0.2l-0.7,0.9l-1.2,0.9l-0.9,0.2l-0.4-0.5l-0.2-0.8l-0.3-0.3l-0.5,0.7l-0.6,1.5
		l-0.6,2.4v3.4l1.2,4.8l3.1,6.1l5.4,7l7.9,7.5l10.8,8.2l13.7,9.3l16.1,10.3l17.4,10.3l17.7,9l16.9,7.1l15.2,5l13,3.4l10.2,2.2
		l7.4,1.1l5.1,0.2l3.5-0.7l2.2-1.6l1.1-2.1l-0.1-1.8l-0.8-0.8l-0.9,0.5l-0.6,1.5l-0.3,1.8l0.1,1.4l0.7,0.9l1.5,0.6l2.2,0.6l3,0.9
		l3.5,1.2l4.3,1.6l5.7,1.8l7.6,2.2l9.6,2.6l11.2,2.9l11.8,2.8l12.2,3l12.9,3.5l13.9,4.5l14,5.1l12.2,4.3l8.9,2.4l5.1,0.5l2.2-0.7
		l0.5-0.9l-0.2-0.5h-0.7l-0.8,0.4l-0.7,0.5l-0.5,0.4v0.3l0.3,0.2l0.3,0.2l0.4,0.1l0.4,0.2l0.5,0.3l0.6,0.3l0.4,0.1l-0.1-0.2
		l-0.7-0.5l-1-0.2l-0.9,0.2l-0.5,0.4l-0.1,0.4l0.2,0.1h0.2l0.4,0.1l0.5,0.3l0.8,0.3l0.8,0.1l0.5-0.3l-0.1-0.4l-0.5-0.4l-0.5-0.3
		l-0.2-0.4l0.2-0.5l0.4-0.3l0.1,0.1v0.6l0.1,0.8l0.2,0.8l0.2,0.6l-0.1,0.2l-0.4,0.1l-0.3-0.1l-0.1-0.2l0.1-0.3l0.1-0.2l0.2-0.1
		l0.1,0.2l-0.1,0.4l-0.2,0.5l-0.4,0.4l-0.2,0.2h-0.1l0.2-0.2l0.4-0.5l0.8-0.5l1.2-0.2l1.7,0.4l2,0.9l1.6,1.1l0.8,0.6l0.1-0.2
		l-0.4-1.2l-0.4-1.8l-0.5-1.8l-0.4-1.5l-0.3-1l-0.2-0.5l-0.4,0.1l-0.8,0.5l-1.4,0.5H370l-2.4-0.8l-3.2-1.5l-4.4-2.1l-5.7-2.4
		l-7.1-2.7l-8.3-3.2l-8.9-4l-9.2-4.8l-9.2-5.6l-9.2-6.3l-8.7-6.6l-8-6.5l-6.6-5.7l-5-4.6l-3.3-3.1l-2-1.7l-1.2-0.7l-0.8-0.2L266,201
		l-0.7-0.7l-0.5-1.1l-0.4-1.4l-0.4-1.7l-0.7-1.6l-1.1-1.3l-1.1-0.8l-0.5-0.1l0.2,0.7l0.4,1.4l-0.3,1.6l-1.6,1.4l-3.4,1.1l-5.1,1.1
		l-6.6,1.7l-8,2.6l-9.8,3.4l-11.9,4.1l-14.4,4.4l-17,4.3l-18.8,3.7l-19.4,3l-18.6,2.7l-16.1,3l-12.6,3.2l-8.9,3.2l-5.6,2.5l-3.2,1.5
		 M35.2,316.8l0.3,0.4l0.8,0.4l0.7,0.1l0.7-0.2l1.4-0.2l3.2,0.2l5.7,0.1l8.6-0.6l11.8-1.4l14.8-1.6l16.9-1.4l17.6-0.9l17.3-0.7
		l16.7-0.8l16-1.3l14.8-2.1l12.8-2.8l10.2-3.1l7.4-3l5-2.6l3.1-2.1l1.8-1.7l0.8-1.1l0.1-0.2l-0.4,0.5l-0.6,0.6l-0.5,0.3l-0.4,0.1
		l-0.2,0.1v0.2l0.4,0.2l1.1-0.3l2.4-0.9l4.2-1.5l6.3-2.1l8.6-2.5l10.6-2.8l12.4-2.8l14.1-2.2l15.2-1.5l15.7-0.6l15-0.1l13.2,0.1
		l10.6-0.1l7.6-0.6l5-1.1l2.7-1.2l1.3-1.3l0.5-0.9l0.2-0.3l0.2,0.2l0.4,0.4l0.5,0.2l0.5-0.2l0.5-0.7l0.6-1l0.8-1l0.9-0.9l0.9-0.6
		l0.8-0.1h0.8l1-0.2l1.3-0.7l1.7-0.9l1.5-0.7l1.1-0.2l0.8,0.5l0.4,1.1l-0.1,1.6l-0.7,1.8l-1.1,1.6l-1.1,1.2l-0.6,0.6l-0.1,0.2
		l0.2-0.2l0.1-0.3l-0.3-0.2l-0.5,0.2l-0.4,0.4l-0.2,0.4l-0.1-0.1l-0.2-0.4l-0.5-0.4l-0.9-0.1l-1.4,0.4l-1.7,0.8l-1.5,0.9l-0.9,0.7
		l-0.3,0.3l0.2-0.3l0.5-0.6l0.5-0.8l0.6-0.8l0.4-0.7l-0.1-0.4l-0.5-0.1h-0.7l-0.5-0.1l-0.2-0.1h0.3l0.5,0.3l0.7,0.3l0.5-0.1l0.3-0.5
		l-0.1-0.7l-0.5-0.4l-0.6,0.2l-0.5,0.4l-0.2,0.2l0.2,0.1l0.3-0.2l0.2-0.4l-0.1-0.5l-0.1-0.4h-0.1l-0.1,0.5l-0.2,0.8l-0.2,0.8
		l-0.1,0.8l0.2,0.7l0.4,0.8l0.3,0.8l0.4,0.6l0.5,0.2l0.6-0.2l0.2-0.6l-0.4-0.8l-1.1-0.8l-1.2-0.7l-1-0.4l-0.6,0.2l-0.7,0.6l-0.7,0.7
		l-0.8,0.6h-1.3l-2.2-1l-4.1-2.5l-6.9-4.1l-9.7-5.4l-11.5-6.1l-11.8-6.4l-10.8-6.6l-9.3-6.7l-8.2-6.7l-7.6-6.4l-7-5.9l-6.1-5.3
		l-4.9-4.6l-3.2-3.5l-1.5-2.4l-0.1-1.4l0.7-1.1l0.8-1.1l0.4-1.5l-0.1-1.5l-0.3-1.4l-0.1-1.1v-1.5l-0.5-0.6l-1.2-0.6l-1.5-0.6
		l-1.3-0.4l-0.5-0.1l0.4,0.3l0.5,0.7l0.1,1.1l-0.8,1.6l-2.2,2.2l-3.8,2.8l-5.8,3.3l-8,3.8l-9.9,4.3l-11.5,4.5l-12.9,4.4l-14.4,4
		l-15.2,3.3l-15.5,2.6l-15.3,2.3l-14.5,2.2l-12.9,2l-10.5,1.7l-7.6,1.4l-5,1.4l-3,1.5l-1.8,1.2l-1,0.1l-0.7-1.6l-0.5-3.2l-0.8-4.1
		l-1.4-4.3l-1.9-4l-2.1-4.1l-1.8-4.7l-0.9-5.4l0.2-5.9l1-6.3l1.3-6.8l0.9-7.3l0.3-7.7l0.1-7.9l-0.2-7.6l-0.4-6.9l-0.9-6l-1.5-5
		l-1.7-4.2l-1.7-3.4l-1.5-2.8l-1.2-2.1l-1.1-1.5l-1.1-1.1l-1.4-0.8l-1.7-0.7l-1.8-0.5l-1.5-0.5l-0.8-0.2l-0.1-0.2l0.2-0.4v-0.6
		l-0.4-0.7l-0.4-0.5l0.1,0.2l0.5,0.9l0.4,1.4l-0.4,1.4l-1.1,1.2l-1.4,0.9l-1.1,0.6l-0.8,0.3l-0.6-0.2l-0.5-0.4l-0.2-0.1l0.1,0.2
		l0.2,0.5l0.4,0.5l0.2,0.3l-0.1-0.1l-0.1-0.1l-0.1-0.2l0.1,0.1L58,129l0.2,1.2l0.1,1.3l0.2,0.9l0.2,0.2l0.1-0.4l0.1-1.1l0.2-1.5
		l0.4-1.8l0.5-1.5l0.5-0.9l0.5-0.4h0.6l0.6,0.1l0.4-0.2l-0.1-0.6l-0.7-0.8l-1.3-0.4l-1.5,0.4l-1.4,1.2l-1.1,1.7l-0.6,1.8l-0.2,1.4
		v0.7l-0.1-0.1l-0.2-0.6l-0.3-0.6l-0.1-0.4l0.2-0.1h0.3l0.2-0.1"/>
</g>
<g>
	<path fill="none" stroke="#EF25B2" stroke-width="0.75" stroke-linejoin="round" stroke-miterlimit="10" d="M523.4,281.3l0.3-0.3
		l0.4,0.1l0.2,0.3l-0.2,0.4l-0.6,0.1l-0.6-0.2l-0.5-0.5l-0.2-0.5v-0.2l0.1,0.2l0.2,0.5l0.2,0.4l-0.1,0.3l-0.4,0.2l-0.6,0.2l-0.5,0.1
		h-0.1l0.4-0.1l0.6-0.2h0.5l0.3,0.1l0.1,0.5l0.1,0.5v0.8l0.1-0.1l0.1-0.3l0.1-0.1l0.2,0.1l0.2,0.3v0.3h-0.2l-0.2-0.2l0.1-0.5
		l0.4-0.5l0.4-0.2l0.3,0.1l-0.1,0.3l-0.4,0.1l-0.4-0.2l-0.4-0.4l-0.4-0.3l-0.3,0.2l-0.2,0.5v0.4l0.2-0.1l0.4-0.7l0.2-0.9l0.1-0.8
		l-0.1-0.6l0.1-0.5l0.4-0.2h0.4l0.1,0.3l-0.2,0.3l-0.4,0.3l-0.3,0.2l-0.2,0.2l-0.2,0.3v0.1l0.7-0.2l2.3-1.1l4.5-2l6.8-3l8.4-3.8
		l9.6-4.5l10.2-5.3l10.2-6l9.8-6.5l8.6-6.7l6.7-6.7l4.3-5.9l1.6-4.7l-0.6-3.2l-2-1.9l-2-1.2l-1.2-0.9l-0.1-1.1l0.5-1.1l0.5-0.9
		l0.1-0.5l-0.1-0.2h0.1h0.1h-0.1l-0.2,0.1l-0.2,0.4l0.1,0.6l0.5,0.6l0.9,0.5l1.1,0.5l1.2,0.4l0.9,0.3l0.7,0.2l0.9,0.2l1.5,0.7
		l2.7,1.2l4.1,1.9l6,2.9l7.9,3.5l9.6,3.8l11.1,3.2l12.8,2.4l14.2,1.1l15.1,0.1l15-0.8l13.8-1.1l11.3-0.9l8.2-0.5l4.9-0.1l2.3,0.1
		l0.9,0.2l0.6,0.1l0.8-0.4l0.8-0.8l0.2-0.9l-0.6-0.8l-1.2-0.3l-1.2,0.2l-0.4,0.4l0.8,0.4l1.6,0.1l2-0.2l1.5-0.4l0.9-0.5l0.3-0.6
		l-0.1-0.5l-0.1-0.4l0.1-0.1l0.2,0.1l0.3,0.2l0.1,0.1h-0.1l0.1,0.1l0.3,0.2l0.5,0.2l0.5,0.2h0.4l-0.1-0.2l-0.5-0.3l-0.5-0.4
		l-0.4-0.4l-0.1-0.2l0.2-0.1v0.2l-0.2,0.5l-0.5,0.9l-0.7,0.8l-0.7,0.3l-0.7-0.2l-0.5-0.4l-0.2-0.3l0.1,0.1l0.4,0.4l0.2,0.5l-0.1,0.3
		l-0.4,0.2l-0.4,0.1l-0.4,0.1l0.2-0.1l0.5-0.1l0.4-0.1l0.1-0.1l-0.1-0.1l-0.1-0.2l-0.1-0.2l-0.4-0.5l-0.7-0.6l-0.8-0.5l-0.5-0.3v0.1
		l0.2,0.5l0.2,0.6l0.4,0.7l0.4,0.4l0.3,0.1l-0.3-0.2l-0.9-0.2l-1.2-0.1l-0.9,0.1l-0.3,0.1l0.1-0.2l0.2-0.5l-0.1-0.5L749,231l0.1-0.1
		l0.5,0.1l0.9,0.1h1.1l1.1-0.2l1.2-0.4l1.2-0.3l1.1-0.2l0.7,0.1l0.1,0.3l-0.5,0.4l-0.5,0.3l-0.3,0.1h0.1l0.2-0.1l0.2,0.1l0.1,0.3
		l-0.1,0.5l-0.3,0.3h-0.5l-0.5-0.2l-0.1-0.4l0.5-0.4l0.8-0.5l0.7-0.4l0.3-0.3h-0.4l-1.1,0.5l-1.4,1.1l-1.3,1.9l-0.8,2.1l-0.5,1.8
		l-0.2,1.1l-0.1,0.2l0.2-0.4l0.3-0.6l0.5-0.5l0.2-0.5l-0.2-0.2l-0.7-0.2l-0.7-0.1l-0.2-0.1h0.5l0.7,0.2l0.3,0.4l-0.2,0.4l-0.4,0.2
		v0.1l0.3,0.2l0.4,0.4l0.2,0.4v0.1l-0.3-0.2l-0.7-0.5l-0.8-0.5l-0.6-0.5l-0.1-0.4l0.5-0.3l0.9-0.2l1-0.1h0.8l0.3-0.2l-0.1-0.5
		l-0.2-0.7l-0.3-0.7l-0.4-0.4l-0.4,0.1l-0.4,0.3l-0.2,0.4l0.1,0.3l0.1-0.1l-0.2-0.5l-0.8-0.7l-0.9-0.5l-0.6,0.1v0.7l0.5,0.7l0.6,0.3
		l0.4-0.2l-0.5-0.6l-1.8-0.8l-3.5-0.7l-5.4-0.6l-7.6-0.4h-9.7l-11.9,0.1l-13.6-0.2l-14.5-1.2l-14.1-2.7l-12.5-4.4l-10.5-5.8
		l-8.5-6.6l-6.7-6.7l-5.4-6l-4-4.7l-2.6-3.1l-1.2-1.8l-0.4-0.8v-1.1l0.1-0.4l0.3-0.1l0.2,0.4v0.6l-0.2,0.5v0.2l0.4,0.1l0.5,0.3
		l0.4,0.5l-0.1,0.3l-0.3-0.3l0.1-1.6l1.1-3.2l2.5-5.1l3.2-5.7l6.1-10.3 M529.2,130.1l-0.6-0.7l-0.2-0.4l0.4-0.1l0.8,0.1l0.7-0.1
		l0.5-0.4l0.1-0.5l-0.1-0.4l-0.2-0.1l-0.1,0.1l0.2,0.1l1,0.3l1.4,0.7l1.5,1.1l0.9,1.4l0.4,1.2l-0.1,0.7l0.1,0.4l0.7,0.5l1.7,1.4
		l3.3,2.8l5.6,4.4l8.2,5.7l11,6.9l13.2,7.7l14.8,8.4l16.1,9l17.6,9.4l19.4,9.3l20.9,8.7l21.3,7.6l19.7,6.3l16.2,5.1l12.1,4l8.5,3.1
		l5.8,2.2l3.6,1.2l2.2,0.4l1.5-0.2l1.2-0.6l0.9-0.9l0.4-1.1l-0.3-0.8l-1-0.2l-1.4,0.4l-1.4,0.8l-1.2,0.9l-0.9,0.6l-0.6,0.2h-0.7
		l-0.6-0.1l-0.3-0.1l0.2,0.1h0.8l1.1-0.1h1.1l0.8,0.1l0.5,0.2l0.2,0.2l-0.1,0.2l-0.2,0.1l-0.4-0.1l-0.3-0.3l-0.1-0.2l0.2-0.2
		l0.4-0.2l0.2-0.2l-0.1-0.1h-0.4l-0.4,0.1l-0.2,0.2v0.4l-0.1,0.1l-0.2,0.1l-0.3,0.1l-0.4,0.1l-0.3,0.2l-0.1,0.2v0.1h0.3l0.7-0.2
		l1.1-0.2l1.4-0.2l1.4-0.2l0.9-0.2l0.3-0.1l-0.2,0.1L761,237l-0.5,0.2l-0.4,0.1h-0.5h-0.4v-0.1l0.4-0.3l0.5-0.5l0.4-0.6l-0.1-0.7
		l-0.3-0.5l-0.2-0.3h-0.1l-0.3,0.3l-0.7,0.6l-1.2,0.8l-1.2,0.6l-1.1,0.4h-0.8l-0.6-0.1l-0.5-0.1l-0.5,0.1l-0.5,0.3l-0.3,0.4l0.1,0.2
		l0.7,0.2l1.1,0.1l0.9-0.1l0.4-0.2H755l-0.4,0.2l-0.1,0.6l0.3,0.5l0.3,0.2h0.1l-0.4-0.1l-0.7-0.1l-0.8-0.1l-0.6-0.2l-0.2-0.3
		l0.1-0.2l0.5,0.1l0.7,0.2l0.8,0.2l0.5-0.2l0.4-0.6l0.4-1l0.3-1.2l0.1-1.4l-0.4-1.6l-1.1-2.1l-1.5-3l-1.7-3.8l-1.7-4.3l-1.3-4.2
		l-0.8-3.6l-0.2-2.8l-0.1-1.9l-0.4-1.1l-0.8-0.5l-1-0.3l-0.9-0.4l-0.5-0.6l0.1-0.8l0.5-0.9l0.7-0.8l0.5-0.6l0.2-0.1v0.4l-0.1,0.8
		l-0.1,0.8l-0.1,0.7l-0.1,0.4l0.1,0.1l0.5-0.1l0.9-0.2l1.2,0.1l0.8,1.1l-0.2,2.6l-1.9,4.2l-3.9,5.1l-5.8,5.6l-7.6,5.8l-9,6.4
		l-10.5,7.3l-12.5,8.4l-15.4,9.6l-19,10.3l-22.4,10l-24.5,8.1l-24.2,4.7l-21.7,1l-17.7-2.1l-12.9-3.8l-8.6-4.3l-5.1-3.5l-2.9-2.1
		l-1.4-0.5l-0.7,0.6l-0.2,1.1l-0.1,1.1l-0.3,0.7l-0.7,0.2l-1.1-0.2l-1.2-0.5l-1-0.5l-0.5-0.3l0.2-0.3l0.8-0.3l1-0.5l0.8-0.5l0.6-0.4
		l0.5,0.1l0.6,0.5l1,0.6l1.2,0.2l1.1-0.3l0.7-0.5l0.1-0.2l-0.1,0.1l-0.1,0.1h0.1l0.3-0.2l0.3-0.1l0.1,0.1l-0.2,0.4l-0.4,0.2
		l-0.4,0.1l-0.1,0.1l0.1,0.2l0.1,0.3l0.1,0.3l-0.1,0.3l-0.2,0.3l-0.2,0.4l-0.2,0.5l-0.1,0.4l-0.2-0.1l-0.3-0.3l-0.5-0.4l-0.6-0.1
		l-0.5,0.2l-0.2,0.3v0.1l0.1-0.1v-0.4l-0.1-0.5l-0.3-0.5l-0.5-0.3l-0.7-0.1l-0.7,0.1l-0.6,0.2l-0.4,0.1v0.1l0.4,0.1l0.6-0.1l0.7-0.2
		l0.5-0.1l0.2,0.1l-0.1,0.2l-0.2,0.1l-0.2-0.2l0.1-0.5l0.2-0.5l0.3-0.4l0.2-0.1l0.1,0.2l-0.1,0.2l-0.1,0.2v0.1v-0.1l0.1-0.1h0.2
		l0.3,0.2l0.4,0.4l0.4,0.5l0.3,0.3h0.4l0.3-0.3l0.3-0.4l0.1-0.3l-0.3,0.1l-0.7,0.4l-0.8,0.5l-0.7,0.4l-0.4,0.2h0.1l0.5-0.1l0.5-0.2
		l0.4-0.1h0.1H522l-0.1-0.2l0.1-0.5l0.1-0.5l0.2-0.4l0.1,0.1l0.1,0.4l0.1,0.4l0.1,0.3l0.2,0.1l0.5,0.1l0.7,0.2l0.9,0.2l0.9,0.2
		l0.5,0.1l-0.1,0.1l-0.7,0.1h-0.9l-0.8-0.2l-0.4-0.4v-0.4 M750.2,236.7l-0.1,0.5l-0.2,0.4l-0.2,0.2l-0.1-0.2l0.2-0.4l0.6-0.3
		l0.8-0.1l0.7,0.1l0.2,0.2l-0.4,0.1l-0.8,0.1l-1,0.2l-0.9,0.2l-0.6,0.4l-0.3,0.4v0.5l0.4,0.5l0.7,0.3l0.5,0.1h0.2h-0.2l-0.5,0.2
		l-0.4,0.5l0.1,0.5l0.5,0.3l0.7,0.1h0.6l0.1-0.1h-0.5l-0.9-0.1l-0.8-0.1l-0.2-0.1l0.2,0.2l0.3,0.3l0.4,0.2l0.3-0.1l0.1-0.3l-0.1-0.5
		l-0.4-0.3l-0.3-0.2l0.1-0.2l0.5-0.1l0.9-0.2l0.8-0.2l0.4-0.3l-0.1-0.4l-0.7-0.3h-0.9l-0.9,0.2l-0.6,0.4l-0.2,0.2l0.1-0.1l0.4-0.4
		l0.5-0.4l0.6-0.3l0.6-0.2l0.5-0.1l0.4-0.2l0.4-0.2l0.3-0.4l0.6-0.4l1-0.5l1.5-0.7l1.8-0.8l1.7-0.8l1.2-0.6l0.6-0.3l-0.1,0.2
		l-0.9,0.7l-1.8,1l-2.5,1.1l-3,1.3l-3.4,1.8l-3.9,2.5l-5.1,3.5l-6.5,4.6l-8.1,5.6l-9.2,6.9l-9.3,7.9l-8.6,8.1l-7.4,7.5l-6,6.3
		l-5,4.7l-4,3.3l-3.2,2l-2.4,1l-1.7,0.6l-1.1,0.5l-0.8,0.5l-0.5,0.5l-0.4,0.3l-0.2,0.2l0.2,0.2l0.5,0.5l0.8,0.4l0.6-0.1l0.5-0.8
		l0.4-1.4l0.3-1.4l0.3-1.1l0.1-0.4l-0.4,0.5l-0.7,1.2l-0.8,1.5l-0.5,1.3v0.7l0.2-0.1l-0.2-0.7l-1.4-1.1l-3.2-1.7l-5.7-2.5l-8.2-3.6
		l-10.3-4.8l-11.7-6l-12.4-7.1l-13.3-8l-14.6-9l-16.2-9.8L552,241.5l-18-11.9l-17.1-12.9l-14.4-13.1l-10.9-12l-7.1-9.8l-4.4-7
		l-2.6-4.5l-1.5-2.4l-0.9-0.4l-0.8,0.9l-0.8,1.7l-0.8,1.4l-0.5,0.2l0.1-1.1l0.7-1.7l0.8-1.4l0.5-0.5l-0.1,0.2l-0.4,0.6l-0.4,0.5
		l0.1,0.4l0.4,0.2l0.7,0.1l0.8-0.1l0.8-0.4l0.7-0.8l0.5-1.2l0.4-1.9l0.2-2.7v-3.4l-0.3-3.5l-0.6-3.2l-0.6-2.6l-0.3-1.8l0.2-1
		l0.8-0.2l0.9,0.5l0.8,0.7l0.4,0.3l-0.1-0.4l-0.4-1.1l-0.5-1.2l-0.5-0.5l-0.4,0.2v0.6l0.1,0.4l0.1-0.1l-0.1,0.1v0.5l0.2,0.8l0.3,0.5
		l0.2-0.1l-0.2-0.5l-0.5-0.5L477,146l-0.5-0.2l-0.1-0.2l0.2,0.1l0.4,0.4l0.4,0.5l0.1,0.4l-0.1,0.2l-0.2-0.2l-0.1-0.3l-0.1-0.2
		l0.1-0.1l0.1-0.1l0.2-0.2l0.3-0.4l0.2-0.2v0.3l-0.2,0.6l-0.3,0.9l-0.4,0.8l-0.5,0.6l-0.5,0.6l-0.5,0.8l-0.4,1.1v0.9l0.5,0.4h0.7
		l0.6-0.5l0.5-0.9l0.4-1.3l0.4-1.7l0.3-1.5l0.1-1.2l-0.1-0.6l-0.4-0.1l-0.2,0.3l-0.1,0.5l0.1,0.2l0.1-0.1l-0.2-0.4l-0.4-0.4
		l-0.7-0.1l-0.5,0.2v0.2h0.5l0.8-0.5l0.6-0.6l0.3-0.5l-0.1-0.2l-0.5,0.2l-0.7,0.3l-0.5,0.4l0.5,0.6l2.4,0.9l4.7,1.1l6.6,0.8l7.6,0.2
		l7.8-0.5l7.6-1l6.9-1.5l5.6-1.8l3.6-1.5l1.7-0.8l0.4-0.2l-0.2,0.1l-0.2-0.1l-0.2-0.2l-0.1-0.2l0.2,0.2l0.5,0.3l0.9,0.3l0.9,0.1
		l0.7-0.1l0.4-0.1h0.1l0.1,0.1l0.1,0.2l-0.1,0.2l-0.3,0.2l-0.4,0.2l-0.4,0.3l-0.1,0.4l0.3,0.5l0.5,0.5l0.5,0.5l0.1,0.5l-0.4,0.6
		l-0.5,0.6l-0.5,0.5l-0.4,0.3l-0.6,0.2l-1.1,0.1l-1.4-0.3l-1-0.8l-0.3-1.2l0.4-1.3l0.7-1l0.4-0.8l-0.5-0.8l-1.4-1l-1.8-1.2l-1.6-1.3
		l-1-1l-0.4-0.5l0.2-0.1l0.4,0.2l0.4,0.4l0.1,0.4l-0.1,0.2l-0.2,0.1l-0.1,0.1l-0.1,0.1l-0.1,0.1l0.1,0.1l0.3,0.2l0.6,0.4l0.8,0.2
		l1-0.2l1.1-0.8l1.1-1l1-1.2l0.6-1l0.2-0.9l-0.3-0.9l-0.7-0.9l-0.8-0.8 M618.9,295.4l0.9-0.4l-0.1,0.1l0.3,0.5l0.2,0.9l0.1,1.2
		l-0.3,1.7l-0.8,2.5l-1.6,3.5l-2.4,4.3l-3.8,4.8l-5.4,5l-6.9,4.8l-7.3,4.7l-6.6,4.3l-5.2,3.7l-3.5,3l-2.2,2.1l-1.4,1.1l-0.9,0.4
		h-0.7l-0.5,0.1l-0.2,0.5l0.1,0.5l0.4,0.2h0.5l0.4,0.1l0.2,0.5l-0.2,0.8l-0.7,0.8l-1.1,0.7l-1.4,0.7l-1.1,0.8l-0.5,0.8l-0.1,0.6
		l-0.1,0.2l-0.5,0.1l-1.1,0.4l-1.8,0.9l-2.7,1.5l-3.5,2.3l-4.5,3.2l-5.8,4.5l-7.3,5.7l-8.4,6.4l-9.5,6.7l-10.5,6.7l-11.2,6.3
		l-10.8,5.1l-8.7,3.4l-6.1,1.8l-3.5,0.7l-2,0.4l-1.4,0.4l-1.2,0.4l-1,0.2h-0.4l0.4,0.2l1.2,0.6l1.7,0.7l2,0.5h1.7l0.9-0.1l0.1-0.2
		l-0.6-0.2l-1.1-0.4l-1-0.6l-0.7-0.3l-0.3,0.3l0.2,0.9l0.4,0.7h0.2l-0.1-0.6l-0.3-0.8l-0.4-0.2l-0.3,0.3v0.6l0.4,0.5l0.6,0.2
		l0.7-0.2l0.7-0.5l0.4-0.8l0.1-0.8l-0.1-0.5l0.1-0.2l0.2,0.2l-0.1,0.5l-0.6,0.5l-0.8,0.4l-0.7,0.2l-0.4-0.2l0.1-0.4l0.4-0.4l0.4-0.4
		l0.4-0.4l0.1-0.4l-0.2-0.2l-0.2,0.2l-0.1,0.4l-0.2,0.5l-0.4,0.2l-0.7,0.1l-0.8,0.1l-0.7,0.1l-0.6,0.1l-0.5-0.2l-0.3-0.5l-0.1-0.4
		l0.2-0.1l0.6,0.2l0.8,0.5l1,0.6l0.9,0.5l0.7-0.1l0.2-1.3l-0.1-2.8l-0.1-4.5l0.6-6.1l1.7-7.6l3.1-8.7l4.3-9.5l5.3-9.5l6.1-8.8
		l6.6-7.7l6.7-6.7l6.4-6l5.5-5.3l4.5-4.3l3.5-3.1l2.7-2l2.2-1.4l2.1-1l2.1-0.8l1.8-0.4l1.2-0.1l0.4-0.1l-0.3-0.1l-0.5-0.2l-0.4-0.1
		l-0.4,0.1l-0.3,0.4l-0.4,0.6L535,312l0.2,0.4l0.6,0.1l0.5-0.3l0.1-0.4l-0.5-0.5l-0.6-0.4l-0.4-0.6l0.5-0.8l1.8-1l3.5-1.1l5.8-0.9
		l8.4-0.8l11.1-0.8l13.2-1.2l14.5-2l15-3.2l15.4-4.8l16.4-6.3l18-7.7l19.7-8.9l20-9.3l18-8.2l14.4-6.1l10.5-3.7l7.3-1.7l4.7-0.3
		l2.4,0.4l0.4,0.3l-1.1-0.2l-1.7-0.8l-1.4-1.2l-0.6-1.3v-0.9l0.3-0.4l0.2,0.1l0.1,0.3l-0.3,0.2l-0.6-0.1l-0.8-0.1l-0.8-0.2l-0.7-0.1
		l-0.4-0.1V237l0.4-0.1l0.8,0.1l0.8,0.1l0.5,0.2v0.2l-0.3,0.4l-0.4,0.4l-0.3,0.3l-0.2,0.1l-0.2,0.1l-0.4,0.1l-0.5,0.2l-0.6,0.2
		l-0.6,0.1h-0.6l-0.5-0.2l-0.4-0.2l-0.1-0.1h0.1l0.2,0.1l0.1,0.1h0.1l0.2,0.1l0.4,0.2l0.6,0.1l0.7,0.1l0.4,0.1l0.1,0.2l-0.2,0.2
		h-0.2l-0.1-0.2l0.3-0.4l0.5-0.2l0.5-0.1l0.2-0.1l-0.1-0.2l-0.3-0.4l-0.2-0.2l0.1-0.1l0.3,0.2l0.3,0.2l0.2,0.1l0.1-0.4l0.1-0.7
		l0.2-0.5l0.2-0.2l0.1,0.2"/>
	<path fill="none" stroke="#EF25B2" stroke-width="0.75" stroke-linejoin="round" stroke-miterlimit="10" d="M521.1,228.3l-0.2,0.3
		h0.4l0.8-0.4l0.9-0.5l1-0.3l0.9-0.1h0.9l0.9,0.2l0.5,0.3v0.4l-0.4,0.3l-0.2,0.1l0.2-0.1l0.3-0.3l-0.2-0.3l-0.7-0.1l-1.1,0.1
		l-0.8,0.2l-0.3,0.2v0.2l-0.1,0.1l-0.4,0.1l-0.6,0.1l-0.6,0.2l-0.3,0.2l0.1,0.1l0.5-0.2l0.5-0.2l0.1-0.1l-0.5,0.1l-1.2,0.1l-1.3,0.2
		l-0.7,0.4l0.1,0.8l0.8,1.1l0.9,0.7l0.9-0.1l0.9-1l1-1.3l1.1-0.8h0.9l0.2,0.5l-0.4,0.5l-0.8,0.2l-0.8-0.1l-0.6-0.1l-0.3-0.1
		l-0.1-0.1l0.1-0.1l0.1-0.1l-0.1-0.3l-0.1-0.7v-1l-0.1-1.2l-0.3-0.9l-0.8-0.7l-1.1-0.3l-1,0.1l-0.5,0.7l0.3,1.1l0.9,1.1l1.2,0.6h1.2
		l0.8-0.5l0.2-0.7l-0.4-0.9l-0.5-0.9l-0.5-0.7l-0.2-0.4v0.1l0.3,0.3l0.5,0.5l0.8,0.6l0.8,0.8l0.8,0.9l0.9,0.9l1.4,1.2l2.4,1.4
		l3.7,2.1l5.4,3.1l7.4,4.5l9.5,6.3l11.8,8l13.8,8.9l15.6,8.7l17,7.5l17.8,5.6l17.9,3.4l16.9,1.6l14.7,0.1l12-1l9.2-1.4l6.6-1.4
		l4.2-1.1l2.1-0.8l0.5-0.5l-0.5-0.2l-0.9-0.1l-0.7,0.2l-0.4,0.2l0.1,0.4l0.3,0.5l0.2,0.5v0.4l-0.1,0.2l0.2-0.1l0.5-0.2l0.8-0.2
		l0.8-0.2l0.8-0.2l0.9,0.1l1.4,0.2l2.1,0.1l2.9-0.1l3.8-0.4l4.6-0.7l5-0.8l4.5-0.6l3.4-0.2l1.8,0.2l0.4,0.4l-0.5,0.3l-1.1,0.1
		l-1.1-0.1h-0.8l-0.4,0.1l-0.2,0.2l-0.1,0.2l-0.1,0.2l0.2,0.4l0.5,0.3l0.5,0.3l0.3,0.1l-0.2-0.1l-0.5-0.1l-0.7-0.1l-0.5,0.1
		l-0.2,0.1l0.2,0.1l0.6,0.1l0.8,0.1l0.7-0.1l0.4-0.3l0.1-0.4l-0.1-0.4l-0.2-0.1l-0.1,0.1l0.2,0.2l0.4,0.2l0.5,0.2l0.4,0.1l0.2-0.1
		l-0.1-0.3l-0.3-0.5l-0.4-0.5l-0.2-0.5l-0.1-0.2l0.1,0.1l-0.1,0.1l-0.2,0.1l-0.2,0.2L746,284l-0.3,0.7l-0.2,0.6l-0.1,0.2l-0.1-0.3
		l-0.3-0.7l-0.2-0.7l-0.1-0.4l0.1-0.1l0.4,0.1l0.3-0.1v-0.4l-0.4-0.5l-0.4-0.4l-0.2-0.1h0.1h0.3l0.4-0.1l0.3-0.2l0.2-0.4l0.1-0.4
		v-0.2v0.5l0.1,0.7l0.2,0.6l0.3,0.5l0.3,0.1l0.1-0.1l-0.2-0.2l-0.7-0.3l-0.9-0.3l-1-0.2l-1-0.2l-0.8-0.2l-0.6-0.2l-0.4-0.2v-0.1
		l0.6-0.2h1.2l1.4,0.3l1.2,0.6l0.9,0.9l0.7,0.7l0.8,0.2l1,0.1h0.9h0.5v-0.2l-0.4-0.4l-0.4-0.4l-0.1-0.2l0.4,0.1l0.4,0.2l0.3,0.2
		l-0.1,0.2l-0.4,0.2l-0.7,0.1l-0.6,0.1l-0.3-0.1l0.2-0.2l0.5-0.2l0.6-0.1l0.1-0.2l-0.5-0.2l-0.7-0.2l-0.2-0.3l0.5-0.2l1.1-0.1
		l1.3,0.1l0.9,0.1l0.5,0.2l0.1,0.2l-0.2,0.2l-0.3,0.1l-0.2,0.1h-0.1l-0.2-0.1l-0.5-0.1h-0.7l-1,0.2l-1.2,0.5l-1.1,0.7l-0.6,0.8
		l-0.1,0.6l0.1,0.4l-0.1,0.2l-0.8-0.1l-2-0.1l-3.5,0.2l-5.5,0.6l-7.6,1.2l-9.7,1.8l-11.5,2.1l-12.2,2l-11.8,1.9l-10.2,2.1l-8.2,2.4
		l-6.3,2.5l-4.5,2.1l-3.3,1l-2.7-0.1l-2.4-0.8l-2-0.8l-1.2-0.3l-0.3,0.4l0.6,0.9l1.2,1.1l1.3,1.1l1,0.9l0.6,0.5l0.2,0.2l-0.1-0.2
		l-0.4-0.4l-0.8-0.6l-0.8-0.5l-0.8-0.3l-0.5-0.2l-0.3-0.7v-1.6l0.5-2.6l1.7-3.9l3-6l4.2-8.9l4.7-11.9l4.5-14.4l4.3-16.6l4.6-18.7
		l5.7-20.6l7.1-21.9l8.4-21.8l8.7-19.8l7.6-16.3l5.5-12.5l3.2-9.2l1.5-6.6l0.6-4.4l0.5-4.7l0.1,2.5 M488.9,94.4l0.1,3.3l-0.2,4.8
		l0.3,6.6l1.5,8.6l3.4,10.6l5.3,12.5l7.3,13.9l9.2,14.3l11,13.6l12.6,12.2l13.7,10.6l14.4,9.2l14.1,7.6l12.9,5.6l10.6,3.7l7.8,2.2
		l4.8,1.1l2.4,0.6l1.1,0.4l0.6,0.4l0.8,0.6l0.8,0.9l0.6,0.9l0.1,0.5l-0.4-0.1l-0.8-0.7l-0.8-1.1l-0.7-1.3l-0.2-1.2v-1.1l0.1-0.7
		l0.2-0.1l0.7,0.8l1.8,1.4l3.2,1.8l5,1.9l6.7,2.4l8.3,3.2l9.6,4.3l10.3,5.3l11.3,5.8l12.5,5.7l13.7,5.4l14.1,4.8l12.8,4.1l9.6,3.1
		l5.7,2.1l2.5,1.1l0.7,0.3l0.1-0.2v-0.5l-0.3-0.4l-0.7-0.2l-0.9-0.2l-1.1-0.1l-0.8-0.1l-0.6-0.1l-0.3-0.1l0.1,0.2l0.3,0.4l0.5,0.8
		l0.5,1l0.2,1l0.1,0.6l0.1,0.2l0.2-0.2l0.5-0.4l0.7-0.3l0.6-0.2l0.4-0.3l0.2-0.4l0.1-0.5l0.3-0.5l0.4-0.4l0.3-0.4l-0.2-0.4l-0.8-0.1
		l-1,0.1l-0.9,0.3l-0.5,0.5l-0.5,0.5l-0.6,0.4l-0.5,0.4l-0.2,0.5l0.4,0.6l0.7,0.5l0.8,0.3h0.7l0.6-0.2l0.5-0.2l0.2-0.2l0.1-0.2
		l0.1-0.2v-0.1l-0.2,0.1l-0.7,0.3l-0.8,0.3l-0.6,0.3l-0.2,0.2v0.4H747l-0.1-0.1l0.1-0.3l0.2-0.3l0.6-0.1l0.8,0.2l1,0.6l1,0.8
		l0.7,0.8l0.3,0.5l-0.4,0.2l-0.8-0.2l-0.9-0.2h-0.7l-0.5,0.1l-0.5-0.2l-0.4-0.7l-0.3-0.9v-0.9l0.4-0.7l0.4-0.2l0.3,0.2l0.1,0.3
		l-0.2,0.4l-0.5,0.4l-0.6,0.2l-0.7,0.2h-0.4h0.1l0.5,0.1l0.8,0.1l0.9,0.1l0.8,0.2l0.4,0.2l-0.1,0.4l-0.3,0.6l-0.2,0.5l-0.1,0.1
		l-0.1-0.5l-0.4-0.9l-0.5-1l-0.7-0.7l-0.5-0.4l-0.3,0.1l-0.4,0.3l-0.9-0.1l-1.8-1.3l-2.7-2.8l-3.4-4.2l-3.8-5.1l-4.7-5.6l-6.3-5.8
		l-8.3-6l-9.9-6l-10.4-5.5l-9.8-4.6l-8.7-3.7l-7.6-2.8l-6.3-1.9l-4.8-1.3l-3.1-0.6l-1.7-0.1l-0.5,0.2l0.2,0.1h0.4l0.3,0.1l-0.1,0.2
		l-0.6,0.2l-1,0.1l-1.1-0.2l-0.8-0.2l0.1-0.1l0.9,0.1l1.5,0.3l1.4,0.3l0.9,0.2l0.4,0.1l-0.1,0.1l-0.7,0.1l-2-0.2l-3.8-0.3l-5.9-0.3
		l-7.6-0.1l-8.7,0.2l-9.3,0.2l-10,0.2h-10.9l-11.9-0.3l-12.8-0.5l-13-0.6l-12-0.4l-9.5-0.1l-6.4,0.3l-3.5,0.4l-1.7,0.1l-0.4-0.5
		l0.2-1.1l0.5-1.3l0.6-1.1l0.4-0.7l0.2-0.2l0.2,0.1l0.3,0.2l0.4,0.1l0.5-0.1l0.2-0.1l-0.1-0.1l-0.3,0.1l-0.2,0.2l0.1,0.2l0.2,0.1
		l0.1,0.1l-0.1,0.1l-0.3,0.1h-0.5l-0.6-0.1l-0.5-0.1l-0.5-0.1l-0.4-0.1l-0.2,0.1l-0.1,0.1l0.2,0.2l0.2-0.1l0.1-0.4l-0.2-0.6
		l-0.2-0.5l-0.4-0.3l-0.2,0.1l0.1,0.6l0.5,0.9l0.8,1.1l0.9,1l0.7,0.6l0.3,0.2l-0.3-0.2l-0.7-0.6l-0.7-0.7l-0.4-0.6v-0.2l0.3,0.3
		l0.4,0.4l0.2,0.1l0.1-0.4l-0.1-0.5l-0.2-0.4l-0.4-0.1l-0.6,0.2l-0.7,0.2l-0.8,0.2l-0.8,0.3l-0.5,0.3l-0.1,0.1l0.4-0.1l0.6-0.2
		l0.7-0.3l0.5-0.4l0.5-0.4l0.4-0.2h0.5l0.5,0.2l0.2,0.3l-0.2,0.2h-0.6l-0.7-0.2l-0.7-0.4l-0.5-0.4l-0.6-0.3l-0.8-0.1h-0.9l-0.6,0.1
		l-0.1,0.1h0.6l0.9,0.1l0.9,0.1l0.7,0.1h0.5l0.3-0.1v-0.1h-0.1l-0.1,0.2l0.1,0.2l0.4,0.1l0.5-0.1l0.5-0.1l0.4,0.1l0.1,0.2l0.1,0.2
		l0.2,0.1h0.4l0.4-0.1l0.2,0.2l-0.1,0.5l-0.4,0.6l-0.7,0.4h-1l-1-0.2l-0.9-0.1l-0.7,0.1l-0.4,0.4 M748.1,285.1v-1l0.3-0.9l0.5-0.6
		l0.7-0.2l0.7,0.1l0.3,0.4l-0.4,0.7l-0.9,0.9l-0.9,0.9l-0.5,0.8l-0.2,0.8l-0.2,1.1l-0.2,1.3l0.1,1.1l0.5,0.6l0.6,0.2l0.4,0.2v0.4
		l-0.2,0.2h-0.4l-0.1-0.4v-0.4l0.2-0.2l0.3,0.1l0.3,0.3l0.4,0.3l0.2,0.2l0.1,0.2l-0.1,0.1h-0.2l-0.6-0.1l-0.8-0.3l-0.8-0.7l-0.4-0.8
		v-0.8l0.4-0.2l0.6,0.2l0.5,0.4l0.5,0.4l0.2,0.1l-0.2-0.1l-0.5-0.4l-0.6-0.6l-0.1-0.7l0.4-0.7l0.6-0.5l0.7-0.3l0.7-0.2l0.5-0.4
		l0.3-0.5l-0.1-0.5l-0.3,0.1l-0.3,0.7l0.1,1l0.5,0.8l0.8,0.5l1,0.2l1.6-0.1l2.4-0.4l3.1-0.4l3.1-0.1l2.1,1l0.1,2.4l-2,3.5l-3.1,3.7
		l-3.2,3l-2.6,1.8l-1.8,0.9l-0.7,0.6l0.3,0.8l1.2,1.1l1.5,1l1.4,0.6l1.1,0.2l0.8-0.4l0.9-0.9l1.1-1.4l1.1-1.6l0.7-1.7l0.5-1.4
		l0.2-0.9l-0.1-0.3l-0.5,0.4l-1.2,0.9l-1.8,1.3l-2.2,1.4l-2.4,1.2l-2.2,0.6l-1.9-0.1l-1.9-1.1l-2.5-1.9l-3.7-2.8l-4.9-3.7l-6.2-5
		l-7.7-6.6l-9.6-8.2l-11.6-9.5l-13.2-10l-14.4-9.7l-14.8-8.6l-14.9-7.1l-14.4-5.6l-13.4-4.1l-11.9-2.7l-10.1-1.5l-8.2-0.4l-6.1,0.1
		l-4.1-0.1l-2.5-0.4l-1.1-0.6l0.1-0.5l0.9-0.4l1.3-0.3l1.1-0.4l0.8-0.4l0.3-0.2v-0.1l-0.1-0.1l0.1-0.1l0.4-0.2h0.5l0.1,0.2l-0.4,0.2
		l-0.6-0.2l-0.8-0.7l-0.8-1.4l-1.3-2.1l-2.2-2.8l-3.2-3.8l-4.1-4.9l-4.3-6.1l-4.1-7.6l-3.8-9l-3.5-10.6l-3.5-11.6l-3.8-11.9
		l-4.1-11.3l-4.7-10.3l-5-8.7l-4.8-6.7l-4-4.5L516,98l-1.4-1.1l-0.2-0.2l0.7,0.2l1.1,0.3l0.9,0.2l0.5,0.2l0.1-0.2l-0.4-0.5l-0.4-0.9
		l-0.5-1l-0.5-0.9l-0.5-0.5l-0.4-0.2l-0.2,0.1V95l-0.1,0.5v0.1l0.1-0.2l0.2-0.3l0.2-0.3l0.1-0.1l-0.1,0.2l-0.1,0.4l0.1,0.6l0.2,0.7
		l0.2,0.5l-0.1,0.2l-0.5-0.3l-0.8-0.7l-0.8-0.8l-0.2-0.5h0.5l0.8,0.4l0.4,0.5l-0.3,0.5l-0.6,0.2l-0.6-0.1l-0.3-0.4l-0.2-0.4
		l-0.4-0.3l-0.5-0.1l-0.8,0.1h-1.1l-1.3-0.1l-1.2-0.2l-0.8-0.1h-0.2l0.1-0.1l0.1-0.2l-0.2-0.4l-0.5-0.4l-0.8-0.3l-0.9-0.1l-0.5-0.1
		l0.2-0.1l0.8-0.1l0.9,0.1l0.5,0.2l0.2,0.1l-0.1-0.1l-0.2-0.2l-0.2-0.4l0.1-0.3l0.5-0.1l0.9,0.4l1.1,0.7l1.1,0.9l0.8,1l0.5,0.8
		l0.6,0.5l0.7,0.1l0.8-0.2l0.6-0.6l0.2-0.5l-0.2-0.1l-0.1,0.3l0.2,0.5l0.6,0.3h0.8l0.6-0.1l0.4-0.2l0.2-0.4l-0.1-0.5l-0.2-0.5
		l-0.3-0.3l-0.3,0.1l-0.2,0.5l-0.2,0.8l-0.1,1l-0.1,1.1l-0.2,0.9l-0.4,0.7l-0.5,0.4l-0.8,0.2l-1.4,0.1l-2.2-0.1l-2.8-0.4l-2.3-0.6
		l-0.7-0.6l1.1-0.1l2.2,0.5l2.2,1.1l1.9,1.1l1.5,0.8l1.1,0.2l0.5-0.1l-0.4-0.2l-1.1-0.2l-1.4-0.4l-1.5-0.8l-1.8-1.1l-2-1.1l-2.2-1
		l-2.2-1.2l-2.2-1.3l-2.2-1.4l-2.2-1.1l-1.9-0.5l-1.5-0.1h-1.1l-0.9,0.1l-0.7-0.1l-0.3-0.3l0.1-0.5l0.4-0.5l0.5-0.5l0.7-0.1l0.7,0.1
		l0.6,0.1l0.5-0.2l0.2-0.5v-0.8l-0.1-0.8l-0.2-0.5l-0.2-0.2l-0.1,0.1l-0.1,0.2v0.3l0.1,0.2l0.3,0.2l0.4,0.3v0.6l-0.6,0.6l-1.1,0.2
		l-1.2-0.4l-1.1-0.9l-1.2-0.9l-1.2-0.6l-1.1-0.2l-0.6,0.2l0.2,0.4l0.8,0.6l0.9,0.8l0.9,1l0.6,1.2l0.6,1.6l0.5,2.3 M623.5,254.4
		l7-0.6l-3.1,0.4l-0.4-0.4l-0.5-0.7l0.1-0.7l0.5-0.4l0.6-0.1l0.3,0.1l-0.4-0.1l-0.4-0.2l-0.2-0.1l0.1,0.1l0.2,0.2l0.4,0.2l0.5,0.2
		l0.7,0.2l0.6,0.4l-0.1,0.7l-1.3,1.2l-2.7,1.6l-4.3,1.9l-5.9,2.4l-7.4,3.2l-8.6,4.5l-9.3,6l-9.9,7.1l-10.8,7.7l-12.2,8.3l-13.8,9
		L528,316l-15.2,9.2l-14.2,7.9l-12.1,5.8l-9.2,3.7l-6.3,2.3l-4.1,1.8l-2.5,1.8l-1.1,1.6l0.1,0.9l0.9,0.2l1.1-0.3l0.6-0.4l0.1-0.2
		l-0.1,0.4l-0.1,0.7l-0.1,0.6l-0.1-0.1V351l0.1-1.1l0.2-0.8l0.1-0.2l-0.4,0.4l-0.4,0.8L465,351v0.5l0.1,0.1l0.1,0.1l-0.4,0.2
		l-0.5,0.2l-0.2,0.2l0.4-0.1l0.9-0.1l1.1-0.1l0.7-0.1l0.2-0.3l-0.1-0.3l-0.2-0.2l-0.2,0.1l-0.2,0.2l-0.3,0.1l-0.5-0.2l-0.5-0.5
		l-0.5-0.8l-0.4-0.6l-0.4-0.3l-0.4,0.1l-0.2,0.4l0.1,0.6l0.5,0.5l0.7,0.1l0.7-0.2l0.6-0.4l0.4-0.3l0.1-0.2l-0.2-0.2l-0.2-0.2
		l-0.1,0.1l0.1,0.6l0.2,0.9l0.1,0.9l0.2,0.4l0.3-0.3l0.4-0.8l0.2-0.8l-0.2-0.4h-0.6l-0.9,0.2l-0.8,0.1l-0.6-0.1l-0.1-0.3l0.3-0.4
		l0.3-0.4l-0.1-0.5l-0.8-1.1l-1.4-2.2l-2-3.7l-2.5-4.8l-2.7-4.9l-2.5-4.3l-1.9-3.1l-1.3-2.1l-0.9-1.3l-0.5-0.8l-0.2-0.3l0.2-0.1
		l0.5,0.1l0.7,0.2l0.8,0.1l0.8-0.2l0.6-0.8l0.4-1.3l0.1-1.5l-0.1-1.2l-0.2-0.4l-0.2,0.2v0.5l0.2,0.2l0.4-0.2l0.6-0.2l0.7,0.2
		l0.6,0.8l0.5,1.2l0.5,1.4l0.8,1.8l1.9,2.2l3.7,2.5l5.9,2.2l8.4,1.4l11,0.9l13.9,1.7l16.9,3.4l19.3,4.9l20.6,4.7l21.3,2.8l21.6,0.1
		l21.1-2.2l19-3.4l15.2-3.7l11-3.4l6.9-2.6l3.7-1.7l1.2-0.9l-0.4-0.5l-1.2-0.7l-1.5-0.8l-1.2-0.7l-0.8-0.4H673l-0.2,0.2l0.1,0.4
		l0.5,0.4l0.8,0.2l0.6-0.1l0.5-0.6l0.4-1.1l0.5-1.3l0.8-1.3l1.4-1.1l2.2-0.7l3.2-0.6l4.3-1.1l5.4-2l6.4-3.2l7.4-4.2l8.4-4.7l9-4.5
		l8.8-3.9l7.3-2.8l5-1.9l2.6-1.3l0.8-0.9v-0.6l-0.1-0.2l-0.1,0.1h-0.2l-0.5-0.2l-0.7-0.2l-0.6-0.1l-0.5,0.1l-0.1,0.1h0.2l0.4-0.1
		l0.1-0.1h-0.3l-0.5,0.1l-0.2,0.1l0.1,0.1l0.3,0.1l0.3,0.1h0.2l-0.1,0.1l-0.1,0.1h-0.1l-0.1-0.3l-0.1-0.5l-0.2-0.4h-0.2l-0.1,0.4
		v0.5l0.2,0.4h0.6l0.8-0.4l0.7-0.6l0.4-0.5l-0.3-0.2h-0.7l-0.7-0.1l-0.2-0.2l0.3-0.4l0.7-0.3h0.8l0.6,0.1l0.4-0.2l0.3-0.6l0.3-0.9
		l0.2-0.7l-0.2-0.2l-0.6,0.2h-0.6l-0.4-0.6"/>
</g>
</svg>
