<?xml version="1.0" encoding="utf-8"?>
<!-- Generator: Adobe Illustrator 16.0.0, SVG Export Plug-In . SVG Version: 6.00 Build 0)  -->
<!DOCTYPE svg PUBLIC "-//W3C//DTD SVG 1.1//EN" "http://www.w3.org/Graphics/SVG/1.1/DTD/svg11.dtd">
<svg version="1.1" id="Layer_1" xmlns="http://www.w3.org/2000/svg" xmlns:xlink="http://www.w3.org/1999/xlink" x="0px" y="0px"
	 width="472px" height="158.5px" viewBox="-7 -8.5 472 158.5" enable-background="new -7 -8.5 472 158.5" xml:space="preserve">
<line fill="none" stroke="#000000" stroke-width="0.5" stroke-miterlimit="10" x1="42.221" y1="130" x2="42.221" y2="136"/>
<text transform="matrix(1 0 0 1 34.4014 147.5195)" font-family="'ArialMT'" font-size="12">&apos;45</text>
<line fill="none" stroke="#000000" stroke-width="0.5" stroke-miterlimit="10" x1="73.517" y1="130" x2="73.517" y2="136"/>
<text transform="matrix(1 0 0 1 65.6978 147.5195)" font-family="'ArialMT'" font-size="12">&apos;50</text>
<line fill="none" stroke="#000000" stroke-width="0.5" stroke-miterlimit="10" x1="104.813" y1="130" x2="104.813" y2="136"/>
<text transform="matrix(1 0 0 1 96.9941 147.5195)" font-family="'ArialMT'" font-size="12">&apos;55</text>
<line fill="none" stroke="#000000" stroke-width="0.5" stroke-miterlimit="10" x1="136.11" y1="130" x2="136.11" y2="136"/>
<text transform="matrix(1 0 0 1 128.291 147.5195)" font-family="'ArialMT'" font-size="12">&apos;60</text>
<line fill="none" stroke="#000000" stroke-width="0.5" stroke-miterlimit="10" x1="167.407" y1="130" x2="167.407" y2="136"/>
<text transform="matrix(1 0 0 1 159.5874 147.5195)" font-family="'ArialMT'" font-size="12">&apos;65</text>
<line fill="none" stroke="#000000" stroke-width="0.5" stroke-miterlimit="10" x1="198.704" y1="130" x2="198.704" y2="136"/>
<text transform="matrix(1 0 0 1 190.8843 147.5195)" font-family="'ArialMT'" font-size="12">&apos;70</text>
<line fill="none" stroke="#000000" stroke-width="0.5" stroke-miterlimit="10" x1="230" y1="130" x2="230" y2="136"/>
<text transform="matrix(1 0 0 1 222.1807 147.5195)" font-family="'ArialMT'" font-size="12">&apos;75</text>
<line fill="none" stroke="#000000" stroke-width="0.5" stroke-miterlimit="10" x1="261.297" y1="130" x2="261.297" y2="136"/>
<text transform="matrix(1 0 0 1 253.4766 147.5195)" font-family="'ArialMT'" font-size="12">&apos;80</text>
<line fill="none" stroke="#000000" stroke-width="0.5" stroke-miterlimit="10" x1="292.594" y1="130" x2="292.594" y2="136"/>
<text transform="matrix(1 0 0 1 284.7734 147.5195)" font-family="'ArialMT'" font-size="12">&apos;85</text>
<line fill="none" stroke="#000000" stroke-width="0.5" stroke-miterlimit="10" x1="323.891" y1="130" x2="323.891" y2="136"/>
<text transform="matrix(1 0 0 1 316.0703 147.5195)" font-family="'ArialMT'" font-size="12">&apos;90</text>
<line fill="none" stroke="#000000" stroke-width="0.5" stroke-miterlimit="10" x1="355.188" y1="130" x2="355.188" y2="136"/>
<text transform="matrix(1 0 0 1 347.3672 147.5195)" font-family="'ArialMT'" font-size="12">&apos;95</text>
<line fill="none" stroke="#000000" stroke-width="0.5" stroke-miterlimit="10" x1="386.482" y1="130" x2="386.482" y2="136"/>
<text transform="matrix(1 0 0 1 378.6641 147.5195)" font-family="'ArialMT'" font-size="12">&apos;00</text>
<line fill="none" stroke="#000000" stroke-width="0.5" stroke-miterlimit="10" x1="417.779" y1="130" x2="417.779" y2="136"/>
<text transform="matrix(1 0 0 1 409.96 147.5195)" font-family="'ArialMT'" font-size="12">&apos;05</text>
<text transform="matrix(1 0 0 1 431.001 145.999)" font-family="'ArialMT'" font-size="14">Year</text>
<line fill="none" stroke="#000000" stroke-width="0.5" stroke-miterlimit="10" x1="20" y1="130" x2="14" y2="130"/>
<text transform="matrix(1 0 0 1 4.3262 133.8398)" font-family="'ArialMT'" font-size="12">0</text>
<line fill="none" stroke="#000000" stroke-width="0.5" stroke-miterlimit="10" x1="20" y1="107.777" x2="14" y2="107.777"/>
<text transform="matrix(1 0 0 1 4.3262 111.6182)" font-family="'ArialMT'" font-size="12">5</text>
<line fill="none" stroke="#000000" stroke-width="0.5" stroke-miterlimit="10" x1="20" y1="85.557" x2="14" y2="85.557"/>
<text transform="matrix(1 0 0 1 -2.3477 89.3955)" font-family="'ArialMT'" font-size="12">10</text>
<line fill="none" stroke="#000000" stroke-width="0.5" stroke-miterlimit="10" x1="20" y1="63.333" x2="14" y2="63.333"/>
<text transform="matrix(1 0 0 1 -2.3477 67.1738)" font-family="'ArialMT'" font-size="12">15</text>
<line fill="none" stroke="#000000" stroke-width="0.5" stroke-miterlimit="10" x1="20" y1="41.111" x2="14" y2="41.111"/>
<text transform="matrix(1 0 0 1 -2.3477 44.9512)" font-family="'ArialMT'" font-size="12">20</text>
<line fill="none" stroke="#000000" stroke-width="0.5" stroke-miterlimit="10" x1="20" y1="18.889" x2="14" y2="18.889"/>
<text transform="matrix(1 0 0 1 -2.3477 22.7285)" font-family="'ArialMT'" font-size="12">25</text>
<rect x="20.626" y="125.557" stroke="#000000" stroke-width="0.5" stroke-miterlimit="10" width="4.507" height="1"/>
<rect x="39.404" y="125.557" width="4.507" height="1"/>
<rect x="45.663" y="125.557" width="4.507" height="1"/>
<rect x="45.663" y="121.111" width="4.507" height="1"/>
<rect x="45.663" y="116.666" width="4.507" height="1"/>
<rect x="51.922" y="125.557" width="4.507" height="1"/>
<rect x="51.922" y="121.111" width="4.507" height="1"/>
<rect x="58.182" y="125.557" width="4.507" height="1"/>
<rect x="58.182" y="121.111" width="4.507" height="1"/>
<rect x="58.182" y="116.666" width="4.507" height="1"/>
<rect x="58.182" y="112.223" width="4.507" height="1"/>
<rect x="58.182" y="107.777" width="4.507" height="1"/>
<rect x="58.182" y="103.334" width="4.507" height="1"/>
<rect x="64.441" y="125.557" width="4.507" height="1"/>
<rect x="64.441" y="121.111" width="4.507" height="1"/>
<rect x="64.441" y="116.666" width="4.507" height="1"/>
<rect x="70.701" y="125.557" width="4.506" height="1"/>
<rect x="70.701" y="121.111" width="4.506" height="1"/>
<rect x="83.219" y="125.557" width="4.506" height="1"/>
<rect x="83.219" y="121.111" width="4.506" height="1"/>
<rect x="83.219" y="116.666" width="4.506" height="1"/>
<rect x="83.219" y="112.223" width="4.506" height="1"/>
<rect x="89.479" y="125.557" width="4.506" height="1"/>
<rect x="95.738" y="125.557" width="4.507" height="1"/>
<rect x="95.738" y="121.111" width="4.507" height="1"/>
<rect x="95.738" y="116.666" width="4.507" height="1"/>
<rect x="101.997" y="125.557" width="4.507" height="1"/>
<rect x="101.997" y="121.111" width="4.507" height="1"/>
<rect x="101.997" y="116.666" width="4.507" height="1"/>
<rect x="108.256" y="125.557" width="4.507" height="1"/>
<rect x="108.256" y="121.111" width="4.507" height="1"/>
<rect x="108.256" y="116.666" width="4.507" height="1"/>
<rect x="114.516" y="125.557" width="4.507" height="1"/>
<rect x="114.516" y="121.111" width="4.507" height="1"/>
<rect x="114.516" y="116.666" width="4.507" height="1"/>
<rect x="114.516" y="112.223" width="4.507" height="1"/>
<rect x="114.516" y="107.777" width="4.507" height="1"/>
<rect x="120.775" y="125.557" width="4.507" height="1"/>
<rect x="120.775" y="121.111" width="4.507" height="1"/>
<rect x="120.775" y="116.666" width="4.507" height="1"/>
<rect x="120.775" y="112.223" width="4.507" height="1"/>
<rect x="120.775" y="107.777" width="4.507" height="1"/>
<rect x="120.775" y="103.334" width="4.507" height="1"/>
<rect x="120.775" y="98.889" width="4.507" height="1"/>
<rect x="120.775" y="94.443" width="4.507" height="1"/>
<rect x="120.775" y="90" width="4.507" height="1"/>
<rect x="120.775" y="85.557" width="4.507" height="1"/>
<rect x="120.775" y="81.111" width="4.507" height="1"/>
<rect x="127.034" y="125.557" width="4.507" height="1"/>
<rect x="127.034" y="121.111" width="4.507" height="1"/>
<rect x="127.034" y="116.666" width="4.507" height="1"/>
<rect x="127.034" y="112.223" width="4.507" height="1"/>
<rect x="127.034" y="107.777" width="4.507" height="1"/>
<rect x="127.034" y="103.334" width="4.507" height="1"/>
<rect x="127.034" y="98.889" width="4.507" height="1"/>
<rect x="127.034" y="94.443" width="4.507" height="1"/>
<rect x="127.034" y="90" width="4.507" height="1"/>
<rect x="127.034" y="85.557" width="4.507" height="1"/>
<rect x="127.034" y="81.111" width="4.507" height="1"/>
<rect x="127.034" y="76.666" width="4.507" height="1"/>
<rect x="127.034" y="72.222" width="4.507" height="1"/>
<rect x="127.034" y="67.778" width="4.507" height="1"/>
<rect x="127.034" y="63.333" width="4.507" height="1"/>
<rect x="127.034" y="58.889" width="4.507" height="1"/>
<rect x="127.034" y="54.444" width="4.507" height="1"/>
<rect x="127.034" y="50" width="4.507" height="1"/>
<rect x="133.293" y="125.557" width="4.507" height="1"/>
<rect x="133.293" y="121.111" width="4.507" height="1"/>
<rect x="133.293" y="116.666" width="4.507" height="1"/>
<rect x="133.293" y="112.223" width="4.507" height="1"/>
<rect x="133.293" y="107.777" width="4.507" height="1"/>
<rect x="133.293" y="103.334" width="4.507" height="1"/>
<rect x="133.293" y="98.889" width="4.507" height="1"/>
<rect x="133.293" y="94.443" width="4.507" height="1"/>
<rect x="133.293" y="90" width="4.507" height="1"/>
<rect x="139.553" y="125.557" width="4.507" height="1"/>
<rect x="139.553" y="121.111" width="4.507" height="1"/>
<rect x="139.553" y="116.666" width="4.507" height="1"/>
<rect x="139.553" y="112.223" width="4.507" height="1"/>
<rect x="139.553" y="107.777" width="4.507" height="1"/>
<rect x="139.553" y="103.334" width="4.507" height="1"/>
<rect x="139.553" y="98.889" width="4.507" height="1"/>
<rect x="139.553" y="94.443" width="4.507" height="1"/>
<rect x="139.553" y="90" width="4.507" height="1"/>
<rect x="139.553" y="85.557" width="4.507" height="1"/>
<rect x="139.553" y="81.111" width="4.507" height="1"/>
<rect x="139.553" y="76.666" width="4.507" height="1"/>
<rect x="139.553" y="72.222" width="4.507" height="1"/>
<rect x="139.553" y="67.778" width="4.507" height="1"/>
<rect x="139.553" y="63.333" width="4.507" height="1"/>
<rect x="139.553" y="58.889" width="4.507" height="1"/>
<rect x="145.812" y="125.557" width="4.507" height="1"/>
<rect x="145.812" y="121.111" width="4.507" height="1"/>
<rect x="145.812" y="116.666" width="4.507" height="1"/>
<rect x="145.812" y="112.223" width="4.507" height="1"/>
<rect x="145.812" y="107.777" width="4.507" height="1"/>
<rect x="145.812" y="103.334" width="4.507" height="1"/>
<rect x="145.812" y="98.889" width="4.507" height="1"/>
<rect x="145.812" y="94.443" width="4.507" height="1"/>
<rect x="145.812" y="90" width="4.507" height="1"/>
<rect x="145.812" y="85.557" width="4.507" height="1"/>
<rect x="145.812" y="81.111" width="4.507" height="1"/>
<rect x="145.812" y="76.666" width="4.507" height="1"/>
<rect x="145.812" y="72.222" width="4.507" height="1"/>
<rect x="145.812" y="67.778" width="4.507" height="1"/>
<rect x="145.812" y="63.333" width="4.507" height="1"/>
<rect x="145.812" y="58.889" width="4.507" height="1"/>
<rect x="145.812" y="54.444" width="4.507" height="1"/>
<rect x="145.812" y="50" width="4.507" height="1"/>
<rect x="145.812" y="45.556" width="4.507" height="1"/>
<rect x="145.812" y="41.111" width="4.507" height="1"/>
<rect x="145.812" y="36.667" width="4.507" height="1"/>
<rect x="145.812" y="32.222" width="4.507" height="1"/>
<rect x="145.812" y="27.778" width="4.507" height="1"/>
<rect x="145.812" y="23.333" width="4.507" height="1"/>
<rect x="145.812" y="18.889" width="4.507" height="1"/>
<rect x="145.812" y="14.444" width="4.507" height="1"/>
<rect x="145.812" y="10" width="4.507" height="1"/>
<rect x="152.071" y="125.557" width="4.507" height="1"/>
<rect x="152.071" y="121.111" width="4.507" height="1"/>
<rect x="152.071" y="116.666" width="4.507" height="1"/>
<rect x="152.071" y="112.223" width="4.507" height="1"/>
<rect x="152.071" y="107.777" width="4.507" height="1"/>
<rect x="152.071" y="103.334" width="4.507" height="1"/>
<rect x="152.071" y="98.889" width="4.507" height="1"/>
<rect x="152.071" y="94.443" width="4.507" height="1"/>
<rect x="152.071" y="90" width="4.507" height="1"/>
<rect x="152.071" y="85.557" width="4.507" height="1"/>
<rect x="152.071" y="81.111" width="4.507" height="1"/>
<rect x="152.071" y="76.666" width="4.507" height="1"/>
<rect x="152.071" y="72.222" width="4.507" height="1"/>
<rect x="152.071" y="67.778" width="4.507" height="1"/>
<rect x="152.071" y="63.333" width="4.507" height="1"/>
<rect x="152.071" y="58.889" width="4.507" height="1"/>
<rect x="152.071" y="54.444" width="4.507" height="1"/>
<rect x="152.071" y="50" width="4.507" height="1"/>
<rect x="152.071" y="45.556" width="4.507" height="1"/>
<rect x="152.071" y="41.111" width="4.507" height="1"/>
<rect x="152.071" y="36.667" width="4.507" height="1"/>
<rect x="152.071" y="32.222" width="4.507" height="1"/>
<rect x="152.071" y="27.778" width="4.507" height="1"/>
<rect x="152.071" y="23.333" width="4.507" height="1"/>
<rect x="152.071" y="18.889" width="4.507" height="1"/>
<rect x="158.331" y="125.557" width="4.506" height="1"/>
<rect x="158.331" y="121.111" width="4.506" height="1"/>
<rect x="158.331" y="116.666" width="4.506" height="1"/>
<rect x="158.331" y="112.223" width="4.506" height="1"/>
<rect x="158.331" y="107.777" width="4.506" height="1"/>
<rect x="158.331" y="103.334" width="4.506" height="1"/>
<rect x="158.331" y="98.889" width="4.506" height="1"/>
<rect x="158.331" y="94.443" width="4.506" height="1"/>
<rect x="158.331" y="90" width="4.506" height="1"/>
<rect x="158.331" y="85.557" width="4.506" height="1"/>
<rect x="158.331" y="81.111" width="4.506" height="1"/>
<rect x="158.331" y="76.666" width="4.506" height="1"/>
<rect x="158.331" y="72.222" width="4.506" height="1"/>
<rect x="164.59" y="125.557" width="4.506" height="1"/>
<rect x="164.59" y="121.111" width="4.506" height="1"/>
<rect x="164.59" y="116.666" width="4.506" height="1"/>
<rect x="164.59" y="112.223" width="4.506" height="1"/>
<rect x="164.59" y="107.777" width="4.506" height="1"/>
<rect x="164.59" y="103.334" width="4.506" height="1"/>
<rect x="164.59" y="98.889" width="4.506" height="1"/>
<rect x="164.59" y="94.443" width="4.506" height="1"/>
<rect x="164.59" y="90" width="4.506" height="1"/>
<rect x="164.59" y="85.557" width="4.506" height="1"/>
<rect x="164.59" y="81.111" width="4.506" height="1"/>
<rect x="164.59" y="76.666" width="4.506" height="1"/>
<rect x="164.59" y="72.222" width="4.506" height="1"/>
<rect x="164.59" y="67.778" width="4.506" height="1"/>
<rect x="164.59" y="63.333" width="4.506" height="1"/>
<rect x="164.59" y="58.889" width="4.506" height="1"/>
<rect x="164.59" y="54.444" width="4.506" height="1"/>
<rect x="164.59" y="50" width="4.506" height="1"/>
<rect x="164.59" y="45.556" width="4.506" height="1"/>
<rect x="164.59" y="41.111" width="4.506" height="1"/>
<rect x="164.59" y="36.667" width="4.506" height="1"/>
<rect x="164.59" y="32.222" width="4.506" height="1"/>
<rect x="164.59" y="27.778" width="4.506" height="1"/>
<rect x="164.59" y="23.333" width="4.506" height="1"/>
<rect x="170.85" y="125.557" width="4.506" height="1"/>
<rect x="170.85" y="121.111" width="4.506" height="1"/>
<rect x="170.85" y="116.666" width="4.506" height="1"/>
<rect x="170.85" y="112.223" width="4.506" height="1"/>
<rect x="170.85" y="107.777" width="4.506" height="1"/>
<rect x="170.85" y="103.334" width="4.506" height="1"/>
<rect x="170.85" y="98.889" width="4.506" height="1"/>
<rect x="170.85" y="94.443" width="4.506" height="1"/>
<rect x="170.85" y="90" width="4.506" height="1"/>
<rect x="170.85" y="85.557" width="4.506" height="1"/>
<rect x="170.85" y="81.111" width="4.506" height="1"/>
<rect x="170.85" y="76.666" width="4.506" height="1"/>
<rect x="170.85" y="72.222" width="4.506" height="1"/>
<rect x="170.85" y="67.778" width="4.506" height="1"/>
<rect x="170.85" y="63.333" width="4.506" height="1"/>
<rect x="170.85" y="58.889" width="4.506" height="1"/>
<rect x="170.85" y="54.444" width="4.506" height="1"/>
<rect x="170.85" y="50" width="4.506" height="1"/>
<rect x="170.85" y="45.556" width="4.506" height="1"/>
<rect x="170.85" y="41.111" width="4.506" height="1"/>
<rect x="170.85" y="36.667" width="4.506" height="1"/>
<rect x="170.85" y="32.222" width="4.506" height="1"/>
<rect x="177.109" y="125.557" width="4.507" height="1"/>
<rect x="177.109" y="121.111" width="4.507" height="1"/>
<rect x="177.109" y="116.666" width="4.507" height="1"/>
<rect x="177.109" y="112.223" width="4.507" height="1"/>
<rect x="177.109" y="107.777" width="4.507" height="1"/>
<rect x="177.109" y="103.334" width="4.507" height="1"/>
<rect x="177.109" y="98.889" width="4.507" height="1"/>
<rect x="177.109" y="94.443" width="4.507" height="1"/>
<rect x="177.109" y="90" width="4.507" height="1"/>
<rect x="177.109" y="85.557" width="4.507" height="1"/>
<rect x="177.109" y="81.111" width="4.507" height="1"/>
<rect x="177.109" y="76.666" width="4.507" height="1"/>
<rect x="177.109" y="72.222" width="4.507" height="1"/>
<rect x="177.109" y="67.778" width="4.507" height="1"/>
<rect x="177.109" y="63.333" width="4.507" height="1"/>
<rect x="177.109" y="58.889" width="4.507" height="1"/>
<rect x="183.368" y="125.557" width="4.507" height="1"/>
<rect x="183.368" y="121.111" width="4.507" height="1"/>
<rect x="183.368" y="116.666" width="4.507" height="1"/>
<rect x="183.368" y="112.223" width="4.507" height="1"/>
<rect x="183.368" y="107.777" width="4.507" height="1"/>
<rect x="183.368" y="103.334" width="4.507" height="1"/>
<rect x="183.368" y="98.889" width="4.507" height="1"/>
<rect x="183.368" y="94.443" width="4.507" height="1"/>
<rect x="183.368" y="90" width="4.507" height="1"/>
<rect x="183.368" y="85.557" width="4.507" height="1"/>
<rect x="183.368" y="81.111" width="4.507" height="1"/>
<rect x="183.368" y="76.666" width="4.507" height="1"/>
<rect x="183.368" y="72.222" width="4.507" height="1"/>
<rect x="183.368" y="67.778" width="4.507" height="1"/>
<rect x="189.627" y="125.557" width="4.507" height="1"/>
<rect x="189.627" y="121.111" width="4.507" height="1"/>
<rect x="189.627" y="116.666" width="4.507" height="1"/>
<rect x="189.627" y="112.223" width="4.507" height="1"/>
<rect x="189.627" y="107.777" width="4.507" height="1"/>
<rect x="189.627" y="103.334" width="4.507" height="1"/>
<rect x="189.627" y="98.889" width="4.507" height="1"/>
<rect x="189.627" y="94.443" width="4.507" height="1"/>
<rect x="195.887" y="125.557" width="4.507" height="1"/>
<rect x="195.887" y="121.111" width="4.507" height="1"/>
<rect x="195.887" y="116.666" width="4.507" height="1"/>
<rect x="195.887" y="112.223" width="4.507" height="1"/>
<rect x="195.887" y="107.777" width="4.507" height="1"/>
<rect x="195.887" y="103.334" width="4.507" height="1"/>
<rect x="195.887" y="98.889" width="4.507" height="1"/>
<rect x="195.887" y="94.443" width="4.507" height="1"/>
<rect x="202.146" y="125.557" width="4.507" height="1"/>
<rect x="202.146" y="121.111" width="4.507" height="1"/>
<rect x="202.146" y="116.666" width="4.507" height="1"/>
<rect x="202.146" y="112.223" width="4.507" height="1"/>
<rect x="202.146" y="107.777" width="4.507" height="1"/>
<rect x="202.146" y="103.334" width="4.507" height="1"/>
<rect x="202.146" y="98.889" width="4.507" height="1"/>
<rect x="202.146" y="94.443" width="4.507" height="1"/>
<rect x="202.146" y="90" width="4.507" height="1"/>
<rect x="202.146" y="85.557" width="4.507" height="1"/>
<rect x="202.146" y="81.111" width="4.507" height="1"/>
<rect x="202.146" y="76.666" width="4.507" height="1"/>
<rect x="202.146" y="72.222" width="4.507" height="1"/>
<rect x="202.146" y="67.778" width="4.507" height="1"/>
<rect x="202.146" y="63.333" width="4.507" height="1"/>
<rect x="202.146" y="58.889" width="4.507" height="1"/>
<rect x="202.146" y="54.444" width="4.507" height="1"/>
<rect x="202.146" y="50" width="4.507" height="1"/>
<rect x="202.146" y="45.556" width="4.507" height="1"/>
<rect x="202.146" y="41.111" width="4.507" height="1"/>
<rect x="202.146" y="36.667" width="4.507" height="1"/>
<rect x="208.405" y="125.557" width="4.507" height="1"/>
<rect x="208.405" y="121.111" width="4.507" height="1"/>
<rect x="208.405" y="116.666" width="4.507" height="1"/>
<rect x="208.405" y="112.223" width="4.507" height="1"/>
<rect x="208.405" y="107.777" width="4.507" height="1"/>
<rect x="208.405" y="103.334" width="4.507" height="1"/>
<rect x="208.405" y="98.889" width="4.507" height="1"/>
<rect x="208.405" y="94.443" width="4.507" height="1"/>
<rect x="208.405" y="90" width="4.507" height="1"/>
<rect x="208.405" y="85.557" width="4.507" height="1"/>
<rect x="208.405" y="81.111" width="4.507" height="1"/>
<rect x="208.405" y="76.666" width="4.507" height="1"/>
<rect x="208.405" y="72.222" width="4.507" height="1"/>
<rect x="208.405" y="67.778" width="4.507" height="1"/>
<rect x="208.405" y="63.333" width="4.507" height="1"/>
<rect x="208.405" y="58.889" width="4.507" height="1"/>
<rect x="214.665" y="125.557" width="4.507" height="1"/>
<rect x="214.665" y="121.111" width="4.507" height="1"/>
<rect x="214.665" y="116.666" width="4.507" height="1"/>
<rect x="214.665" y="112.223" width="4.507" height="1"/>
<rect x="214.665" y="107.777" width="4.507" height="1"/>
<rect x="214.665" y="103.334" width="4.507" height="1"/>
<rect x="214.665" y="98.889" width="4.507" height="1"/>
<rect x="214.665" y="94.443" width="4.507" height="1"/>
<rect x="214.665" y="90" width="4.507" height="1"/>
<rect x="214.665" y="85.557" width="4.507" height="1"/>
<rect x="214.665" y="81.111" width="4.507" height="1"/>
<rect x="214.665" y="76.666" width="4.507" height="1"/>
<rect x="214.665" y="72.222" width="4.507" height="1"/>
<rect x="220.924" y="125.557" width="4.507" height="1"/>
<rect x="220.924" y="121.111" width="4.507" height="1"/>
<rect x="220.924" y="116.666" width="4.507" height="1"/>
<rect x="220.924" y="112.223" width="4.507" height="1"/>
<rect x="220.924" y="107.777" width="4.507" height="1"/>
<rect x="220.924" y="103.334" width="4.507" height="1"/>
<rect x="220.924" y="98.889" width="4.507" height="1"/>
<rect x="227.184" y="125.557" width="4.506" height="1"/>
<rect x="227.184" y="121.111" width="4.506" height="1"/>
<rect x="227.184" y="116.666" width="4.506" height="1"/>
<rect x="227.184" y="112.223" width="4.506" height="1"/>
<rect x="227.184" y="107.777" width="4.506" height="1"/>
<rect x="227.184" y="103.334" width="4.506" height="1"/>
<rect x="227.184" y="98.889" width="4.506" height="1"/>
<rect x="227.184" y="94.443" width="4.506" height="1"/>
<rect x="227.184" y="90" width="4.506" height="1"/>
<rect x="227.184" y="85.557" width="4.506" height="1"/>
<rect x="227.184" y="81.111" width="4.506" height="1"/>
<rect x="227.184" y="76.666" width="4.506" height="1"/>
<rect x="227.184" y="72.222" width="4.506" height="1"/>
<rect x="227.184" y="67.778" width="4.506" height="1"/>
<rect x="227.184" y="63.333" width="4.506" height="1"/>
<rect x="227.184" y="58.889" width="4.506" height="1"/>
<rect x="227.184" y="54.444" width="4.506" height="1"/>
<rect x="227.184" y="50" width="4.506" height="1"/>
<rect x="227.184" y="45.556" width="4.506" height="1"/>
<rect x="227.184" y="41.111" width="4.506" height="1"/>
<rect x="227.184" y="36.667" width="4.506" height="1"/>
<rect x="227.184" y="32.222" width="4.506" height="1"/>
<rect x="233.441" y="125.557" width="4.508" height="1"/>
<rect x="233.441" y="121.111" width="4.508" height="1"/>
<rect x="233.441" y="116.666" width="4.508" height="1"/>
<rect x="233.441" y="112.223" width="4.508" height="1"/>
<rect x="233.441" y="107.777" width="4.508" height="1"/>
<rect x="233.441" y="103.334" width="4.508" height="1"/>
<rect x="233.441" y="98.889" width="4.508" height="1"/>
<rect x="233.441" y="94.443" width="4.508" height="1"/>
<rect x="233.441" y="90" width="4.508" height="1"/>
<rect x="233.441" y="85.557" width="4.508" height="1"/>
<rect x="233.441" y="81.111" width="4.508" height="1"/>
<rect x="233.441" y="76.666" width="4.508" height="1"/>
<rect x="233.441" y="72.222" width="4.508" height="1"/>
<rect x="239.702" y="125.557" width="4.507" height="1"/>
<rect x="239.702" y="121.111" width="4.507" height="1"/>
<rect x="239.702" y="116.666" width="4.507" height="1"/>
<rect x="239.702" y="112.223" width="4.507" height="1"/>
<rect x="239.702" y="107.777" width="4.507" height="1"/>
<rect x="239.702" y="103.334" width="4.507" height="1"/>
<rect x="239.702" y="98.889" width="4.507" height="1"/>
<rect x="239.702" y="94.443" width="4.507" height="1"/>
<rect x="245.961" y="125.557" width="4.507" height="1"/>
<rect x="245.961" y="121.111" width="4.507" height="1"/>
<rect x="245.961" y="116.666" width="4.507" height="1"/>
<rect x="245.961" y="112.223" width="4.507" height="1"/>
<rect x="245.961" y="107.777" width="4.507" height="1"/>
<rect x="252.221" y="125.557" width="4.506" height="1"/>
<rect x="252.221" y="121.111" width="4.506" height="1"/>
<rect x="252.221" y="116.666" width="4.506" height="1"/>
<rect x="252.221" y="112.223" width="4.506" height="1"/>
<rect x="252.221" y="107.777" width="4.506" height="1"/>
<rect x="252.221" y="103.334" width="4.506" height="1"/>
<rect x="258.48" y="125.557" width="4.506" height="1"/>
<rect x="258.48" y="121.111" width="4.506" height="1"/>
<rect x="258.48" y="116.666" width="4.506" height="1"/>
<rect x="258.48" y="112.223" width="4.506" height="1"/>
<rect x="258.48" y="107.777" width="4.506" height="1"/>
<rect x="264.739" y="125.557" width="4.507" height="1"/>
<rect x="264.739" y="121.111" width="4.507" height="1"/>
<rect x="264.739" y="116.666" width="4.507" height="1"/>
<rect x="264.739" y="112.223" width="4.507" height="1"/>
<rect x="270.998" y="125.557" width="4.508" height="1"/>
<rect x="270.998" y="121.111" width="4.508" height="1"/>
<rect x="270.998" y="116.666" width="4.508" height="1"/>
<rect x="270.998" y="112.223" width="4.508" height="1"/>
<rect x="270.998" y="107.777" width="4.508" height="1"/>
<rect x="270.998" y="103.334" width="4.508" height="1"/>
<rect x="270.998" y="98.889" width="4.508" height="1"/>
<rect x="277.258" y="125.557" width="4.508" height="1"/>
<rect x="277.258" y="121.111" width="4.508" height="1"/>
<rect x="277.258" y="116.666" width="4.508" height="1"/>
<rect x="277.258" y="112.223" width="4.508" height="1"/>
<rect x="277.258" y="107.777" width="4.508" height="1"/>
<rect x="277.258" y="103.334" width="4.508" height="1"/>
<rect x="277.258" y="98.889" width="4.508" height="1"/>
<rect x="277.258" y="94.443" width="4.508" height="1"/>
<rect x="277.258" y="90" width="4.508" height="1"/>
<rect x="283.518" y="125.557" width="4.506" height="1"/>
<rect x="283.518" y="121.111" width="4.506" height="1"/>
<rect x="283.518" y="116.666" width="4.506" height="1"/>
<rect x="283.518" y="112.223" width="4.506" height="1"/>
<rect x="283.518" y="107.777" width="4.506" height="1"/>
<rect x="283.518" y="103.334" width="4.506" height="1"/>
<rect x="283.518" y="98.889" width="4.506" height="1"/>
<rect x="283.518" y="94.443" width="4.506" height="1"/>
<rect x="283.518" y="90" width="4.506" height="1"/>
<rect x="283.518" y="85.557" width="4.506" height="1"/>
<rect x="283.518" y="81.111" width="4.506" height="1"/>
<rect x="283.518" y="76.666" width="4.506" height="1"/>
<rect x="289.775" y="125.557" width="4.508" height="1"/>
<rect x="289.775" y="121.111" width="4.508" height="1"/>
<rect x="289.775" y="116.666" width="4.508" height="1"/>
<rect x="289.775" y="112.223" width="4.508" height="1"/>
<rect x="289.775" y="107.777" width="4.508" height="1"/>
<rect x="296.035" y="125.557" width="4.508" height="1"/>
<rect x="302.295" y="125.557" width="4.507" height="1"/>
<rect x="302.295" y="121.111" width="4.507" height="1"/>
<rect x="302.295" y="116.666" width="4.507" height="1"/>
<rect x="302.295" y="112.223" width="4.507" height="1"/>
<rect x="302.295" y="107.777" width="4.507" height="1"/>
<rect x="302.295" y="103.334" width="4.507" height="1"/>
<rect x="302.295" y="98.889" width="4.507" height="1"/>
<rect x="302.295" y="94.443" width="4.507" height="1"/>
<rect x="302.295" y="90" width="4.507" height="1"/>
<rect x="302.295" y="85.557" width="4.507" height="1"/>
<rect x="314.812" y="125.557" width="4.508" height="1"/>
<rect x="314.812" y="121.111" width="4.508" height="1"/>
<rect x="314.812" y="116.666" width="4.508" height="1"/>
<rect x="314.812" y="112.223" width="4.508" height="1"/>
<rect x="314.812" y="107.777" width="4.508" height="1"/>
<rect x="314.812" y="103.334" width="4.508" height="1"/>
<rect x="314.812" y="98.889" width="4.508" height="1"/>
<rect x="314.812" y="94.443" width="4.508" height="1"/>
<rect x="321.073" y="125.557" width="4.507" height="1"/>
<rect x="321.073" y="121.111" width="4.507" height="1"/>
<rect x="321.073" y="116.666" width="4.507" height="1"/>
<rect x="321.073" y="112.223" width="4.507" height="1"/>
<rect x="321.073" y="107.777" width="4.507" height="1"/>
<rect x="321.073" y="103.334" width="4.507" height="1"/>
<rect x="327.332" y="125.557" width="4.507" height="1"/>
<rect x="327.332" y="121.111" width="4.507" height="1"/>
<rect x="327.332" y="116.666" width="4.507" height="1"/>
<rect x="327.332" y="112.223" width="4.507" height="1"/>
<rect x="339.852" y="125.557" width="4.506" height="1"/>
<rect x="339.852" y="121.111" width="4.506" height="1"/>
<rect x="339.852" y="116.666" width="4.506" height="1"/>
<rect x="339.852" y="112.223" width="4.506" height="1"/>
<rect x="346.109" y="125.557" width="4.508" height="1"/>
<rect x="346.109" y="121.111" width="4.508" height="1"/>
<rect x="346.109" y="116.666" width="4.508" height="1"/>
<rect x="346.109" y="112.223" width="4.508" height="1"/>
<rect x="346.109" y="107.777" width="4.508" height="1"/>
<rect x="346.109" y="103.334" width="4.508" height="1"/>
<rect x="352.369" y="125.557" width="4.508" height="1"/>
<rect x="358.629" y="125.557" width="4.507" height="1"/>
<rect x="358.629" y="121.111" width="4.507" height="1"/>
<rect x="358.629" y="116.666" width="4.507" height="1"/>
<rect x="358.629" y="112.223" width="4.507" height="1"/>
<rect x="358.629" y="107.777" width="4.507" height="1"/>
<rect x="364.889" y="125.557" width="4.506" height="1"/>
<rect x="364.889" y="121.111" width="4.506" height="1"/>
<rect x="364.889" y="116.666" width="4.506" height="1"/>
<rect x="364.889" y="112.223" width="4.506" height="1"/>
<rect x="364.889" y="107.777" width="4.506" height="1"/>
<rect x="371.146" y="125.557" width="4.508" height="1"/>
<rect x="371.146" y="121.111" width="4.508" height="1"/>
<rect x="371.146" y="116.666" width="4.508" height="1"/>
<rect x="377.406" y="125.557" width="4.508" height="1"/>
<rect x="377.406" y="121.111" width="4.508" height="1"/>
<rect x="377.406" y="116.666" width="4.508" height="1"/>
<rect x="383.666" y="125.557" width="4.507" height="1"/>
<rect x="383.666" y="121.111" width="4.507" height="1"/>
<rect x="383.666" y="116.666" width="4.507" height="1"/>
<rect x="389.926" y="125.557" width="4.506" height="1"/>
<rect x="402.444" y="125.557" width="4.507" height="1"/>
<rect x="402.444" y="121.111" width="4.507" height="1"/>
<rect x="408.703" y="125.557" width="4.507" height="1"/>
<rect x="408.703" y="121.111" width="4.507" height="1"/>
<rect x="414.963" y="125.557" width="4.507" height="1"/>
<rect x="421.222" y="125.557" width="4.507" height="1"/>
<rect x="421.222" y="121.111" width="4.507" height="1"/>
<rect x="433.74" y="125.557" width="4.507" height="1"/>
<text transform="matrix(1 0 0 1 -2.3477 5.8892)" font-family="'ArialMT'" font-size="14">Climbs</text>
</svg>
