<?xml version="1.0" encoding="utf-8"?>
<!-- Generator: Adobe Illustrator 16.0.0, SVG Export Plug-In . SVG Version: 6.00 Build 0)  -->
<!DOCTYPE svg PUBLIC "-//W3C//DTD SVG 1.1//EN" "http://www.w3.org/Graphics/SVG/1.1/DTD/svg11.dtd">
<svg version="1.1" id="Layer_1" xmlns="http://www.w3.org/2000/svg" xmlns:xlink="http://www.w3.org/1999/xlink" x="0px" y="0px"
	 width="205.002px" height="43.993px" viewBox="0 0 205.002 43.993" enable-background="new 0 0 205.002 43.993"
	 xml:space="preserve">
<g transform="translate(0,30)">
	<rect x="5.002" y="-11.005" fill="#FFFFFC" width="2" height="24.998"/>
	<rect x="7.002" y="-11.005" fill="#FFFDFA" width="2" height="24.998"/>
	<rect x="9.002" y="-11.005" fill="#FEFAF7" width="2" height="24.998"/>
	<rect x="11.002" y="-11.005" fill="#FEF8F5" width="2" height="24.998"/>
	<rect x="13.002" y="-11.005" fill="#FEF6F3" width="2" height="24.998"/>
	<rect x="15.002" y="-11.005" fill="#FEF3F1" width="2" height="24.998"/>
	<rect x="17.002" y="-11.005" fill="#FDF1EE" width="2" height="24.998"/>
	<rect x="19.002" y="-11.005" fill="#FDEFEC" width="2" height="24.998"/>
	<rect x="21.002" y="-11.005" fill="#FDECEA" width="2" height="24.998"/>
	<rect x="23.002" y="-11.005" fill="#FCEAE8" width="2" height="24.998"/>
	<rect x="25.002" y="-11.005" fill="#FCE8E5" width="2" height="24.998"/>
	<rect x="27.002" y="-11.005" fill="#FCE6E3" width="2" height="24.998"/>
	<rect x="29.002" y="-11.005" fill="#FCE3E1" width="2" height="24.998"/>
	<rect x="31.002" y="-11.005" fill="#FBE1DF" width="2" height="24.998"/>
	<rect x="33.002" y="-11.005" fill="#FBDFDC" width="2" height="24.998"/>
	<rect x="35.002" y="-11.005" fill="#FBDCDA" width="2" height="24.998"/>
	<rect x="37.002" y="-11.005" fill="#FADAD8" width="2" height="24.998"/>
	<rect x="39.002" y="-11.005" fill="#FAD8D6" width="2" height="24.998"/>
	<rect x="41.002" y="-11.005" fill="#FAD5D3" width="2" height="24.998"/>
	<rect x="43.002" y="-11.005" fill="#FAD3D1" width="2" height="24.998"/>
	<rect x="45.002" y="-11.005" fill="#F9D1CF" width="2" height="24.998"/>
	<rect x="47.002" y="-11.005" fill="#F9CECC" width="2" height="24.998"/>
	<rect x="49.002" y="-11.005" fill="#F9CCCA" width="2" height="24.998"/>
	<rect x="51.002" y="-11.005" fill="#F8CAC8" width="2" height="24.998"/>
	<rect x="53.002" y="-11.005" fill="#F8C7C6" width="2" height="24.998"/>
	<rect x="55.002" y="-11.005" fill="#F8C5C3" width="2" height="24.998"/>
	<rect x="57.002" y="-11.005" fill="#F8C3C1" width="2" height="24.998"/>
	<rect x="59.002" y="-11.005" fill="#F7C1BF" width="2" height="24.998"/>
	<rect x="61.002" y="-11.005" fill="#F7BEBD" width="2" height="24.998"/>
	<rect x="63.002" y="-11.005" fill="#F7BCBA" width="2" height="24.998"/>
	<rect x="65.002" y="-11.005" fill="#F7BAB8" width="2" height="24.998"/>
	<rect x="67.002" y="-11.005" fill="#F6B7B6" width="2" height="24.998"/>
	<rect x="69.002" y="-11.005" fill="#F6B5B4" width="2" height="24.998"/>
	<rect x="71.002" y="-11.005" fill="#F6B3B1" width="2" height="24.998"/>
	<rect x="73.002" y="-11.005" fill="#F5B0AF" width="2" height="24.998"/>
	<rect x="75.002" y="-11.005" fill="#F5AEAD" width="2" height="24.998"/>
	<rect x="77.002" y="-11.005" fill="#F5ACAB" width="2" height="24.998"/>
	<rect x="79.002" y="-11.005" fill="#F5A9A8" width="2" height="24.998"/>
	<rect x="81.002" y="-11.005" fill="#F4A7A6" width="2" height="24.998"/>
	<rect x="83.002" y="-11.005" fill="#F4A5A4" width="2" height="24.998"/>
	<rect x="85.002" y="-11.005" fill="#F4A2A1" width="2" height="24.998"/>
	<rect x="87.002" y="-11.005" fill="#F3A09F" width="2" height="24.998"/>
	<rect x="89.002" y="-11.005" fill="#F39E9D" width="2" height="24.998"/>
	<rect x="91.002" y="-11.005" fill="#F39C9B" width="2" height="24.998"/>
	<rect x="93.002" y="-11.005" fill="#F39998" width="2" height="24.998"/>
	<rect x="95.002" y="-11.005" fill="#F29796" width="2" height="24.998"/>
	<rect x="97.002" y="-11.005" fill="#F29594" width="2" height="24.998"/>
	<rect x="99.002" y="-11.005" fill="#F29292" width="2" height="24.998"/>
	<rect x="101.002" y="-11.005" fill="#F1908F" width="2" height="24.998"/>
	<rect x="103.002" y="-11.005" fill="#F18E8D" width="2" height="24.998"/>
	<rect x="105.002" y="-11.005" fill="#F18B8B" width="2" height="24.998"/>
	<rect x="107.002" y="-11.005" fill="#F18989" width="2" height="24.998"/>
	<rect x="109.002" y="-11.005" fill="#F08786" width="2" height="24.998"/>
	<rect x="111.002" y="-11.005" fill="#F08484" width="2" height="24.998"/>
	<rect x="113.002" y="-11.005" fill="#F08282" width="2" height="24.998"/>
	<rect x="115.002" y="-11.005" fill="#EF8080" width="2" height="24.998"/>
	<rect x="117.002" y="-11.005" fill="#EF7D7D" width="2" height="24.998"/>
	<rect x="119.002" y="-11.005" fill="#EF7B7B" width="2" height="24.998"/>
	<rect x="121.002" y="-11.005" fill="#EF7979" width="2" height="24.998"/>
	<rect x="123.002" y="-11.005" fill="#EE7777" width="2" height="24.998"/>
	<rect x="125.002" y="-11.005" fill="#EE7474" width="2" height="24.998"/>
	<rect x="127.002" y="-11.005" fill="#EE7272" width="2" height="24.998"/>
	<rect x="129.002" y="-11.005" fill="#ED7070" width="2" height="24.998"/>
	<rect x="131.002" y="-11.005" fill="#ED6D6D" width="2" height="24.998"/>
	<rect x="133.002" y="-11.005" fill="#ED6B6B" width="2" height="24.998"/>
	<rect x="135.002" y="-11.005" fill="#ED6969" width="2" height="24.998"/>
	<rect x="137.002" y="-11.005" fill="#EC6667" width="2" height="24.998"/>
	<rect x="139.002" y="-11.005" fill="#EC6464" width="2" height="24.998"/>
	<rect x="141.002" y="-11.005" fill="#EC6262" width="2" height="24.998"/>
	<rect x="143.002" y="-11.005" fill="#EB5F60" width="2" height="24.998"/>
	<rect x="145.002" y="-11.005" fill="#EB5D5E" width="2" height="24.998"/>
	<rect x="147.002" y="-11.005" fill="#EB5B5B" width="2" height="24.998"/>
	<rect x="149.002" y="-11.005" fill="#EB5859" width="2" height="24.998"/>
	<rect x="151.002" y="-11.005" fill="#EA5657" width="2" height="24.998"/>
	<rect x="153.002" y="-11.005" fill="#EA5455" width="2" height="24.998"/>
	<rect x="155.002" y="-11.005" fill="#EA5252" width="2" height="24.998"/>
	<rect x="157.002" y="-11.005" fill="#EA4F50" width="2" height="24.998"/>
	<rect x="159.002" y="-11.005" fill="#E94D4E" width="2" height="24.998"/>
	<rect x="161.002" y="-11.005" fill="#E94B4C" width="2" height="24.998"/>
	<rect x="163.002" y="-11.005" fill="#E94849" width="2" height="24.998"/>
	<rect x="165.002" y="-11.005" fill="#E84647" width="2" height="24.998"/>
	<rect x="167.002" y="-11.005" fill="#E84445" width="2" height="24.998"/>
	<rect x="169.002" y="-11.005" fill="#E84142" width="2" height="24.998"/>
	<rect x="171.002" y="-11.005" fill="#E83F40" width="2" height="24.998"/>
	<rect x="173.002" y="-11.005" fill="#E73D3E" width="2" height="24.998"/>
	<rect x="175.002" y="-11.005" fill="#E73A3C" width="2" height="24.998"/>
	<rect x="177.002" y="-11.005" fill="#E73839" width="2" height="24.998"/>
	<rect x="179.002" y="-11.005" fill="#E63637" width="2" height="24.998"/>
	<rect x="181.002" y="-11.005" fill="#E63335" width="2" height="24.998"/>
	<rect x="183.002" y="-11.005" fill="#E63133" width="2" height="24.998"/>
	<rect x="185.002" y="-11.005" fill="#E62F30" width="2" height="24.998"/>
	<rect x="187.002" y="-11.005" fill="#E52D2E" width="2" height="24.998"/>
	<rect x="189.002" y="-11.005" fill="#E52A2C" width="2" height="24.998"/>
	<rect x="191.002" y="-11.005" fill="#E5282A" width="2" height="24.998"/>
	<rect x="193.002" y="-11.005" fill="#E42627" width="2" height="24.998"/>
	<rect x="195.002" y="-11.005" fill="#E42325" width="2" height="24.998"/>
	<rect x="197.002" y="-11.005" fill="#E42123" width="2" height="24.998"/>
	<rect x="199.002" y="-11.005" fill="#E41F21" width="2" height="24.998"/>
	<rect x="201.002" y="-11.005" fill="#E31C1E" width="2" height="24.998"/>
	<rect x="203.002" y="-11.005" fill="#E31A1C" width="2" height="24.998"/>
	<text transform="matrix(1 0 0 1 5.0029 6.4937)" font-family="'ArialMT'" font-size="12">0</text>
	<text transform="matrix(1 0 0 1 55.0029 6.4937)" font-family="'ArialMT'" font-size="12">20</text>
	<text transform="matrix(1 0 0 1 105.0029 6.4937)" font-family="'ArialMT'" font-size="12">40</text>
	<text transform="matrix(1 0 0 1 155.0029 6.4937)" font-family="'ArialMT'" font-size="12">60</text>
	<text transform="matrix(1 0 0 1 5.0029 -15.8062)" font-family="'ArialMT'" font-size="12">Number of climbs</text>
</g>
</svg>
