<?xml version="1.0" encoding="utf-8"?>
<!-- Generator: Adobe Illustrator 16.0.0, SVG Export Plug-In . SVG Version: 6.00 Build 0)  -->
<!DOCTYPE svg PUBLIC "-//W3C//DTD SVG 1.1//EN" "http://www.w3.org/Graphics/SVG/1.1/DTD/svg11.dtd">
<svg version="1.1" id="Layer_1" xmlns="http://www.w3.org/2000/svg" xmlns:xlink="http://www.w3.org/1999/xlink" x="0px" y="0px"
	 width="465px" height="154.5px" viewBox="-10.5 0 465 154.5" enable-background="new -10.5 0 465 154.5" xml:space="preserve">
<line fill="none" stroke="#000000" stroke-width="0.5" stroke-miterlimit="10" x1="103.908" y1="130" x2="103.908" y2="136"/>
<text transform="matrix(1 0 0 1 96.0889 147.5195)" font-family="'ArialMT'" font-size="12">&apos;30</text>
<line fill="none" stroke="#000000" stroke-width="0.5" stroke-miterlimit="10" x1="142.988" y1="130" x2="142.988" y2="136"/>
<text transform="matrix(1 0 0 1 135.1689 147.5195)" font-family="'ArialMT'" font-size="12">&apos;40</text>
<line fill="none" stroke="#000000" stroke-width="0.5" stroke-miterlimit="10" x1="182.069" y1="130" x2="182.069" y2="136"/>
<text transform="matrix(1 0 0 1 174.2495 147.5195)" font-family="'ArialMT'" font-size="12">&apos;50</text>
<line fill="none" stroke="#000000" stroke-width="0.5" stroke-miterlimit="10" x1="221.149" y1="130" x2="221.149" y2="136"/>
<text transform="matrix(1 0 0 1 213.3301 147.5195)" font-family="'ArialMT'" font-size="12">&apos;60</text>
<line fill="none" stroke="#000000" stroke-width="0.5" stroke-miterlimit="10" x1="260.23" y1="130" x2="260.23" y2="136"/>
<text transform="matrix(1 0 0 1 252.4102 147.5195)" font-family="'ArialMT'" font-size="12">&apos;70</text>
<line fill="none" stroke="#000000" stroke-width="0.5" stroke-miterlimit="10" x1="299.311" y1="130" x2="299.311" y2="136"/>
<text transform="matrix(1 0 0 1 291.4912 147.5195)" font-family="'ArialMT'" font-size="12">&apos;80</text>
<line fill="none" stroke="#000000" stroke-width="0.5" stroke-miterlimit="10" x1="338.391" y1="130" x2="338.391" y2="136"/>
<text transform="matrix(1 0 0 1 330.5713 147.5195)" font-family="'ArialMT'" font-size="12">&apos;90</text>
<line fill="none" stroke="#000000" stroke-width="0.5" stroke-miterlimit="10" x1="377.471" y1="130" x2="377.471" y2="136"/>
<text transform="matrix(1 0 0 1 369.6523 147.5195)" font-family="'ArialMT'" font-size="12">&apos;00</text>
<line fill="none" stroke="#000000" stroke-width="0.5" stroke-miterlimit="10" x1="416.552" y1="130" x2="416.552" y2="136"/>
<text transform="matrix(1 0 0 1 408.7324 147.5195)" font-family="'ArialMT'" font-size="12">&apos;10</text>
<text transform="matrix(1 0 0 1 426.001 146.999)" font-family="'ArialMT'" font-size="12">Year</text>
<line fill="none" x1="100" y1="30" x2="94" y2="30"/>
<text transform="matrix(1 0 0 1 12.9707 33.8398)" font-family="'ArialMT'" font-size="12">Whitney Portal</text>
<line fill="none" x1="100" y1="48" x2="94" y2="48"/>
<text transform="matrix(1 0 0 1 -6.3711 51.8398)" font-family="'ArialMT'" font-size="12">Wind River Range</text>
<line fill="none" x1="100" y1="66" x2="94" y2="66"/>
<text transform="matrix(1 0 0 1 54.9824 69.8398)" font-family="'ArialMT'" font-size="12">Stikine</text>
<line fill="none" x1="100" y1="84" x2="94" y2="84"/>
<text transform="matrix(1 0 0 1 2.2715 87.8398)" font-family="'ArialMT'" font-size="12">Sawtooth Range</text>
<line fill="none" x1="100" y1="102" x2="94" y2="102"/>
<text transform="matrix(1 0 0 1 12.959 105.8398)" font-family="'ArialMT'" font-size="12">Mt. Huntington</text>
<line fill="none" x1="100" y1="120" x2="94" y2="120"/>
<text transform="matrix(1 0 0 1 4.9434 123.8398)" font-family="'ArialMT'" font-size="12">Cascade Range</text>
<circle opacity="0.1" cx="228.965" cy="30" r="5"/>
<circle opacity="0.1" cx="252.414" cy="30" r="5"/>
<circle opacity="0.1" cx="264.138" cy="30" r="5"/>
<circle opacity="0.1" cx="264.138" cy="30" r="5"/>
<circle opacity="0.1" cx="264.138" cy="30" r="5"/>
<circle opacity="0.1" cx="283.678" cy="30" r="5"/>
<circle opacity="0.1" cx="291.494" cy="30" r="5"/>
<circle opacity="0.1" cx="291.494" cy="30" r="5"/>
<circle opacity="0.1" cx="295.402" cy="30" r="5"/>
<circle opacity="0.1" cx="311.035" cy="30" r="5"/>
<circle opacity="0.1" cx="314.942" cy="30" r="5"/>
<circle opacity="0.1" cx="357.932" cy="30" r="5"/>
<circle opacity="0.1" cx="381.379" cy="30" r="5"/>
<circle opacity="0.1" cx="424.368" cy="30" r="5"/>
<circle opacity="0.1" cx="428.275" cy="30" r="5"/>
<circle opacity="0.1" cx="428.275" cy="30" r="5"/>
<circle opacity="0.1" cx="436.092" cy="48" r="5"/>
<circle opacity="0.1" cx="436.092" cy="48" r="5"/>
<circle opacity="0.1" cx="432.184" cy="48" r="5"/>
<circle opacity="0.1" cx="432.184" cy="48" r="5"/>
<circle opacity="0.1" cx="432.184" cy="48" r="5"/>
<circle opacity="0.1" cx="432.184" cy="48" r="5"/>
<circle opacity="0.1" cx="432.184" cy="48" r="5"/>
<circle opacity="0.1" cx="428.275" cy="48" r="5"/>
<circle opacity="0.1" cx="428.275" cy="48" r="5"/>
<circle opacity="0.1" cx="428.275" cy="48" r="5"/>
<circle opacity="0.1" cx="428.275" cy="48" r="5"/>
<circle opacity="0.1" cx="428.275" cy="48" r="5"/>
<circle opacity="0.1" cx="428.275" cy="48" r="5"/>
<circle opacity="0.1" cx="428.275" cy="48" r="5"/>
<circle opacity="0.1" cx="424.368" cy="48" r="5"/>
<circle opacity="0.1" cx="424.368" cy="48" r="5"/>
<circle opacity="0.1" cx="420.46" cy="48" r="5"/>
<circle opacity="0.1" cx="416.552" cy="48" r="5"/>
<circle opacity="0.1" cx="397.012" cy="48" r="5"/>
<circle opacity="0.1" cx="397.012" cy="48" r="5"/>
<circle opacity="0.1" cx="381.379" cy="48" r="5"/>
<circle opacity="0.1" cx="381.379" cy="48" r="5"/>
<circle opacity="0.1" cx="373.563" cy="48" r="5"/>
<circle opacity="0.1" cx="369.655" cy="48" r="5"/>
<circle opacity="0.1" cx="369.655" cy="48" r="5"/>
<circle opacity="0.1" cx="369.655" cy="48" r="5"/>
<circle opacity="0.1" cx="369.655" cy="48" r="5"/>
<circle opacity="0.1" cx="365.747" cy="48" r="5"/>
<circle opacity="0.1" cx="365.747" cy="48" r="5"/>
<circle opacity="0.1" cx="357.932" cy="48" r="5"/>
<circle opacity="0.1" cx="357.932" cy="48" r="5"/>
<circle opacity="0.1" cx="354.023" cy="48" r="5"/>
<circle opacity="0.1" cx="354.023" cy="48" r="5"/>
<circle opacity="0.1" cx="350.115" cy="48" r="5"/>
<circle opacity="0.1" cx="346.207" cy="48" r="5"/>
<circle opacity="0.1" cx="346.207" cy="48" r="5"/>
<circle opacity="0.1" cx="342.299" cy="48" r="5"/>
<circle opacity="0.1" cx="342.299" cy="48" r="5"/>
<circle opacity="0.1" cx="342.299" cy="48" r="5"/>
<circle opacity="0.1" cx="338.391" cy="48" r="5"/>
<circle opacity="0.1" cx="338.391" cy="48" r="5"/>
<circle opacity="0.1" cx="338.391" cy="48" r="5"/>
<circle opacity="0.1" cx="338.391" cy="48" r="5"/>
<circle opacity="0.1" cx="338.391" cy="48" r="5"/>
<circle opacity="0.1" cx="338.391" cy="48" r="5"/>
<circle opacity="0.1" cx="334.482" cy="48" r="5"/>
<circle opacity="0.1" cx="330.574" cy="48" r="5"/>
<circle opacity="0.1" cx="326.666" cy="48" r="5"/>
<circle opacity="0.1" cx="322.759" cy="48" r="5"/>
<circle opacity="0.1" cx="318.851" cy="48" r="5"/>
<circle opacity="0.1" cx="318.851" cy="48" r="5"/>
<circle opacity="0.1" cx="314.942" cy="48" r="5"/>
<circle opacity="0.1" cx="314.942" cy="48" r="5"/>
<circle opacity="0.1" cx="314.942" cy="48" r="5"/>
<circle opacity="0.1" cx="314.942" cy="48" r="5"/>
<circle opacity="0.1" cx="314.942" cy="48" r="5"/>
<circle opacity="0.1" cx="311.035" cy="48" r="5"/>
<circle opacity="0.1" cx="311.035" cy="48" r="5"/>
<circle opacity="0.1" cx="311.035" cy="48" r="5"/>
<circle opacity="0.1" cx="303.219" cy="48" r="5"/>
<circle opacity="0.1" cx="303.219" cy="48" r="5"/>
<circle opacity="0.1" cx="303.219" cy="48" r="5"/>
<circle opacity="0.1" cx="299.311" cy="48" r="5"/>
<circle opacity="0.1" cx="299.311" cy="48" r="5"/>
<circle opacity="0.1" cx="299.311" cy="48" r="5"/>
<circle opacity="0.1" cx="299.311" cy="48" r="5"/>
<circle opacity="0.1" cx="299.311" cy="48" r="5"/>
<circle opacity="0.1" cx="295.402" cy="48" r="5"/>
<circle opacity="0.1" cx="291.494" cy="48" r="5"/>
<circle opacity="0.1" cx="291.494" cy="48" r="5"/>
<circle opacity="0.1" cx="291.494" cy="48" r="5"/>
<circle opacity="0.1" cx="291.494" cy="48" r="5"/>
<circle opacity="0.1" cx="291.494" cy="48" r="5"/>
<circle opacity="0.1" cx="287.586" cy="48" r="5"/>
<circle opacity="0.1" cx="287.586" cy="48" r="5"/>
<circle opacity="0.1" cx="287.586" cy="48" r="5"/>
<circle opacity="0.1" cx="287.586" cy="48" r="5"/>
<circle opacity="0.1" cx="283.678" cy="48" r="5"/>
<circle opacity="0.1" cx="283.678" cy="48" r="5"/>
<circle opacity="0.1" cx="283.678" cy="48" r="5"/>
<circle opacity="0.1" cx="279.77" cy="48" r="5"/>
<circle opacity="0.1" cx="279.77" cy="48" r="5"/>
<circle opacity="0.1" cx="279.77" cy="48" r="5"/>
<circle opacity="0.1" cx="279.77" cy="48" r="5"/>
<circle opacity="0.1" cx="275.862" cy="48" r="5"/>
<circle opacity="0.1" cx="275.862" cy="48" r="5"/>
<circle opacity="0.1" cx="275.862" cy="48" r="5"/>
<circle opacity="0.1" cx="275.862" cy="48" r="5"/>
<circle opacity="0.1" cx="275.862" cy="48" r="5"/>
<circle opacity="0.1" cx="271.954" cy="48" r="5"/>
<circle opacity="0.1" cx="271.954" cy="48" r="5"/>
<circle opacity="0.1" cx="268.046" cy="48" r="5"/>
<circle opacity="0.1" cx="268.046" cy="48" r="5"/>
<circle opacity="0.1" cx="268.046" cy="48" r="5"/>
<circle opacity="0.1" cx="268.046" cy="48" r="5"/>
<circle opacity="0.1" cx="264.138" cy="48" r="5"/>
<circle opacity="0.1" cx="264.138" cy="48" r="5"/>
<circle opacity="0.1" cx="264.138" cy="48" r="5"/>
<circle opacity="0.1" cx="264.138" cy="48" r="5"/>
<circle opacity="0.1" cx="264.138" cy="48" r="5"/>
<circle opacity="0.1" cx="264.138" cy="48" r="5"/>
<circle opacity="0.1" cx="260.23" cy="48" r="5"/>
<circle opacity="0.1" cx="260.23" cy="48" r="5"/>
<circle opacity="0.1" cx="260.23" cy="48" r="5"/>
<circle opacity="0.1" cx="260.23" cy="48" r="5"/>
<circle opacity="0.1" cx="260.23" cy="48" r="5"/>
<circle opacity="0.1" cx="260.23" cy="48" r="5"/>
<circle opacity="0.1" cx="260.23" cy="48" r="5"/>
<circle opacity="0.1" cx="260.23" cy="48" r="5"/>
<circle opacity="0.1" cx="260.23" cy="48" r="5"/>
<circle opacity="0.1" cx="260.23" cy="48" r="5"/>
<circle opacity="0.1" cx="256.322" cy="48" r="5"/>
<circle opacity="0.1" cx="256.322" cy="48" r="5"/>
<circle opacity="0.1" cx="256.322" cy="48" r="5"/>
<circle opacity="0.1" cx="256.322" cy="48" r="5"/>
<circle opacity="0.1" cx="252.414" cy="48" r="5"/>
<circle opacity="0.1" cx="252.414" cy="48" r="5"/>
<circle opacity="0.1" cx="252.414" cy="48" r="5"/>
<circle opacity="0.1" cx="248.506" cy="48" r="5"/>
<circle opacity="0.1" cx="248.506" cy="48" r="5"/>
<circle opacity="0.1" cx="248.506" cy="48" r="5"/>
<circle opacity="0.1" cx="244.598" cy="48" r="5"/>
<circle opacity="0.1" cx="244.598" cy="48" r="5"/>
<circle opacity="0.1" cx="244.598" cy="48" r="5"/>
<circle opacity="0.1" cx="244.598" cy="48" r="5"/>
<circle opacity="0.1" cx="240.689" cy="48" r="5"/>
<circle opacity="0.1" cx="240.689" cy="48" r="5"/>
<circle opacity="0.1" cx="236.781" cy="48" r="5"/>
<circle opacity="0.1" cx="236.781" cy="48" r="5"/>
<circle opacity="0.1" cx="236.781" cy="48" r="5"/>
<circle opacity="0.1" cx="236.781" cy="48" r="5"/>
<circle opacity="0.1" cx="236.781" cy="48" r="5"/>
<circle opacity="0.1" cx="236.781" cy="48" r="5"/>
<circle opacity="0.1" cx="236.781" cy="48" r="5"/>
<circle opacity="0.1" cx="236.781" cy="48" r="5"/>
<circle opacity="0.1" cx="236.781" cy="48" r="5"/>
<circle opacity="0.1" cx="236.781" cy="48" r="5"/>
<circle opacity="0.1" cx="236.781" cy="48" r="5"/>
<circle opacity="0.1" cx="236.781" cy="48" r="5"/>
<circle opacity="0.1" cx="236.781" cy="48" r="5"/>
<circle opacity="0.1" cx="236.781" cy="48" r="5"/>
<circle opacity="0.1" cx="236.781" cy="48" r="5"/>
<circle opacity="0.1" cx="232.873" cy="48" r="5"/>
<circle opacity="0.1" cx="232.873" cy="48" r="5"/>
<circle opacity="0.1" cx="232.873" cy="48" r="5"/>
<circle opacity="0.1" cx="228.965" cy="48" r="5"/>
<circle opacity="0.1" cx="228.965" cy="48" r="5"/>
<circle opacity="0.1" cx="228.965" cy="48" r="5"/>
<circle opacity="0.1" cx="228.965" cy="48" r="5"/>
<circle opacity="0.1" cx="228.965" cy="48" r="5"/>
<circle opacity="0.1" cx="225.058" cy="48" r="5"/>
<circle opacity="0.1" cx="225.058" cy="48" r="5"/>
<circle opacity="0.1" cx="225.058" cy="48" r="5"/>
<circle opacity="0.1" cx="225.058" cy="48" r="5"/>
<circle opacity="0.1" cx="225.058" cy="48" r="5"/>
<circle opacity="0.1" cx="225.058" cy="48" r="5"/>
<circle opacity="0.1" cx="225.058" cy="48" r="5"/>
<circle opacity="0.1" cx="225.058" cy="48" r="5"/>
<circle opacity="0.1" cx="225.058" cy="48" r="5"/>
<circle opacity="0.1" cx="221.149" cy="48" r="5"/>
<circle opacity="0.1" cx="221.149" cy="48" r="5"/>
<circle opacity="0.1" cx="221.149" cy="48" r="5"/>
<circle opacity="0.1" cx="221.149" cy="48" r="5"/>
<circle opacity="0.1" cx="221.149" cy="48" r="5"/>
<circle opacity="0.1" cx="221.149" cy="48" r="5"/>
<circle opacity="0.1" cx="217.241" cy="48" r="5"/>
<circle opacity="0.1" cx="213.333" cy="48" r="5"/>
<circle opacity="0.1" cx="213.333" cy="48" r="5"/>
<circle opacity="0.1" cx="209.425" cy="48" r="5"/>
<circle opacity="0.1" cx="197.701" cy="48" r="5"/>
<circle opacity="0.1" cx="170.345" cy="48" r="5"/>
<circle opacity="0.1" cx="166.437" cy="48" r="5"/>
<circle opacity="0.1" cx="166.437" cy="48" r="5"/>
<circle opacity="0.1" cx="142.988" cy="48" r="5"/>
<circle opacity="0.1" cx="139.081" cy="48" r="5"/>
<circle opacity="0.1" cx="139.081" cy="48" r="5"/>
<circle opacity="0.1" cx="127.356" cy="48" r="5"/>
<circle opacity="0.1" cx="119.54" cy="48" r="5"/>
<circle opacity="0.1" cx="103.908" cy="48" r="5"/>
<circle opacity="0.1" cx="100" cy="48" r="5"/>
<circle opacity="0.1" cx="100" cy="48" r="5"/>
<circle opacity="0.1" cx="178.161" cy="66" r="5"/>
<circle opacity="0.1" cx="236.781" cy="66" r="5"/>
<circle opacity="0.1" cx="236.781" cy="66" r="5"/>
<circle opacity="0.1" cx="240.689" cy="66" r="5"/>
<circle opacity="0.1" cx="260.23" cy="66" r="5"/>
<circle opacity="0.1" cx="260.23" cy="66" r="5"/>
<circle opacity="0.1" cx="264.138" cy="66" r="5"/>
<circle opacity="0.1" cx="268.046" cy="66" r="5"/>
<circle opacity="0.1" cx="275.862" cy="66" r="5"/>
<circle opacity="0.1" cx="287.586" cy="66" r="5"/>
<circle opacity="0.1" cx="295.402" cy="66" r="5"/>
<circle opacity="0.1" cx="295.402" cy="66" r="5"/>
<circle opacity="0.1" cx="299.311" cy="66" r="5"/>
<circle opacity="0.1" cx="299.311" cy="66" r="5"/>
<circle opacity="0.1" cx="307.127" cy="66" r="5"/>
<circle opacity="0.1" cx="318.851" cy="66" r="5"/>
<circle opacity="0.1" cx="342.299" cy="66" r="5"/>
<circle opacity="0.1" cx="350.115" cy="66" r="5"/>
<circle opacity="0.1" cx="350.115" cy="66" r="5"/>
<circle opacity="0.1" cx="350.115" cy="66" r="5"/>
<circle opacity="0.1" cx="365.747" cy="66" r="5"/>
<circle opacity="0.1" cx="377.471" cy="66" r="5"/>
<circle opacity="0.1" cx="381.379" cy="66" r="5"/>
<circle opacity="0.1" cx="385.287" cy="66" r="5"/>
<circle opacity="0.1" cx="385.287" cy="66" r="5"/>
<circle opacity="0.1" cx="397.012" cy="66" r="5"/>
<circle opacity="0.1" cx="400.92" cy="66" r="5"/>
<circle opacity="0.1" cx="412.644" cy="66" r="5"/>
<circle opacity="0.1" cx="412.644" cy="66" r="5"/>
<circle opacity="0.1" cx="412.644" cy="66" r="5"/>
<circle opacity="0.1" cx="416.552" cy="66" r="5"/>
<circle opacity="0.1" cx="416.552" cy="66" r="5"/>
<circle opacity="0.1" cx="416.552" cy="66" r="5"/>
<circle opacity="0.1" cx="420.46" cy="66" r="5"/>
<circle opacity="0.1" cx="424.368" cy="66" r="5"/>
<circle opacity="0.1" cx="424.368" cy="66" r="5"/>
<circle opacity="0.1" cx="436.092" cy="66" r="5"/>
<circle opacity="0.1" cx="436.092" cy="66" r="5"/>
<circle opacity="0.1" cx="170.345" cy="84" r="5"/>
<circle opacity="0.1" cx="178.161" cy="84" r="5"/>
<circle opacity="0.1" cx="221.149" cy="84" r="5"/>
<circle opacity="0.1" cx="221.149" cy="84" r="5"/>
<circle opacity="0.1" cx="225.058" cy="84" r="5"/>
<circle opacity="0.1" cx="228.965" cy="84" r="5"/>
<circle opacity="0.1" cx="228.965" cy="84" r="5"/>
<circle opacity="0.1" cx="228.965" cy="84" r="5"/>
<circle opacity="0.1" cx="228.965" cy="84" r="5"/>
<circle opacity="0.1" cx="228.965" cy="84" r="5"/>
<circle opacity="0.1" cx="228.965" cy="84" r="5"/>
<circle opacity="0.1" cx="232.873" cy="84" r="5"/>
<circle opacity="0.1" cx="232.873" cy="84" r="5"/>
<circle opacity="0.1" cx="236.781" cy="84" r="5"/>
<circle opacity="0.1" cx="240.689" cy="84" r="5"/>
<circle opacity="0.1" cx="240.689" cy="84" r="5"/>
<circle opacity="0.1" cx="240.689" cy="84" r="5"/>
<circle opacity="0.1" cx="240.689" cy="84" r="5"/>
<circle opacity="0.1" cx="248.506" cy="84" r="5"/>
<circle opacity="0.1" cx="260.23" cy="84" r="5"/>
<circle opacity="0.1" cx="264.138" cy="84" r="5"/>
<circle opacity="0.1" cx="268.046" cy="84" r="5"/>
<circle opacity="0.1" cx="271.954" cy="84" r="5"/>
<circle opacity="0.1" cx="275.862" cy="84" r="5"/>
<circle opacity="0.1" cx="279.77" cy="84" r="5"/>
<circle opacity="0.1" cx="279.77" cy="84" r="5"/>
<circle opacity="0.1" cx="291.494" cy="84" r="5"/>
<circle opacity="0.1" cx="291.494" cy="84" r="5"/>
<circle opacity="0.1" cx="291.494" cy="84" r="5"/>
<circle opacity="0.1" cx="307.127" cy="84" r="5"/>
<circle opacity="0.1" cx="393.104" cy="84" r="5"/>
<circle opacity="0.1" cx="393.104" cy="84" r="5"/>
<circle opacity="0.1" cx="400.92" cy="84" r="5"/>
<circle opacity="0.1" cx="432.184" cy="84" r="5"/>
<circle opacity="0.1" cx="432.184" cy="84" r="5"/>
<circle opacity="0.1" cx="197.701" cy="102" r="5"/>
<circle opacity="0.1" cx="225.058" cy="102" r="5"/>
<circle opacity="0.1" cx="228.965" cy="102" r="5"/>
<circle opacity="0.1" cx="232.873" cy="102" r="5"/>
<circle opacity="0.1" cx="232.873" cy="102" r="5"/>
<circle opacity="0.1" cx="232.873" cy="102" r="5"/>
<circle opacity="0.1" cx="236.781" cy="102" r="5"/>
<circle opacity="0.1" cx="236.781" cy="102" r="5"/>
<circle opacity="0.1" cx="236.781" cy="102" r="5"/>
<circle opacity="0.1" cx="240.689" cy="102" r="5"/>
<circle opacity="0.1" cx="240.689" cy="102" r="5"/>
<circle opacity="0.1" cx="244.598" cy="102" r="5"/>
<circle opacity="0.1" cx="244.598" cy="102" r="5"/>
<circle opacity="0.1" cx="244.598" cy="102" r="5"/>
<circle opacity="0.1" cx="244.598" cy="102" r="5"/>
<circle opacity="0.1" cx="248.506" cy="102" r="5"/>
<circle opacity="0.1" cx="252.414" cy="102" r="5"/>
<circle opacity="0.1" cx="252.414" cy="102" r="5"/>
<circle opacity="0.1" cx="264.138" cy="102" r="5"/>
<circle opacity="0.1" cx="268.046" cy="102" r="5"/>
<circle opacity="0.1" cx="268.046" cy="102" r="5"/>
<circle opacity="0.1" cx="271.954" cy="102" r="5"/>
<circle opacity="0.1" cx="279.77" cy="102" r="5"/>
<circle opacity="0.1" cx="283.678" cy="102" r="5"/>
<circle opacity="0.1" cx="283.678" cy="102" r="5"/>
<circle opacity="0.1" cx="283.678" cy="102" r="5"/>
<circle opacity="0.1" cx="291.494" cy="102" r="5"/>
<circle opacity="0.1" cx="291.494" cy="102" r="5"/>
<circle opacity="0.1" cx="291.494" cy="102" r="5"/>
<circle opacity="0.1" cx="291.494" cy="102" r="5"/>
<circle opacity="0.1" cx="291.494" cy="102" r="5"/>
<circle opacity="0.1" cx="291.494" cy="102" r="5"/>
<circle opacity="0.1" cx="291.494" cy="102" r="5"/>
<circle opacity="0.1" cx="291.494" cy="102" r="5"/>
<circle opacity="0.1" cx="295.402" cy="102" r="5"/>
<circle opacity="0.1" cx="295.402" cy="102" r="5"/>
<circle opacity="0.1" cx="295.402" cy="102" r="5"/>
<circle opacity="0.1" cx="295.402" cy="102" r="5"/>
<circle opacity="0.1" cx="299.311" cy="102" r="5"/>
<circle opacity="0.1" cx="299.311" cy="102" r="5"/>
<circle opacity="0.1" cx="299.311" cy="102" r="5"/>
<circle opacity="0.1" cx="303.219" cy="102" r="5"/>
<circle opacity="0.1" cx="303.219" cy="102" r="5"/>
<circle opacity="0.1" cx="303.219" cy="102" r="5"/>
<circle opacity="0.1" cx="307.127" cy="102" r="5"/>
<circle opacity="0.1" cx="311.035" cy="102" r="5"/>
<circle opacity="0.1" cx="311.035" cy="102" r="5"/>
<circle opacity="0.1" cx="311.035" cy="102" r="5"/>
<circle opacity="0.1" cx="314.942" cy="102" r="5"/>
<circle opacity="0.1" cx="314.942" cy="102" r="5"/>
<circle opacity="0.1" cx="314.942" cy="102" r="5"/>
<circle opacity="0.1" cx="318.851" cy="102" r="5"/>
<circle opacity="0.1" cx="318.851" cy="102" r="5"/>
<circle opacity="0.1" cx="322.759" cy="102" r="5"/>
<circle opacity="0.1" cx="330.574" cy="102" r="5"/>
<circle opacity="0.1" cx="334.482" cy="102" r="5"/>
<circle opacity="0.1" cx="338.391" cy="102" r="5"/>
<circle opacity="0.1" cx="342.299" cy="102" r="5"/>
<circle opacity="0.1" cx="342.299" cy="102" r="5"/>
<circle opacity="0.1" cx="342.299" cy="102" r="5"/>
<circle opacity="0.1" cx="342.299" cy="102" r="5"/>
<circle opacity="0.1" cx="342.299" cy="102" r="5"/>
<circle opacity="0.1" cx="346.207" cy="102" r="5"/>
<circle opacity="0.1" cx="346.207" cy="102" r="5"/>
<circle opacity="0.1" cx="346.207" cy="102" r="5"/>
<circle opacity="0.1" cx="350.115" cy="102" r="5"/>
<circle opacity="0.1" cx="350.115" cy="102" r="5"/>
<circle opacity="0.1" cx="350.115" cy="102" r="5"/>
<circle opacity="0.1" cx="354.023" cy="102" r="5"/>
<circle opacity="0.1" cx="354.023" cy="102" r="5"/>
<circle opacity="0.1" cx="357.932" cy="102" r="5"/>
<circle opacity="0.1" cx="365.747" cy="102" r="5"/>
<circle opacity="0.1" cx="369.655" cy="102" r="5"/>
<circle opacity="0.1" cx="373.563" cy="102" r="5"/>
<circle opacity="0.1" cx="377.471" cy="102" r="5"/>
<circle opacity="0.1" cx="377.471" cy="102" r="5"/>
<circle opacity="0.1" cx="377.471" cy="102" r="5"/>
<circle opacity="0.1" cx="381.379" cy="102" r="5"/>
<circle opacity="0.1" cx="381.379" cy="102" r="5"/>
<circle opacity="0.1" cx="385.287" cy="102" r="5"/>
<circle opacity="0.1" cx="385.287" cy="102" r="5"/>
<circle opacity="0.1" cx="385.287" cy="102" r="5"/>
<circle opacity="0.1" cx="393.104" cy="102" r="5"/>
<circle opacity="0.1" cx="397.012" cy="102" r="5"/>
<circle opacity="0.1" cx="397.012" cy="102" r="5"/>
<circle opacity="0.1" cx="397.012" cy="102" r="5"/>
<circle opacity="0.1" cx="397.012" cy="102" r="5"/>
<circle opacity="0.1" cx="400.92" cy="102" r="5"/>
<circle opacity="0.1" cx="408.735" cy="102" r="5"/>
<circle opacity="0.1" cx="412.644" cy="102" r="5"/>
<circle opacity="0.1" cx="420.46" cy="102" r="5"/>
<circle opacity="0.1" cx="432.184" cy="102" r="5"/>
<circle opacity="0.1" cx="400.92" cy="120" r="5"/>
<circle opacity="0.1" cx="400.92" cy="120" r="5"/>
<circle opacity="0.1" cx="400.92" cy="120" r="5"/>
<circle opacity="0.1" cx="400.92" cy="120" r="5"/>
<circle opacity="0.1" cx="400.92" cy="120" r="5"/>
<circle opacity="0.1" cx="400.92" cy="120" r="5"/>
<circle opacity="0.1" cx="400.92" cy="120" r="5"/>
<circle opacity="0.1" cx="400.92" cy="120" r="5"/>
<circle opacity="0.1" cx="400.92" cy="120" r="5"/>
<circle opacity="0.1" cx="400.92" cy="120" r="5"/>
<circle opacity="0.1" cx="400.92" cy="120" r="5"/>
<circle opacity="0.1" cx="397.012" cy="120" r="5"/>
<circle opacity="0.1" cx="393.104" cy="120" r="5"/>
<circle opacity="0.1" cx="393.104" cy="120" r="5"/>
<circle opacity="0.1" cx="393.104" cy="120" r="5"/>
<circle opacity="0.1" cx="393.104" cy="120" r="5"/>
<circle opacity="0.1" cx="393.104" cy="120" r="5"/>
<circle opacity="0.1" cx="393.104" cy="120" r="5"/>
<circle opacity="0.1" cx="393.104" cy="120" r="5"/>
<circle opacity="0.1" cx="393.104" cy="120" r="5"/>
<circle opacity="0.1" cx="354.023" cy="120" r="5"/>
<circle opacity="0.1" cx="326.666" cy="120" r="5"/>
<circle opacity="0.1" cx="326.666" cy="120" r="5"/>
<circle opacity="0.1" cx="295.402" cy="120" r="5"/>
<circle opacity="0.1" cx="295.402" cy="120" r="5"/>
<circle opacity="0.1" cx="295.402" cy="120" r="5"/>
<circle opacity="0.1" cx="295.402" cy="120" r="5"/>
<circle opacity="0.1" cx="295.402" cy="120" r="5"/>
<circle opacity="0.1" cx="295.402" cy="120" r="5"/>
<circle opacity="0.1" cx="295.402" cy="120" r="5"/>
<circle opacity="0.1" cx="295.402" cy="120" r="5"/>
<circle opacity="0.1" cx="295.402" cy="120" r="5"/>
<circle opacity="0.1" cx="295.402" cy="120" r="5"/>
<circle opacity="0.1" cx="295.402" cy="120" r="5"/>
<circle opacity="0.1" cx="295.402" cy="120" r="5"/>
<circle opacity="0.1" cx="295.402" cy="120" r="5"/>
<circle opacity="0.1" cx="295.402" cy="120" r="5"/>
<circle opacity="0.1" cx="295.402" cy="120" r="5"/>
<circle opacity="0.1" cx="295.402" cy="120" r="5"/>
<circle opacity="0.1" cx="295.402" cy="120" r="5"/>
<circle opacity="0.1" cx="295.402" cy="120" r="5"/>
<circle opacity="0.1" cx="295.402" cy="120" r="5"/>
<circle opacity="0.1" cx="287.586" cy="120" r="5"/>
<circle opacity="0.1" cx="279.77" cy="120" r="5"/>
<circle opacity="0.1" cx="271.954" cy="120" r="5"/>
<circle opacity="0.1" cx="271.954" cy="120" r="5"/>
<circle opacity="0.1" cx="244.598" cy="120" r="5"/>
<circle opacity="0.1" cx="240.689" cy="120" r="5"/>
<circle opacity="0.1" cx="225.058" cy="120" r="5"/>
<circle opacity="0.1" cx="217.241" cy="120" r="5"/>
<circle opacity="0.1" cx="158.621" cy="120" r="5"/>
<circle opacity="0.1" cx="123.448" cy="120" r="5"/>
<circle opacity="0.1" cx="123.448" cy="120" r="5"/>
<g transform="translate(0,-20)">
	<circle fill="#BA4B4E" cx="110" cy="30" r="5"/>
	<text transform="matrix(1 0 0 1 120 34.7998)" font-family="'ArialMT'" font-size="12">Beckey</text>
	<circle opacity="0.2" cx="210" cy="30" r="5"/>
	<text transform="matrix(1 0 0 1 220 34.7998)" font-family="'ArialMT'" font-size="12">Everyone Else</text>
</g>
<circle fill="#BA4B4E" cx="248.506" cy="30" r="5"/>
<circle fill="#639F43" cx="174.253" cy="48" r="5"/>
<circle fill="#AC7B32" cx="166.437" cy="66" r="5"/>
<circle fill="#4C8987" cx="174.253" cy="84" r="5"/>
<circle fill="#C054B6" cx="209.425" cy="102" r="5"/>
<circle fill="#7B72AF" cx="201.609" cy="120" r="5"/>
</svg>
