<?xml version="1.0" encoding="utf-8"?>
<!-- Generator: Adobe Illustrator 16.0.0, SVG Export Plug-In . SVG Version: 6.00 Build 0)  -->
<!DOCTYPE svg PUBLIC "-//W3C//DTD SVG 1.1//EN" "http://www.w3.org/Graphics/SVG/1.1/DTD/svg11.dtd">
<svg version="1.1" id="Layer_1" xmlns="http://www.w3.org/2000/svg" xmlns:xlink="http://www.w3.org/1999/xlink" x="0px" y="0px"
	 width="256.2px" height="547.8px" viewBox="0 0 256.2 547.8" enable-background="new 0 0 256.2 547.8" xml:space="preserve">
<polyline fill="none" stroke="#EF25B2" stroke-width="0.75" stroke-linejoin="round" stroke-miterlimit="10" points="11.4,91.4 
	11.4,91.5 11.3,91.5 11.4,91.6 11.2,91.8 10.9,93.5 10.8,93.6 10.7,93.5 10.7,93.5 10.8,93.5 10.2,95.9 9.7,98.3 9.6,98.3 9.3,99.2 
	9.5,99.3 9.1,99.2 9.4,99.3 9.5,99.3 9.4,99.3 9.5,99.3 9.4,99.3 9.5,99.3 9.4,99.3 9.5,99.3 9.3,99.2 9.5,99.3 9.4,99.3 9.5,99.3 
	9.4,99.3 9.3,99.3 9.3,99.4 9.2,99.4 9.4,99.3 9.3,99.2 9.5,99.3 9.4,99.3 9.5,99.3 9.3,99.5 9.3,99.4 9.3,99.2 9.4,99.3 9.5,99.3 
	9.4,99.3 9.5,99.3 9.4,99.3 9.5,99.3 9.4,99.3 9.5,99.3 9.3,99.5 9.4,99.3 9.5,99.3 9.4,99.3 9.3,99.5 9.4,99.4 9.3,99.3 9.4,99.3 
	9.5,99.3 9.4,99.3 9.3,99.3 9.4,99.3 9.5,99.3 9.4,99.3 9.3,99.3 9.4,99.3 9.5,99.3 9.4,99.3 9.3,99.3 9.4,99.4 9.2,99.4 9.3,99.3 
	9.4,99.3 9.2,99.6 9.2,99.4 9.4,99.3 9.3,99.4 9.4,99.3 9.3,99.4 9.3,99.3 9.1,99.6 9,99.5 9.4,99.3 9.3,99.3 9.4,99.3 9.3,99.3 
	9.4,99.3 9.3,99.3 9.5,99.3 9.2,99.6 9.2,99.5 9.3,99.4 9.4,99.3 9.4,99.4 9.4,99.3 9.3,99.4 9.4,99.3 9.3,99.3 9.4,99.3 9.3,99.3 
	9.5,99.4 9.3,99.5 9.4,99.3 9.3,99.4 9.3,99.5 9.3,99.4 9.4,99.3 9.5,99.3 9.3,101.8 8.4,107.3 7.9,112.6 8.1,118.2 8.3,118.6 
	8.3,118.5 8.2,119.8 7.4,125.8 7.4,131.6 6.1,134.7 2,137.5 1.3,141.9 2,145.2 2,145.1 2.1,146.2 1.3,147.6 1.6,150.1 2.5,153.7 
	2,157.1 0.7,160.2 0,163.3 0.5,166.2 0.8,166.2 0.9,166.2 0.7,166.8 0.8,168 0.8,168.1 1.1,170.5 1.8,173.5 4,176.8 6.9,178 
	9.3,176.1 12.1,176.6 12.2,176.6 12.4,176.7 12.5,176.7 12.4,176.7 12.5,176.6 13.3,177.1 14.9,176.2 23.8,178.5 26.3,180.6 
	28.4,183 29.3,184.1 29.5,184.2 30.2,186 31.3,186 33.3,185.5 35.7,184.2 37.6,183.7 39.1,183 39.7,181.5 40.3,180.4 40.6,180.6 
	41.5,180.9 43.3,180.8 45.3,182.2 46.7,183.9 48.2,186.2 50.1,187.9 52.6,191.9 53.5,192.6 55.4,193.3 57.3,194 59.7,194.4 
	62.3,197.4 63.5,201.5 65.1,206.1 66,210.3 67.3,214.8 68.1,217.6 68.3,217.8 69.3,219.2 69.8,221.8 70.4,225.3 71.2,229.1 
	72.5,233.2 74.5,236.5 75.1,239.4 75.6,239.9 75.6,240 75.5,240.8 76.1,245.9 76.1,247.8 77.3,248.5 78.4,248.4 79,248.2 79.5,248 
	79.8,248.2 80.1,248.6 80.4,249.5 79.2,250.9 76.8,253.3 74.5,254.3 73.1,255.3 73.1,255.4 73.2,255.4 73.3,255.3 71.5,255.7 
	70.8,255.8 70.2,255.3 68.8,255.8 66.7,256.9 66.3,257.1 66.9,256.4 67,256.5 67.2,256.6 67.3,256.6 67.5,256.5 67.9,256.2 
	68.9,255.6 67.4,256.4 64,257.8 63.7,257.6 63.6,257.5 63.7,257.6 62.6,257.1 62,257.1 62,257.6 61.8,261.8 61.5,265.6 60.1,268.4 
	59.7,273.1 59.9,277 60.2,278.3 60.1,278.3 60.1,278.3 60.1,278.3 60.1,278.3 60.2,278.2 60.1,278.3 60.2,278.2 60.1,278.3 
	60.2,278.1 60.1,278 60.1,278.3 60.1,278.3 59.9,278.1 59.9,278.2 60,278.3 60.1,278.1 60.1,278.3 60.2,278.2 60.1,278.3 
	60.1,278.3 60.2,278.2 60.1,278.3 60.2,278.3 60.1,278.3 60.4,278.1 60.3,278 60.1,278.3 60.4,278.1 60.1,278.2 60.1,278.3 
	60.1,278.1 60.1,278.2 60.1,278 60.1,278.1 60.1,278 60.1,278.2 60.1,278.3 60.1,278 60.1,278.3 60.2,278.3 60.1,278.1 60.1,278.3 
	60.6,278.3 60.4,278.1 60.3,278 59.8,278.3 60.1,278.1 60,278.1 60.1,278.1 60.3,278 60.3,278 60.3,278 60.4,278.8 60.4,277.9 
	60.3,278 60.6,278.9 60.7,277.4 60.1,278.1 59.6,277.8 60,278.2 59.9,278.2 60,278.2 60.1,278 60.1,278 60.1,278 59.9,278.2 
	60.1,278.1 60,278.1 60.1,278.1 "/>
<polyline fill="none" stroke="#EF25B2" stroke-width="0.75" stroke-linejoin="round" stroke-miterlimit="10" points="50.6,18.5 
	50.7,18.5 50.6,18.5 50.7,18.5 50.6,18.5 50.7,18.5 50.6,18.5 50.7,18.5 50.6,18.5 50.7,18.5 50.6,18.5 50.7,18.5 50.6,18.5 
	50.7,18.5 50.6,18.5 50.7,18.5 50.6,18.5 50.7,18.5 50.6,18.5 50.7,18.5 50.7,18.5 50.7,18.5 50.7,18.5 50.7,18.5 50.6,18.5 
	50.7,18.5 50.6,18.5 50.7,18.5 50.6,18.5 50.7,18.5 50.6,18.5 50.7,18.5 50.7,18.5 50.7,18.5 50.7,18.5 50.6,18.5 50.7,18.5 
	50.6,18.5 50.7,18.5 50.7,18.5 50.6,18.5 50.7,18.5 50.7,18.5 50.6,18.5 50.7,18.5 50.6,18.5 50.7,18.5 50.6,18.5 50.7,18.5 
	50.6,18.5 50.7,18.5 50.6,18.5 50.7,18.5 50.6,18.5 50.7,18.5 50.6,18.5 50.7,18.5 50.6,18.5 50.7,18.5 50.7,18.5 50.6,18.5 
	50.7,18.5 50.7,18.5 50.6,18.5 50.7,18.5 50.6,18.5 50.7,18.5 50.6,18.5 50.7,18.5 50.6,18.5 50.7,18.5 50.6,18.5 50.9,18.2 
	50.8,18.4 50.7,18.5 50.6,18.5 50.7,18.5 50.6,18.5 50.6,18.7 50.6,18.5 50.7,18.5 50.6,18.5 50.7,18.5 50.7,18.5 50.6,18.5 
	50.7,18.5 50.9,18.6 50.6,18.5 50.2,18.9 50.3,19 50.3,19.1 50.6,18.5 50.7,18.5 50.6,18.5 50.5,18.7 49.5,19.9 49.4,20 49.7,19.1 
	50.6,18.5 50.7,18.6 50.6,18.5 50.7,18.5 50.6,18.5 50.7,18.5 50.6,18.5 50.7,18.6 50.6,18.5 50.7,18.5 50.7,18.3 50.6,18.5 
	50.7,18.6 50.6,18.5 50.7,18.5 50.6,18.5 50.7,18.5 50.6,18.5 51,17.8 50.7,17.7 50.6,18.5 50.7,18.5 50.6,18.5 50.7,17.7 
	50.6,18.5 50.7,17.7 50.6,18.5 50.7,18.5 50.7,17.7 50.7,17.7 50.6,18.5 50.7,17.7 50.6,18.5 50.7,18.5 50.6,18.5 50.7,17.7 
	50.7,17.7 50.7,17.7 50.6,18.5 50.7,17.7 50.7,17.7 50.7,17.6 50.7,17.7 51.9,16.7 51.9,16.8 51.7,16.8 48.7,16.6 45.8,17.7 
	43.1,18.7 43.2,18.7 42.1,19.6 41.3,19.6 39.8,20.6 39,21.3 39,21.3 39,21.3 38.8,21.3 37.7,22.1 36.8,23 36.6,23.1 36.5,23.9 
	36.2,24 36.2,24.3 36,24.8 34.5,25.7 33,27.3 32,28.6 31.3,29.8 31.2,29.5 31.2,29.9 31.3,29.9 31.5,31 31,32 29.2,34.6 27.8,37.3 
	27.2,39.4 26.7,39.9 26.7,40 26.7,39.9 26.7,39.9 26.5,39.7 26,43 24,47.8 21.2,52.7 20,57.3 18.1,61.3 15.3,66.2 15,67.9 
	15.1,67.8 15.1,67.9 14.9,68.5 13.4,72.8 13.3,77.7 13.5,80.8 13.7,83 13.6,83.5 13.6,83.4 13.6,83.6 13.7,83.9 13.6,83.9 
	12.8,85.1 12.5,86.1 11.7,87.6 11.7,90 11.4,91.4 11.4,91.5 11.3,91.5 11.4,91.6 11.4,91.5 11.4,91.4 "/>
<polyline fill="none" stroke="#EF25B2" stroke-width="0.75" stroke-linejoin="round" stroke-miterlimit="10" points="11.4,91.4 
	11.4,91.5 11.3,91.5 11.4,91.6 11.2,91.8 10.9,93.5 10.8,93.6 10.7,93.5 10.7,93.5 10.8,93.5 10.2,95.9 9.7,98.3 9.6,98.3 9.3,99.2 
	9.5,99.3 9.1,99.2 9.4,99.3 9.5,99.3 9.4,99.3 9.5,99.3 9.4,99.3 9.5,99.3 9.4,99.3 9.5,99.3 9.3,99.2 9.5,99.3 9.4,99.3 9.5,99.3 
	9.4,99.3 9.3,99.3 9.3,99.4 9.2,99.4 9.4,99.3 9.3,99.2 9.5,99.3 9.4,99.3 9.5,99.3 9.3,99.5 9.3,99.4 9.3,99.2 9.4,99.3 9.5,99.3 
	9.4,99.3 9.5,99.3 9.4,99.3 9.5,99.3 9.4,99.3 9.5,99.3 9.3,99.5 9.4,99.3 9.5,99.3 9.4,99.3 9.3,99.5 9.4,99.4 9.3,99.3 9.4,99.3 
	9.5,99.3 9.4,99.3 9.3,99.3 9.4,99.3 9.5,99.3 9.4,99.3 9.3,99.3 9.4,99.3 9.5,99.3 9.4,99.3 9.3,99.3 9.4,99.4 9.2,99.4 9.3,99.3 
	9.4,99.3 9.2,99.6 9.2,99.4 9.4,99.3 9.3,99.4 9.4,99.3 9.3,99.4 9.3,99.3 9.1,99.6 9,99.5 9.4,99.3 9.3,99.3 9.4,99.3 9.3,99.3 
	9.4,99.3 9.3,99.3 9.5,99.3 9.2,99.6 9.2,99.5 9.3,99.4 9.4,99.3 9.4,99.4 9.4,99.3 9.3,99.4 9.4,99.3 9.3,99.3 9.4,99.3 9.3,99.3 
	9.5,99.4 9.3,99.5 9.4,99.3 9.3,99.4 9.3,99.5 9.3,99.4 9.4,99.3 9.5,99.3 9.3,101.8 8.4,107.3 7.9,112.6 8.1,118.2 8.3,118.6 
	8.3,118.5 8.2,119.8 7.4,125.8 7.4,131.6 6.1,134.7 2,137.5 1.3,141.9 2,145.2 2,145.1 2.1,146.2 1.3,147.6 1.6,150.1 2.5,153.7 
	2,157.1 0.7,160.2 0,163.3 0.5,166.2 0.8,166.2 0.9,166.2 0.7,166.8 0.8,168 0.8,168.1 1.1,170.5 1.8,173.5 4,176.8 6.9,178 
	9.3,176.1 12.1,176.6 12.2,176.6 12.4,176.7 12.5,176.7 12.4,176.7 12.5,176.6 13.3,177.1 14.9,176.2 23.8,178.5 26.3,180.6 
	28.4,183 29.3,184.1 29.5,184.2 30.2,186 31.3,186 33.3,185.5 35.7,184.2 37.6,183.7 39.1,183 39.7,181.5 40.3,180.4 40.6,180.6 
	41.5,180.9 43.3,180.8 45.3,182.2 46.7,183.9 48.2,186.2 50.1,187.9 52.6,191.9 53.5,192.6 55.4,193.3 57.3,194 59.7,194.4 
	62.3,197.4 63.5,201.5 65.1,206.1 66,210.3 67.3,214.8 68.1,217.6 68.3,217.8 69.3,219.2 69.8,221.8 70.4,225.3 71.2,229.1 
	72.5,233.2 74.5,236.5 75.1,239.4 75.6,239.9 75.6,240 75.5,240.8 76.1,245.9 76.1,247.8 77.3,248.5 78.4,248.4 79,248.2 79.5,248 
	79.8,248.2 80.1,248.6 80.4,249.5 79.2,250.9 76.8,253.3 74.5,254.3 73.1,255.3 73.1,255.4 73.2,255.4 73.3,255.3 71.5,255.7 
	70.8,255.8 70.2,255.3 68.8,255.8 66.7,256.9 66.3,257.1 66.9,256.4 67,256.5 67.2,256.6 67.3,256.6 67.5,256.5 67.9,256.2 
	68.9,255.6 67.4,256.4 64,257.8 63.7,257.6 63.6,257.5 63.7,257.6 62.6,257.1 62,257.1 62,257.6 61.8,261.8 61.5,265.6 60.1,268.4 
	59.7,273.1 59.9,277 60.2,278.3 60.1,278.3 60.1,278.3 60.1,278.3 60.1,278.3 60.2,278.2 60.1,278.3 60.2,278.2 60.1,278.3 
	60.2,278.1 60.1,278 60.1,278.3 60.1,278.3 59.9,278.1 59.9,278.2 60,278.3 60.1,278.1 60.1,278.3 60.2,278.2 60.1,278.3 
	60.1,278.3 60.2,278.2 60.1,278.3 60.2,278.3 60.1,278.3 60.4,278.1 60.3,278 60.1,278.3 60.4,278.1 60.1,278.2 60.1,278.3 
	60.1,278.1 60.1,278.2 60.1,278 60.1,278.1 60.1,278 60.1,278.2 60.1,278.3 60.1,278 60.1,278.3 60.2,278.3 60.1,278.1 60.1,278.3 
	60.6,278.3 60.4,278.1 60.3,278 59.8,278.3 60.1,278.1 60,278.1 60.1,278.1 60.3,278 60.3,278 60.3,278 60.4,278.8 60.4,277.9 
	60.3,278 60.6,278.9 60.7,277.4 60.1,278.1 59.6,277.8 60,278.2 59.9,278.2 60,278.2 60.1,278 60.1,278 60.1,278 59.9,278.2 
	60.1,278.1 60,278.1 60.1,278.1 "/>
<polyline fill="none" stroke="#EF25B2" stroke-width="0.75" stroke-linejoin="round" stroke-miterlimit="10" points="50.6,18.5 
	50.7,18.5 50.6,18.5 50.7,18.5 50.6,18.5 50.7,18.5 50.6,18.5 50.7,18.5 50.6,18.5 50.7,18.5 50.6,18.5 50.7,18.5 50.6,18.5 
	50.7,18.5 50.6,18.5 50.7,18.5 50.6,18.5 50.7,18.5 50.6,18.5 50.7,18.5 50.7,18.5 50.7,18.5 50.7,18.5 50.7,18.5 50.6,18.5 
	50.7,18.5 50.6,18.5 50.7,18.5 50.6,18.5 50.7,18.5 50.6,18.5 50.7,18.5 50.7,18.5 50.7,18.5 50.7,18.5 50.6,18.5 50.7,18.5 
	50.6,18.5 50.7,18.5 50.7,18.5 50.6,18.5 50.7,18.5 50.7,18.5 50.6,18.5 50.7,18.5 50.6,18.5 50.7,18.5 50.6,18.5 50.7,18.5 
	50.6,18.5 50.7,18.5 50.6,18.5 50.7,18.5 50.6,18.5 50.7,18.5 50.6,18.5 50.7,18.5 50.6,18.5 50.7,18.5 50.7,18.5 50.6,18.5 
	50.7,18.5 50.7,18.5 50.6,18.5 50.7,18.5 50.6,18.5 50.7,18.5 50.6,18.5 50.7,18.5 50.6,18.5 50.7,18.5 50.6,18.5 50.9,18.2 
	50.8,18.4 50.7,18.5 50.6,18.5 50.7,18.5 50.6,18.5 50.6,18.7 50.6,18.5 50.7,18.5 50.6,18.5 50.7,18.5 50.7,18.5 50.6,18.5 
	50.7,18.5 50.9,18.6 50.6,18.5 50.2,18.9 50.3,19 50.3,19.1 50.6,18.5 50.7,18.5 50.6,18.5 50.5,18.7 49.5,19.9 49.4,20 49.7,19.1 
	50.6,18.5 50.7,18.6 50.6,18.5 50.7,18.5 50.6,18.5 50.7,18.5 50.6,18.5 50.7,18.6 50.6,18.5 50.7,18.5 50.7,18.3 50.6,18.5 
	50.7,18.6 50.6,18.5 50.7,18.5 50.6,18.5 50.7,18.5 50.6,18.5 51,17.8 50.7,17.7 50.6,18.5 50.7,18.5 50.6,18.5 50.7,17.7 
	50.6,18.5 50.7,17.7 50.6,18.5 50.7,18.5 50.7,17.7 50.7,17.7 50.6,18.5 50.7,17.7 50.6,18.5 50.7,18.5 50.6,18.5 50.7,17.7 
	50.7,17.7 50.7,17.7 50.6,18.5 50.7,17.7 50.7,17.7 50.7,17.6 50.7,17.7 51.9,16.7 51.9,16.8 51.7,16.8 48.7,16.6 45.8,17.7 
	43.1,18.7 43.2,18.7 42.1,19.6 41.3,19.6 39.8,20.6 39,21.3 39,21.3 39,21.3 38.8,21.3 37.7,22.1 36.8,23 36.6,23.1 36.5,23.9 
	36.2,24 36.2,24.3 36,24.8 34.5,25.7 33,27.3 32,28.6 31.3,29.8 31.2,29.5 31.2,29.9 31.3,29.9 31.5,31 31,32 29.2,34.6 27.8,37.3 
	27.2,39.4 26.7,39.9 26.7,40 26.7,39.9 26.7,39.9 26.5,39.7 26,43 24,47.8 21.2,52.7 20,57.3 18.1,61.3 15.3,66.2 15,67.9 
	15.1,67.8 15.1,67.9 14.9,68.5 13.4,72.8 13.3,77.7 13.5,80.8 13.7,83 13.6,83.5 13.6,83.4 13.6,83.6 13.7,83.9 13.6,83.9 
	12.8,85.1 12.5,86.1 11.7,87.6 11.7,90 11.4,91.4 11.4,91.5 11.3,91.5 11.4,91.6 11.4,91.5 11.4,91.4 "/>
<polyline fill="none" stroke="#EF25B2" stroke-width="0.75" stroke-linejoin="round" stroke-miterlimit="10" points="46.6,10.9 
	46.5,10.8 46.6,10.9 46.5,10.8 46.6,10.9 46.6,10.8 46.5,10.9 46.6,10.9 46.5,10.8 46.6,10.9 46.5,10.8 46.6,10.9 46.5,10.8 
	46.6,10.9 46.5,10.8 46.6,10.9 46.5,10.8 46.6,10.9 46.6,10.8 46.5,10.7 46.6,10.7 46.6,10.9 46.5,10.8 46.6,10.9 46.5,10.8 
	46.6,10.9 46.6,10.8 46.6,10.9 46.5,10.8 46.6,10.9 46.5,10.8 46.6,10.9 46.5,10.8 46.6,10.9 46.5,10.8 46.6,10.9 46.5,10.8 
	46.6,10.9 46.5,10.8 46.9,20 46.5,25.1 46.9,31.1 47.3,37 47.5,42.9 46.8,48.4 46.6,54.6 47.3,60.5 47.5,65.4 47.3,67.4 46.9,69.5 
	45.6,71.9 44.5,75.9 43.7,80.5 42.3,85.3 40.7,90.2 39.7,95.2 39,98.9 39.1,101.5 38.7,102 38.7,102.2 38.2,103.8 38,104.1 
	38.1,106.7 38.7,109.1 38,111.9 37.4,113.4 37.8,115.5 37.8,115.5 37.8,115.5 38.1,117 37.8,119.7 38.1,123.9 39,128.5 40,134.2 
	39.9,139.7 40.4,145.6 40.5,146.3 40.6,146.2 40.6,146.2 40.5,146.2 40.6,146.2 40.4,146.3 40.1,146.6 40,147 39.3,150.6 39.2,155 
	38.5,160 38.5,161 38.5,161.3 37.8,162.7 38,165.9 38.9,169.2 40.7,172.8 42.7,176.6 45.1,178.9 48.3,182.4 49.8,185.8 49.9,186 
	50.7,186.5 52.3,188.4 55.2,190.1 57.5,191.9 60.7,195.7 62.2,199.9 64.4,205.1 64.8,208.4 64.9,209.5 65.1,209.5 65.1,209.5 
	65.2,209.7 66.4,211.2 67.3,214.3 68.1,218.5 69.6,222.7 70.8,227 72.8,231.1 74.3,234.9 75,237.5 75.3,238 76.3,241.6 77.7,241.5 
	79.4,243.3 79.4,246.6 78.3,247.2 77.2,249.1 78.1,252.2 77.1,253 77.1,253.1 76.2,253.6 76.2,253.7 76.2,253.4 75.1,254 73.3,255 
	71.4,255.7 70.1,255.5 68.8,255.6 68.6,255.7 69,255.7 68.8,255.9 68.5,256.2 70.7,255.4 71.4,257.2 72.4,260.9 73.8,265.2 
	74.3,269.9 74.3,275.2 73.8,275.8 73.9,275.8 74.3,275.9 75.4,277.6 76.4,280.6 78.3,283.1 80.4,286.4 82.9,289.8 84.5,292.3 
	84.4,292.6 84.5,292.5 84.4,292.7 84.5,292.4 84.4,293.1 87.2,295.9 91.4,296.4 94.3,297.6 98.5,297.4 101.1,301.5 102.3,304.7 
	104.4,307 105.1,307 105.6,307.4 106.5,308.7 109.9,309.6 112.9,308.9 115.3,310.3 117.1,312.4 118.6,314.4 120.8,316.8 
	120.8,317.4 120.7,317.6 120.8,317.6 121.5,318.4 125.1,319.2 129.5,319.4 133.3,320.6 136.6,319.5 139,318.3 141.8,318.5 
	144.2,317.8 144.4,317.7 145.3,317.9 147.9,318.8 150.4,319.9 153.2,321.2 155,321.8 156.4,320.9 159.1,320.9 160,320.6 
	160.1,320.6 160.5,321.1 161.6,321.3 162.8,323 163.7,324.9 164.5,326.3 165.8,328.2 166.8,330.4 167,330.8 167.2,331.3 
	168.4,332.2 169.8,333.8 171.8,335.2 173.9,336.9 176.3,338.5 178.6,341.1 180.4,341.4 181.8,341.6 182.3,341.4 182.3,341.5 
	184.1,342.7 186.1,342.8 187.5,342.8 187.2,346 185.8,350 184.3,354 181.7,357.3 179.9,361.2 177.3,364.2 174.1,367.2 172.6,371.1 
	171.5,386.9 160.7,423.6 160.4,427.2 161,430.9 160.9,433.6 160.9,435.5 160.2,438.6 159.5,440.2 159.5,441.4 161,444.3 161,444.4 
	161.1,444.7 161.6,444.1 162.9,442.7 163.6,439.8 164.5,437.6 166.3,436.2 167.9,436.8 169.3,438.6 169.3,438.8 169.2,438.8 
	169.5,438.6 170.7,440.8 172.5,442.8 174.9,443.8 175.7,444.5 175.7,444.4 176.3,446.6 178.1,448.6 178,448.6 179.1,448 
	180.9,447.1 183.9,447.6 186,443 185.7,441.9 184.6,441.1 182.2,442.3 179.8,444.1 178.8,445.6 176.5,444.9 175.6,444.4 
	175.7,444.7 175.6,444.2 175.2,444.2 175.1,444.2 175.2,444 175.2,444.7 175.2,444.7 175.1,444.4 175.3,444.3 175.2,444 
	175.2,444.9 175.5,444.4 175.1,444.2 175.1,444.1 175.2,444 175,443.7 175.2,443.3 175.6,443.3 176.6,444.3 175.7,446.1 174.5,448 
	174.1,448.8 174.9,449.5 175.4,443.7 175.3,444 175.1,444.3 175.1,444.2 176.8,446.7 176.8,446.8 176.9,446.7 179.5,446.8 
	179.6,446.8 "/>
<polyline fill="none" stroke="#EF25B2" stroke-width="0.75" stroke-linejoin="round" stroke-miterlimit="10" points="46.6,10.9 
	46.5,10.9 46.6,10.9 46.5,10.9 46.6,10.9 46.5,10.9 46.6,10.9 46.5,10.9 46.6,10.9 46.5,10.8 46.6,10.9 46.5,10.9 46.6,10.9 
	46.5,10.9 46.6,10.9 46.5,10.9 46.6,10.9 46.5,10.8 46.6,10.9 46.5,10.9 46.6,10.9 46.5,10.9 46.5,10.9 46.6,10.9 46.5,10.9 
	46.6,10.9 46.5,10.8 46.6,10.9 46.5,10.8 46.6,10.9 46.5,10.9 46.6,10.9 46.5,10.8 46.6,10.9 46.5,10.8 46.6,10.9 46.5,10.9 
	46.6,10.8 46.6,10.9 46.5,10.8 46.6,10.8 46.5,10.7 46.6,10.9 46.5,10.9 46.6,10.9 46.5,10.8 46.6,10.9 46.5,10.8 46.6,10.9 
	46.5,10.9 46.6,10.9 46.5,10.8 46.6,10.9 46.5,10.8 46.6,10.9 46.6,10.7 46.6,10.9 46.5,10.8 46.5,10.9 46.6,10.8 46.5,10.8 
	46.6,10.9 46.5,10.8 46.6,10.8 46.5,10.7 46.5,10.8 46.5,10.7 46.6,10.9 46.6,10.8 46.6,10.9 46.5,10.8 46.6,10.9 46.6,10.8 
	46.6,10.9 46.5,10.8 46.6,10.9 46.6,10.8 46.6,10.9 46.5,10.7 46.5,10.8 46.6,10.9 46.5,10.8 46.6,10.9 46.5,10.8 46.6,10.9 
	46.5,10.8 46.6,10.9 46.5,10.8 46.6,10.9 46.5,10.7 46.6,10.9 46.5,10.8 46.6,10.9 46.5,10.9 46.5,10.7 46.6,10.7 46.6,10.9 
	46.5,10.8 46.5,10.9 46.6,10.8 46.6,10.9 46.5,10.8 46.6,10.9 46.5,10.9 46.6,10.9 46.5,10.8 46.6,10.9 46.6,10.7 46.6,10.9 
	46.5,10.7 46.6,10.9 46.5,10.8 46.6,10.9 46.6,10.8 46.5,10.7 46.6,10.9 46.5,11.1 46.5,11.1 46.5,11.1 46.6,10.9 46.5,10.8 
	46.6,10.9 46.5,10.8 46.6,10.9 46.5,10.8 46.6,10.9 46.6,10.8 46.6,10.9 "/>
<polyline fill="none" stroke="#EF25B2" stroke-width="0.75" stroke-linejoin="round" stroke-miterlimit="10" points="40,17.4 
	39.7,17.2 39.7,17.3 39.7,17.2 40.1,17.5 40,17.5 40,17.5 41.8,20.3 42.5,24.8 43.5,30.1 43.6,35.1 43,37.3 43.1,37.3 43,37.7 
	42.5,41.1 41.8,44.4 40.8,48.3 39.9,52.4 39,55.9 38.8,59.2 38.9,61.3 38.9,61.5 40.3,68.7 40.7,73.2 42,77.1 43.3,82 43.2,86.2 
	42.7,88.5 42.7,88.6 42.3,89.9 42.6,105.4 41.2,107.6 41.4,107.9 40.3,109.4 40.2,112.3 40.8,115.5 41.7,118.4 41.8,122.2 
	42.1,124.2 42.2,124.3 44.3,126.9 46.4,130.9 48.4,134.2 49.1,137.1 49.5,141.6 49.5,145.8 49.6,150.1 50,154.2 50,154.1 
	50.3,154.2 50.5,154.3 50.3,154.3 50.6,156.7 51.4,160.8 52.4,165.4 53.2,170.2 54,175.4 55,179.2 55.9,181.1 56.8,182 57.3,182.9 
	58.3,185.8 60.5,189.3 62,192.7 63.9,197.1 64.8,202 66,207.2 66.5,211.8 67.4,215.4 67.4,215.1 67.6,216.2 68.6,216.5 68.7,216.6 
	68.6,216.8 68.6,216.6 68.8,216.9 71.7,218.7 76.7,219.2 77.7,219.5 78.1,219.7 79.1,220.8 81.3,223.9 83,226.7 83.2,230.9 
	82.2,234.5 81.6,238 79.9,240.8 79.7,241.6 79.7,241.4 79.2,242.6 79,245.6 78.8,245.8 78.8,245.9 78.7,246 78.7,245.8 78.8,245.8 
	78.7,246 78.7,246.2 78.7,245.8 78.8,245.8 78.7,245.8 77.6,246.2 76.5,247.7 77.2,248.7 77.6,252.2 77.1,255.5 75.7,258.6 
	74.4,261.9 73.1,264.6 69.2,277.2 69.2,277.3 69.2,277.2 69.9,278.5 71.1,279.8 73,281.9 74.5,284.2 76.8,285.8 79.7,288 
	82.3,288.9 83.4,290.3 83.7,290.9 83.7,290.9 83.7,290.9 83.4,290.8 84.8,291.2 86.9,292.3 89.1,294.2 91.4,295.9 94.7,295.9 
	97.7,295.3 100.3,295.8 100.6,295.9 100.5,295.9 100.8,296.2 102.5,297.1 104.9,298.3 106.5,299.7 109,302.7 110,306.5 112.6,308.1 
	114,310.7 115.2,314 115.8,315.2 115.7,315.2 116.1,315.8 116.1,316 117.6,316.9 120.4,317.3 123.7,317.5 126.4,317.5 128.7,317.7 
	130.9,318.1 131.2,318 131.2,318.1 131.7,318.4 133.2,320.4 135.7,319.6 146.8,318.3 149.4,320.5 152.2,323.4 167.9,334.6 
	169.3,335.7 172.2,337.1 173.8,338.1 174.9,339.1 175.8,340.4 176.2,341.4 176.9,344 176.9,347.5 177,352.2 177.5,356.5 
	178.1,360.6 178.1,364.5 177.9,368.4 177.8,372.2 177.1,376.2 176.1,380.3 168.8,397.5 140.9,432.4 140.8,437 141.3,440.4 
	143.2,442.3 146.3,442.3 147.6,445 146.3,448.6 146.2,448.5 146.2,448.6 146.5,448.8 146.5,448.7 146.6,448.8 147.3,449.3 
	148.6,451.7 150.2,452.7 152.7,453 154.6,452.1 156,454.3 157.1,456.2 158.3,458.1 160.8,459.7 160.8,459.5 160.9,459.3 160.9,459 
	161.3,460 163,463.4 164.9,465.7 167.7,468.3 171.1,470.8 174.6,472.3 174.8,472.6 176.6,472.4 176.9,472.7 176.8,472.2 178,468.5 
	180.5,466.7 182.3,464.2 185.4,463 187.2,460.5 187.9,458.1 187.9,458.1 188.2,457.7 188.9,456 189.4,454 186.8,452.1 185.8,449.8 
	186.8,446.8 187.7,444.9 188.7,445.2 189.8,445.6 192.1,445.6 193.4,445.6 195.4,444.3 198.2,444 200.2,443.3 201.7,444 
	202.1,443.5 202.1,443.4 202.1,443.2 202.1,442.9 203,443.9 203.7,444.8 203.5,446.8 204.4,448.3 205.7,447.7 207.7,447.1 
	209.3,449.5 209.6,449.9 209.6,450 211.6,450.6 213.3,450.3 214.9,449.6 217.1,449.4 219,450.3 218.9,450.3 218.8,450.3 
	218.9,450.3 220.9,449.8 223,451.3 225.9,452.5 228.4,451.9 231.8,452 232.9,452 233.4,453 235.6,453.5 236.2,453.8 236.3,453.9 
	236.9,454.1 237.9,454.4 239,455.7 241.2,456.3 244.4,457.4 247.9,457.2 248.4,457.6 249.1,456.5 250.2,457.5 252,458 251.9,458.1 
	252.3,457.9 253.7,457.4 254.2,457.9 254.2,458 254.1,458.1 254.1,458.1 254.2,458.2 254.1,458.1 254.1,458 254.1,458.1 
	254.7,456.7 256,455.8 256.2,456.1 256.2,456 256.2,456.1 256.2,456 256.2,456.1 256.2,456 256.2,456 256.2,456 256.2,456 
	256.2,456 256.2,456 256.2,456 "/>
<polyline fill="none" stroke="#EF25B2" stroke-width="0.75" stroke-linejoin="round" stroke-miterlimit="10" points="40,17.5 
	39.9,17.5 40,17.5 39.9,17.5 40,17.5 39.9,17.5 40,17.5 39.9,17.5 40.1,17.5 40,17.5 40.1,17.5 40,17.4 40,17.5 40,17.4 39.9,17.4 
	40,17.5 40.1,17.5 40,17.5 39.9,17.4 40.1,17.5 40,17.5 40,17.5 40.1,17.5 40,17.5 40.1,17.5 40.1,17.5 40,17.5 40.1,17.5 40,17.4 
	40.2,17.5 40,17.5 40,17.4 40,17.5 40.1,17.5 40,17.5 40.1,17.5 40,17.4 40,17.5 39.9,17.4 40,17.5 40,17.4 40,17.4 40.1,17.5 
	40,17.4 40,17.5 40,17 40,17.4 40.1,17.5 40,17.4 40,17.5 40,17.4 39.9,17.4 40,17.5 40,17.4 40,17.5 40.1,17.5 40,17.4 40,17.5 
	40,17.4 39.9,17.5 39.6,17.3 39.7,17.2 39.7,17.3 40,17.5 40.1,17.5 40,17.5 40,17.4 39.7,17.2 39.8,17.5 40,17.4 39.7,17.2 
	40,17.5 40.1,17.5 40,17.5 39.9,17.6 39.7,17.2 39.7,17.3 40,17.5 40,17.5 40.1,17.5 40,17.5 39.9,17.5 40,17.5 39.7,17.2 40,17.5 
	40,17.5 40.1,17.5 40,17.5 40.3,17.4 40,17.5 39.7,17.2 40,17.5 40.1,17.5 40,17.5 40,17.5 40,17.5 40.1,17.5 40,17.4 40,17.5 
	40,17.4 40,17.5 39.7,17.2 40,17.5 40,17.5 40,17.4 40,17.5 39.7,17.2 40,17.5 40,17.5 40,17.5 40.1,17.5 40,17.5 40.4,17.3 
	40.4,17.3 40,17.5 40,17.5 40,17.5 39.7,17.2 40,17.5 40,17.5 40,17.4 40,17.5 39.7,17.2 40,17.5 40.1,17.5 40.1,17.5 40,17.5 
	40.1,17.5 40.1,17.5 40.1,17.4 40.1,17.5 40,17.4 40,17.5 40,17.5 40.1,17.5 40.1,17.5 40,17.5 40.1,17.5 40,17.5 40.1,17.5 
	40,17.5 40,17.5 40,17.5 39.6,17.3 39.8,17.3 40,17.5 40,17.5 40,17.4 40,17.5 40.1,17.5 40,17.5 40,17.5 40,17.4 40,17.5 
	39.9,17.5 40,17.5 40,17.5 39.8,17.6 39.7,17.2 40,17.5 40.1,17.5 40,17.5 40.1,17.5 40,17.4 "/>
<polyline fill="none" stroke="#EF25B2" stroke-width="0.75" stroke-linejoin="round" stroke-miterlimit="10" points="25.2,49.5 
	25,50.2 24.8,50.4 24.8,50.2 24.8,49.8 24.9,49.8 24.8,50.1 24.7,50.1 24.7,50 24.8,50.4 24.8,50.1 24.8,50.4 24.8,49.8 24.8,50.4 
	24.8,50.1 24.8,50 25,49.7 24.8,49.8 24.8,50.2 24.6,50.2 24.8,50.2 24.8,49.8 24.8,50.1 24.8,49.9 24.6,50 24.7,50 24.6,50 
	24.6,50 24.6,50 24.6,50 24.9,49.8 25.2,49.5 25.5,49.8 24.6,50 24.6,50.2 24.6,50.3 24.8,50.4 24.9,49.8 24.9,49.7 24.8,49.8 
	24.9,49.8 24.8,50.2 24.8,50.1 24.8,50.4 24.7,50.1 24.7,50.2 24.7,50.1 24.8,50.1 24.8,50.4 24.7,50.2 24.6,50 24.8,50.1 
	24.8,50.2 24.8,50.4 24.7,50 24.6,50 24.8,50.1 24.7,50.1 24.8,50.2 24.7,50.2 24.8,50.4 24.5,50.4 24.6,50.1 24.6,50.2 24.8,50.2 
	24.7,50 24.8,50.1 24.7,50.1 24.8,50.1 24.7,50 24.6,50 24.7,50.1 24.6,50 24.8,50.1 24.7,50 24.8,49.9 24.6,50 24.8,50.1 
	24.8,49.9 24.8,49.8 24.8,49.8 24.8,50 24.7,50.2 24.8,50.2 24.8,50.1 24.8,49.9 24.8,49.8 24.8,50 24.8,50.1 24.8,50.1 24.8,50 
	24.6,50.2 24.6,50.1 24.8,50.4 24.8,50.1 24.8,50.2 24.8,49.9 24.8,50 24.7,50.1 24.8,50.1 24.8,50.2 24.8,50.1 24.8,50 24.8,49.9 
	24.7,50 24.8,50.1 24.8,50.1 24.8,49.8 24.8,50 24.8,49.9 24.8,50.1 24.7,50.1 24.7,50 24.6,50 24.8,50.2 24.8,50.4 24.8,50.1 
	24.8,50.4 24.7,50 24.8,50.1 24.8,50.4 24.7,50.1 24.8,50.1 24.8,50.4 24.8,50.1 24.7,50 24.8,50.2 24.8,50.4 24.8,50.1 24.8,50.1 
	24.7,50 24.8,49.9 24.6,50 24.7,50 24.6,50 24.8,50.1 24.8,50.1 24.8,50.1 24.8,50.2 24.8,50.1 24.8,50 24.8,50.1 24.8,50.2 
	24.8,50.1 24.8,50.1 24.8,50 24.8,49.8 24.7,50 24.8,50.2 24.7,51.9 23.8,58.5 23.2,62.6 21.9,73.8 22.1,79.8 21.8,85.5 21.1,91.2 
	20.5,98.3 20.6,101.1 17.4,109.3 17,112.4 17.3,117.8 17.3,122.7 17.4,133.6 17.7,139.2 17.7,143.8 18,148.3 19.1,152.3 19.1,152.4 
	18.9,155 19.2,157.2 19.4,159.1 19.5,162 21.3,169.8 22.2,174.5 23.2,177.8 25.7,180.4 26.5,180.7 26.7,180.7 27.7,182 29.3,183.7 
	32.1,184.7 38.4,183.5 41.5,183.2 42,180.4 44.1,180.9 45.3,182 47,183.9 49.7,186.8 56.4,194.4 59.2,198.4 60.8,202.7 61.9,206.6 
	62,207.9 62,208 62.3,209 62.8,213.1 64.9,221.1 65.8,224.1 67.6,228.4 68.8,232 69,235.8 69.1,235.9 69.5,236.5 71.4,238.3 
	75.1,242.5 76.4,244.5 78.5,244.3 79.4,244.9 79.4,245 79.3,245.4 79.7,247.5 80.3,250.7 78.1,259.1 75,262.8 71.8,265.5 
	68.5,268.4 64.9,271.3 63.4,276.4 63.8,277.3 63.2,278.1 62.5,280.1 62.7,282.3 67.8,284.2 69.7,286.7 72.5,288.6 74.3,290.2 
	75.3,290.5 75.7,294 75,298.8 73.8,305.5 72.5,308.5 71.5,312 70.3,315.7 69.3,319.9 68.1,323.9 66.9,327.6 60.8,340.6 54,382.6 
	48.9,393.9 46.8,404.8 45.7,410.2 45.2,413.4 45.3,414.3 45.5,415.5 46.2,420.6 45,422.8 45,423 45.1,423 45,423 45,423.3 
	44.8,424.1 44.6,427.4 44.6,427.5 44,429.1 43.5,431.7 42.5,433.6 42.4,433.6 42.5,433.6 42.4,433.6 42.5,433.6 42.4,433.6 
	39.9,435 38,438.6 36.1,440.2 35.7,441.1 35.8,441.4 35.9,441.7 36.3,442.1 36.5,443.2 36.7,445.6 36,449 36.8,451.1 37.6,451.5 
	37.6,451.4 37.5,451 38.1,450.6 38.2,450.5 38.2,450.6 38.2,450.5 38.2,450.6 38.2,450.5 38.5,450.6 39.4,450.1 43.8,449.7 
	46,450.1 48.1,450.2 48.3,450.3 48.3,450.3 49,452.7 49.9,454.6 51.8,456.1 51.9,456.2 52,456.4 52.1,456.4 57.4,462.6 57.4,462.6 
	57.9,463.7 58,464.1 58.2,466.5 58.2,466.6 "/>
<polyline fill="none" stroke="#EF25B2" stroke-width="0.75" stroke-linejoin="round" stroke-miterlimit="10" points="46.6,10.9 
	46.5,10.9 46.6,10.9 46.5,10.9 46.6,10.9 46.5,10.9 46.6,10.9 46.5,10.9 46.6,10.9 46.5,10.9 46.6,10.9 46.5,10.8 46.6,10.9 
	46.5,10.8 46.6,10.9 46.5,10.9 46.6,10.9 46.5,10.9 46.6,10.9 46.5,10.9 46.6,10.9 46.5,10.9 46.6,10.9 46.5,10.9 46.6,10.7 
	46.6,10.9 46.5,10.8 46.6,10.9 46.5,10.7 46.6,10.9 46.6,10.7 46.6,10.9 46.5,10.9 46.6,10.9 46.5,10.9 46.5,10.7 46.6,10.9 
	46.5,10.9 46.5,10.7 46.5,10.9 46.6,10.9 46.6,10.9 46.6,10.7 46.6,10.7 46.5,10.7 46.6,10.9 46.5,10.7 46.6,10.8 46.6,10.9 
	46.6,10.8 46.5,10.9 46.6,10.9 46.5,10.9 46.6,10.9 46.6,10.8 46.6,10.9 46.5,10.7 46.5,11.1 46.2,11.2 46.6,11 46.6,10.7 
	46.8,10.8 46.8,11.2 46.8,11.1 46.9,11.1 46.6,10.9 46.5,10.8 47.2,11.1 46.8,11.2 46.6,10.9 46.5,10.8 46.6,10.9 46.5,10.8 
	46.5,10.7 46.5,10.8 46.6,10.8 46.5,10.8 46.6,10.9 46.6,10.7 46.6,10.7 46.5,10.7 46.6,10.9 46.6,10.7 46.6,10.9 46.5,10.9 
	46.8,11.2 46.6,10.9 46.8,11.1 46.6,11.1 46.5,11.1 46.7,11.1 46.6,10.9 46.6,10.7 46.6,10.9 46.5,10.9 46.6,10.8 46.6,10.7 
	46.6,10.8 46.9,10.9 46.6,10.7 46.6,10.9 46.5,10.9 46.6,10.9 46.3,11.1 45,13.7 43,16.8 39.2,29 37.8,33.8 36.6,38.9 36.2,39.2 
	35.7,39.7 35.7,39.8 34.9,39.9 32.9,41.1 31.3,41.9 29,44.4 29.1,44.4 29,44.4 28.9,44.5 29,44.4 29.1,44.3 28.5,45.3 28.4,45.7 
	27.5,47.2 27.5,47.9 27.4,47.9 27.5,47.9 27,47.9 26.5,48.6 25.9,49.6 25.8,49.7 25.8,49.6 25,50 24.8,50.1 24.8,50.2 24.7,50.2 
	24.6,50.2 24.8,50 24.7,50.2 24.7,49.9 24.8,50 24.8,50.4 24.7,50.1 24.8,50.1 24.8,50 24.8,50.2 24.7,49.9 24.8,50.2 24.8,50 
	24.5,50 24.8,50.4 24.7,50.1 24.8,50.1 24.7,50.1 24.8,50.1 24.8,50.2 24.5,50 24.8,50.1 24.8,50.2 24.6,50 24.8,50.2 24.8,50 
	24.9,50 24.8,50.1 24.8,50.1 24.5,50.3 24.8,50 24.8,50.2 24.8,50 24.7,50.1 24.8,50.1 24.8,50.2 24.8,50 24.8,50.1 24.7,50.1 
	24.6,50.1 24.5,50.9 24.3,50.9 23.9,52.1 24.8,50.1 24.8,50.1 24.7,50.2 24.7,49.8 25,49.7 24.8,50.2 24.8,50 24.8,50.1 25,49.7 
	25,49.7 25.1,49.7 24.8,50 24.6,50.2 24.8,50.1 24.6,50.2 24.8,50 24.7,50.2 24.8,50.2 24.8,50 24.7,50.2 24.8,50.2 24.8,50.1 
	24.7,50.2 24.8,50.2 24.6,50.1 24.6,50 24.8,50.1 24.8,50.2 24.8,50.1 24.6,50.2 24.8,50.2 24.8,50 24.8,50.2 24.7,50.2 25.1,49.5 
	24.8,50.1 24.8,50 24.8,50.1 24.7,50.2 24.8,50 24.6,50.2 24.7,50.1 24.8,50.1 24.8,49.8 24.8,50.2 24.8,50.1 24.8,50.1 24.7,50.1 
	24.6,50.1 24.6,50.1 24.8,50 24.8,50.2 24.8,50 24.7,50.2 24.8,50.2 24.8,50 24.8,50.2 24.7,50.1 24.6,50.1 24.8,50.2 24.8,50.1 
	24.8,50.2 24.6,50.1 24.6,50.1 24.8,50.2 24.7,50 24.8,50 24.8,49.9 24.8,50.4 24.8,50.2 24.8,50.1 24.7,50 24.7,50 24.5,50.5 
	24.5,50.7 24.7,50 24.9,49.8 24.8,50.2 24.8,50.1 24.7,50.2 24.7,50 24.8,50.1 24.8,50.2 24.7,50.2 24.8,50.1 24.8,50 24.8,50.1 
	24.7,50.2 24.8,50.1 24.8,50.4 24.8,50 24.8,50.1 24.8,50.4 24.5,50.4 24.8,50.2 24.8,50 24.8,50.4 24.8,49.9 24.8,50.4 24.6,50.2 
	24.7,50.1 24.8,50.1 24.7,50.2 23.9,50.4 24.8,50.4 24.8,50 24.7,50.1 25.2,49.5 25.2,49.5 25.2,49.5 24.8,50.4 24.6,50.2 24.8,50 
	24.8,50.1 24.6,49.7 25.2,49.5 25.1,49.7 25.2,49.5 25.2,49.5 "/>
<polyline fill="none" stroke="#EF25B2" stroke-width="0.75" stroke-linejoin="round" stroke-miterlimit="10" points="118.3,508.9 
	118.3,508.9 118.3,508.9 118.3,508.8 118,509.2 118,507 118.3,508.9 118.3,508.8 118.3,508.9 118.3,508.9 118.3,508.9 118.3,508.8 
	118.3,508.9 118.3,508.8 118,508.5 117.8,508.4 117.8,508.3 117.5,508.2 117.4,508.3 117.3,508.4 117.3,508.3 117.5,508.2 
	117.5,508.4 117.6,508.5 117.1,508.5 117.1,508.5 117.1,508.5 117.1,508.5 117.2,508.4 117.2,508.2 117.3,508.2 117.1,508 
	118.3,508.9 118.3,508.9 118.3,508.9 118.3,508.9 118.2,509 118.3,508.9 118.3,508.7 118.1,508.3 118.2,508.3 118.1,508.3 
	118,508.3 118.1,508.3 118,508.3 118.1,508.3 118,508.3 118.1,508.3 118,508.3 118,508.5 118,508.5 118,508.3 118.2,508.4 
	118.2,508.3 118.5,508 118.7,507.9 118.7,508.5 118.5,508 118.3,507.6 117.7,507.8 117.6,507.8 118.1,508.3 118.2,508.3 
	118.1,508.3 118.2,508.4 118.3,508.7 118.3,508.8 118.2,508.8 118,508.9 117.8,508.8 117.7,508.7 117.6,508.7 117.7,508.7 
	117.7,508.7 117.6,508.7 117.7,508.7 117.6,508.6 117.5,508.6 117.6,509 117.6,509.1 117.4,509.2 117.6,508.9 117.3,508.9 
	117.3,508.7 117.3,508.7 117.2,508.3 117.5,508.4 117.5,508.2 117.4,508.5 117.4,508.5 117.4,508.5 117.5,508.3 117.6,508.2 
	117.6,508.3 117.5,508.4 117.3,508.7 117.3,508.3 116.6,507.2 116.6,507.3 116.7,507.2 116.7,507.3 116.4,506.7 116.4,506.8 
	116.4,506.7 116.4,506.8 116.4,506.3 115.9,506.3 115.2,505.4 115.1,505.4 114.7,505.6 114.6,505.6 114.7,505.6 114.4,504.9 
	115.7,504.2 116.5,505.2 116,506 115.9,506.3 115.9,506.3 115.9,506.3 115.9,506.3 115.9,506.2 115.9,506.3 115.9,506.3 
	116.9,507.2 117.3,507.3 117.3,507.3 117.3,507 117.3,506.9 117.6,507.2 118.1,508.3 118.3,508.7 117.8,508.9 117.6,508.7 
	117.4,508.6 117.5,508.3 117.5,508.4 117.4,508.5 117.4,508.7 117.5,508.9 117.5,509 117.6,509.1 117.6,509.2 117.7,509.2 
	117.8,509.3 117.8,509.4 117.9,509.4 118,509.4 118,509.6 117.8,509.7 117.8,509.8 117.8,509.9 117.8,509.4 117.8,509.3 
	117.9,509.3 118,509.3 117.9,509.4 117.9,509.3 117.8,509.4 117.8,509.3 117.8,509.4 117.9,509.3 118,509.2 118,509.3 117.8,509.8 
	117.5,510.1 117.3,510.1 117.1,509.9 117,510 116.9,510.1 116.9,510.1 116.8,510.1 116.6,510.1 116.6,509.8 116.7,509.9 
	116.6,509.8 116.6,509.8 116.5,509.8 116.9,509.4 116.8,509.4 116.9,509.4 116.9,509.5 116.8,509.5 116.9,509.5 116.9,509.6 
	116.9,509.6 116.9,509.6 117.1,509.6 117.1,509.6 117.1,509.7 117.1,509.7 117.9,509.2 118,509.2 117.8,509.4 117.9,509.3 
	117.7,508.9 117.5,508.3 117.4,507.8 117.3,507.8 117.4,507.8 117.7,507.9 117.6,507.5 117.6,507.1 117.6,506.9 117.6,507.1 
	117.6,507.3 117.6,507.5 117.6,507.5 117.5,507.2 116.8,506.2 116.6,506.1 116.6,506.1 116.6,506.2 116.6,506.1 116.6,506.2 
	115.6,505.4 117,506.8 117.3,507.1 117.6,507.3 117.7,507.3 117.6,507.5 117.6,507.5 117.7,507.2 117.6,507.1 117.7,507 
	117.6,507.1 117.6,507.5 117.6,507.4 118.2,507.5 117.7,507 117.6,507.1 117.6,507 117.6,507.3 117.6,507.3 117.6,507.5 
	117.6,507.4 117.5,507.6 117.5,507.8 117.5,507.6 117.6,507.5 117.6,507.5 117.9,508.5 117.6,508.3 117.5,508.3 117.4,508.2 
	117.1,508.2 117.1,508.4 116.7,508.2 117.2,507 117.6,507.2 117.4,507.8 117.4,507.9 117.4,507.8 117.5,507.8 117.4,507.8 
	117.6,507.6 117.5,507.6 117.6,507.6 117.6,507.5 117.5,507.7 117.5,507.8 117.5,507.6 117.6,507.5 117.6,507.4 117.5,507.6 
	117.5,507.8 117.5,507.7 117.6,507.5 117.7,507.2 117.7,507.1 117.6,507.1 117.8,506.5 117.8,506.6 117.6,507.5 117.3,508.7 
	117.4,508.5 117.5,508.2 116.6,506.1 116.4,506.2 116.4,506.1 116.6,506.1 116.5,506.1 116.4,506.1 116.4,506.1 116.4,506.1 
	116.4,506.3 116.7,506.2 116.9,506.4 117,506.5 116.9,506.4 116.9,506.4 116.6,506.2 116.6,506.1 116.6,506.1 116.6,506.1 
	116.6,506.1 113.8,503.5 112.5,505.4 112.6,505.7 112.5,505.9 112.4,505.9 "/>
<polyline fill="none" stroke="#EF25B2" stroke-width="0.75" stroke-linejoin="round" stroke-miterlimit="10" points="115.2,540.9 
	115.2,541.2 115.2,541.2 115.2,541.3 115.2,541.4 115.2,541.5 115.2,541.7 115.2,541.7 115.2,541.9 115.2,542 115.1,542 115.2,542 
	115.1,542.1 115.1,542.6 115,542.6 115.1,542.7 115.1,543.1 115.2,543.1 115.1,543.2 115.1,543.3 115,543.3 115,543.5 115,543.6 
	114.9,543.6 114.8,543.5 114.7,543.5 114.8,543.5 114.7,543.5 114.7,543.5 114.7,543.6 114.8,543.6 114.7,543.7 114.7,543.8 
	114.7,543.6 114.7,543.5 114.7,543.5 114.7,543.4 114.7,543.3 114.7,543.1 114.7,542.8 114.7,542.9 114.7,542.8 114.8,542.8 
	114.9,542.6 114.9,542.4 115,542.4 114.9,542.2 114.9,542.1 114.8,542.1 114.7,542.1 114.7,542 114.7,541.8 114.7,541.7 
	114.8,541.6 114.7,541.4 114.7,541.3 114.7,541.2 114.7,541.2 114.7,541.2 114.7,541.1 114.7,541 114.7,540.9 114.7,540.8 
	114.7,540.7 114.7,540.5 114.7,540.3 114.7,540.2 114.7,540 114.7,540 114.7,539.9 114.6,539.8 114.5,539.8 114.6,539.8 
	114.5,539.6 114.5,539.5 114.5,539.5 114.5,539.3 114.3,539.1 114.3,539 114.3,539.1 114.3,539 114.7,537.9 114.8,537 115.2,536 
	115.6,535.3 115.8,535.1 115.8,534.8 115.9,534.8 116.1,534.7 116.2,534.6 116.4,534.4 116.5,534.1 116.4,534.1 116.5,534.1 
	116.6,533.9 116.6,533.8 116.6,533.5 116.7,533.4 116.7,533.4 116.8,533.3 116.9,533.2 116.9,532.9 116.9,532.9 117,532.9 
	117.1,532.9 117.1,532.7 117.1,532.7 117.1,532.5 117.1,532.5 117.2,532.4 117.2,532 117.3,531.9 117.3,531.8 117.3,531.8 
	117.3,531.6 117.4,531.5 117.4,531.5 117.5,531.4 117.5,531 117.6,530.9 117.6,530.6 117.5,530.6 117.6,530.5 117.6,530.4 
	117.4,530.2 117.5,530.2 117.4,530.2 117.5,530.1 117.5,530.1 117.4,529.9 117.4,529.4 117.5,529.4 117.4,529.2 117.6,528.8 
	117.8,528.5 117.9,528.2 118,528 118,527.8 118,527.5 118.2,527.3 118.3,527.3 118.6,527 118.5,526.8 118.7,526.6 118.8,526.3 
	118.8,525.8 118.9,525.7 119,525.6 119,525.5 119,525.2 119.1,525 119.2,524.9 119.2,524.9 119.3,524.9 119.2,524.7 119.3,524.6 
	119.3,524.5 119.4,524.4 119.4,524.3 119.4,524 119.5,523.8 119.6,523.7 119.7,523.5 119.7,523.1 119.8,523 119.9,522.9 
	119.9,522.6 119.8,522.6 119.8,522.5 119.9,522.4 119.9,522.3 119.9,522.2 119.9,521.7 120,521.7 120,521.6 119.9,521.4 
	119.9,521.4 119.9,520.8 119.8,520.7 119.8,520.2 119.7,520 119.8,519.9 119.7,519.8 119.7,519.7 119.7,519.6 119.7,519.5 
	119.7,519.4 119.7,519.3 119.7,518.8 119.6,518.7 119.6,518.2 119.7,518.1 119.7,518.1 119.7,517.9 119.7,517.9 119.7,517.8 
	119.7,517.6 119.8,517.6 119.7,517.4 119.7,516.9 119.8,516.7 119.8,516.5 119.7,516.3 119.7,516.2 119.8,516.1 119.8,515.9 
	119.7,515.8 119.7,515.5 119.8,515.5 119.8,515.4 119.9,515.3 119.9,515.2 119.9,514.7 120,514.6 120,514.4 120.1,514.4 120,514.3 
	120,514.2 119.9,514.1 119.9,513.9 119.9,513.9 119.9,513.6 119.8,513.4 119.8,513.2 119.7,513.1 119.7,512.7 119.7,512.6 
	119.7,512.4 119.6,512.2 119.6,511.8 119.5,511.7 119.5,511.5 119.4,511.4 119.4,511.3 119.4,511.2 119.4,511.1 119.3,511 
	119.3,510.8 119.2,510.6 119.2,510.5 119.2,510.4 119.1,510.4 119.1,510.2 119,510.1 119,510.1 119,510 119,509.9 119,509.9 
	119.1,509.8 119.2,509.7 119.2,509.6 119.1,509.7 119.2,509.8 119.1,509.9 119.1,509.8 119,509.9 119,509.8 119,509.9 119,509.9 
	118.9,510 119,510 118.9,510 119,509.9 119.1,509.8 119.1,509.7 119.2,509.6 119.2,509.6 119.2,509.5 119.3,509.4 119.4,509.4 
	119.4,509.4 119.2,509.7 119.1,509.7 119.2,509.9 119,509.9 119,509.9 118.9,509.9 118.7,509.9 118.7,510.2 118.7,510.3 
	118.7,509.6 118.7,509.6 118.7,509.5 118.7,509.3 118.6,509.3 118.5,509.3 118.5,509.2 118.5,509.3 118.5,509.3 118.4,509.3 
	118.5,509.3 118.5,509.4 118.5,509.5 118.5,509.2 118.4,509.1 118.3,509 118.3,508.9 118.3,508.9 118.3,508.9 118.3,508.9 "/>
<polyline fill="none" stroke="#EF25B2" stroke-width="0.75" stroke-linejoin="round" stroke-miterlimit="10" points="118.2,506.2 
	118.3,506.3 118.3,506.4 118.3,506.5 118.4,506.6 118.4,506.6 118.5,506.7 118.5,506.7 118.6,506.8 118.5,506.9 118.5,507.3 
	118.5,507.4 118.6,507.4 118.5,507.4 118.6,507.5 118.6,507.8 118.7,507.8 118.7,508.1 118.6,508.2 118.6,508.2 118.7,508.3 
	118.7,508.5 118.7,508.6 118.8,508.7 118.8,508.9 118.9,509 119,509.1 119,509.2 119,509.2 119,509.2 119,509.2 119,509.4 
	119.1,509.5 119.1,509.7 119.2,509.7 119.1,509.7 119.2,509.6 119.2,509.7 119.2,509.6 119.2,509.6 119.1,509.9 119.2,509.6 
	119.2,509.6 119.2,509.8 119.1,509.7 119.2,509.7 119.2,509.9 119.2,509.7 119.1,509.7 119.2,509.8 119.3,509.9 119.3,510 
	119.2,509.9 119.4,509.8 119.3,509.8 119.4,509.8 119.4,509.7 119.5,509.6 119.4,509.6 119.4,509.5 119.4,509.4 119.4,509.4 
	119.3,509.4 119.3,509.4 119.2,509.4 119.3,509.6 119.3,509.5 119.2,509.7 119.1,509.8 119.2,509.7 119.2,509.6 119.2,509.8 
	119.1,509.6 119,509 119,509.6 118.9,510 119,509.9 119.1,509.9 119.1,509.8 119.2,509.7 119.2,509.6 119,510.1 119,510.1 
	118.9,509.9 118.8,510 118.7,510.1 118.6,510.2 118.5,510.3 118.5,510.4 118.5,510.3 118.5,510.3 118.5,510.7 118.5,510.8 
	118.4,510.9 118.4,511.5 118.5,511.6 118.5,511.8 118.5,511.9 118.5,512.3 118.6,512.4 118.6,512.5 118.5,512.7 118.5,512.9 
	118.6,513 118.6,513.2 118.5,513.2 118.5,513.3 118.6,513.4 118.6,513.9 118.5,514.2 118.5,514.3 118.5,514.3 118.5,514.6 
	118.5,514.8 118.5,515 118.6,515.2 118.7,515.6 118.7,515.9 118.6,516 118.7,516.1 118.7,516.7 118.7,516.8 118.7,516.9 
	118.8,517.1 118.8,517.8 118.9,517.9 119,517.9 119,518.1 119.1,518.2 119,518.2 119.1,518.1 119.2,518.3 119.2,518.4 119.3,518.4 
	119.4,518.4 119.4,518.4 119.5,518.5 119.5,518.8 119.6,518.9 119.6,519.1 119.7,519.1 119.7,519.4 119.7,519.5 119.7,519.6 
	119.8,519.8 119.8,519.8 119.7,520 119.7,520.5 119.7,520.9 119.7,521.2 119.6,521.3 119.6,521.9 119.7,521.9 119.6,522.1 
	119.7,522.3 119.7,522.4 119.7,522.4 119.8,522.6 119.8,522.7 119.9,522.8 119.9,522.8 120.1,522.8 120,522.8 120.1,522.8 
	120.2,522.8 120.2,522.8 120.3,523 120.3,523.1 120.4,523.1 120.4,523.2 120.4,523.3 120.5,523.3 120.6,523.5 120.6,523.5 
	120.7,523.6 120.7,523.8 120.6,523.8 120.7,523.8 120.8,523.8 120.9,523.8 120.9,524 120.9,524 120.9,524 121,524.1 121.1,524.1 
	121.1,524.2 121.2,524.3 121.1,524.3 121.2,524.5 121.3,524.6 121.3,524.7 121.5,524.8 121.6,524.9 121.7,524.9 121.2,525.7 
	120.9,526.1 120.8,526.6 120.4,527.3 120.3,527.8 120.2,528.4 120.2,528.6 120.2,528.8 120.2,529 120.1,529.1 120.1,529.2 
	120,529.3 120.1,529.4 120.1,529.5 120.2,529.6 120.1,529.6 120,529.7 120,529.9 119.9,530.1 119.9,530.4 119.9,530.6 119.9,530.8 
	119.8,530.8 119.8,530.9 119.7,531 119.7,531.1 119.7,531.1 119.7,531.1 119.7,531.2 119.7,531.3 119.6,531.4 119.5,531.5 
	119.5,531.6 119.6,531.7 119.6,531.8 119.7,531.9 119.7,532 119.5,532.1 119.5,532.2 119.6,532.2 119.5,532.3 119.4,532.4 
	119.4,532.5 119.4,532.7 119.4,532.8 119.3,532.9 119.3,532.9 119.2,533 119.2,533.2 119.2,533.2 119.2,533.3 119.1,533.4 
	119,533.4 119,533.5 119,533.6 118.9,533.6 118.9,533.9 118.8,534 118.9,534.1 118.8,534.1 118.8,534.2 118.7,534.3 118.7,534.7 
	118.8,534.8 118.8,534.8 118.9,535.1 118.9,535.3 119,535.5 119,535.8 119,536 119.1,536 119.1,536.1 119.2,536.2 119.2,536.2 
	119.2,536.3 119.2,536.4 119.3,536.5 119.3,536.9 119.2,536.9 119.2,537 119.2,537.2 119.2,537.3 119.2,537.4 119.3,537.6 
	119.4,537.6 119.4,537.9 119.2,538.1 119.2,538.2 119.1,538.2 119,538.4 118.9,538.3 118.9,538.4 118.7,538.5 118.5,538.5 
	118.5,538.6 118.5,538.7 117.8,539.1 117.2,540.2 116.4,540.9 116,540.5 115.9,540.4 115.8,540.5 115.4,540.2 115.2,540.3 
	115.2,540.7 115.2,540.9 "/>
<polyline fill="none" stroke="#EF25B2" stroke-width="0.75" stroke-linejoin="round" stroke-miterlimit="10" points="116.9,497.4 
	116.9,497.4 116.8,497.5 116.9,497.5 116.8,497.6 116.7,497.6 116.7,497.7 116.6,497.8 116.6,497.9 116.5,497.9 116.5,498 
	116.4,498.1 116.4,498.1 116.3,498.2 116.3,498.4 116.2,498.9 116.4,499.2 116.6,499.8 116.6,500.2 116.6,500.4 116.7,500.6 
	116.6,500.7 116.6,500.7 116.5,500.6 116.5,500.5 116.6,500.6 116.6,500.7 116.7,500.7 116.7,500.8 116.9,500.9 116.9,500.9 
	117,500.9 117.1,501.1 117.1,501.2 117.1,501.3 117.2,501.4 117.2,501.4 117.2,501.4 117.1,501.3 117.1,501.2 117.1,500.9 
	117.1,501.2 117,501.2 117.1,501.2 117,501.2 117.1,501.2 117.1,501 116.9,500.9 117,501 117.1,500.9 117.1,500.9 117.1,501.1 
	117.3,501.6 117.4,501.8 117.6,501.9 117.7,501.7 117.8,501.5 117.8,501.3 117.9,501 117.9,500.7 117.9,500.8 118,500.8 
	117.9,500.9 117.9,501.2 117.9,500.7 118,500.4 118,500.2 117.9,500.2 118,500.2 118,500.2 118,500.2 117.3,500 117.2,500.1 
	117.1,500 116.7,500.5 116.6,500.5 116.6,500.5 116.5,500.6 116.6,500.6 116.5,500.6 116.6,500.6 116.5,500.6 116.6,500.6 
	116.5,500.6 116.6,500.6 116.5,500.6 116.6,500.6 116.5,500.6 116.6,500.6 116.5,500.6 116.6,500.7 116.6,500.6 116.6,500.6 
	116.6,500.7 116.5,500.6 116.6,500.6 116.5,500.6 116.6,500.6 116.5,500.6 116.6,500.6 116.5,500.6 116.6,500.6 116.5,500.6 
	116.6,500.6 116.5,500.6 116.6,500.6 116.5,500.6 116.6,500.5 116.4,500.5 116.5,500.5 116.4,500.5 116.2,500.4 115.9,500.3 
	115.9,500.3 115.8,500.2 115.7,500.3 115.7,500.4 115.6,500.5 115.5,500.5 115.5,500.6 115.4,500.7 115.4,500.8 115.5,500.9 
	115.5,501.1 115.6,501.1 115.7,501.1 115.7,500.9 115.9,500.9 115.9,500.9 116,500.9 116.1,500.8 116.2,500.7 116.2,500.7 
	116.2,500.7 116.4,500.7 116.4,500.7 116.4,500.6 116.4,500.5 116.5,500.6 116.6,500.7 116.5,500.7 116.6,500.9 116.6,500.9 
	116.8,501.2 117.1,501.3 117.1,501.2 117.1,501 117.1,501.2 117,501.2 116.9,501.2 116.9,501.1 116.9,501 116.9,500.9 116.8,500.9 
	116.7,500.8 116.6,500.9 116.6,500.8 116.6,500.8 116.6,500.7 116.6,500.6 116.5,500.5 116.6,500.5 116.5,500.5 116.6,500.5 
	116.5,500.5 116.6,500.5 116.5,500.5 116.4,500.5 116.5,500.6 116.6,500.6 116.5,500.6 116.6,500.6 116.5,500.6 116.6,500.6 
	116.5,500.5 116.6,500.5 116.5,500.6 116.6,500.5 116.5,500.5 116.6,500.5 116.5,500.6 116.6,500.5 116.6,500.5 116.5,500.5 
	116.6,500.5 116.5,500.5 116.6,500.5 116.6,500.5 116.5,500.5 116.6,500.5 116.5,500.6 116.6,500.6 116.5,500.6 116.6,500.6 
	116.5,500.6 116.6,500.6 116.5,500.5 116.6,500.5 116.5,500.5 116.4,500.6 116.6,500.5 116.5,500.5 116.6,500.5 116.6,500.5 
	116.7,500.6 116.8,500.6 116.9,500.6 117.1,500.6 117.2,500.6 117.3,500.6 117.3,500.6 117.3,500.6 117.4,500.6 117.5,500.6 
	117.6,500.6 117.6,500.6 117.7,500.7 117.8,500.7 117.8,500.7 117.9,500.7 118,500.6 117.9,500.6 118,500.7 117.9,500.6 
	117.9,500.2 118.1,500.4 118,500.4 118.1,500.4 118,500.7 117.9,500.6 118.3,500.4 118.1,500.4 117.6,499.9 117.3,500.1 
	116.6,500.5 116.4,500.5 116.5,500.5 116.4,500.5 116.5,500.6 116.6,500.5 116.5,500.6 116.4,500.6 116.4,500.6 116.5,500.5 
	116.6,500.5 116.5,500.5 116.4,500.6 116.5,500.5 116.5,500.5 116.5,500.7 116.6,500.5 116.5,500.5 116.4,500.5 115.8,500.2 
	115.6,500.5 115.4,501 115.4,501.3 115.4,501.4 115.6,501.7 115.5,502.1 115.6,502.1 115.7,502.2 115.8,502.3 115.9,502.6 
	115.9,502.8 115.9,503 116,503.1 116,503.2 116.1,503.4 116.2,503.5 116.4,503.8 116.4,503.8 116.5,503.8 116.6,503.8 116.6,503.8 
	116.7,503.9 116.8,504 116.9,504 116.9,504.1 117,504.1 117.1,504.2 117.1,504.2 117.1,504 117,504 116.9,504 117.1,504.5 
	117.5,504.8 117.6,505 117.7,505 117.8,505.1 117.8,505.2 117.9,505.2 117.9,505.6 118,505.6 118,505.6 118,505.9 118.1,505.9 
	118.1,506.1 118.2,506.1 118.2,506.2 "/>
<polyline fill="none" stroke="#EF25B2" stroke-width="0.75" stroke-linejoin="round" stroke-miterlimit="10" points="114.6,465.6 
	114.6,465.6 114.7,465.7 114.7,465.8 114.8,466.1 114.9,466.1 114.9,466.2 115,466.3 115,466.3 115.1,466.4 115.1,466.5 
	115.2,466.6 115.2,466.6 115.2,466.7 115.3,466.8 115.4,466.8 115.4,467 115.5,467 115.6,467.2 115.7,467.3 115.7,467.3 
	115.8,467.5 115.8,467.5 115.9,467.6 115.9,467.7 116,467.7 116.1,467.7 116.2,467.8 116.2,467.9 116.3,468 116.4,468 116.4,468.1 
	116.4,468.2 116.5,468.2 116.6,468.3 116.6,468.4 116.7,468.5 116.8,468.5 116.9,468.6 116.9,468.7 116.9,468.7 117,468.8 
	117,468.9 117.1,469 117.1,469.1 117.1,469.2 117.2,469.2 117.3,469.3 117.4,469.5 117.5,469.6 117.6,469.6 117.6,469.7 
	117.6,469.8 117.7,469.9 117.8,469.9 117.8,470 117.9,470.1 118,470.1 118,470.3 118,470.4 118,470.5 118.1,470.6 118.1,470.7 
	118.2,470.8 118.2,470.8 118.3,470.9 118.3,471 118.3,471 118.4,471.1 118.5,471.2 118.5,471.3 118.6,471.3 118.6,471.4 
	118.7,471.5 118.7,471.6 118.7,471.7 118.7,471.7 118.8,471.8 118.9,472 118.9,472 119,472.1 119,472.2 119.1,472.2 119.2,472.2 
	119.2,472.2 119.3,472.3 119.4,472.3 119.4,472.3 119.7,472.5 119.7,472.5 119.8,472.6 119.9,472.6 119.9,472.6 120,472.7 
	120,472.7 120.1,472.8 120.2,472.9 120.2,472.9 120.4,472.9 120.4,473 120.5,473.1 120.6,473.2 120.6,473.2 120.6,473.3 
	120.7,473.4 120.8,473.4 120.9,473.5 120.9,473.6 121,473.6 121.1,473.6 121.1,473.7 121.1,473.8 121.1,473.9 121.1,473.9 
	121.2,474.1 121.3,474.1 121.3,474.1 121.4,474.2 121.5,474.2 121.6,474.3 121.6,474.3 121.6,474.6 121.7,474.7 121.6,474.8 
	121.7,474.9 121.5,475.6 121.5,475.7 121.6,475.7 121.6,476.1 121.6,476.3 121.6,476.6 121.4,476.8 121.3,477.1 121.3,477.3 
	121.1,477.5 120.9,478.3 120.7,478.8 120.8,479.1 120.9,479.3 120.9,480 120.8,480.1 120.8,480.2 120.9,480.2 120.9,480.5 
	121,480.6 120.9,480.7 120.9,480.8 120.9,480.9 120.9,480.9 120.8,481 120.7,481.1 120.7,481.2 120.7,481.4 120.6,481.5 
	120.6,481.6 120.4,481.7 120.4,481.9 120.4,481.9 120.3,481.9 120.3,482 120.2,482.1 120.2,482.2 120.1,482.2 119.9,482.3 
	119.9,482.3 119.9,482.5 119.8,482.6 119.7,482.6 119.7,482.7 119.6,482.7 119.5,482.8 119.5,483.3 119.4,483.5 119.4,483.8 
	119.5,483.9 119.5,484.1 119.4,484.4 119.4,484.7 119.4,484.7 119.4,484.9 119.3,484.9 119.2,485 119.2,485 119.1,485.1 
	119.1,485.2 119.1,485.2 119.2,485 119.1,484.9 119.2,484.9 119.4,485.4 119.4,485.8 119.7,486 119.7,486.2 119.9,486.2 
	119.8,486.3 119.9,486.5 119.9,486.6 119.8,486.6 119.9,486.6 119.8,486.8 119.8,487.3 119.9,487.4 119.9,487.5 119.9,487.6 
	119.9,487.7 119.9,487.6 119.9,488 119.9,488 119.9,488.1 119.8,488.2 119.7,488.2 119.7,488.3 119.8,488.4 119.7,488.5 
	119.8,488.5 119.9,488.6 119.9,488.8 119.9,488.9 119.9,488.9 120,489 120,489.1 120.1,489.2 120.1,489.6 120.2,489.7 120.2,489.9 
	120.2,490.2 120.3,490.3 120.3,490.3 120.4,490.4 120.4,490.6 120.4,490.6 120.4,491.3 120.4,491.4 120.4,491.9 120.3,492 
	120.3,492.6 120.2,492.7 120.2,492.7 120.2,492.9 120.1,492.9 120,493 119.9,493.1 119.9,493.1 119.8,493.2 119.7,493.2 
	119.7,493.3 119.6,493.4 119.5,493.4 119.4,493.4 119.4,493.4 119.3,493.5 119.2,493.6 119.2,493.6 119.1,493.7 119,493.8 
	119,493.9 118.9,493.9 118.8,494 118.7,494.1 118.7,494.3 118.6,494.3 118.5,494.3 118.5,494.5 118.5,494.6 118.4,494.6 
	118.3,494.6 118.3,494.7 118.3,494.8 118.3,494.9 118.3,494.9 118.3,495 118.2,495 118.1,495.1 118.1,495.3 118.1,495.4 118,495.4 
	118.1,495.4 118,495.5 118,495.8 118,495.8 118,496 117.9,496.1 117.8,496.1 117.8,496.2 117.7,496.2 117.6,496.2 117.6,496.3 
	117.6,496.4 117.5,496.5 117.4,496.5 117.4,496.7 117.3,496.7 117.3,496.8 117.2,496.9 117.1,496.9 117.1,497.1 117.1,497.2 
	117.1,497.3 117,497.4 116.9,497.4 "/>
<polyline fill="none" stroke="#EF25B2" stroke-width="0.75" stroke-linejoin="round" stroke-miterlimit="10" points="144.7,359.3 
	144.7,359.4 144.6,359.5 144.6,359.5 144.6,359.6 144.6,359.7 144.5,359.8 144.5,360 144.4,360 144.4,360.1 144.4,360.2 
	144.4,360.2 144.3,360.3 144.3,360.4 144.2,360.4 144.2,360.7 144.2,360.7 144.1,360.7 144,360.8 143.9,360.8 143.9,360.8 
	143.9,360.8 143.9,360.9 143.8,360.9 143.8,361 143.7,361.1 143.7,361.1 143.7,361.3 143.6,361.4 143.5,361.4 143.5,361.6 
	143.5,361.6 143.5,361.8 143.4,361.8 143.4,361.9 143.3,362 143.3,362.2 143.2,362.3 143.2,362.3 143.2,362.4 143.2,362.5 
	143.1,362.6 143.1,362.7 143,362.8 143,362.8 143,362.9 143,363 142.9,363.1 142.8,363.2 142.8,363.3 142.8,363.5 142.7,363.5 
	142.7,363.6 142.6,363.7 142.6,363.8 142.5,363.9 142.5,364 142.5,364 142.5,364.2 142.4,364.2 142.4,364.4 142.3,364.4 
	142.3,364.5 142.3,364.6 142.3,364.7 142.2,364.8 142.2,364.9 142.1,364.9 142.1,365.1 142,365.1 142,365.3 142,365.4 142,365.4 
	141.9,365.5 141.9,365.6 141.8,365.7 141.8,365.8 141.8,365.8 141.8,366 141.7,366.1 141.7,366.1 141.6,366.3 141.6,366.3 
	141.6,366.4 141.6,366.5 141.5,366.7 141.5,366.8 141.4,366.8 141.4,367 141.3,367 141.3,367.2 141.3,367.2 141.3,367.4 
	141.2,367.5 141.2,367.7 141.1,367.7 141.1,367.9 141.1,368 141.1,368.1 141,368.2 141,368.3 140.9,368.4 140.9,368.5 140.9,368.6 
	140.9,368.7 140.8,368.7 140.8,368.9 140.7,368.9 140.7,369.1 140.6,369.1 140.6,369.2 140.6,369.3 140.6,369.4 140.5,369.6 
	140.5,369.8 140.4,369.8 140.4,370 140.4,370.1 140.4,370.2 140.3,370.3 140.3,370.4 140.2,370.5 140.2,370.5 140.2,370.6 
	140.1,370.7 140,370.8 140,370.8 139.9,370.9 139.9,371 139.9,371 139.8,371.1 139.7,371.2 139.7,371.2 139.7,371.3 139.6,371.4 
	139.6,371.6 139.5,371.7 139.5,371.7 139.5,371.8 139.5,372 139.4,372 139.4,372.2 139.3,372.3 139.3,372.5 139.2,372.6 
	139.2,372.7 139.2,372.7 139.2,372.8 139.1,372.9 139,372.9 139,373.1 139,373.1 139,373.2 138.9,373.4 138.9,373.5 138.8,373.6 
	138.8,373.6 138.7,373.7 138.7,373.8 138.7,373.9 138.7,374.1 138.6,374.1 138.6,374.2 138.5,374.3 138.5,374.5 138.5,374.5 
	138.5,374.6 138.4,374.7 138.4,374.8 138.3,374.8 138.3,374.9 138.3,375 138.2,375 138.2,375.2 138.1,375.3 138.1,375.4 138,375.5 
	138,375.5 138,375.6 138,375.7 137.9,375.8 137.9,376 137.8,376.1 137.8,376.2 137.8,376.3 137.8,376.5 137.7,376.6 137.7,376.7 
	137.6,376.8 137.6,377 137.6,377.1 137.6,377.1 137.5,377.3 137.5,377.4 137.4,377.5 137.4,377.6 137.3,377.7 137.3,377.8 
	137.3,377.9 137.3,378.1 137.2,378.1 137.2,378.2 137.1,378.3 137.1,378.4 137.1,378.5 137.1,378.6 137,378.7 137,378.8 
	136.9,378.9 136.9,379 136.9,379.1 136.9,379.3 136.8,379.4 136.8,379.5 136.7,379.6 136.7,379.8 136.6,379.9 136.6,380.1 
	136.6,380.2 136.6,380.3 136.5,380.4 136.5,380.6 136.4,380.7 136.4,380.9 136.4,380.9 136.4,381.1 136.3,381.2 136.3,381.4 
	136.2,381.6 136.2,381.7 136.2,381.8 136.2,381.9 136.1,382.1 136,382.2 135.9,382.3 135.9,382.5 135.7,382.8 135.7,383 
	135.7,383.2 135.6,383.4 135.5,383.7 135.5,384 135.4,384.4 135.3,384.9 135.2,385.5 135,386.1 135,386.9 134.8,387.7 134.7,388.4 
	134.5,389.6 134.4,390.9 134,392.2 133.5,393.8 133,395.3 132.4,396.7 131.5,399.7 130.4,403 128.9,406.5 127.4,410.1 126,413.8 
	124.7,418 122.6,422.5 120.3,426.7 117.8,431.3 115.2,436 113.1,441.4 113,444.9 112.9,447.4 113.1,449.5 113.3,452.4 113.7,455 
	113.7,458.8 113.6,459.9 113.6,462.1 113.6,462.3 113.6,463 113.7,463.1 113.7,463.3 113.8,463.4 113.8,463.5 113.8,463.5 
	113.8,463.7 113.9,463.7 113.9,463.8 114,463.9 114,464 114.1,464.1 114.1,464.2 114.2,464.2 114.2,464.3 114.3,464.5 114.3,464.5 
	114.3,464.6 114.4,464.7 114.4,464.9 114.5,464.9 114.5,465.2 114.5,465.2 114.5,465.4 114.6,465.6 "/>
<polyline fill="none" stroke="#EF25B2" stroke-width="0.75" stroke-linejoin="round" stroke-miterlimit="10" points="134.4,320.4 
	135.3,321.9 136.3,323.4 136.6,324.4 136.7,325.1 136.8,325.6 136.9,325.8 136.9,326 137,326.1 137.1,326.3 137.1,326.5 
	137.2,326.7 137.2,326.8 137.3,326.9 137.3,327 137.3,327 137.3,327.2 137.4,327.3 137.4,327.5 137.5,327.6 137.5,327.8 
	137.6,327.9 137.6,328 137.6,328.2 137.6,328.4 137.7,328.5 137.7,328.6 137.8,328.7 137.8,329 137.8,329.1 137.8,329.3 
	137.9,329.4 137.9,329.5 138,329.6 138,329.8 138,329.8 138,330.1 138.1,330.2 138.1,330.4 138.2,330.5 138.2,330.7 138.3,330.8 
	138.3,330.9 138.3,331 138.3,331.2 138.4,331.3 138.4,331.5 138.5,331.6 138.5,331.8 138.5,331.9 138.5,332.2 138.6,332.3 
	138.6,332.6 138.7,332.7 138.7,333.8 138.8,333.8 138.8,334.1 138.8,334.1 138.8,334.3 138.9,334.3 138.9,334.5 139,334.5 
	139,334.6 139,334.7 139,334.8 139.1,334.8 139.1,334.9 139.2,335 139.2,335 139.2,335.2 139.2,335.2 139.3,335.3 139.3,335.5 
	139.4,335.5 139.4,335.9 139.5,335.9 139.5,336 139.5,336.1 139.6,336.2 139.6,336.4 139.7,336.4 139.7,336.5 139.7,336.6 
	139.7,336.7 139.8,336.7 139.9,336.9 139.9,337 140,337.1 140.1,337.1 140.2,337.2 140.2,337.3 140.3,337.3 140.4,337.4 
	140.4,337.5 140.4,337.6 140.5,337.6 140.6,337.7 140.6,337.8 140.7,337.8 140.8,337.9 140.9,338 140.9,338.1 141,338.1 
	141.1,338.1 141.1,338.2 141.2,338.3 141.2,338.3 141.3,338.4 141.3,338.5 141.4,338.5 141.5,338.6 141.6,338.7 141.6,338.7 
	141.7,338.8 141.8,338.8 141.8,338.9 141.8,339 141.9,339 142,339.1 142,339.2 142.1,339.2 142.1,339.3 142.2,339.4 142.3,339.4 
	142.3,339.5 142.4,339.5 142.4,339.6 142.5,339.7 142.5,339.7 142.6,339.8 142.6,339.9 142.7,339.9 142.8,339.9 142.8,340 
	142.9,340.1 143,340.2 143,340.2 143.1,340.4 143.2,340.4 143.2,340.5 143.3,340.6 143.3,340.6 143.4,340.7 143.4,341 143.5,341 
	143.5,341.1 143.4,341.1 143.5,341.2 143.5,341.6 143.4,341.6 143.5,341.6 143.5,341.6 143.6,341.6 143.7,341.8 143.7,341.8 
	143.7,341.8 143.8,341.8 143.9,341.9 143.9,342 143.9,342.1 143.9,342 144,342 144.1,342.1 144.2,342.1 144.2,342.1 144.3,342.1 
	144.4,342.1 144.4,342 144.5,342 144.6,342 144.6,341.9 144.7,341.9 144.8,342 144.9,342 144.9,342.1 145,342.1 145.1,342 
	145.1,342 145.2,342.1 145.3,342.1 145.4,342.1 145.5,342.1 145.6,342.1 145.6,342.1 145.7,342.2 145.8,342.2 145.8,342.3 
	145.9,342.3 146,342.4 146,342.5 146,342.5 146,342.5 146,342.6 146.1,342.7 146.2,342.8 146.3,342.8 146.3,342.8 146.4,342.8 
	146.5,342.9 146.5,343 146.5,343 146.6,343.1 146.7,343.2 146.8,343.2 146.7,343.2 146.8,343.2 146.8,343.3 146.9,343.3 147,343.3 
	147,343.4 147.1,343.5 147.2,343.5 147.2,343.6 147.2,343.7 147.3,343.7 147.3,343.8 147.4,343.9 147.4,344.2 147.5,344.2 
	147.5,344.2 147.6,344.3 147.7,344.4 147.7,344.3 147.8,344.4 147.9,344.3 147.9,344.4 147.9,344.5 148,344.6 148.1,344.6 
	148.1,344.7 148,344.7 147.9,344.7 148,344.8 148.1,344.9 148.2,344.9 148.2,345 148.4,345.6 149.2,346.4 149.2,346.3 149.2,346.5 
	149.3,346.5 149.6,346.5 149.5,347.3 149.1,349.8 148.4,351.9 147.7,353.1 147.4,353.9 147.1,354.5 147,354.8 146.9,355 
	146.9,355.2 146.8,355.5 146.8,355.7 146.7,355.8 146.6,355.9 146.6,356 146.5,356.1 146.5,356.2 146.5,356.3 146.5,356.4 
	146.4,356.5 146.4,356.6 146.3,356.7 146.3,356.7 146.3,356.9 146.3,356.9 146.2,357 146.2,357.1 146.1,357.1 146.1,357.4 
	146,357.4 146,357.5 146,357.6 145.9,357.6 145.8,357.7 145.7,357.8 145.8,357.8 145.7,357.8 145.6,357.9 145.6,357.9 145.5,357.9 
	145.3,358.1 145.4,358.1 145.3,358.1 145.3,358.1 145.2,358.2 145.2,358.3 145.1,358.3 145.1,358.4 145.1,358.5 145.1,358.5 
	145,358.6 145,358.8 144.9,358.8 144.9,359 144.9,359 144.9,359.1 144.8,359.2 144.8,359.2 144.7,359.3 "/>
<polyline fill="none" stroke="#EF25B2" stroke-width="0.75" stroke-linejoin="round" stroke-miterlimit="10" points="104.4,300.2 
	104.4,300.3 104.3,300.2 104.4,300.2 104.4,300.3 104.5,300.3 104.6,300.4 104.6,300.6 104.6,300.7 104.6,300.7 104.5,300.7 
	104.6,300.8 104.5,300.9 104.6,300.9 104.6,300.9 104.9,301 104.8,301 104.9,301 104.9,301.1 105,301.1 105.1,301 105.1,300.9 
	105.1,301.1 105.1,301.1 105.2,301.1 105.3,301.1 105.3,301.1 105.4,301.2 105.4,301.3 105.5,301.3 105.6,301.4 105.6,301.4 
	105.7,301.6 105.7,301.6 105.8,301.7 105.8,301.8 105.8,301.8 105.8,301.8 105.8,302 105.8,302 105.8,302.1 105.8,302.2 106,302.4 
	105.9,302.4 106,302.4 106,302.4 106.1,302.3 106,302.4 106,302.6 106.1,302.7 106.2,302.7 106.3,302.8 106.3,302.8 106.3,302.9 
	106.4,303 106.4,303.2 106.5,303.4 106.5,303.7 106.6,303.8 106.6,304.1 106.7,304.2 106.7,305.1 106.7,305.2 106.7,305.6 
	106.9,305.7 107,305.8 107.1,306 107.2,306 107.3,306.1 107.4,306.2 107.5,306.2 107.6,306.3 107.7,306.3 107.8,306.3 107.9,306.4 
	108,306.5 108.1,306.5 108.2,306.5 108.3,306.6 108.4,306.6 108.4,306.7 108.6,306.7 108.6,306.8 108.7,306.8 108.8,306.8 
	108.9,306.8 108.9,306.8 109,306.9 109.1,307 109.1,307.1 109.3,307.1 109.4,307.2 109.5,307.3 109.6,307.3 109.6,307.4 
	109.8,307.5 109.9,307.7 110,307.8 110.1,307.9 110.2,308.2 110.3,308.4 110.3,308.5 110.3,308.6 110.2,308.6 110.3,308.6 
	110.3,308.7 110.4,308.7 110.5,308.8 110.5,308.8 110.6,308.9 110.8,309 110.9,309.1 110.9,309.2 111,309.3 111.1,309.4 
	111.2,309.5 111.2,309.6 111.2,309.7 111.4,309.8 111.4,309.9 111.5,310 111.5,310.1 111.7,310.1 111.9,310.3 112.2,310.5 
	112.2,310.6 112.2,310.8 112.4,311 112.6,311.2 112.9,311.3 113.1,311.5 113.6,311.8 113.8,311.9 114.3,312.4 114.4,312.8 
	114.5,313.2 114.6,314.1 115.1,314.8 115.7,315.5 115.9,316.3 116,316.4 115.9,316.5 116.6,317.3 116.6,317.3 116.6,317.6 
	116.9,317.7 117.1,317.8 117.3,318.1 117.3,318.1 117.4,318.1 117.5,318.1 117.6,318.3 117.7,318.3 117.8,318.3 117.8,318.4 
	117.9,318.5 118,318.6 117.9,318.7 117.9,318.8 118,318.8 118,319 118,319 118.1,319.1 118.2,319.1 118.3,319.2 118.3,319.2 
	118.4,319.2 118.5,319.2 118.5,319.3 118.6,319.3 118.7,319.3 118.8,319.3 118.9,319.3 119,319.2 119,319.2 119.1,319.2 
	119.2,319.2 119.2,319.1 119.4,319.1 119.4,319.2 119.4,319.2 119.5,319.3 119.6,319.3 119.7,319.4 119.7,319.4 119.9,319.5 
	119.9,319.5 119.9,319.6 120,319.7 120.1,319.6 120.2,319.6 120.2,319.6 120.3,319.6 120.4,319.6 120.4,319.7 120.5,319.7 
	120.6,319.7 120.6,319.7 120.7,319.7 120.8,319.7 120.9,319.7 120.9,319.7 121,319.6 121.1,319.7 121,319.7 121.1,319.7 
	121.1,319.7 121.3,319.7 121.3,319.6 121.5,319.6 121.4,319.6 121.5,319.6 121.6,319.5 121.6,319.6 121.7,319.5 121.8,319.5 
	121.8,319.6 121.9,319.6 122,319.6 122.1,319.6 122.2,319.6 122.3,319.6 122.3,319.6 122.5,319.6 122.5,319.5 122.6,319.5 
	122.7,319.6 123,319.5 123.1,319.4 123.2,319.3 123.2,319.4 123.3,319.4 123.5,319.4 123.5,319.4 123.6,319.4 123.7,319.4 
	123.8,319.4 123.9,319.4 123.9,319.3 124,319.3 124.1,319.4 124.2,319.4 124.2,319.5 124.3,319.5 124.4,319.5 124.4,319.5 
	124.5,319.5 124.6,319.4 124.6,319.4 124.6,319.3 124.6,319.3 124.7,319.4 124.9,319.3 125,319.2 125.1,319.2 125.2,319.2 
	125.3,319.2 125.4,319.3 125.5,319.3 125.6,319.3 125.6,319.4 125.7,319.5 125.8,319.5 126,319.7 125.9,319.7 126,319.7 
	126.1,319.7 126.3,319.7 126.3,319.7 126.3,319.8 126.4,319.7 126.4,319.7 126.5,319.6 126.7,319.6 126.8,319.7 126.9,319.8 
	127,319.8 127.3,319.8 127.4,319.7 127.5,319.6 127.8,319.6 128.2,319.6 128.3,319.6 128.8,319.8 129.3,320.1 129.8,320.1 
	130.3,319.9 130.8,320 131,320 131.2,320.2 131.5,320.5 132.2,320.5 132.8,320.5 133.1,320.6 133.1,320.7 133.3,320.8 133.8,321 
	134,320.8 134.3,320.4 134.4,320.4 "/>
<polyline fill="none" stroke="#EF25B2" stroke-width="0.75" stroke-linejoin="round" stroke-miterlimit="10" points="82.5,288.7 
	82.5,288.8 82.6,288.9 82.7,288.9 82.6,289 82.7,289.1 82.7,289.3 82.7,289.5 82.7,289.6 82.7,289.7 82.8,289.8 83,289.8 83,289.8 
	83.1,289.9 83.1,290 82.9,290.2 83.1,290.3 83.3,290.5 83.2,290.6 83.4,290.7 83.4,291 83.2,291 83.2,291.1 83.3,291.6 83.4,291.8 
	83.4,291.9 83.4,292 83.3,292.2 83.4,292.2 83.4,292.3 83.5,292.4 83.6,292.4 83.5,292.5 83.5,292.6 83.6,292.6 83.6,292.8 
	83.7,292.9 83.7,293 83.7,293.1 83.8,293.1 83.9,293.1 83.9,293.1 84,293.1 84.1,293.2 84.1,293.2 84.2,293.2 84.3,293.2 
	84.4,293.3 84.4,293.3 84.5,293.3 84.6,293.3 84.7,293.3 84.6,293.3 84.7,293.4 84.8,293.5 84.8,293.5 84.9,293.6 84.9,293.6 
	85,293.7 85,293.8 85.1,293.8 85.1,293.8 85.2,293.9 85.3,293.9 85.3,294 85.4,294 85.5,294 85.5,294.1 85.6,294.2 85.6,294.3 
	85.6,294.3 85.7,294.4 85.7,294.5 85.8,294.5 85.8,294.6 85.8,294.7 85.9,294.6 86,294.7 86,294.6 86.1,294.7 86.2,294.6 
	86.3,294.6 86.3,294.8 86.3,294.8 86.4,294.9 86.5,294.8 86.5,294.8 86.6,294.8 86.7,294.8 86.7,294.9 86.8,294.9 86.9,295 87,295 
	87,295.1 87.2,295.2 87.1,295.2 87.2,295.2 87.2,295.3 87.3,295.3 87.2,295.3 87.3,295.2 87.4,295.2 87.4,295.2 87.5,295.2 
	87.6,295.2 87.7,295.2 87.7,295.3 87.8,295.3 87.9,295.4 87.9,295.5 88,295.5 88.1,295.5 88,295.5 88.1,295.5 88.1,295.6 
	88.2,295.7 88.3,295.6 88.4,295.6 88.4,295.5 88.5,295.5 88.6,295.5 88.6,295.4 88.7,295.4 88.8,295.4 88.8,295.5 88.9,295.5 
	89,295.5 89.1,295.5 89.2,295.5 89.3,295.5 89.3,295.4 89.4,295.4 89.6,295.4 89.6,295.5 89.7,295.5 89.8,295.5 89.8,295.6 
	90,295.7 90,295.7 90.1,295.7 90.2,295.8 90.3,295.9 90.3,295.9 90.3,296 90.4,296.2 90.4,296.2 90.5,296.3 90.5,296.4 90.5,296.4 
	90.6,296.4 90.7,296.4 90.7,296.4 90.8,296.4 90.9,296.4 91,296.4 91,296.4 91.1,296.4 91.2,296.4 91.2,296.4 91.3,296.4 
	91.4,296.4 91.5,296.4 91.6,296.5 91.7,296.6 91.7,296.6 91.8,296.6 91.8,296.8 91.7,296.9 91.8,297 91.9,297 92.1,297 92.1,297.1 
	92.2,297.2 92.3,297.3 92.3,297.6 92.2,297.6 92.3,297.8 92.2,297.8 92.4,297.8 92.4,297.7 92.6,297.7 92.7,297.7 92.9,297.7 
	92.9,297.7 93.1,297.8 93.2,297.8 93.3,297.8 93.5,297.7 93.6,297.6 93.6,297.6 93.6,297.5 93.6,297.6 93.8,297.5 93.8,297.4 
	94,297.6 94.2,297.6 94.5,297.5 94.7,297.3 94.7,297.2 94.8,297.3 95,297.3 95.4,297.2 95.8,297.2 95.9,297.1 96.3,297.3 
	96.7,297.6 96.9,297.2 97.1,296.7 97.1,296.7 97.6,296.7 98,296.6 98.3,296.6 98.3,296.5 98.1,296.2 98.4,295.5 98.4,295.5 
	98.4,295.5 98.5,295.9 99.3,295.9 100,296.1 100.3,296.4 100.6,296.4 100.9,296.4 100.9,296.5 101.1,296.6 101.2,296.9 101.3,297.1 
	101.3,297.1 101.4,297.2 101.4,297.3 101.5,297.4 101.6,297.4 101.6,297.5 101.6,297.3 101.6,297.3 101.7,297.3 101.9,297.5 
	101.8,297.5 101.9,297.5 102,297.5 102,297.5 102.1,297.6 102,297.6 102.1,297.6 102.2,297.6 102.3,297.6 102.3,297.6 102.4,297.7 
	102.5,297.8 102.5,297.8 102.5,297.8 102.5,297.8 102.5,297.9 102.5,297.8 102.5,297.8 102.5,297.9 102.6,298 102.7,298 
	102.7,298.1 102.7,298.2 102.8,298.2 102.9,298.3 102.9,298.7 103,298.8 103,298.8 103.1,298.8 103.2,298.9 103.2,298.9 
	103.2,298.9 103.3,298.9 103.4,298.8 103.4,298.8 103.5,298.8 103.6,298.8 103.7,298.8 103.7,298.9 103.7,299 103.8,299.1 
	103.7,299.2 103.8,299.2 103.9,299.2 103.8,299.2 103.9,299.2 103.9,299.2 103.9,299.2 103.9,299.2 103.9,299.3 104,299.4 
	104.1,299.4 104.1,299.5 104.1,299.6 104.1,299.7 104.1,299.7 104.2,299.8 104.3,299.9 104.3,300.1 104.3,300 104.2,300.1 
	104.3,300.2 104.4,300.2 "/>
<polyline fill="none" stroke="#EF25B2" stroke-width="0.75" stroke-linejoin="round" stroke-miterlimit="10" points="80.2,241.1 
	80.1,241.1 80.1,241.3 80,241.6 79.9,241.9 79.8,242.3 79.3,242.7 79.1,243 78.9,243 78.5,243.6 78.5,243.6 78.3,244.2 78.2,244.9 
	77.4,245.2 77.3,246.1 77.5,246.3 77.8,245.7 77.8,245.6 78.3,246 78.9,246.5 79.1,247.7 79.9,248.8 79.9,249.1 79,248.3 79,248.2 
	78.7,248.2 77.3,247.7 76.7,247.4 76.8,247.2 76.6,247 76.6,247.1 76.6,247.2 76.5,247.2 76.4,247.3 76.4,247.3 76.4,247.3 
	76.3,247.4 76.2,247.4 76.1,247.4 76,247.4 76.1,247.4 76,247.4 76.1,247.4 76.2,247.7 76.2,247.6 76.2,247.7 76.1,247.7 
	76.3,247.7 76.4,247.8 76.4,247.9 76.4,248 76.4,248 76.4,248.3 76.4,248.4 76.6,248.5 76.7,248.6 76.6,248.6 76.6,248.7 
	76.6,248.7 76.7,248.6 76.9,250.5 77.7,251.9 77.8,253.3 78,254.7 77.8,256.1 77.3,256.5 76.9,257 76.7,257.5 76.6,258.2 
	76.5,258.6 76.6,259.1 76.6,259.2 76.6,259.7 76.5,259.8 76.5,260.1 76.4,260.2 76.4,260.5 76.4,260.6 76.3,260.6 76.4,260.8 
	76.3,260.8 76.3,260.9 76.3,261.1 76.3,261.2 76.4,261.3 76.3,261.4 76.4,261.7 76.3,261.8 76.4,261.8 76.4,262 76.3,262 
	76.3,262.3 76.4,262.3 76.3,262.3 76.1,262.4 76.1,262.5 76.1,262.5 76,262.6 76,262.8 75.9,262.9 75.9,263.4 75.9,263.4 
	75.8,263.5 75.7,263.6 75.7,264 75.7,264.1 75.6,264.2 75.6,264.6 75.5,264.8 75.4,264.9 75.4,264.9 75.3,264.9 75.2,265.2 
	75.2,265.3 75.2,265.3 75.1,265.5 74.9,265.8 74.8,266 74.8,266.3 74.7,266.3 74.8,266.6 74.7,266.7 74.7,267 74.5,267.1 
	74.5,267.3 74.4,267.3 74.3,267.4 74.2,267.6 74.2,267.9 74,268.1 73.9,268.2 73.8,268.4 73.7,268.6 73.6,268.9 73.5,269.1 
	73.4,269.6 73.5,270.2 73.5,270.7 73.6,271.4 73.7,271.9 73.8,272.5 73.7,273.2 73.7,274 73.4,274.4 72.9,274.9 72.8,275.4 
	72.8,276.9 73.2,278.3 73.4,278.6 73.6,278.9 73.6,279.2 73.6,279.4 73.7,279.7 73.7,279.9 73.8,279.9 73.9,280.1 74,280.3 
	74,280.4 74.1,280.4 74,280.4 74.1,280.5 74.2,280.6 74.3,280.6 74.2,280.8 74.2,280.9 74.1,280.9 74.1,281.1 74,281.1 74,281.3 
	74,281.6 74,281.5 74,281.6 73.9,281.6 74,281.7 74,281.8 74,281.8 74.1,281.9 74.1,282.2 74,282.1 74,282.5 74.1,282.5 74,282.5 
	74,282.8 74,282.8 74,282.8 74,282.9 74.1,283 74.2,283 74.3,283.1 74.3,283.2 74.4,283.2 74.4,283.7 74.5,283.7 74.5,283.8 
	74.5,283.7 74.5,283.8 74.5,283.8 74.5,283.9 74.5,284.3 74.6,284.4 74.6,284.4 74.7,284.5 74.6,284.5 74.7,284.6 74.7,284.6 
	74.8,284.7 74.9,284.8 75,284.9 75,285 75.1,285.1 75.2,285.1 75.2,285.3 75.2,285.3 75.3,285.4 75.2,285.4 75.3,285.3 75.2,285.3 
	75.3,285.3 75.4,285.3 75.4,285.3 75.4,285.7 75.6,285.9 75.7,286 75.8,286.2 75.9,286.3 76,286.3 76.1,286.4 76.1,286.4 
	76.3,286.5 76.3,286.6 76.4,286.6 76.5,286.7 76.6,286.7 76.6,286.8 76.7,286.8 76.8,286.9 76.9,287 77.1,287 77.2,287 77.3,287.1 
	77.3,287.2 77.3,287.1 77.5,287 77.6,287 77.7,287 77.8,287 77.8,287 78,287.1 78,287.2 78.1,287.2 78.2,287.2 78.3,287.2 
	78.3,287.2 78.5,287.2 78.5,287.2 78.7,287.3 78.7,287.4 79,287.3 79,287.3 79.1,287.3 79.2,287.3 79.2,287.3 79.3,287.4 
	79.4,287.4 79.4,287.4 79.5,287.4 79.6,287.4 79.7,287.4 79.7,287.4 79.8,287.5 79.9,287.5 80,287.5 80.1,287.7 80.1,287.6 
	80.2,287.6 80.4,287.5 80.5,287.4 80.6,287.3 80.6,287.2 80.6,287.3 80.7,287.2 80.8,287.3 80.8,287.2 80.9,287.4 81.1,287.5 
	81.1,287.5 81.3,287.5 81.3,287.5 81.4,287.5 81.5,287.5 81.6,287.6 81.7,287.7 81.8,287.7 81.8,287.7 81.9,287.8 82,287.9 
	82.1,288.2 82.3,288.5 82.4,288.6 82.5,288.7 "/>
<polyline fill="none" stroke="#EF25B2" stroke-width="0.75" stroke-linejoin="round" stroke-miterlimit="10" points="69,166 
	69,166.3 69.1,166.9 69.1,167.6 69.1,167.6 69.1,167.7 69.1,168 69.1,168.1 69,168.2 68.9,168.3 68.8,168.4 68.8,168.5 68.8,168.6 
	68.8,168.7 68.7,168.9 68.7,169.1 68.6,169.2 68.6,169.5 68.6,169.6 68.5,169.7 68.4,169.8 68.4,169.8 68.4,170 68.3,170.1 
	68.1,170.2 68.1,170.5 68.1,170.6 68,170.7 68,170.8 67.9,171 67.9,171.1 67.9,171.2 67.8,171.4 67.8,171.9 67.7,171.9 67.7,172.4 
	67.7,172.4 67.7,173 67.6,173.1 67.6,173.3 67.7,173.3 67.7,173.5 67.6,173.7 67.6,174.2 67.7,174.4 67.7,174.5 67.6,174.6 
	67.5,174.7 67.5,175.2 67.4,175.4 67.4,175.5 67.4,175.7 67.4,175.7 67.4,175.9 67.4,176 67.3,176.1 67.3,176.8 67.2,176.8 
	67.2,176.9 67.3,177.1 67.2,177.1 67.3,177.3 67.3,177.9 67.2,178 67.2,178.1 67.3,178.2 67.3,178.3 67.4,178.5 67.4,178.5 
	67.4,178.6 67.5,178.7 67.5,178.7 67.6,178.9 67.7,179 67.7,179 67.8,179.1 67.8,179.2 67.9,179.3 67.9,179.4 68,179.5 68.1,179.7 
	68.1,179.7 68.1,179.8 68.1,180 68.2,180.1 68.3,180.3 68.4,180.4 68.4,181.1 68.4,181.1 68.4,181.3 68.4,181.3 68.4,181.5 
	68.4,181.5 68.4,181.6 68.5,181.8 68.6,181.9 68.6,182 68.7,182 68.8,182.2 68.8,182.3 68.8,182.4 68.8,183 68.9,183 68.9,183.3 
	69,183.4 69,184 68.9,184.1 68.9,184.3 69.1,184.5 69.1,184.6 69.1,184.6 69.2,184.8 69.3,184.9 69.3,185 69.4,185.1 69.4,186.5 
	69.5,186.5 69.5,187 69.4,187.1 69.5,187.2 69.6,187.4 69.6,187.4 69.6,188.3 69.6,188.4 69.6,188.5 69.6,188.6 69.6,188.6 
	69.6,188.7 69.6,188.8 69.6,188.8 69.6,189 69.6,189 69.6,189.1 69.6,189.5 69.6,189.5 69.6,190.2 69.6,190.4 69.5,190.5 
	69.4,190.5 69.3,190.6 69.3,190.7 69.3,190.7 69.3,190.9 69.2,191 69.2,191.2 69.1,191.2 69.1,191.2 69,191.2 68.9,191.2 
	68.8,191.3 68.8,191.4 68.8,191.4 68.7,191.4 68.6,191.4 68.7,191.6 68.6,191.7 68.6,191.8 68.6,191.8 68.6,191.9 68.6,192 
	68.6,192.6 68.6,192.7 68.6,192.9 68.5,193 68.5,193.2 68.4,193.3 68.4,193.3 68.4,193.5 68.3,193.5 68.2,193.7 68.2,194.1 
	68.1,194.2 68.1,194.2 68,194.3 67.9,194.3 67.9,194.5 67.9,194.5 67.9,194.6 67.8,194.7 67.9,195 67.8,195 67.7,195.2 67.7,195.3 
	67.6,195.5 67.6,196 67.7,196.6 68,197.5 68.1,197.6 68.1,198.9 67.9,200.3 68.2,201.8 68.4,202.7 69.1,203.2 69.3,203.2 69.9,204 
	70.1,204.3 70.2,204.4 69.8,205.8 69.4,208.8 69.5,211.2 70.4,212.8 71,214.1 71.4,215.2 72.1,216.1 72.4,216.6 73.3,217.2 
	74.4,218.3 75.2,219.2 76.1,219.8 76.1,220 76.9,221.4 77.9,222.9 78.2,223.7 78.3,225.1 78.4,225.8 78.7,226.3 79,226.7 
	79.2,227.4 79.4,227.5 79.5,227.9 79.7,228.2 79.9,228.5 79.9,228.6 80,228.8 80.1,229.1 80.1,229.3 80.2,229.3 80.3,229.5 
	80.4,229.5 80.5,229.7 80.6,229.8 80.6,229.9 80.7,230 80.7,230.1 80.8,230.2 80.8,230.3 80.9,230.4 81,230.5 81,230.7 81.1,230.8 
	81.1,230.9 81.2,230.9 81.3,231 81.3,231.2 81.3,231.3 81.5,231.4 81.6,231.4 81.6,231.5 81.6,231.9 81.7,232 81.7,233 81.6,233.1 
	81.6,233.3 81.7,233.4 81.7,233.8 81.8,234 81.8,234 81.8,234.6 81.9,234.8 81.9,234.9 81.8,235 81.8,235.7 81.8,235.8 81.8,236.1 
	81.7,236.2 81.8,236.4 81.7,236.4 81.6,236.5 81.6,237.5 81.6,237.6 81.6,237.6 81.7,237.9 81.6,238 81.6,238.5 81.7,238.5 
	81.6,238.7 81.6,238.7 81.6,239.3 81.5,239.4 81.4,239.5 81.4,239.7 81.3,239.7 81.3,239.8 81.3,239.9 81.2,239.9 81.1,240 
	81.1,240.1 81,240.2 80.9,240.2 80.8,240.3 80.8,240.4 80.7,240.4 80.6,240.4 80.6,240.5 80.6,240.6 80.5,240.6 80.4,240.7 
	80.4,240.8 80.3,241 80.2,241.1 "/>
<polyline fill="none" stroke="#EF25B2" stroke-width="0.75" stroke-linejoin="round" stroke-miterlimit="10" points="64.9,116.6 
	64.9,116.7 65,116.8 65,118.3 65.1,118.3 65.1,118.7 65,118.8 65.1,118.9 65.1,119.1 65.1,119.2 65.2,119.4 65.3,119.5 65.3,119.6 
	65.3,119.9 65.4,119.9 65.5,120.1 65.5,120.2 65.5,120.4 65.6,120.5 65.7,120.6 65.7,120.8 65.8,120.9 65.8,121.1 65.8,121.1 
	65.9,121.2 65.9,121.3 66,121.4 66,121.6 66.1,121.7 66.2,121.8 66.2,122.2 66.3,122.2 66.3,122.4 66.3,122.5 66.4,122.5 
	66.4,122.8 66.5,122.9 66.5,123.4 66.5,123.5 66.5,123.9 66.5,124.1 66.5,124.3 66.6,124.4 66.6,124.5 66.7,124.6 66.7,125 
	66.6,125.1 66.5,125.2 66.5,125.3 66.6,125.4 66.5,125.5 66.5,125.8 66.5,126 66.5,126.1 66.5,126.2 66.5,126.2 66.6,126.4 
	66.7,126.5 66.7,126.6 66.8,126.7 66.8,127 66.7,127.2 66.7,127.3 66.7,127.5 66.7,127.6 66.7,127.8 66.7,127.9 66.7,128.1 
	66.8,128.1 66.9,128.3 66.9,129.3 66.8,129.4 66.8,129.8 66.9,129.9 66.9,130 67,130.2 67,130.3 67,130.4 67,130.7 67.1,130.9 
	67.2,130.9 67.3,131 67.3,131.4 67.4,131.4 67.4,131.5 67.5,131.6 67.6,131.8 67.7,131.9 67.7,132 67.7,132.1 67.7,132.3 
	67.7,132.4 67.7,132.6 67.7,132.7 67.6,132.8 67.6,132.9 67.7,133.1 67.7,133.6 67.7,133.8 67.7,134.1 67.9,134.2 67.9,134.4 
	67.9,135.4 67.9,135.5 67.9,135.7 67.8,135.8 67.8,136.4 67.7,136.6 67.7,136.7 67.7,136.8 67.7,137.1 67.7,137.3 67.7,137.8 
	67.6,137.8 67.6,138 67.5,138.1 67.4,138.2 67.4,138.5 67.5,138.7 67.5,138.7 67.4,138.8 67.4,138.9 67.4,139.1 67.3,139.2 
	67.2,139.2 67.3,139.3 67.3,139.4 67.2,139.4 67.2,140.3 67.2,140.4 67.2,140.5 67.2,140.6 67.2,140.8 67.2,141.1 67.2,141.4 
	67.2,141.7 67.3,141.8 67.3,142 67.4,142.2 67.4,142.9 67.4,142.9 67.4,142.9 67.4,142.9 67.6,143.3 67.7,144.1 67.7,145.2 
	67.6,145.8 67.7,146.2 67.8,146.4 67.8,146.5 67.9,146.7 67.9,146.8 68.1,146.9 68.1,147 68.2,147.2 68.3,147.2 68.4,147.3 
	68.4,147.4 68.4,147.5 68.4,147.6 68.5,147.7 68.5,147.8 68.6,147.8 68.6,147.9 68.6,148 68.7,148.1 68.7,148.2 68.8,148.3 
	68.8,148.4 68.8,148.4 68.8,148.6 68.9,148.7 69,148.8 69,148.9 69.1,149.1 69.1,149.1 69.1,149.3 69.3,149.3 69.3,149.4 
	69.3,149.5 69.4,149.6 69.4,149.8 69.5,149.8 69.4,150 69.5,150 69.6,150.1 69.6,150.3 69.6,150.6 69.7,150.7 69.7,150.9 69.6,151 
	69.6,151.3 69.7,151.4 69.8,151.6 69.8,151.7 69.8,151.8 69.8,151.9 69.8,152.6 69.8,152.7 69.8,152.9 69.8,153 69.8,153.1 
	69.8,153.3 69.8,153.4 69.9,153.5 69.8,153.6 69.9,153.7 70,153.8 70.1,153.8 70,153.8 70.1,153.9 70.1,154.2 70.2,154.2 
	70.3,154.3 70.3,154.5 70.2,154.7 70.2,154.7 70.1,154.8 70,154.8 70,154.9 70,155 69.8,155 69.8,155 69.8,155.2 69.7,155.4 
	69.7,155.6 69.6,155.7 69.6,155.8 69.6,156.1 69.6,156.2 69.6,156.4 69.6,156.4 69.5,156.5 69.4,156.5 69.3,156.5 69.3,156.6 
	69.4,156.8 69.4,157.1 69.3,157.2 69.3,157.3 69.3,157.5 69.3,157.6 69.3,157.7 69.3,157.8 69.3,158.1 69.2,158.2 69.2,158.4 
	69.3,158.5 69.3,158.7 69.3,158.7 69.3,159 69.3,159.1 69.3,159.4 69.3,159.4 69.3,159.7 69.4,159.7 69.5,159.9 69.5,160.1 
	69.6,160.1 69.6,160.3 69.6,160.3 69.6,160.3 69.6,160.2 69.6,160.3 69.6,160.3 69.6,160.4 69.6,160.5 69.6,160.8 69.6,160.9 
	69.6,161.1 69.6,161.1 69.6,161.1 69.6,161.2 69.6,161.3 69.6,161.3 69.6,161.4 69.5,161.5 69.5,161.5 69.6,161.6 69.6,161.8 
	69.6,161.8 69.6,161.9 69.7,162 69.7,162 69.6,162.2 69.6,162.2 69.5,162.3 69.4,162.4 69.4,162.5 69.4,162.7 69.3,163 69.3,163.2 
	69.2,163.4 69.1,163.7 69.1,163.8 68.9,163.9 68.8,164 68.9,164.4 68.9,165.5 69,166 "/>
<polyline fill="none" stroke="#EF25B2" stroke-width="0.75" stroke-linejoin="round" stroke-miterlimit="10" points="62.7,68.1 
	62.9,69.1 63,69.5 63,70 63.1,70.4 63,70.8 63.1,71.2 63.2,71.4 63.1,71.5 63.2,71.6 63.2,71.9 63.2,72 63.3,72.1 63.2,72.3 
	63.2,72.6 63.2,72.8 63.1,72.8 63.1,73.2 63.2,73.3 63.1,73.5 63.1,73.6 63.2,73.8 63.2,74 63.1,74 63,74.2 63.1,74.4 63.1,74.5 
	63.2,74.7 63.2,75.2 63.2,75.3 63.2,75.4 63.3,75.4 63.3,75.8 63.2,75.9 63.2,76.1 63.2,76.2 63.2,76.3 63.1,76.4 63.1,77 
	63.2,77.1 63.1,77.2 63.1,77.3 63,77.3 62.9,77.5 62.8,77.7 62.7,77.7 62.7,77.8 62.8,78 62.8,78.2 62.9,78.4 63,78.5 63,78.9 
	63,79 63.2,79.4 63.2,79.6 63.2,79.8 63.2,79.9 63.2,80.1 63.2,80 63.2,80.4 63.1,80.6 63.1,80.7 63,80.8 63,80.9 63,81 63,81.1 
	63,81.2 63,81.4 63,81.5 63,81.5 63,81.5 62.9,81.7 62.7,81.8 62.7,81.8 62.7,82 62.5,82.1 62.3,82.2 62.3,82.5 62.1,82.8 
	62.1,83.2 62,83.3 62,83.4 62,83.5 61.9,83.7 61.8,83.9 61.8,84.1 61.8,84.3 61.7,84.8 61.8,85.2 61.8,85.3 61.9,85.8 61.8,86 
	61.8,86.1 61.7,86.7 61.3,87.4 61.2,87.4 61.1,87.4 61.3,87.4 61.5,88.1 61.3,89.7 61.5,90.3 61.3,91.4 61.4,91.9 61.4,92.3 
	61.5,92.4 61.7,92.6 61.8,92.8 62.1,93.2 62.3,93.3 62.3,93.4 62.2,93.4 62.3,93.4 62.3,93.6 62.3,93.7 62.3,94.3 62.2,94.4 
	62.3,94.3 62.3,94.3 62.4,94.5 62.4,94.6 62.5,94.5 62.5,94.8 62.4,94.9 62.5,95.2 62.5,95.1 62.5,95.2 62.3,95.3 62.3,95.3 
	62.2,95.4 62.3,95.4 62.3,95.5 62.3,95.6 62.4,95.7 62.4,95.8 62.5,95.9 62.5,96.1 62.6,96.3 62.6,96.3 62.6,96.3 62.5,96.5 
	62.5,96.8 62.6,96.9 62.7,97 62.7,97.1 62.8,97.2 62.9,97.3 63,97.4 63,97.4 63.1,97.5 63.2,97.7 63.4,97.7 63.3,98.3 63.3,98.5 
	63.2,98.7 63.2,98.9 63.2,99.1 63.3,99.2 63.4,99.2 63.4,99.2 63.5,99.4 63.6,99.5 63.7,99.5 63.7,99.7 63.7,99.8 63.8,99.9 
	63.9,100 63.9,100.1 64,100.1 64.1,100.1 64.1,100.3 64,100.5 64.1,100.5 64,100.6 64,100.8 64.1,100.8 64.1,100.9 64,101.1 
	64.1,101.1 64.1,101.6 64.1,101.7 64.1,101.8 64.1,101.9 64,102 64,102.5 63.9,102.5 63.9,102.7 63.9,102.9 63.7,103.2 63.7,103.2 
	63.5,103.2 63.4,103.2 63.4,103.3 63.4,103.4 63.3,103.4 63.2,103.6 63.2,103.6 63.1,103.6 63.2,103.6 63.2,103.6 63.1,103.7 
	63,103.9 63,104.1 63,104.1 63,104.2 62.9,104.3 63,104.4 63,104.5 63,104.4 63,104.6 63.1,104.6 63.1,105.1 63.2,105.2 63.2,105.3 
	63.2,105.3 63.1,105.4 63,105.5 63,105.6 63,105.7 63,105.6 63,106 63,106 63,106 63,106.2 63,106.4 63,106.7 63,107.2 62.9,107.2 
	63,107.2 62.9,107.2 63,107.2 62.9,107.2 63,107.2 62.9,107.2 63,107.2 62.9,107.2 63,107.2 62.9,107.2 63,107.2 62.9,107.2 
	63,107.2 62.9,107.2 63,107.2 62.9,107.2 62.9,107.9 63.2,108.5 63.2,109.1 63.2,109.6 63.2,109.7 63.2,109.8 63.2,109.7 
	63.2,109.8 63.2,110 63,110.1 63.1,110.2 63.1,110.3 63.2,110.4 63.2,110.5 63.2,110.9 63.3,111.2 63.3,111.1 63.3,111.2 
	63.4,111.1 63.4,111.2 63.5,111.3 63.6,111.4 63.6,111.4 63.7,111.6 63.7,111.6 63.8,111.7 63.9,111.7 64,112 64,112.3 64,112.2 
	64.1,112.3 64.1,112.5 64,112.6 64,113.1 64.1,113.1 64.1,113.5 64.1,113.5 64.1,113.8 64.2,113.8 64.2,113.9 64.3,114 64.3,114.2 
	64.4,114.4 64.4,114.7 64.4,114.8 64.5,114.9 64.5,115 64.6,115 64.6,115.4 64.6,115.4 64.6,115.5 64.7,115.6 64.7,116.1 
	64.8,116.2 64.8,116.4 64.8,116.5 64.9,116.6 "/>
<polyline fill="none" stroke="#EF25B2" stroke-width="0.75" stroke-linejoin="round" stroke-miterlimit="10" points="50.7,17.6 
	50.7,17.6 50.7,17.6 50.8,17.9 51.1,18 51.1,18.2 50.8,18.1 51.1,18.2 50.6,18.2 50.7,18.5 50.7,18.4 51,18.4 51.1,18.2 51.1,18.2 
	50.8,18 50.8,18.1 50.5,18.2 50.7,18.5 50.7,18.5 50.9,18.5 50.9,18.6 51,18.5 51,18.4 51.1,18.4 51,18.3 51.1,18.2 51,18.2 
	51.1,18.2 51.2,17.7 51.2,16.8 51.3,16.8 51.2,17.3 51.1,17.9 51.1,18.2 50.6,18.2 50.7,18.2 50.7,18 50.8,18 51,17.9 51,17.8 
	51,17.9 51,18 51.1,18 51,18.2 51.1,18.2 51.2,18.5 51.1,18.2 50.7,18.4 50.2,19.1 49.8,19.4 50,19.2 49.8,19.2 50,19.2 50.5,18.9 
	50.5,18.9 50.7,18.7 50.7,18.6 50.8,18.5 51,18.4 51,18.3 51.1,18.2 51.2,18.3 51.1,18.2 50.8,18 50.7,18.2 51,18.2 51.1,18.2 
	51,18.2 51.1,18.2 51,18.2 51.1,18.2 51,18.2 51.1,18.2 51.2,17.7 51.1,17.8 51,17.7 50.8,17.7 50.7,17.7 50.6,17.6 50.7,17.6 
	50.6,17.6 50.5,17.5 50.5,17.6 50.4,17.7 50.4,17.7 50.3,17.8 50.4,17.8 50.3,17.9 50.4,18 50.5,18 50.5,18 50.7,18.2 50.6,18.2 
	50.7,18.2 50.7,18.2 50.8,18.2 50.9,18.2 51,18.2 51,18.2 51.1,18.2 50.8,18.2 51.1,18.2 50.8,18.1 50.8,18.2 50.7,18.5 51.1,18.2 
	51.1,18.3 51.1,18.2 51,18.2 50.8,18.1 51.1,18.2 51.2,18.2 51.1,18.3 51.1,18.2 51.3,18.5 51.7,18.4 51.8,18.4 51.4,18.3 
	51.2,18.3 51.2,18.4 51.1,18.2 50.9,18.2 50.8,18.2 50.9,18.2 50.8,18.1 51.1,18.2 51,18.2 51.1,18.2 51,18.2 51.1,18.2 51,18.2 
	51.1,18.3 51.1,18.2 50.8,18.1 50.9,18.2 51.1,18.2 50.8,18.1 51.1,18.2 50.8,18.1 51.1,18.2 50.8,18.1 51.1,18.2 52.1,19.4 
	53.3,22.2 54.4,24.7 55,25.7 56.4,27 57.1,28.5 57.5,28.9 58,30 58.3,30.9 58.6,31.6 58.7,32.6 58.9,33 59.1,33.3 59.2,33.5 
	59.4,34 59.4,34.4 59.4,34.4 59.4,34.9 59.5,35.1 59.5,35.4 59.6,35.6 59.7,36 59.7,36.3 59.9,36.3 59.9,36.6 60.1,36.8 60.1,37 
	60.1,37.1 60.1,37.4 60.2,37.6 60.4,37.8 60.4,38 60.6,38.4 60.7,38.7 60.8,38.9 60.8,39 60.8,39.2 60.9,39.2 61,39.2 61.1,39.3 
	61.1,39.4 61.2,39.4 61.3,39.5 61.3,39.5 61.3,39.8 61.4,39.9 61.5,39.9 61.5,39.9 61.5,40.2 61.6,40.3 61.6,40.8 61.7,40.9 
	61.7,41.1 61.8,41.2 61.8,41.3 61.8,41.5 61.8,41.5 61.8,42.2 61.8,42.3 61.8,42.9 61.9,43 61.9,43.1 62,43.3 62,43.6 62,43.7 
	62,44.1 62.1,44.1 62.1,44.2 62.2,44.3 62.2,44.3 62.3,44.5 62.3,44.7 62.3,44.8 62.3,44.9 62.3,45 62.3,45 62.4,45.1 62.4,45.5 
	62.3,45.7 62.3,45.9 62.3,46.4 62.3,47.4 62.4,47.9 62.4,48.3 62.5,48.3 62.4,48.4 62.3,48.6 62.4,48.7 62.4,48.8 62.5,48.8 
	62.4,49 62.5,49.3 62.7,49.5 62.7,49.7 62.8,49.9 62.9,50.1 63,50.2 63,50.4 63.1,50.6 63.1,51.3 63,51.4 63,51.5 63.1,51.6 
	63,51.8 63,51.9 63,52.2 63,52.3 63,52.4 63.1,52.4 63.1,53.2 63,53.5 63,53.7 63,54.1 63,54.2 63,54.3 63.1,54.4 63,54.8 63,55.1 
	63,55.3 62.9,55.4 62.7,55.6 62.6,55.9 62.6,56.1 62.7,56.2 62.7,56.5 62.7,56.8 62.7,57.3 62.8,57.4 62.7,57.6 62.6,58 62.6,58.4 
	62.5,58.5 62.6,58.6 62.7,58.6 62.7,58.9 62.6,59.2 62.7,59.4 62.7,59.5 62.7,59.8 62.7,60.1 62.7,60.3 62.8,60.4 62.8,60.6 
	62.9,60.9 62.9,62.2 63,62.7 63,63 63.1,63.9 62.9,65.2 63,66.4 63,66.5 63.4,66.8 63.6,67.1 63.4,67.2 63.3,67.4 63,67.3 63,67.4 
	62.7,68.1 "/>
<polyline fill="none" stroke="#EF25B2" stroke-width="0.75" stroke-linejoin="round" stroke-miterlimit="10" points="51.1,18.2 
	51,18.2 51,18.2 51.1,18.2 51,18.2 51.1,18.2 51,18.2 51.1,18.2 51,18.2 51.1,18.2 51,18.2 51.1,18.3 51,18.2 51.1,18.3 51.1,18.3 
	51.1,18.2 51.1,18.2 51,18.2 51.1,18.2 51,18.2 51.1,18.2 51,18.2 51,18.2 51.1,18.2 51,18.2 51.1,18.3 51.1,18.4 51.1,18.2 
	51.1,18.3 51.2,18.3 51.2,18.3 51.1,18.3 51.1,18.3 51.1,18.2 51.1,18.2 51,18.2 51.1,18.2 51.1,18.1 51.1,18 51.1,18.1 51.1,18.2 
	51,18.2 51.1,18.2 51,18.2 51.1,18.2 51,18.2 51.1,18.3 51.1,18.3 51.1,18.2 51,18.2 51.1,18.2 51,18.2 51.1,18.2 51,18.2 
	51.1,18.2 50.8,18.1 51.1,18.2 51.2,18.2 51.1,18.2 51,18.2 50.9,18.2 51.1,18.2 51.1,18.3 50.9,18.1 50.9,18.2 51.2,18.4 51,18.2 
	51,18.2 51,18.2 51,18.2 50.9,18.2 51,18.2 51,18.2 51.1,18.3 51.2,18.4 51.2,18.3 51.2,18.4 51.1,18.4 51.2,18.4 51.1,18.3 
	51.1,18.2 50.8,18.1 51.1,18.2 51.2,18 51.1,18.2 51,18.4 50.9,18.8 50.8,18.9 50.6,18.9 50.5,18.9 50.5,18.9 50.5,19.1 50.5,19 
	50.5,19.2 50.4,19.1 50.3,19.1 50.2,19.1 50.2,19.1 50.2,19.1 50.2,19.2 50.2,19.3 50.3,19.2 50.4,19.1 50.4,19 50.5,19 50.4,19.1 
	50.5,19.1 50.6,19.3 50.5,19.3 50.6,19 50.5,19 50.5,19 50.5,19.1 50.6,19.1 50.6,18.9 50.5,18.9 50.6,18.8 50.6,18.7 50.6,18.7 
	50.7,18.7 50.7,18.6 50.7,18.5 50.8,18.5 50.9,18.6 51,18.6 50.9,18.6 51,18.5 51,18.5 51.1,18.4 51,18.4 51.1,18.3 51.1,18.2 
	50.9,18.2 51.2,18 51.1,18.2 50.9,18.1 50.8,18.1 50.8,18.3 51.1,18.2 51.2,18.3 51.1,18.2 51.3,18.3 51.1,18.2 51,18.2 51.1,18.2 
	51,18.2 51.1,18.2 50.9,18.2 51.1,18.2 50.9,18.2 51.1,18.2 50.9,17.6 50.7,18 50.7,17.9 50.7,17.8 50.8,18 50.9,18.2 51,18.2 
	51,18.2 51.1,18.2 50.9,18.2 51.1,18.2 51,18.2 51.1,18.2 51,18.2 51.1,18.2 50.8,18.1 50.9,18.1 50.7,18.5 50.7,18.5 50.7,18.4 
	50.7,18.3 51.1,18.2 51.1,17.9 50.8,17.7 50.7,17.6 50.7,17.6 50.7,17.6 50.7,17.6 50.7,17.6 50.7,17.6 50.7,17.6 50.7,17.6 "/>
<polyline fill="none" stroke="#EF25B2" stroke-width="0.75" stroke-linejoin="round" stroke-miterlimit="10" points="50.9,18.2 
	51.1,18.2 51,18.5 50.9,18 50.9,17.6 51.1,18.2 50.8,18.1 50.9,18.2 51.1,18.2 50.9,18.2 50.7,18.5 51.1,18.2 50.6,18.5 50.7,18.5 
	51.1,18.2 50.9,18.2 50.7,18.5 51.1,18.2 50.8,17.7 51.1,18.2 50.7,18.5 51.1,18.2 50.8,18.2 51.1,18.2 50.7,18.6 51.1,18.2 
	50.7,18.4 50.2,18.7 51.1,18.2 50.9,18.2 51.1,18.2 50.9,18.2 51.1,18.2 50.6,18.5 51.1,18.2 50.7,18.4 51.1,18.2 50.9,18.2 
	51.1,18.2 50.9,18.4 51.1,18.2 50.8,18.1 50.7,18.5 51.1,18.2 50.7,18.5 51.1,18.2 50.6,18.5 50.8,18.2 51.1,18.2 50.9,18 
	50.8,18.2 51,18.2 51.1,18.2 50.8,18.2 50.8,18.2 51.1,18.2 51,18.3 51.1,18.2 50.8,18.2 50.8,18.2 50.8,18.2 51,18.2 51.1,18.2 
	51.1,18.4 54.4,27.1 55.7,34.2 56.6,43.2 57.2,48.6 59.2,58.4 59.3,58.4 59.2,58.4 59.8,60.3 60.6,66.7 59.7,73.3 56.5,77.2 
	56.4,77.4 55.7,80.1 56.7,81.5 56,82.9 56.6,83.8 54.7,86.1 52.2,87.1 50.7,91.1 47.6,94.6 47,95.9 46.7,98.7 "/>
<polyline fill="none" stroke="#EF25B2" stroke-width="0.75" stroke-linejoin="round" stroke-miterlimit="10" points="46.7,8.6 
	46.6,8.5 46.5,8.4 46.2,7.9 46.2,8 46,8.6 46,8.5 46.2,7.9 46.4,8.1 46,7 46,7.7 46,7.6 46,8.6 46,8.5 46.3,8.8 46,7.7 45.6,7.9 
	46,7.6 46.2,8 46.3,8 46.2,8 46.5,8.2 46.5,8.1 46.7,8.2 46.6,8.4 46.5,8.3 46.5,8.2 46.7,8.6 46.6,8.4 46.7,8.2 46.6,8.2 46.5,8.2 
	46.7,8.2 46.7,8.6 46.6,8.5 46.2,8 46.2,8.1 45.8,8.1 45.8,8.1 46,8.6 46.2,8.1 46.2,8 45.8,8.1 45.8,8.1 46.1,8 46,8.6 46.2,8.1 
	46.3,8 46.7,8.6 46.2,8.1 46,7.8 46.5,8.2 46.5,8.1 46,7.8 46.2,8.1 46.7,8.5 45.9,8.2 46,8.6 46,8.5 46,8.6 46,8.5 46.3,8 
	46.5,8.2 46,8.6 46,8.5 46.2,7.8 46.3,8 46.5,8.2 46.7,8.6 46.7,8.5 46,8.5 46,8.6 46,8.5 46.8,10.7 49,20.5 51.2,27.8 54.2,35.5 
	54.7,36.8 54.5,40.6 55,44.3 53.6,50.9 53.5,51.4 53.6,51.3 53.6,51.2 54,55.8 53.1,61 50.2,69.8 49.3,78.5 49.2,79.2 49.1,79.2 
	49.3,81 49.5,86.7 47.7,90.9 45.6,92.6 45.5,92.6 45.4,94.5 44.6,99.1 44.6,103.8 41.7,107.8 40.8,109.5 40.4,107.2 40.2,107.2 
	40.3,107.2 40.2,107.3 40.3,107.2 40.3,107.2 40.2,107.3 40.3,107.2 40.2,106.9 40.3,106.7 40.2,106.8 40.3,106.7 40.3,106.8 
	40.1,106.9 40.1,106.7 40.1,106.7 40.3,106.7 40.3,106.8 40.1,106.6 39.7,110.3 40.9,122.2 44.8,133.1 47.7,140.5 47.8,141.2 
	47.6,141.8 46.5,147.3 46.7,154.2 47.2,163 47.2,168.6 46.9,169.9 46.2,174.6 46.8,180.5 50.1,188.3 52.5,191.4 52.4,191.6 
	52.5,192.4 52.6,193.1 53.1,194.2 53.1,194.1 53,194 53.1,193.8 52.8,193.8 52.8,194 53.1,194 53,193.9 53.1,193.9 53,194 
	53.1,193.9 53.3,193.8 53.3,193.8 53.3,193.7 53.3,193.8 53.8,193.8 53.3,193.8 53.4,193.8 53.3,193.8 53.1,193.8 52.8,193.9 
	53.3,193.8 53,194 53.3,193.8 53.3,193.8 53.3,193.8 53.3,193.8 52.9,194 53,194 53.3,193.8 53.1,193.9 53.3,193.8 53.1,193.7 
	53.1,193.9 53,194 53.1,194 53.1,193.9 53.1,193.9 53,194 53.1,193.9 53,194 53.1,193.9 53,194 53.1,193.9 53,194 53,194 
	53.1,194.1 53.1,194 53,194 53.1,193.9 53,194 53.1,193.9 52.9,194 56.4,197.5 58.9,202.3 64.1,213.8 68.8,224.9 71.3,232.4 
	74.7,240.8 80.8,250.7 86.8,260.2 91.7,271.3 95.7,282.8 96.1,290.1 96.1,291.9 97.6,302.4 97.9,316.5 97.8,329.8 96.4,344.6 
	94.7,359.5 93.1,372.1 87.3,384.2 64,412.8 59.9,425.1 56.8,436.8 53.3,448.2 49.4,448.1 47.7,448.4 47.5,448.2 47.7,448.9 
	48.8,453.1 50.2,457.3 54.2,460 57.4,462.7 57.3,462.7 57.4,462.8 59.6,465.5 62.8,471.9 67.1,472.5 72.1,474.2 76.2,472.9 
	76.4,472.7 78.1,472.1 82.4,470.1 84,469.7 84.2,469.7 84.4,469.7 88.3,471 90.3,470 90.3,469.9 90.4,469.7 90.3,469.8 90.3,469.6 
	90.5,469.5 90.6,469.8 90.7,469.6 90.5,469.8 90.6,469.6 90.7,469.6 90.6,469.6 90.5,469 90.7,469.6 90.6,469.6 90.7,469.7 
	92.1,469.2 92.1,469.3 92.1,469.2 92.2,469.2 92,469 91.4,469.4 91.5,469.4 91.4,469.6 91.4,469.6 91.4,469.6 91.3,469.7 
	91.1,469.1 91.2,469.1 91.1,469.1 91.2,469 91.1,469.3 91.1,469.2 91.2,469.1 91.1,469.4 91.2,468.9 91.2,469 91.2,469.1 91.2,469 
	91.1,469.2 90.5,469.9 90.2,469.6 90.1,469.6 90.3,469.9 90.3,469.6 90.3,469.8 90.4,469.7 90.3,469.6 90.1,469.4 90.1,469.6 
	90.1,469.4 90.1,469.4 90,469.4 90.1,469.4 90,469.4 90.1,469.4 90,469.4 90.1,469.4 90,469.4 90.1,469.4 90.1,469.4 90.1,469.4 
	90.1,469.4 90,469.1 90.1,469.4 "/>
<polyline fill="none" stroke="#EF25B2" stroke-width="0.75" stroke-linejoin="round" stroke-miterlimit="10" points="45.7,7.1 
	46.1,7.3 46,7.1 45.8,7.2 45.7,7.1 46,7.1 45.9,7.1 45.7,7.1 45.8,7.2 45.7,7.1 46,7.3 47.3,6.7 47.7,7.4 47.5,7.4 47.7,7.4 
	46.1,7.4 46,7.3 45.8,7.2 45.8,7 47.6,7.4 47.7,7.4 47.4,7.6 45.8,7.2 45.7,7.1 46,7.3 46.7,6 47.7,7.4 47,7.8 46.9,7.7 47,7.8 
	46.9,7.7 47,7.7 46.6,7.5 45.4,7.1 46.6,3.9 45.9,7.1 46,7.3 45.7,7.1 45.8,7.2 46,7.3 46.1,7.8 46.5,8.1 46.9,7.7 47,7.8 47,7.8 
	46.9,7.7 46.2,7.4 46.1,7.4 46.2,7.4 46.1,7.4 46.2,7.4 46,7.6 46.2,7.4 46.2,7.6 46,7.6 46,7.6 46,7.6 46.4,7.9 46.1,7.6 46,7.6 
	46,7.7 45.1,8.1 46,7.6 46.1,7.4 46.1,7.3 46.2,7.4 46,7.6 46.1,7.6 46,7.6 46.1,7.4 46.1,7.3 46.1,7.4 46,7.6 46.1,7.6 46,7.6 
	46,7.3 46.2,7.4 46,7.6 46.3,7.4 46.1,7.4 46.1,7.7 46,7.7 46.1,7.7 46.2,7.4 46.1,7.4 46,7.6 45.7,8.6 44.6,8.5 46,7.6 46.2,7.4 
	46.1,7.4 46,7.6 46.1,7.4 46.1,7.7 46,7.7 46.2,7.4 46,7.6 45.9,8.5 46,7.6 46.1,7.6 46,7.6 46.2,7.4 46.1,7.4 46,7.6 46,8.6 
	47.4,11.1 46.7,13.9 44.9,15.6 41.8,17.2 41.8,17.2 41.4,17.1 39.5,17.1 40.2,13.8 42,12.9 42,13 42,13 41.9,12.6 43.2,12.7 
	44.1,12.1 48,12.6 48,12.7 47.9,12.6 47.8,12.8 48,12.7 47.9,12.7 49.2,14 51.1,18.2 51.2,16.9 51.2,16.9 49.6,16.6 47.9,15.5 
	46.7,15.4 46.4,14.7 44.9,11.6 44.8,11.4 44.8,11.4 44.7,11.3 44.8,11.1 45.6,8.8 46,7.6 46.1,7.7 46,7.6 45.6,7.2 45.8,8.1 45.9,8 
	45.9,8.1 46,7.6 46,8.1 46,8.6 46,8.5 46,8.1 46,8.5 46.5,9.3 46,8.6 46,8.5 46,8.6 46,8.5 46,8.5 46,8.6 46,8.6 46,8.6 46,8.6 
	46,8.6 46,8.5 46,8.6 46,8.5 45.1,7.7 46,7.7 46,7.6 45.8,8.1 46,8.5 46.9,9.5 46,8.5 46,8.6 46,8.5 46,8.6 46,8.5 46.1,7.4 46,8.6 
	46,8.5 46,8.6 46.2,11.2 47.4,10.1 46.7,8.5 46.7,8.6 46,8.6 46.1,8.4 46.7,8.3 46.7,8.3 46.6,8.4 46.7,8.6 46,8.6 46,8.5 46.5,8.1 
	47.3,9.2 46.6,8.4 46,9.5 46,8.6 46,8.6 46.5,9.2 47.1,9.2 47.7,8.2 46,7.7 45.8,8.1 46,8.6 46.6,8.4 46.7,8.5 46.6,8.4 46.7,8.6 
	46.6,8.4 46.7,8.3 46.7,8.3 46.7,8.6 46.7,8.2 46.7,8.2 46.2,8 46.3,8 46,7.6 46,8.6 46,8.5 46.3,8 46.5,8.1 46.5,8.2 46.5,8.1 
	46.6,8.2 46.7,8.3 46.6,8.3 46.7,8.2 46.5,8.2 46.7,8.6 46.7,8.5 46.5,8.3 46.7,8.6 "/>
<polyline fill="none" stroke="#EF25B2" stroke-width="0.75" stroke-linejoin="round" stroke-miterlimit="10" points="81.3,239.9 
	81.1,239.7 81,239.5 81,239.6 81.3,239.9 81.1,239.7 81.3,239.9 81.2,240.1 81.1,240.1 81.3,239.9 81.3,240.1 81.1,240.1 81.2,240 
	81.3,239.9 81.1,239.7 81.1,240.1 81.3,239.9 81.3,239.9 81.1,240.1 81.1,240 81.1,240.1 81.3,239.9 81.1,240 81.3,240 81.1,240.1 
	81.1,239.6 81.3,239.9 81.1,239.7 81.1,240.1 81.1,239.7 81.3,239.9 81.1,240.1 81.3,239.9 81.2,240 81.3,239.9 81.3,240 
	81.3,239.9 81.3,239.9 81.1,240.1 81.3,239.9 81.1,239.7 81.3,239.9 81.2,240 81.3,239.9 81.1,240.1 81.2,239.2 81.3,240 
	81.3,239.9 81.1,240.1 81.3,239.9 81.1,240.1 81.1,239.7 81.3,239.9 81.1,239.7 81.3,239.9 81.1,240.1 81.3,239.9 81.1,239.7 
	81.3,239.9 81.1,240.1 81.3,239.9 81.1,240.1 81.3,239.9 81.1,239.7 81.3,240 81.1,240.1 81.3,239.9 81.1,240 81.1,240.1 
	81.3,239.9 81.1,240.1 81.3,240 81.3,239.9 81.1,240.1 81.1,240.1 81.1,240.1 81.3,239.9 81.3,240 81.2,239.7 81.1,239.7 81.3,240 
	81.3,240 81.3,239.9 81.3,240 81.2,240 81.1,240 81.3,239.9 81.2,240 81.3,239.9 81.3,240 81.1,240.1 81.3,240 81.3,239.9 81.1,240 
	81.1,239.7 81.3,239.9 81.3,240 81.1,240 81.1,240.1 81.2,240 81.3,240 81.2,240 81.1,240 81.3,240 81.1,240 81.1,240.1 81.1,240 
	81.3,239.9 81.2,239.9 81.1,239.9 81,239.9 81.3,239.9 81.3,240 81.3,240 81.1,240 81.3,240 81.3,239.9 81.2,239.7 81.1,239.7 
	81.1,240.1 81.1,239.7 81,239.6 81.1,239.8 81.3,239.9 81.3,240 81.3,239.9 81.2,240 81.1,240 81.3,240 81.3,239.9 81.6,239.9 
	81.3,239.9 81.1,240.1 81.3,240 81.3,239.9 81.3,240 81.3,240.1 81.3,240 81.3,240.1 81.3,240.1 81.3,239.9 81.1,239.6 81.3,239.9 
	81.3,240 81.1,240 81.3,239.9 81.3,240.1 81.1,240 81.1,240.1 81.3,239.9 81.3,240.1 81.3,240.1 81.3,239.9 81.3,240.1 81.3,239.9 
	81.3,239.9 81.1,239.7 81.3,240.1 81.3,239.9 81.3,240 81.4,240.8 81.4,240.6 81.3,239.9 81.3,240 81.3,239.9 81.3,240.1 
	81.3,239.9 81.3,240 81.1,239.8 81.3,240 81.1,239.8 81.3,239.9 81.3,240 81.3,239.9 81.3,240.1 81.3,239.9 80.6,239.6 81,238.7 
	81.3,239.9 81.3,240 81.3,239.9 81.3,240.1 81.3,239.9 81.3,240 81.3,240.1 81.3,240 81.3,240 81.3,239.9 81.2,240 81.3,239.9 
	81.1,240.1 81.1,239.9 81.1,240 81.3,239.9 81.3,239.9 80.8,240.5 80.8,240.4 80.9,240.6 81,240.4 81.2,240 81.3,239.9 81.3,240 
	81.3,239.9 81.1,239.9 81.3,239.9 81.3,240 81.3,239.9 81.3,240 80.9,240 80.9,240.1 80.9,239.9 81.1,239.8 81.3,239.9 81.3,240 
	81.3,239.9 81.1,239.8 81,240.1 81.1,240.1 81.2,240 81.3,240 80.9,240.1 81.2,239.9 81.1,239.8 81.1,239.9 81.1,239.9 81.3,239.9 
	81.1,239.9 81.1,239.8 81.1,240 81.1,239.9 81.3,239.9 81.2,239.9 81.3,240 81.3,239.9 81.3,240 81.2,240 81.3,239.9 81.2,240 
	81.1,239.9 81.1,239.8 81.1,239.8 81.3,239.9 81.1,240 81.1,239.8 81.3,239.9 81.2,240 81.2,240 81.2,240 81.1,240 81.2,240 
	81.1,240 81.1,240 81.1,240 81.3,239.9 81.3,240 81.3,239.9 81.1,240 81.3,239.9 81.2,240 81.1,240 81.1,239.8 81.2,240 81.1,240 
	81.2,240 81.1,240 81.1,240 81.1,239.9 81.1,239.8 81.1,240 81.1,240 81.1,240 81.1,240 81.1,239.9 81.1,240 81.1,240 81.1,240 
	81.1,240 81.1,239.9 81.1,240 81.1,240 81.1,239.9 81.1,240 81.1,240 81.1,240 81.1,240 81.1,240 81.1,240 81.1,240 81.1,240 
	81.1,239.9 81.1,240 81.1,239.9 81.1,240 81.1,239.9 81.1,240 81.1,239.9 81.1,240 81.1,239.9 81.1,240 81.1,240 "/>
<polyline fill="none" stroke="#EF25B2" stroke-width="0.75" stroke-linejoin="round" stroke-miterlimit="10" points="51,132.6 
	51.2,135.7 51.7,138.5 53.1,142.4 54.3,145.5 56.2,150.2 57.8,154.4 59.4,159.4 59,164.5 59,164.9 59,164.8 59.4,166.2 61.3,169.4 
	63.9,172.6 63.6,178.5 64.4,184 66,189.2 66.2,193 65.5,195.8 65.2,197.3 65.1,197.6 65.2,197.5 65.2,197.8 65.5,199 66.6,201.4 
	67,206.2 68.2,211.8 69.1,216.5 70.3,221.1 71.5,227 71.7,232.3 68.7,235.4 68.7,235.7 68.8,235.7 69.1,235.8 69.1,235.9 
	68.8,236.6 70,238.3 70.4,239.1 71.7,240.7 73.8,241.4 74.6,243.7 74,243.9 74.7,245.6 74.6,245.9 74.6,246 75.2,246.5 76.6,247.4 
	78.2,247.2 78.8,247.8 79.2,247.5 79.8,245.9 80.7,245 80.9,244.7 80.8,244.6 80.8,244.6 80.8,244.6 80.6,243.4 80.1,241 
	80.6,239.9 80.9,239.7 80.9,239.7 81,239.6 81,239.5 81.1,239.8 81,239.6 81.1,240.5 81.1,240.5 81.1,240.3 81.1,240.4 81.1,240.5 
	80.8,240.4 81.2,240.5 81.1,239.9 81.6,240.4 81.1,240.5 81.2,240.5 80.8,240.4 81.2,239.7 80.7,240.1 80.7,240.4 80.8,240.4 
	80.9,240.2 81.1,240.6 80.8,239.4 81,238.4 81,238.5 81.1,238.4 80.9,238.5 81,238.5 80.9,238.5 80.8,238.6 80.9,238.5 80.9,238.8 
	80.8,238.4 80.8,238.7 80.8,238.6 80.9,238.7 80.8,238.8 80.8,238.6 80.9,238.7 80.7,239.9 81.1,240.5 81.2,240.5 81.1,239.7 
	80.9,238.6 80.8,238.6 80.8,238.6 80.8,238.6 81.3,239.3 81.3,239.9 81.2,239.7 81.1,240.1 81.1,239.7 81,239.6 80.9,239.6 
	81.1,239.8 81.1,239.6 81.8,240.4 81.3,239.9 81.3,239.9 81.1,239.8 80.8,238.6 80.9,238.7 81.1,239.7 81.1,239.9 81,239.6 
	80.9,239.6 81,239.6 80.8,238.6 81.3,240.4 81,240.5 81.2,240.1 81.1,239.7 81.1,239.8 80.8,239.4 80.8,238.6 80.8,238.8 
	80.9,238.6 80.9,238.7 80.9,238.6 81.1,238.5 80.8,238.1 80.8,238.1 80.6,238.3 80.8,238.7 80.8,238.6 80.8,238.6 80.8,238.7 
	80.8,238.8 80.4,238.2 81,238.5 81.2,239.9 81.1,239.7 81,239.6 81.1,239.6 81.1,239.7 81.1,239.7 81.1,239.6 81.3,239.9 81,239.5 
	81.1,239.7 81,239.6 81.1,239.8 81.1,239.7 80.9,239.7 81.2,239.9 81.3,239.9 81.1,239.7 81.1,239.8 81.1,240.1 81.1,239.7 
	81.3,239.9 81.1,239.7 81.3,239.9 81.1,239.7 81.3,240 81.1,239.7 80.9,239.7 81.2,240 81.1,239.7 81.6,239.8 81.3,239.9 
	81.1,239.7 81.3,239.9 81.3,240 81.3,239.9 81.1,240.1 81.1,240.1 81.1,239.7 81.2,239.6 81.3,240 81.1,239.7 81.1,240.1 
	81.1,239.7 81.3,240 81.1,239.7 81.1,239.6 81.1,239.7 81.1,240.1 81.1,239.6 81.1,239.7 81.1,239.6 81.2,239.4 81.3,239.9 
	81.1,239.7 81.2,239.9 81.1,239.7 81.1,240.1 81.2,240 81.1,240 81.1,239.4 81.1,239.7 81.1,238.8 81.3,239.9 81.1,239.7 
	81.2,239.9 81.3,239.9 81.1,239.7 81.1,240 81.1,239.7 81.3,240 81.1,239.7 80.6,239.5 81.1,239.9 81.1,239.7 81.3,239.9 81.2,240 
	81.3,240 81.1,240 81.1,239.7 81.3,240 81.3,239.9 81.1,239.7 81.3,239.9 81.1,240.1 81.1,239.7 81.1,239.6 81.1,239.7 81.3,239.9 
	81.1,240 81.1,240.1 81.3,239.9 81.1,239.7 81.1,239.7 81.3,240 81,239.6 81,239.5 81.1,239.7 81.1,240.1 81.1,240 81.3,239.9 
	81.1,239.7 81.3,239.9 81.1,239.7 81.3,240 81.1,239.9 81.1,240.1 81.1,239.6 81.1,239.6 81.1,239.7 81.1,239.6 81,239.6 
	81.1,239.7 81.3,239.9 81.1,240.1 81.1,239.7 81.6,240 81.5,240 81.6,240 81.5,240 81.1,239.7 81.1,239.6 81.3,239.9 81.1,240.1 
	81.1,239.7 81,239.6 81.1,239.6 81.3,239.9 81.1,240.1 81.3,239.9 81.1,239.7 81.1,239.9 81.3,240.3 81.1,239.7 81.3,239.9 
	81.1,239.7 81.1,239.8 81.1,240.1 81.1,240 81.1,239.7 81,239.6 80.6,239.3 81.4,240.1 81.3,240.3 81.2,239.7 81.1,239.7 
	81.3,239.9 81.1,240.1 81.3,239.9 "/>
<polyline fill="none" stroke="#EF25B2" stroke-width="0.75" stroke-linejoin="round" stroke-miterlimit="10" points="42.8,12.1 
	42.8,12.1 42.8,12 42.8,12.1 42.9,12.1 42.8,12.1 42.8,12.1 42.9,11.9 42.8,12.1 42.9,11.9 42.8,12.1 42.8,12 42.8,12.1 42.9,11.9 
	42.8,11.8 42.8,12.1 43,11.9 42.8,11.8 42.8,12.1 43.2,11.7 43.2,11.6 42.8,12.1 42.8,12 42.9,11.8 42.8,11.8 42.9,11.9 42.8,12.1 
	42.8,11.8 42.8,12.1 41.7,12.1 42.8,12.1 42.9,11.9 42.8,12.1 42.8,12.1 42.8,11.8 42.8,12.1 42.9,11.9 43.2,11.6 43.7,11.4 
	42.9,12 42.8,12.1 42.7,12.1 42.8,12.1 42.9,11.9 42.8,12.1 42.9,11.9 43,11.9 42.8,12.1 43,11.9 42.8,12.1 42.9,11.9 42.9,11.8 
	43.2,11.6 42.8,12.1 42.8,12.1 42.9,11.9 42.8,12.1 42.8,11.9 42.8,12.1 42.9,11.9 42.8,11.8 42.8,12.4 42.7,12.9 42.9,12.2 
	42.8,12.1 42.7,12.3 42.7,12.4 42.8,12.4 43.2,12.4 42.8,12.1 42.8,11.8 42.8,12.1 42.9,11.9 42.7,12.1 42.8,12.1 42.8,11.8 
	43.2,11.9 43.6,13.1 42.8,12.1 42.8,11.8 42.9,11.9 42.8,12.1 42.5,12.5 42.8,12.1 42.8,11.8 42.8,12.1 42.9,11.9 42.8,12.1 
	42.8,12.1 42.8,11.8 42.9,11.9 42.8,12.1 42.8,12.5 42.8,12.1 42.9,11.9 42.8,11.8 42.8,12.1 42.8,11.8 42.8,12.1 43,11.9 
	42.8,12.1 42.8,12.1 42.8,12.1 43,11.9 42.9,11.9 42.8,12.1 42.7,12.5 42.8,12.1 42.8,12.1 42.8,12.1 42.7,12.1 42.8,12.1 
	42.8,12.1 42.8,12.1 44.6,16.5 48.8,20.6 48.6,23.9 50.6,29.5 51.7,33.9 51.7,38.4 51.2,39.9 51.2,40 51.8,43.4 52.7,49.3 
	53.3,55.4 53,60.1 52.6,63.2 52.1,67.6 50.6,72.2 50.2,76.7 49,82 48.4,82.4 48.4,82.5 48.5,82.4 48.6,82.4 48.5,84.6 49.6,88.3 
	50.4,91.3 50,94.7 49.5,98.3 48.9,102.2 46.4,104.6 44.5,106.5 44.6,106.5 43.4,107.2 44.1,109.5 44.5,110.7 45.7,114.8 46.4,118.2 
	47.8,122 49.3,125.8 50.2,129.4 51.1,131.3 51.1,131.4 51,132.6 "/>
</svg>
