<?xml version="1.0" encoding="utf-8"?>
<!-- Generator: Adobe Illustrator 16.0.0, SVG Export Plug-In . SVG Version: 6.00 Build 0)  -->
<!DOCTYPE svg PUBLIC "-//W3C//DTD SVG 1.1//EN" "http://www.w3.org/Graphics/SVG/1.1/DTD/svg11.dtd">
<svg version="1.1" id="Layer_1" xmlns="http://www.w3.org/2000/svg" xmlns:xlink="http://www.w3.org/1999/xlink" x="0px" y="0px"
	 width="601.5px" height="600px" viewBox="0 0 601.5 600" enable-background="new 0 0 601.5 600" xml:space="preserve">
<g>
	<path fill="none" stroke="#EF25B2" stroke-width="0.75" stroke-linejoin="round" stroke-miterlimit="10" d="M18.8,234.2l-0.1,0.3
		l0.1,0.7l-0.3,0.7v0.1l-0.3,0.6v0.6l-0.1,0.3v0.9l-0.1,0.7l0.1,0.4l-0.1,0.3l0.1,0.4l-0.1,0.1v1.6l-0.1,0.7l0.1,0.6v1l0.1,0.3
		l0.4,1l0.1,0.7l0.3,0.7v0.4l0.3,0.7l0.1,0.7l0.1,0.6L20,250l0.1,0.4l0.3,0.4v0.3l0.1,0.3v0.7l-0.1,0.7l0.1,0.3l0.9,1v0.7l0.3,0.9
		v1.2l0.1,0.6l-0.1,0.6l0.3,0.4l-0.1,0.4l-0.1,0.4v0.6l0.1,0.7v0.7l0.3,0.9l0.1,0.9l-0.3,0.6v0.9l-0.1,0.6l0.1,0.9v0.4l-0.3,0.6v0.7
		l-0.1,0.3v0.6l0.1,0.4l-0.1,0.4v0.6l-0.1,0.6l0.1,0.3v0.6l-0.1,0.3l-0.1,0.3v1.3l-0.1,0.1l-0.3,0.3l-0.3,0.4v0.3l-0.1,0.1l0.1,0.3
		l-0.1,0.1l-0.1,0.4v0.1l-0.3,0.4v0.9l0.1,0.6v0.3l0.1,0.6l0.1,0.4l0.1,0.9l0.1,0.1l0.4,0.7l0.1,0.1l0.1,0.4v0.4l0.1,0.6l-0.3,0.4
		l0.1,0.3v0.6l0.1,0.3v0.6 M79.7,76.1l-0.4,0.3l-0.7,0.7l-0.4,0.4l-1,0.6l-0.6,0.3l-0.6,0.4l-0.4,0.4l-0.4,0.3l-0.6,0.7L74,80.7
		l-0.4,0.6l-0.3,0.1l-0.1,0.7l-0.6,0.3l-0.9,1L71.4,84l-0.6,0.7L70,85.6l-0.7,0.7l-0.7,0.4l-0.9,0.7l-0.9,0.7l-0.7,0.9l-0.7,0.7
		l-0.7,0.7l-0.7,0.6l-0.6,1l-0.1,0.6l-0.4,0.4l-0.4,0.4L62,94.2l-0.3,0.3l-0.3,0.6L61,95.3l-0.6,0.9l-0.6,0.7l0.3,1.6l-0.7,0.7
		l-0.6,1l-0.1,0.6l-0.7,0.6l-0.6,0.7l-0.4,0.4l-0.4,0.4l-0.4,0.6l-0.4,0.6l-0.4,0.6l-0.7,0.9l-0.7,0.9l-0.9,1.2l-0.9,0.9l-0.4,0.6
		l-0.9,0.7l-0.9,0.9l-0.6,0.9l-0.6,0.4l-0.4,0.6l-0.9,0.9l-0.6,0.6l-0.3,0.4l-0.6,0.3l-0.1,0.6l-0.3,0.4l-0.4,0.3l-0.3,0.4l-0.4,0.4
		l-0.6,0.6l-0.3,0.3l-0.4,0.6l-0.3,0.6l-0.4,0.3l-0.6,0.4v0.3l-0.4,0.3l-0.3,0.1l-0.3,0.1l-0.1,0.1l-0.3,0.3l-0.3,0.3l-0.3,0.3
		l-0.3,0.1v1L39,123v0.6l-0.3,0.6l-0.1,0.6l-0.4,0.6l-0.6,0.4l-0.3,0.4l-0.4,0.4l-0.3,0.3l-0.3,0.1l-0.3,0.7l-0.6,0.3v0.4l-0.3,0.6
		l-0.3,0.4l-0.1,0.4 M228,341.6l0.6,0.3h0.3h0.9l0.4,0.1l0.3,0.1l0.4,0.1l0.6,0.3l0.3,0.1l0.3,0.3l0.7,0.1l0.1,0.3l0.4,0.3l0.6,0.3
		l0.7,0.1l0.3,0.1l0.6,0.4h0.9l0.4,0.1h0.7l0.4,0.1l0.9,0.1l0.1,0.1l0.6,0.1l0.4,0.1l0.7,0.1h0.6h0.3h0.9h0.3l0.4,0.1h0.1v0.3
		l0.4,0.1l0.1,0.3l0.4,0.1l1.3,1l0.4,0.3l1,0.4l0.4,0.1l0.6,0.4l0.1,0.3l0.1,0.1l0.4,0.1l0.3,0.3l0.1,0.4l0.3,0.4l0.4,0.4l0.7,0.1
		l0.9,0.1l0.6-0.1h0.6h0.3h0.7h0.4l0.1-0.1l0.4,0.1h0.4l0.3-0.3l0.1,0.1l0.7-0.1h0.4l0.1-0.3l0.4-0.1l0.3-0.3l0.3-0.1l0.7-0.1
		l0.1-0.1l0.3-0.1l0.4-0.1l0.6-0.1l0.1-0.3l0.4-0.3v0.4l-0.1,0.3h0.4l-0.1,0.4l0.1,0.4l-0.3,0.1v0.4l0.1,0.1l0.3,0.3h0.1l0.1,0.1
		l0.4,0.1l0.1,0.3l0.4,0.1h0.6l0.1,0.1l0.7,0.1h0.3l0.3,0.3l0.1,0.3l0.6-0.1h0.1l0.3,0.3h0.1l0.6,0.1 M239.1,20.8l-0.3,0.1h-0.4
		l-0.9-0.4H237l-0.6-0.1l-0.6-0.1l-0.3,0.1l-0.4,0.1l-0.6,0.1l-0.6,0.1l-0.4-0.1v-0.1l-0.6,0.1h-0.6h-0.7h-0.7l-0.6,0.1l-1,0.1
		l-1-0.1h-0.6l-0.9-0.1h-0.9h-0.9l-0.6,0.1l-0.7-0.1l-0.7,0.1l-0.6-0.1h-0.6h-0.3l-0.3-0.3l-0.3,0.1h-0.3h-0.3l-0.6-0.1l-0.6,0.3
		l-0.7,0.1l-0.4,1l-1,0.4l-0.7,0.6l-0.6,0.3l-0.7,0.4l-0.3,0.1l-0.6,0.4l-0.3,0.3l-0.3,0.3l-0.6,0.4l-0.7,0.4l-0.7,0.4l-1.2,0.4
		l-1.2,0.4l-1.2,0.1l-0.6,0.4l-1,0.3l-1,0.3l-1.2,0.1l-0.4,0.3l-0.7,0.4l-0.6,0.3l-0.7,0.3h-0.3l-0.6,0.3l-0.3,0.1l-0.3,0.3h-0.1
		l-0.6,0.1h-0.3l-0.3,0.1h-0.6l-0.4,0.1l-0.3,0.1l-0.6,0.1l-0.1,0.1h-0.3h-0.1l-0.1,0.3h-0.3h-0.1l-0.1,0.3l-0.1,0.4l-0.1,0.1
		l-0.1,0.3l-0.4,0.1l-0.3,0.3l-0.6,0.4h-0.6l-0.3,0.1l-0.6,0.1l-0.3,0.1V34l-0.3,0.4l-0.3,0.1l-0.6,0.3v0.1l-0.4,0.3l-0.1,0.1
		l-0.6,0.1 M334.1,226.4v-0.1l-0.6-0.1l-0.7-0.1l-0.4-0.1l-0.3-0.3l-0.6-0.1l-0.4-0.1l-0.3,0.1l-0.7-0.1h-0.1l-0.6-0.1h-0.6
		l-0.3,0.1l-0.4-0.3l-0.4-0.3l-0.4-0.1l-0.4-0.4l-0.4-0.3l-0.6-0.4v-0.1l-0.6-0.4l-0.6-0.4l-0.3-0.1l-0.7-0.3l-0.1-0.3l-0.1-0.3
		l-0.3-0.3v-0.4l-0.1-0.3l-0.4-0.1l-0.3-0.4l0.1-0.1h-0.6l-0.6-0.3l-0.3,0.3h-0.1l0.9,0.3h-0.3H321h-0.3h-0.3l-0.3,0.1l-0.3,0.1
		l-0.4,0.1l-0.4,0.1l-0.1,0.1h-0.3h-0.3l-0.1-0.3l-0.4-0.1l-0.1-0.1l-0.4-0.3h-0.3l-0.3-0.1h-0.1l-0.1-0.1l-0.3-0.3h-0.1l-0.1-0.3
		l-0.3-0.1l-0.1-0.1V218l-0.4-0.4h0.1h-0.1l-0.3-0.3l-0.3-0.3l-0.1-0.3h-0.1l-0.3-0.1h-0.7h-0.1h-0.3l-0.7,0.1l-0.4-0.1l-0.6,0.1
		l-0.3,0.1l-0.6,0.1l-0.3,0.1l-0.3,0.1l-0.1,0.3h-0.3l-0.3-0.1l-0.3-0.1H308h-0.1h-0.1l-0.4,0.1h-0.4l-0.3-0.1l-0.1,0.1
		 M456.2,137.8l-0.3-0.1h-0.7l-0.4-0.4l-0.7-0.1l-0.7-0.4h-0.6l-0.4-0.3l-0.4,0.1l-0.6-0.6l-0.7-0.1l-0.6-0.3h-0.4h-0.3l-0.3-0.3
		l-0.7-0.4l-0.3-0.1l-0.7-0.1l-0.4-0.6l-0.9-0.3l-0.6-0.3l-0.3-0.4l-0.7-0.3l-0.7-0.3l-0.7-0.4l-0.4-0.1l-0.3-0.1l-0.4-0.1l-0.1-0.3
		v-0.4h-0.3h-0.1l-0.4-0.1l-0.7,0.3l-0.3-0.1h-0.3l0.7,0.9l-0.6-0.4V131l-0.1-0.1l-0.4-0.1l-0.3-0.1l-0.3-0.1h-0.1l-0.4,0.3h-0.4
		l-0.6,0.1h-0.7l-0.6-0.1l-0.6-0.1l-0.3-0.1l-0.7-0.1l-0.4-0.1l-0.6-0.1l-0.4-0.1l-0.3-0.1h-0.3h-0.3h-0.3H431h-0.3l-0.1,0.3
		l-0.1,0.1l-0.1,0.3h-0.1l-0.3,0.1l-0.3,0.1h-0.3H429h-0.4h-0.1h-0.3l-0.4,0.3l-0.3,0.1l-0.6,0.3h-0.1l-0.4,0.4l-0.6,0.1l-0.6,0.1
		l-0.4,0.4l-0.3,0.1l-0.3,0.3h-0.1l-0.6,0.1l-0.3,0.1h-0.4h-0.7h-0.3h-0.1l-0.6,0.3l-0.4,0.3h-0.1h-0.4l-0.3,0.3h-0.1l-0.1,0.1
		l-0.4,0.3 M497.4,263.6l0.1-0.1v-1.2l0.1-0.4l-0.1-0.4l0.3-0.6l-0.3-0.4l0.3-0.6l-0.1-0.4l0.1-0.7l-0.1-0.4l0.1-0.4l-0.1-0.4
		l-0.1-0.6v-1.4l-0.3-0.9v-0.7l0.1-0.4l-0.1-0.7v-0.9l-0.1-0.4l0.1-0.7l0.1-0.7v-0.3l0.1-0.7l0.1-0.1l0.1-0.7l0.1-0.3l0.4-0.9h-0.1
		l-0.4-0.3l0.1-0.7l-0.1-0.1l0.1-0.3l0.4-0.7l0.3-0.4l0.1-1l0.3-0.6l-0.1-0.4l0.1-0.9v-0.6l-0.1-0.4l0.1-0.4l-0.3-0.4l0.1-0.1v-0.7
		l-0.1-0.7l0.1-0.6v-0.7l0.1-0.7v-0.4l0.3-0.9l-0.1-0.9l0.1-0.4l0.1-0.6l0.6-0.7v-0.4l0.1-0.7v-0.1l0.3-0.4l-0.1-0.3h0.3l0.3-0.3
		l-0.1-0.4l0.3-0.4v-0.4l0.1-0.4l0.3-0.6l-0.1-0.4l0.3-0.4v-1l-0.3-0.4l-0.3-0.1l-0.4-0.3l-0.1-0.6l-0.1-0.3l-0.7-0.3l-0.3-0.3
		l-0.1-0.4l-0.1-0.6v-0.3l-0.1-0.6l-0.3-0.6l-0.1-0.7l-0.3-1l-0.1-0.3V218l-0.3-0.7l-0.1-0.4l-0.1-0.7l-0.3-0.7l-0.1-0.4l-0.1-0.6
		l-0.1-0.6l-0.3-0.6l-0.4-0.4 M43.6,186.8l-0.1,0.1l0.1,0.4l0.3,0.9l0.1,0.3v1l0.1,0.4l-0.3,0.3v0.6l-0.1,0.4l-0.3,0.4l-0.1,0.1v0.3
		l-0.1,0.1l0.1,0.3v0.1l0.1,0.1l-0.1,0.3v0.1l-0.1,0.1l0.1,0.3l-0.4-0.1l-0.1,0.1l0.3,0.6l-0.1,0.1l-0.1,0.3v0.3l-0.4,0.6l-0.1,0.6
		l-0.4,0.6v1.3l-0.1,0.6l0.1,0.4v0.4l-0.1,0.3v0.6l-0.1,0.3l-0.1,0.3v0.3l-0.3,0.3v0.7l-0.3,0.3l0.1,0.6l-0.1,0.4v0.3l0.3,0.1
		l-0.1,0.3h0.4h0.1l0.3,0.3v0.1H42l0.1,0.1l0.4,0.3l0.1,0.1l0.3,0.3l0.1,0.1l0.4,0.1l0.4,0.4l0.1,0.3l0.3,0.7l0.3,0.4l0.3,0.7
		l0.3,0.4l0.1,0.7l0.9,0.7l0.3,0.3l0.1,0.6l0.6,0.6l0.4,0.6l0.3,0.4l-0.1,0.6l0.7,0.4l0.3,0.4l0.4,0.4l0.4,0.1l0.3,0.6l0.4,0.4
		l0.6,0.4l0.1,0.4l0.4,0.4l0.9,0.6l0.4,0.7l0.6,0.3l0.6,0.9l0.7,0.4l0.3,0.6l0.3,0.3l0.4,0.6l0.4,0.4l0.1,0.6l0.4,0.3l0.4,0.6
		l0.3,0.3l0.4,0.4l0.3,0.3l0.4,0.3l0.3,0.3l0.7,0.4l0.3,0.3l0.3,0.1l0.6,0.6l0.1,0.3l0.1,0.3l0.3,0.4l0.1,0.4l0.4,0.6l0.1,0.4
		l0.3,0.1v0.6l-0.1,0.3l0.1,0.3l0.3,0.4l0.3,0.4l0.3,0.1l0.3,0.4l0.1,0.4l0.4,0.7l0.1,0.3l0.1,0.6l0.1,0.4l0.3,0.3l0.1,0.4l0.3,0.3
		l0.3,0.6l0.1,0.3l0.1,0.4v0.4l0.1,0.1l0.1,0.3l0.1,0.1l0.1,0.3l0.1,0.6v0.1l0.1,0.1l0.1,0.3v0.3l-0.1,0.1l-0.3,0.1v0.9l0.3,0.3
		l0.1,0.4l0.1,0.3v0.4l0.3,0.1l0.1,0.3l0.4,0.1l0.1,0.3l0.3,0.4l0.3,0.4l0.4,0.7l0.1,0.3l0.4,0.7l0.3,0.7l0.4,0.6v0.9l-0.1,0.6
		l0.1,0.6v0.3l0.3,0.4v0.4l0.4,0.3v0.1l0.6,0.6l0.1,0.3l0.3,0.4v0.3l0.3,0.3l0.1,0.3v0.6l0.3,0.3l0.3,0.4l0.1,0.6l0.3,0.3l0.1,0.4
		l0.3,0.4l0.4,0.4l0.3,0.4l0.1,0.3l0.6,0.1l0.4,0.4l0.1,0.1l0.1,0.1l0.4,0.3l0.4,0.3l0.1,0.3h0.3l0.6,0.4 M61.7,343l0.3,0.1v0.1
		l0.3,0.4l0.3,0.1l0.3,0.1l0.3,0.1l0.3,0.1l0.3,0.1l0.3,0.1l0.4,0.4l0.3,0.1l0.1,0.4l0.4,0.1l0.3,0.1l0.1,0.3h0.1l0.1,0.1v0.1
		l0.3,0.3h-0.1l0.1,0.1v0.3l0.3,0.1l0.3,0.3v0.7l0.3,0.4v0.7l0.1,0.3l0.1,0.7l0.1,0.3l0.3,0.6l0.1,0.1v0.6l0.3,0.3v0.3l0.1,0.1
		l0.1,0.7l0.1,0.4l0.1,0.4l0.1,0.4l0.1,0.4l0.4,0.3l-0.1,0.1l0.1,0.1l0.1,0.3l-0.1,0.3h0.1l0.1,0.1l0.1,0.1l0.1,0.3l0.3,0.3h0.1
		l0.1,0.1h0.3l0.4,0.3L72,358l0.3,0.4l0.4,0.3l0.4,0.4l0.3,0.3l0.7,0.3l0.4,0.3l1,0.1h0.3l1,0.3h0.6l0.4,0.1l0.6,0.1h0.6l0.3,0.1
		l1,0.1h0.1H81l0.6,0.1l0.3,0.1l0.6,0.1h0.4l0.7,0.3l0.4,0.1l0.4,0.3l0.6,0.1l0.4,0.1l0.4,0.4h0.4l0.1,0.4l0.6,0.1l0.3,0.3l0.3,0.3
		l0.1,0.3l0.3,0.1l0.3,0.1l0.3,0.3l0.3,0.1v0.1h0.4l0.3,0.1l0.1,0.1l0.1,0.1l0.1,0.1l0.4,0.1l0.4,0.1l0.1,0.4l0.1,0.1h0.1l0.1,0.3
		H92l0.1,0.3l0.1,0.1l0.3,0.1h0.1l0.3,0.3l0.3,0.1l0.1,0.1v0.1l0.4,0.4l0.3,0.1l0.4,0.1l0.1,0.1l0.6,0.1l0.3,0.3l0.3,0.1l0.3,0.1
		l0.4,0.4h0.3l0.3,0.3v0.1h0.3l0.1,0.1l0.1-0.1l0.3,0.4l0.1,0.1h0.1l0.1,0.3h0.1l0.1,0.1h0.3l0.1,0.1l0.1,0.1h0.1h0.1l0.3,0.3
		l0.1-0.1l0.3,0.3l0.1-0.3v0.1l0.1,0.1h0.4l0.7,0.3l0.6,0.3l0.4,0.1l0.7,0.1l0.7,0.4l0.7,0.1h0.6l0.4,0.1l0.4,0.1l0.3,0.1l0.3,0.1
		l0.6,0.1h0.1l0.7,0.1h0.3l0.3,0.1l0.4,0.1l0.6-0.1l0.4,0.1l0.4,0.1l0.3,0.1h0.1l0.7,0.1l0.1,0.1l0.6,0.1l0.3,0.3l0.6,0.1h0.1
		l0.7,0.3l0.4-0.1h0.4l0.6-0.1l0.3-0.1l0.4-0.1h0.6l0.4-0.1h0.3h0.1l0.3,0.1 M201.4,61.4h-0.3l0.1,0.3V62l0.1,0.1h-0.3l-0.1,0.1
		h-0.1h-0.1l-0.1,0.1l-0.6-0.1l-0.4,0.1l-0.3,0.1h-0.4h-0.1h-0.3l-0.1-0.1h-0.1l-0.1,0.1l-0.1-0.1h-0.3v0.1v-0.3l-0.4,0.1H197h-0.3
		h-0.1h-0.1l-0.7,0.3l-0.6,0.3l-0.9,0.4l-0.3,0.4l-0.7,0.1l-0.3,0.4l-0.3,0.1l-0.1,0.1H192l-0.3,0.4h-0.1h-0.1l-0.3,0.3h-0.3
		l-0.4,0.1h-0.1l-0.6,0.1h-0.3h-0.1l-0.1,0.1l-0.1-0.3l0,0v0.1l0.1-0.1h0.3h-0.1h0.1l0,0h-0.1h0.1h0.1h0.1l-0.1,0.1l-0.1,0.3h-0.3
		l-0.1,0.1l-0.3,0.1l-0.3,0.3h-0.3l-0.1,0.1l-0.7-0.1l-0.3,0.1v0.3h-0.3l-0.4,0.1h-0.3l-0.1,0.1h-0.4h0.1h-0.1l-0.3,0.1l-0.3,0.1
		l-0.1,0.3v0.1l-0.1,0.3h-0.3l-0.1,0.1h-0.1h-0.1l-0.1,0.1l-0.1,0.1l-0.1,0.1v0.3l-0.1,0.1v-0.1l0.1,0.3v-0.1l-0.1-0.1H183l-0.1-0.1
		h-0.4L182,69h0.1H182l-0.1-0.1h-0.1h-0.4h-0.1L181,69h-0.1h-0.1l-0.6,0.3h-0.4l-0.3,0.1l-0.9-0.3h-0.1h-0.3l-0.6-0.1h-0.3h-0.7
		h-0.4h-0.1l-0.1-0.1l-0.1-0.1l-0.3-0.1l-0.3-0.1l-0.1-0.1l-0.1-0.1l-0.3-0.3h-0.1l-0.4-0.1l-0.1-0.3l-0.1-0.1v-0.3l-0.3-0.1H173
		l-0.1-0.1h-0.3l-0.1-0.3l-0.1-0.3l-0.3-0.1l-0.3-0.1l-0.1-0.3l-0.3-0.1h-0.1l-0.1-0.1l-0.9-0.1l-0.6-0.1h-0.4h-1l-0.9,0.1h-0.9
		l-0.9-0.1l-0.6-0.1h-0.7l-0.3-0.1l-0.6-0.1l-0.4-0.3l-0.1-0.1l-0.6-0.1l-0.3-0.1h-0.3l-0.4-0.1l-0.6-0.1h-0.1l-0.4-0.1l-0.4-0.3
		h-0.1l-0.1-0.1h-0.6l-0.4-0.3l-0.3,0.1l-0.4-0.1h-0.6h-0.3l-0.9-0.1h-0.3l-0.6-0.3h-0.4l-0.4-0.3l-0.4-0.1l-0.4-0.1l-0.3-0.1
		l-0.7-0.3L152,61l-0.3-0.3 M325.8,372.8l0.1,0.1h0.3v-0.1v0.6l0.1-0.1l0.1-0.3l0.3-0.1l0.3-0.1l0.1,0.1l-0.1,0.1v0.4l0.1,0.1
		l-0.1,0.3l0.1,0.3l0.1-0.1h0.3l0.4,0.1l0.1,0.4l0.1-0.1l0.3,0.3h0.3l0.3,0.3l0.4,0.3h0.3h0.4l0.4-0.3h0.3l0.3-0.1h0.3l0.3-0.1h0.1
		h0.1l0.1,0.1h0.3l0.1,0.1l0.3-0.3H333h0.1h0.1h-0.1l0.1-0.1l0.1,0.1l-0.1-0.1v-0.1l0.1,0.1l0.1-0.1h0.4h0.1l0.1-0.3h0.1h0.4
		l0.4-0.1l0.6-0.1h0.3l0.6-0.4l0.3,0.1l0.6-0.3l0.6-0.3l0.6-0.1l0.7-0.1l0.9-0.1h0.7l0.9-0.3l0.4-0.3h0.7l0.6-0.1h0.7l0.3-0.1
		l0.7-0.1l0.4-0.1l0.6-0.3l0.6,0.1h0.9l0.6-0.1l0.9-0.1l0.4,0.1l0.6-0.1l0.6,0.1h0.4h0.3h0.4l0.6,0.3l0.4,0.1l0.4,0.1l0.4,0.1
		l0.1,0.1l0.6,0.3l0.3,0.3l0.1,0.1l0.4,0.1l0.1,0.1l0.3,0.1l0.4,0.1h0.1l0.3,0.3l0.3-0.1h0.4l0.3,0.1h0.1l0.3-0.1h0.4v0.1l0.4,0.1
		h0.1l0.4,0.1l0.3,0.1l0.1,0.1l0.3,0.3l0.4,0.3l0.1,0.3l0.1,0.3h0.4l0.3,0.3h0.1l0.1,0.3h0.1l0.7,0.1l0.1,0.1l0.3,0.1l0.1,0.1
		l0.1,0.1l0.4,0.1v0.1l0.1,0.1v0.3l0.1,0.1v-0.1l0.1,0.3v0.1v-0.1h0.3h0.3l0.1-0.1h-0.1h0.3v0.1l0.1-0.1l0.1,0.1l0.3-0.1l0.1-0.1
		l0.3,0.1l0.3,0.1h0.1h0.3l0.6-0.1l0.1-0.3l0.9-0.1l0.4-0.3l0.9-0.6l0.3-0.4h0.6l0.6-0.4l0.3-0.4l0.6-0.1l0.1-0.1h0.6h0.4l0.4-0.1
		h0.4l0.4-0.1h0.3l0.9,0.1l0.1-0.1h0.3l0.6-0.1l0.4,0.1v-0.1l0.7,0.1l0.4-0.3h0.3l0.4-0.1h0.3h0.4h0.7l0.3-0.1l0.4-0.1l0.7,0.1
		l0.1-0.1l0.7-0.1l0.1-0.1l0.3-0.1l0.6-0.3l0.3-0.1l0.3-0.3 M359.1,227.5l0.7-0.1l0.9-0.3l1.2-0.1l1.3-0.6l0.9-0.6l1.3-0.3l1.3-0.7
		l1.7-0.9l1.6-1l1.7-1l2.5-1.5l2.8-1.7l3.8-2.5l3.9-2.6l8.8-5.9l7.4-4.6l-0.1-0.1l0.1,0.3l0.1,0.1v0.6l0.4,0.1v-0.4l0.7,0.1
		l-0.1,0.1h0.1l-0.3,0.4h0.3H402h0.1l0.3-0.1l0.1-0.3l0.3,0.1l0.3,0.1l0.1-0.3l0.1,0.3l0.1-0.1h0.1l-0.3,0.1l0.3-0.1v0.1v-0.1h0.1
		l0.3,0.1l0.3,0.1l0.4-0.1h0.3l0.4,0.1l0.4,0.1l0.3-0.3l0.6,0.3l0.3-0.1l0.7,0.1h0.1l0.3-0.1l0.7,0.1l0.6-0.3h0.4l0.6-0.1l0.4-0.1
		h0.6l0.4-0.3l0.7-0.3l0.9-0.1l0.6-0.3l0.7-0.1l0.9-0.6h0.7l1-0.3h0.4l0.6-0.1h0.9l0.6-0.3l0.6-0.1l0.7-0.1l0.9-0.1l0.7-0.1h0.7
		l0.9-0.3l0.9,0.1l0.7-0.6h0.4l0.9-0.3h0.4h0.9l0.4-0.1l0.7,0.1l0.9,0.1l0.6,0.3l0.3,0.3l0.6,0.3h0.6l0.4,0.3l0.7,0.3l0.4,0.3
		l0.6,0.1l0.6,0.1h0.3l0.6,0.1l0.3,0.1l0.6,0.1h0.3l0.3-0.1h0.3l0.6,0.1l0.1-0.3h0.3l0.3,0.3v0.1h0.3l0.3,0.1h0.1l0.4,0.3l0.3,0.1
		l0.3,0.1l0.3,0.3l0.6,0.1h0.1h0.1h0.1l0.3,0.1h0.3h0.3h0.1h0.1h0.1l0.1,0.3h0.4l0.1,0.3l0.1,0.3l0.1,0.1h0.1h-0.1l0.6,0.3l0.1-0.1
		h0.1l0.1,0.4v0.1h0.3h0.3l0.3,0.1h0.3v0.1h0.3h0.3h0.6h0.1l0.3,0.4l0.3-0.1h0.4l0.3-0.1v-0.3l0.4-0.3l0.6-0.4l0.4-0.4l0.6-0.6
		l0.1-0.3h0.1l0.4-0.4l0.3-0.3h0.3h0.3l0.4-0.1l0.3-0.1h0.3h0.4l0.3-0.3h0.4l0.3-0.3l0.4-0.1h0.3l0.1-0.3l0.3-0.1l0.6,0.1l0.3-0.1
		v-0.3h0.6l0.6-0.1h0.1l0.3-0.3l0.4-0.1h0.4l0.4-0.3l0.6-0.3l0.1-0.1l0.6-0.1l0.4-0.3l0.3-0.3V199l0.4-0.4 M431.2,172.6l-0.3,0.3
		l-0.3,0.6l-0.1,0.4l-0.1,0.6l-0.6,0.4l-0.4,0.3l-0.6,0.7l-0.7,0.9l-0.6,0.4l-1,0.7l-1,0.9l-1.3,1.2l-1.6,1.3l-2.2,1.9l-4.1,4.2
		l-5.2,2.5l-0.4-0.3l0.1,0.3v0.1l0.1,0.4v0.1l0.1,0.3l0.1,0.1h0.3l-0.1-0.1h0.4v0.3h-0.1l-0.1,0.3h-0.1h0.1l-0.1,0.1l0.1-0.3
		l0.3-0.3h-0.1h0.1l0.6-0.1h-0.1l0.1,0.1l-0.1-0.1h0.1l0.3-0.1l0.3,0.1h0.6h0.3h0.3h0.3h0.4h0.4l0.4,0.1l0.4-0.1h0.3l0.4,0.1
		l0.6-0.3h0.3l0.6-0.3l0.4-0.1l0.4-0.3l0.6-0.1l0.3-0.1l0.9-0.4l0.6-0.3l0.6-0.1l0.9-0.6l0.9-0.1h0.6l0.4-0.3l0.7-0.1h0.4l1-0.3
		l0.3-0.1l0.9-0.1h0.4l0.7-0.1l0.4-0.1l0.9-0.1l0.7-0.4l0.9-0.1l0.6-0.1l0.4-0.1l0.7-0.1l0.6,0.1l0.6-0.1l0.4,0.1h0.7l0.4,0.1
		l0.3,0.1l0.7,0.3l0.3,0.1l0.7,0.4l0.1,0.1l0.6,0.1l0.6,0.1l0.4,0.3h0.3h0.6l0.3,0.1l0.6,0.1l0.3-0.1h0.1l0.3-0.1l0.4,0.1h0.1h0.3
		h0.1h-0.1l0.1,0.1h0.1l0.4,0.1h0.3l0.1,0.3l0.1,0.4h0.4l0.3,0.1h0.1l0.1,0.1h0.3h0.1l0.1-0.1l0.1,0.1V189l0.3,0.1h0.1l-0.1,0.4
		l0.4,0.3v0.1h0.1l0.1,0.1h0.1l0.1,0.1v0.3h0.1l0.1,0.1l0.1,0.1h0.4h0.1h0.1l0.3,0.1h0.1l0.1,0.1h0.1h0.1h0.4l0.1-0.1l0.1-0.3
		l0.1-0.1l0.3-0.4l0.3-0.4l0.4-0.6v-0.3l0.3-0.3v-0.3l0.1-0.3h0.1h0.1l0.3-0.1l0.1-0.1l0.3-0.1h0.3l0.1-0.3h0.1l0.3-0.1l0.1-0.1h0.1
		l0.3-0.1h0.1l0.3-0.1l0.1-0.3h0.1l0.1-0.1l0.4-0.1l0.1-0.1h0.1l0.3-0.3l0.3-0.1l0.1-0.1l0.3-0.3l0.1-0.1l0.3-0.3l0.1-0.1v-0.1
		 M454.5,174.6h-0.1l0.1,0.1l-0.4,0.4l-0.4,0.3l-0.6,0.1l-0.4,0.3l-0.4,0.1l-0.7,0.4l-0.7,0.3l-0.7,0.1l-1.2,0.4l-1.5,0.4l-1.9,0.7
		l-2.2,1l-4.6,1.9l-4.8,3.5l-0.3,0.9v0.3l0.4,0.3l0.1,0.1l-0.1,0.1v0.1l0.1,0.4h0.1l-0.3-0.3l0.6,0.1h0.1h-0.1l-0.1,0.1l-0.1-0.1
		v-0.4l0.1-0.4h0.1h0.1l0.1-0.1l0.3-0.1l-0.1-0.1l-0.1-0.1v-0.3l-0.1-0.1h0.4l0.3-0.1l0.1,0.1l0.4-0.1h0.3h0.3h0.1h0.4l0.3-0.1
		l0.6,0.1l0.3-0.1h0.4l0.6-0.1l0.1-0.1l0.4-0.3l0.6-0.1l0.3-0.3l0.6-0.3l0.4-0.1l0.4-0.3l0.7-0.4l0.6-0.4l0.4-0.3l1-0.3l0.9-0.4
		l0.6-0.1l0.4-0.1l0.6-0.4l0.4-0.1l0.9-0.3l0.6-0.1l0.3-0.1l0.9-0.3l0.6-0.3l0.6-0.1l0.6-0.1l0.9-0.6l0.7-0.1l0.4-0.1l0.6-0.3
		l0.4-0.1l0.6-0.1l0.6-0.1l0.6-0.3l0.6,0.3l0.4,0.1l0.3,0.1l0.6,0.1l0.3,0.1l0.3,0.1l0.6,0.1l0.3,0.1l0.7,0.1h0.4l0.3,0.3l0.6-0.3
		l0.1,0.3h0.4l0.1-0.1h0.4l0.1-0.1l0.1-0.1l0.3-0.1l0.4-0.1v0.4l0.1-0.1v0.1l0.3-0.1l0.1,0.1l0.3,0.1l0.1,0.3h0.3l0.1-0.1h0.1h0.3
		h0.3l0.1-0.1l-0.1-0.1h-0.1l0.1-0.1l0.3,0.1H467l0.3,0.3v0.1h0.1h0.1l-0.1,0.1h0.1h0.1h0.1l0.3-0.1h0.3h0.1h0.3l0.1-0.1v-0.3
		l0.1-0.4l0.1-0.3l0.1-0.4l0.1-0.7l0.1-0.4l0.1-0.4v-1.2l-0.1-0.1l0.1-0.3l0.1-0.1l-0.1-0.3l0.1-0.1l0.1-0.1V173l0.1-0.3l0.1-0.3
		h-0.1v-0.3l0.1-0.3v-0.7l-0.1-0.1l0.1-0.3l-0.1-0.1l0.1-0.1v-0.3l0.1-0.4v-0.3l0.1-0.1l0.1-0.4l0.3-0.4l-0.1-0.3v-0.6 M122.5,102
		h0.3h0.3h0.1l0.1-0.1l0.3,0.3l0.3,0.1l0.7,0.3l0.6,0.6l0.3,0.3l0.4,0.3l0.7,0.4l0.3,0.3l0.7,0.4l0.3,0.3l0.4,0.3l0.4,0.6l0.3,0.3
		l0.3,0.1l0.6,0.3l0.3,0.3l0.6,0.1l0.4,0.1l0.3,0.3l0.4,0.3l0.3,0.1l0.3,0.1l0.3,0.1l0.7,0.1l0.3,0.1l0.3,0.1l0.6,0.3l0.3,0.1v0.1
		l0.3,0.4l0.6,0.1h0.3l0.1,0.1l0.4,0.1h0.3l0.1,0.1h0.1h0.3h0.1l0.3,0.1h0.4l0.1-0.1h0.3l0.6,0.1l0.3,0.3l0.1,0.1l0.7,0.1l0.3,0.1
		l0.3,0.1h0.3h0.1l0.1,0.3h0.1h0.1h0.1l0.4-0.1l0.1,0.1l0.3-0.1l0.1-0.1h0.3h0.3l0.3-0.3h-0.3l0.3,0.4H144l-0.3,0.4l-0.1,0.3
		l-0.7,0.3v0.1l-0.1,0.3h0.1l-0.1,0.1l0.1,0.1l-0.4,0.6v0.1h0.1l0.1,0.1l-0.1,0.1h-0.1l-0.1,0.3h-0.1h0.1l-0.1,0.1h0.1l0.1,0.3
		l-0.1-0.1l0.1,0.3l-0.1,0.1h0.1h0.1l-0.1,0.1l0.1,0.1v0.1l0.1,0.1l0.1-0.1h-0.1l-0.3,0.1h-0.1l-0.1-0.1l-0.4,0.1h-0.1h-0.1
		l-0.3,0.1v0.1l-0.4,0.1l-0.1,0.3l-0.3,0.3l-0.1,0.3h-0.3v0.1l-0.1,0.1l-0.3,0.1l0.1,0.1l-0.4,0.3h0.1h-0.1l-0.1,0.1l-0.1,0.3v0.1
		l-0.1,0.3v0.1l-0.1,0.3v0.3h-0.1l-0.3,0.3H138l-0.3,0.1l-0.1,0.3l-0.3,0.1l-0.1,0.4l-0.1,0.1l-0.1,0.3l-0.3,0.3l-0.3,0.3l-0.1,0.1
		l-0.3,0.3l-0.1,0.3l-0.3,0.1l-0.4,0.4l-0.1,0.1h-0.1l-0.1,0.3h-0.1l-0.1,0.1H134l-0.1,0.1l-0.1,0.1l-0.1,0.1h-0.1h-0.3l-0.1,0.1
		l-0.3,0.1l-0.6,0.3h0.1h-0.1l-0.1,0.1l-0.3,0.1v0.7l-0.3-0.3l-0.4,0.1l-0.3,0.3h-0.3l-0.3,0.3l-0.3,0.3l-0.3,0.3l-0.4,0.1v-0.1
		l-0.1,0.3h-0.3v0.4l0.1,0.4v0.4 M145.4,381.2l0.1-0.1l0.3,0.1l0.4,0.1h-0.1l0.1,0.3l0.4,0.1l0.4,0.1l0.6,0.4l0.3,0.1l0.3,0.1v0.1
		l0.3-0.1l0.3,0.1h0.1l0.3,0.1l0.3,0.3h0.3l0.3-0.1h0.1h0.1h0.1h0.4h0.3h0.4h-0.1h0.1l0.1,0.1l0.3-0.1l0.1,0.1l0.3,0.1l0.1,0.1h0.1
		h0.4v0.1l0.3,0.3v0.1l0.3,0.3l0.1,0.1v0.3l0.3,0.4v0.4l0.1,0.4l0.1,0.1l0.1,0.1l0.3,0.3l0.1,0.3l0.1,0.1l0.1,0.3h0.1l0.3,0.1v0.3
		l0.1,0.1l0.1,0.1l0.1,0.1l0.1,0.1v0.6l0.1,0.3h0.1l0.3,0.3l-0.3,0.1l0.7,0.4l0.1,0.1l0.3,0.4l0.4,0.4l0.6,0.3l0.1,0.3l0.4,0.1h0.6
		l0.3,0.3l0.3,0.3l0.6,0.1l0.3,0.1l0.3,0.1l0.4,0.3l0.1,0.1l0.3,0.3v0.1h0.3l0.3,0.1l0.1,0.1l0.3,0.3h0.1l0.6,0.1v0.1h0.6l0.1,0.3
		l0.1,0.1l0.4,0.1h0.1l0.4,0.4h0.3l0.1,0.1l0.4,0.1l0.1,0.1h0.3l0.3,0.1h0.1v0.3l0.6,0.1l0.3,0.1l0.1-0.1l0.3,0.1h0.3h0.4h0.1
		l0.4,0.1l0.3,0.1l0.6-0.1h0.6l0.3-0.1l0.4-0.1h0.1l0.6,0.1l0.4-0.1h0.3l0.4,0.1l0.6,0.1l0.4,0.1l0.4,0.3l0.3,0.1h0.3h0.6l0.3,0.1
		h0.3l0.3,0.1h0.4l0.4,0.1h0.1h0.3l0.4,0.3l0.3,0.1l0.3,0.1l0.4,0.1l0.3,0.1l0.4,0.3l0.3,0.1l0.4,0.1h0.3l0.3,0.1h0.3h0.3l0.3,0.1
		l0.4,0.1h0.3l0.4,0.1l0.4,0.4h0.4l0.4,0.4l0.6-0.1l0.3,0.3l0.6,0.1l0.4-0.1l0.6,0.3l0.6,0.3h0.6l0.3,0.1l0.4-0.1l0.1,0.1h0.6h0.3
		l0.1,0.1l0.3,0.1l0.6,0.3v0.1h0.3l0.6-0.1v0.3l0.4-0.1l0.1,0.1h0.1l0.1,0.1l0.6,0.1l0.1,0.1l0.7,0.3v0.1h0.4l0.3,0.1l0.4,0.1
		l0.3,0.1l0.3,0.4h0.6l0.3,0.1h0.4l0.3,0.1h0.1l0.6,0.1l0.4,0.4l0.3,0.3 M156.9,394.8h0.4l0.4,0.1l0.1,0.3l0.1-0.1v0.3l0.4,0.1
		l0.3,0.3l0.4,0.4h0.3l0.1,0.3h0.1l0.1,0.1l0.1-0.1l0.3,0.1h0.4l0.1,0.1h0.3h0.1h0.3l0.4-0.1l0.1,0.1h0.4l0.1-0.1h0.3l0.1,0.1
		l0.3,0.1v0.3h0.3l0.4,0.3l0.1,0.1h0.3v0.1l0.3,0.1v0.4l0.3,0.1h0.1l-0.1,0.3h0.1v0.4l0.1,0.1l-0.1,0.1l0.1,0.1h0.1v0.3l0.1,0.4
		l0.3,0.3l0.1,0.1l0.1,0.1l0.1,0.4l0.1,0.1l0.1,0.1l0.1,0.1l0.1,0.1v0.3l0.3,0.3v0.1l0.3,0.1l0.1,0.3v0.3l0.1,0.1h0.1l0.3,0.4
		l0.4,0.3l0.3,0.3l0.6,0.4l0.6,0.1l0.4,0.1l0.3,0.4l0.4,0.1l0.4,0.1h0.1l0.6,0.3l0.6,0.1l0.1,0.3l0.4,0.1l0.4,0.1l0.1,0.1l0.1,0.1
		l0.1,0.1h0.3l0.4,0.3l0.1-0.1l0.1,0.3l0.3,0.1l0.4,0.1h0.3l0.1,0.3l0.1,0.1l0.6,0.1h0.3l0.3,0.3l0.1,0.1h0.6l0.4,0.3h0.1l0.4,0.1
		l0.1,0.3h0.3h0.1l0.7,0.3l0.3-0.1l0.3,0.1h0.1h0.3l0.4,0.1h0.4v-0.1l0.7,0.1h0.3l0.3-0.1h0.7l0.3-0.1v0.1l0.4-0.3h0.4h0.4h0.7
		l0.3,0.1l0.7,0.1l0.3,0.3h0.3h0.6l0.3,0.1h0.1l0.3,0.1h0.6l0.4,0.3l0.3-0.1l0.3,0.1h0.4l0.1,0.1h0.3l0.6,0.3l0.3,0.1l0.4,0.3
		l0.4,0.3l0.4-0.1v0.1h0.6l0.3,0.1l0.1,0.1h0.7l0.4,0.1l0.1,0.1l0.7,0.3l0.4,0.1h0.4l0.3,0.3h0.4l0.9,0.3l0.3,0.1h0.6h0.7l0.4,0.1
		l0.4,0.1h0.3l0.6,0.1l0.4-0.1l0.3,0.1h0.1l0.6,0.1l0.3,0.1v0.1l0.4,0.1l0.6-0.1l0.1,0.1l0.3-0.1l0.3-0.1l0.3,0.3l0.3-0.1l0.3,0.1
		l0.4,0.1l0.4,0.3l0.3,0.3l0.3,0.1h0.1h0.4l0.4,0.1l0.4,0.1l0.4,0.1l0.3,0.1h0.6l0.3,0.3h0.3l0.6,0.1l0.4,0.1l0.3,0.1l0.7,0.4
		 M459,172.3h0.1l0.1,0.1l0.3,0.3v-0.1l0.3,0.4l0.1,0.1l0.3,0.1l0.7,0.9l0.4,0.1l0.6,0.3l0.7,0.4l0.9,0.3l0.7,0.4l0.4,0.3l0.3,0.4
		l0.7,0.4l0.9,0.4l0.4,0.1l0.9,0.4l0.4,0.4l0.9,0.4l0.3,0.3l0.6,0.3l0.6,0.4l0.4,0.4l0.6,0.1l0.3,0.4l0.7,0.3l0.4,0.3l0.7,0.6
		l0.4,0.4l0.6,0.3l0.6,0.4l0.3,0.3l0.6,0.3l0.3,0.4l0.7,0.4l0.1,0.1l0.1,0.6v1.4l0.3,0.6v0.4l0.4,0.7l0.1,0.3l0.3,0.4v0.7l0.1,0.3
		l0.4,0.3l0.4,0.4l-0.1,0.4l0.3,0.4l0.1,0.3l0.1,0.6l0.1,0.4l0.4,0.6l0.1,0.3l0.1,0.3l0.3,0.6l0.1,0.3l0.3,0.3v0.9l0.3,0.6l0.1,0.4
		l0.1,0.6l0.1,0.3l0.1,0.3l0.6,0.9l0.1,0.4v0.1l0.1,0.1l0.4,0.1v0.3l0.1,0.1l0.7,0.3l0.6,0.4l0.3,0.3l0.6,0.3l0.3,0.3l0.6,0.3
		l0.3,0.6l0.3,0.4l0.6,0.9l0.6,0.6l0.3,0.7l0.6,0.9l0.3,1.3l0.7,1.4l0.3,1.5l0.6,2.6l2.6,5.5v2.6l0.6,0.6l0.4,0.3l0.6,0.1h0.6
		l0.3-0.1l0.6,0.3l0.3-0.3l0.6-0.1l0.4-0.1l0.4-0.1l0.3-0.1l0.4-0.4l0.3-0.1l0.3-0.1l0.3-0.1l0.6-0.6v-0.1l0.3-0.1l0.6-0.3l0.3-0.4
		v-0.1l0.7-0.3l0.4-0.6l0.3-0.1V218l0.4-0.3l0.4-0.3v-0.3l0.3-0.6l0.4-0.3l0.3-0.1l0.3-0.6l0.3-0.3l0.4-0.6l0.1-0.4l0.3-0.4v-0.6
		l0.3-0.1l0.1-0.4l0.1-0.3l0.4-0.1l0.3-0.6l0.3-0.1l0.1-0.3l0.3-0.1v-0.1l0.4-0.3l0.1-0.3l0.4-0.3l0.4-0.4v-0.1l0.3-0.1l0.4-0.3
		l0.3-0.1l0.3-0.3h0.1l0.1-0.3l0.6-0.1h-0.1l0.1-0.4l0.3-0.1l0.3-0.1l0.1-0.4l0.3-0.1l0.3-0.3l0.1-0.3l0.3-0.6l0.3-0.1l0.3-0.3
		l0.1-0.1l0.1-0.4l0.1-0.3l0.3-0.1l0.4-0.3h0.3v-0.3l0.3-0.1l0.3-0.1l0.4-0.3l0.3-0.1h0.4l0.6-0.3l0.3-0.3h0.1l0.3-0.3l0.4-0.1h0.3
		h0.3l0.4-0.3l0.4-0.3l0.3,0.1l0.3-0.1l0.1-0.4l0.3-0.3v-0.1l0.1-0.4v-0.3l0.6-0.3l0.3-0.1l0.3-0.3v-0.3l0.7-0.3l0.4-0.4l0.1-0.3
		l0.6-0.4 M477.3,185.1v0.1h0.3l0.4,0.3l0.1-0.1l0.3,0.1l0.1,0.1l0.4,0.3l0.7,0.3l0.6,0.1l0.6,0.1l0.9,0.3l0.9,0.3l0.7,0.3l0.6,0.3
		l0.6,0.1l0.9,0.3l0.7,0.1l0.6,0.3l0.9,0.3l0.9,0.3l0.6,0.3l0.6,0.1l0.7,0.3l0.6,0.3l0.6,0.3l0.4,0.1l0.6,0.3l0.7,0.3l0.7,0.3
		l0.3,0.1l0.7,0.3l0.6,0.4l0.7,0.1l0.4,0.1l0.3,0.3l0.9,0.3l0.3,0.4l0.6,0.1l0.1,0.1l0.1,0.3l0.1,0.6l0.1,0.1l0.1,0.4l0.3,0.4
		l0.3,0.4l0.1,0.4l0.3,0.3l0.1,0.3l0.6,0.4l0.1,0.1l0.3,0.1l0.1,0.3l0.4,0.3l0.1,0.1l0.3,0.6l0.1,0.4l0.1,0.1l0.4,0.4l0.1,0.1
		l0.4,0.3l0.1,0.3l0.3,0.4l0.1,0.3v0.6l0.4,0.4l0.3,0.1l0.1,0.6l0.3,0.1l0.4,0.6l0.3,0.3h0.1h0.1l0.3,0.1h0.1h0.6l0.4,0.4l0.6,0.1
		l0.1,0.3l0.7,0.1l0.4,0.1l0.4,0.3l0.4,0.3l0.3,0.6l0.6,0.4l0.4,0.6l0.4,0.9l0.7,1.2l0.3,1l0.6,1.6l0.3,1.5l0.4,3l2.5,6.2l0.9,0.7
		h0.4l0.6-0.1l0.4-0.3l0.6-0.4l0.4-0.1l0.7-0.1l0.3-0.1l0.6-0.1l0.3-0.1l0.3-0.4l0.3-0.1l0.7-0.4v-0.1l0.3-0.3l0.6-0.3l0.3-0.3h0.1
		l0.4-0.4l0.4-0.1l0.3-0.3l0.3-0.4l0.4-0.1l0.4-0.3l0.1-0.1l0.4-0.4l0.1-0.3h0.3l0.3-0.6l0.1-0.1l0.4-0.3l0.3-0.4l0.4-0.4l0.1-0.3
		l0.6-0.7l0.1-0.3l0.1-0.6l0.1-0.1l0.1-0.4l-0.1-0.4l0.6-0.1v-0.3l0.4-0.6l0.1-0.1l0.6-0.3v-0.4l0.3-0.1l0.1-0.1v-0.4l0.6-0.3
		l0.4-0.3l0.1-0.3l0.1-0.4h0.3l0.4-0.3l0.3-0.3l0.3-0.1l0.3-0.1h0.1l0.1-0.3l0.3-0.3l0.1-0.3l0.1-0.3l0.3-0.3l0.1-0.4l0.1-0.1
		l0.3-0.4l0.3-0.4l0.3-0.4l0.3-0.1l0.1-0.6l0.3-0.3l0.3-0.4l0.3-0.3l0.1-0.1v-0.1l0.4-0.6l0.1-0.1l0.1-0.1l0.4-0.1l0.4-0.3l0.3-0.4
		h0.4l0.4-0.1l0.4-0.3l0.1-0.3l0.3-0.1l0.3-0.1l0.6-0.3l0.3-0.4l0.3-0.3h0.4l0.3-0.3l0.3-0.3l0.3-0.3v-0.4l0.1-0.3l0.3-0.4l0.3-0.3
		l0.1-0.6l0.3-0.1v-0.1l0.6-0.6l0.6-0.4l0.3-0.6l0.3-0.6 M486.4,308.7l0.3-0.1h0.3l0.3-0.4l0.1-0.3l0.1-0.3l0.3-0.1l0.7-0.1l0.4-0.1
		l0.7-0.3l0.7-0.1l0.9-0.1l1-0.1l0.7-0.1l0.7-0.1l0.7-0.1h0.6l0.9-0.3h0.4l0.9-0.1l0.6-0.3h0.9l0.3-0.1l0.9-0.1h0.6h0.4l0.4-0.3
		l0.7-0.1l0.4-0.1l0.7-0.3l0.3,0.1l0.4-0.1l0.6-0.1l0.6-0.3l0.4-0.1l0.4-0.1h0.6l0.4-0.3l0.1-0.1l0.7-0.3l0.1-0.3l0.3-0.1l0.1-0.3
		l0.4-0.1l0.4-0.3l0.3-0.3l0.1,0.1l0.4-0.4l0.4-0.3l0.3-0.3l0.3-0.3l0.4-0.3l0.4-0.4l0.4-0.3l0.1-0.1l0.4-0.4l0.3-0.3l0.6-0.1
		l0.1-0.3l0.4-0.6l0.3-0.4l0.4-0.3l0.3-0.3v-0.4l0.6-0.4l0.3-0.6l0.3-0.1l0.6-0.7l0.3-0.6l0.7-0.4l0.1-0.6l0.4-1l0.6-0.9l0.4-1
		l0.3-0.9l0.7-1l0.3-1l0.7-1.2l0.6-0.9l0.4-1.2l0.6-1.3l0.4-1.6l0.4-1l0.4-1.5l0.4-1.6l0.6-1.9l0.3-1.3l0.6-2.2l0.6-2.5l0.9-3.5
		l0.7-3l1.6-6.4l-2.5-14.6l-1.3-2.2l0.7-0.3l1-0.3l0.9-0.4l0.6-0.3l0.6-0.3l0.4-0.4l0.7-0.1l0.6-0.1l0.4-0.3l0.3-0.3l0.3-0.3
		l0.6-0.3l0.3-0.1l0.1-0.4l0.3-0.3l0.6-0.1l0.1-0.1l0.3-0.4l0.4-0.1l0.4-0.3V233l0.4-0.3l0.3-0.3l0.4-0.3l0.1-0.1l0.3-0.4l0.4-0.3
		l0.3-0.1l0.1-0.3l0.1-0.4l0.3-0.3l0.4-0.6l0.3-0.3l0.3-0.4l0.3-0.4l0.4-0.4v-0.4l0.1-0.3l0.1-0.4l0.1-0.3l0.3-0.3l0.4-0.3l0.3-0.6
		l0.3-0.1v-0.1l0.6-0.4l0.1-0.3l0.1-0.3l0.3-0.3l0.4-0.3l0.3-0.3l0.3-0.4l0.1-0.1l0.4-0.1l0.4-0.3l0.3-0.1l0.3-0.1v-0.3l0.4-0.1
		l0.1-0.1l0.1-0.3l0.3-0.4l0.3-0.3l0.3-0.6l0.3-0.3l0.1-0.3l0.3-0.4l0.4-0.4l0.3-0.3l0.1-0.4l0.4-0.3l0.3-0.6l0.3-0.1l0.1-0.3
		l0.3-0.3l0.1-0.3l0.6-0.3l0.1-0.3l0.3-0.3l0.4-0.1l0.3-0.3l0.4-0.3l0.6-0.1l0.3-0.4h0.4l0.4-0.1l0.1-0.3l0.4-0.1l0.3-0.1l0.4-0.4
		l0.3-0.1l0.3-0.4l0.4-0.3l0.3-0.1l0.1-0.4l0.3-0.3l0.1-0.4l0.4-0.6l0.1-0.4l0.3-0.4l0.3-0.1l0.4-0.3l0.6-0.6l0.6-0.4l0.3-0.6
		l0.4-0.9 M495.2,182.2l0.3,0.1h0.6L496,182l0.4,0.1l0.1,0.3l0.4,0.1l0.7,0.3h0.6l0.6-0.1l0.9,0.4l0.9,0.1l0.6,0.1l0.7,0.1h0.4
		l0.9,0.3h0.6l0.6,0.3l0.9,0.1l0.7,0.3h0.6h0.6l0.6,0.3l0.6,0.1l0.6,0.3l0.3,0.1l0.7,0.1h0.6l0.7,0.3h0.3l0.9,0.4l0.4,0.3h0.6
		l0.4,0.1l0.4,0.1l0.4,0.4l0.4-0.1l0.3,0.1h0.6l-0.1,0.4v0.3l0.1,0.1l0.1,0.3v0.3l0.1,0.3l0.3,0.3l0.3,0.3l0.3,0.3l0.1,0.1v0.1h0.4
		l0.3,0.3v0.3l0.3,0.1v0.3l0.1,0.3l0.3,0.1l0.3,0.3l0.3,0.3h0.1l0.1,0.3l0.1,0.1v0.3l0.1,0.6l0.4,0.3l0.3,0.4l0.1,0.1l0.3,0.3
		l0.1,0.3l0.1-0.1h0.3l0.3,0.1h0.6l0.4,0.1l0.1,0.1h0.7l0.3,0.3l0.1,0.4h0.6l0.6,0.4l0.1,0.7l0.6,0.6l0.4,0.6l0.4,1l0.6,1.3l0.3,1.4
		l0.4,1.6l0.6,2.9l2.2,5.9l1.7,2l0.1-0.4l0.4-0.4l0.1-0.4l0.3-0.4l0.6-0.1l0.6-0.6l0.3-0.1l0.4-0.1l0.3-0.4l0.4-0.1l0.1-0.3l0.4-0.4
		l0.3-0.3l0.3-0.1l0.3-0.1l0.4-0.4l0.3-0.3h0.3l0.6-0.3h0.3l0.3-0.3l0.6-0.3l0.3-0.3l0.1-0.1l0.6-0.4l0.3-0.3l0.3-0.1l0.3-0.3
		l0.1-0.3l0.6-0.4v-0.1l0.6-0.6l0.4-0.3l0.1-0.6l0.1-0.3l0.3-0.6l-0.1-0.4l0.3-0.3l0.3-0.3l0.1-0.6v-0.1l0.3-0.6h0.1l0.4-0.3
		l0.1-0.3l0.1-0.4l0.1-0.1l0.1-0.6l0.4-0.3l0.3-0.1l0.3-0.4l0.1-0.4l0.1-0.1l0.4-0.1l0.3-0.1l0.3-0.4l0.3,0.1l0.1-0.1l0.1-0.3
		l0.1-0.4l0.1-0.1l0.1-0.4l0.1-0.4l0.1-0.3l0.1-0.3l0.4-0.6l0.1-0.3l0.1-0.4l0.3-0.4l0.1-0.1l0.4-0.6V192l0.1-0.1l0.1-0.3l0.3-0.4
		l0.3-0.4l0.3-0.3l0.1-0.3h0.1l0.6-0.3l0.4-0.4l0.1,0.1l0.4-0.6l0.3-0.3l0.4-0.1v-0.1l0.6-0.1l0.1-0.3l0.3-0.3v-0.3l0.4-0.1l0.1-0.3
		l0.3-0.4l0.4-0.3v-0.4l-0.1-0.3l0.1-0.4l0.3-0.6v-0.7l0.4-0.1l0.4-0.4l0.4-0.7l0.1-0.6l0.3-0.6 M103.6,308l0.6,0.7l0.7,0.9l0.4,0.7
		l0.9,1.2l0.7,0.9l0.9,1.2l0.7,0.7l1,1.4l1.3,1.7l1.4,1.9l1.5,2l2.3,3.5l3.9,5.1l6.8,7.4h0.9l0.3,0.1l0.4,0.3l0.3,0.4l0.1,0.3l0.3,1
		l0.3,0.6l0.4,0.7l0.1,0.4l0.1,0.6l0.1,0.3l0.1,0.6l-0.1,0.4l0.1,0.4l-0.1,0.6l0.1,0.7l-0.1,0.6v2.5l-0.1,0.4v0.4l0.3,1v0.9l0.1,0.3
		l0.1,0.7l0.1,0.6l0.1,1l0.3,0.3l0.1,0.7l0.3,0.7v0.9l-0.1,0.4l0.3,0.4l0.1,0.1l0.3,0.4l0.1,0.4v0.4l0.4,0.4l0.1,0.1l0.1,0.6
		l0.1,0.1l0.3,0.6l0.1,0.3v0.3l0.1,0.3l0.1,0.3l0.1,0.3l0.3,0.4l0.1,0.3v0.4l0.1,0.3l0.1,0.3l0.1,0.4v0.3l0.1,0.1l0.4,0.1l0.4,0.3
		v0.3h0.3l0.3,0.3l0.4,0.3l0.1,0.1l0.4,0.3l0.1,0.1l-0.1,0.4l0.4,0.3l0.4,0.4l0.1,0.3l0.4,0.1l0.1,0.6v0.1l0.4,0.3l0.7,0.7l0.1,0.1
		l0.4,0.1l0.3,0.3l0.6,0.4l0.4,0.1h0.3l0.3,0.4l0.4,0.6l0.3,0.3l0.3,0.3l0.1,0.1l0.7,0.4l0.3,0.3l-0.1,0.1l0.1,0.3v0.4l0.6,0.3
		l0.3,0.4v0.3l-0.1,0.1l0.1,0.3v0.3l-0.1-0.1l0.1-0.1v-0.1l0.1-0.3l-0.1-0.1v-0.1l-0.1-0.3l-0.1-0.1l-0.1-0.4l-0.6-0.4l-0.1-0.3
		v-0.1l0.3-0.3l0.3-0.1l-0.4,0.1l-0.1-0.3h-0.3v-0.4l-0.1-0.3h-0.6l-0.4-0.1v-0.1h-0.6h-0.3H142v0.1l-0.1-0.3h-0.7l-0.1-0.1
		l-0.4,0.1v-0.1l-0.4-0.1l-0.4,0.1l-0.1,0.1l-0.1,0.1v0.4l0.6,0.3l-0.3,0.1l0.4,0.4l0.3,0.4h0.1h0.1v-0.6l0.3-0.1l-0.1,0.3l0.1,0.3
		l-0.1-0.1v0.3l0.1,0.1l0.1,0.1l0.4,0.3l0.3,0.4l0.1,0.3v0.6l0.1,0.3v0.9l0.3,0.1l0.1,0.1v0.3l0.1,0.4l0.3,0.1l-0.1,0.6l0.1,0.3v0.6
		l0.1,0.3l0.1,0.1v0.1l0.3,0.6h0.1l0.3,0.3l0.1,0.1v0.1l0.1,0.4h0.1v0.3h0.1 M111,71.9v0.4l-0.1,0.1l-0.1,0.3l-0.1,0.3h-0.3v0.1
		l-0.3,0.1v0.1l-0.3,0.1l-0.1,0.4l-0.3-0.1l-0.6,0.4h-0.3l-0.3,0.1h-0.4v0.3l-0.1,0.3l-0.3,0.1l-0.4,0.3l-0.4,0.6l-0.4,0.6l-0.7,0.4
		v0.4l-0.6,0.4l-0.4,0.1l-0.1,0.3l-0.1,0.1l-0.1,0.4l-0.1,0.1l-0.3,0.6l-0.1,0.4l-0.3,0.4l-0.3,0.6l0.1,0.3l-0.6,0.6l-0.3,0.3
		l0.1,0.9v0.4l-0.1,0.3l-0.6,0.6l-0.4,0.6l-0.4,0.6l-0.4,0.4l-0.1,0.6l-0.1,0.3l-0.3,0.4v0.1L99,87.8L98.8,88l-0.3,0.4l-0.1,0.3
		L98.2,89L98,89.5l-0.1,0.3v0.6l-0.1,0.4l-0.1,0.3v0.3l-0.3,0.4v0.4l-0.1,0.4l-0.1,0.1l-0.4,0.4l-0.1,0.3l-0.1,0.3l-0.1,0.3v0.4
		l-0.6,0.1v0.1l0.3,0.4l-0.1,0.3l-0.1,0.3v0.7l-0.1,0.3v0.7l-0.1,0.1L95.1,98l0.1,0.4h-0.1l-0.6,0.4l-0.3,0.6l-0.4,0.3l-0.3,0.6
		l-0.3,0.3l-0.1,0.1l-0.1,0.7l0.1,0.1l-0.1,0.1l-0.3,0.3l-0.3,0.4v0.3l-0.4,0.4v0.3l-0.1,0.3v0.6l0.1,0.1H92l0.4,0.3l0.1,0.3
		l0.1,0.1v-0.3l0.1,0.3H93l-0.1-0.3l0.1-0.3l0.1-0.4l0.3-0.3l0.3-0.3l0.1-0.3l0.3-0.4l0.4-0.4l0.4-0.4l-0.1-0.7l0.6-0.3l0.3-0.4
		l0.1-0.1h0.4l0.1-0.1l0.4-0.1l0.1-0.4h0.3l0.3-0.6l0.4-0.4l0.4-0.1l0.1-0.4l0.4-0.4l0.3-0.3l0.1-0.3l0.4-0.3l0.3-0.1l0.1-0.3
		l0.1-0.4h0.3l0.1-0.3l0.4-0.3l0.3-0.3v-0.1l0.4-0.4l0.6-0.1l0.1-0.1l-0.1-0.1l0.1,0.1l0.4,0.6l-0.1,0.1v0.4H103l0.1,0.1h0.4
		l0.6-0.3h0.3h0.6l0.4-0.1h0.4h0.6h0.6l0.9,0.3l0.6,0.4l0.4,0.1l0.3,0.3l0.1,0.3l0.3,0.4h0.4l0.4,0.3l0.4,0.6l0.4,0.1l0.3,0.1
		l0.6,0.1l0.6,0.6l0.3,0.1l0.6,0.1l0.1,0.1l0.6,0.4l0.7,0.3h0.3l0.4,0.1l0.4,0.1l0.3,0.3l0.6,0.1l0.6,0.3l0.1,0.1l0.7,0.1l0.4,0.1
		l0.1,0.1l0.6,0.1l0.1,0.1h0.4l0.3-0.1h0.4 M141.7,382.3l0.1-0.3v-0.6l-0.3-0.3l-0.1-0.7l-0.1-0.7l-0.3-0.9l-0.1-0.7l-0.6-1.2
		l-0.3-1.3l-0.7-1.7l-0.6-1.4l-1.2-3.2l-2.8-5.5l-4.5-9.7l0.1,0.1l0.3,0.3l0.4,0.4l0.4,0.1l0.3,0.4l0.4,0.7l0.4,0.7l0.3,0.7l0.3,0.3
		l0.6,0.7l0.1,0.3l0.1,0.4l0.1,0.4l0.1,0.4l0.3,0.6l0.1,0.7l0.1,0.4v0.9l-0.1,0.9l0.3,0.6l-0.3,0.4l0.1,0.7l0.3,0.7l0.1,0.7l0.1,0.3
		l0.3,0.7l0.3,0.7l0.4,0.7l0.1,0.4l0.3,0.6l0.3,0.6v0.7l0.1,0.3l0.1,0.1l0.4,0.7l0.1,0.1v0.4l0.1,0.4l0.6,0.3l0.4,0.4l0.1,0.1
		l0.1,0.4l0.4,0.3l0.3,0.6l0.1,0.3v0.1l0.3,0.3l0.1,0.3l0.4,0.3l0.1,0.3l0.3,0.6l0.1,0.1l0.3,0.3l0.3,0.4v0.4h0.3v0.3l0.7,0.1v0.1
		l0.4,0.6h0.1h0.7l0.3,0.1l0.4,0.1l0.3,0.3l0.3,0.4l0.3,0.4l0.1,0.4v0.1l0.6,0.1l0.6,0.4l0.1,0.3l0.4,0.3l0.6,0.3l0.3,0.4l0.6,0.3
		l0.4,0.3l0.6,0.1h0.3l0.4,0.3l0.4,0.3l0.4,0.3l0.3,0.4l0.6,0.4l0.3,0.1l0.3,0.3l0.4,0.4l0.3,0.3l0.3,0.1l0.1,0.3l0.1,0.3v-0.1
		l0.1,0.3v0.3l-0.1,0.4l0.1,0.1l0.1,0.3l-0.1-0.1l0.1-0.1v-0.1l0.1-0.1l-0.3-0.3l0.1-0.4l-0.3-0.1l-0.1-0.1l-0.4-0.4l-0.1-0.1
		l0.3-0.3v-0.3h0.1l0.4-0.1l-0.6-0.1l0.1-0.1l-0.3-0.1v-0.3l-0.3-0.1v-0.3h-0.1l-0.6-0.1h-0.3V386h-0.6l-0.3-0.1h0.1l-0.6-0.1
		l-0.3-0.1h-0.3l-0.3-0.4l-0.1,0.1l-0.3,0.1l-0.6,0.3l0.3,0.3l0.1,0.4h0.3l0.1,0.6l0.4,0.3l0.3-0.1l0.1,0.1V387l0.1-0.3h0.1h0.1v0.3
		l-0.1-0.1L152,387v0.1l0.3,0.1v0.3l0.4,0.1l0.3,0.4l0.1,0.1l0.1,0.6l0.1,0.3l0.1,0.7v0.1l0.1,0.4l0.1,0.1l0.1,0.1l0.3,0.1v1
		l0.1,0.3v0.4l0.1,0.1l0.3,0.1l0.1,0.1l0.1,0.4l0.1,0.3l0.1,0.1h0.1v0.3l0.1,0.3l0.4,0.3h0.3h0.1 M419.7,354.2h0.3l0.4-0.3l0.1-0.3
		h0.3l0.4-0.3l0.6,0.1l0.1-0.1l0.3-0.1V353l0.6-0.3h0.3l0.1-0.4h0.6l0.4-0.3l0.3-0.1h0.4l0.6-0.1l0.3-0.3l0.4-0.1l0.4-0.9l0.6-0.3
		l0.4-0.9l0.1-0.6l0.3-0.3l0.3-0.4l0.4-0.4v-0.3l0.4-0.3l0.3-0.4l0.3-0.3l0.3-0.4l0.3-0.6v-0.6l0.9-0.3l0.3-0.3l0.3-0.4l0.6-0.1
		l0.7-0.3l0.1-0.3l0.4-0.4l0.7-0.4l0.7-0.4l0.3-0.3l0.4-0.4h0.4l0.3-0.1l0.3-0.4l0.1-0.1l0.6-0.3l0.4-0.3l0.4-0.4l0.7-0.1l0.7-0.4
		l0.4-0.4l0.3-0.1l0.7-0.4l0.3-0.6l0.3-0.3l0.3-0.3l0.4-0.3l0.3-0.1l0.3-0.1l0.7-0.3h0.3l0.3-0.1l0.4-0.3l0.3,0.1l0.6-0.1l0.4-0.1
		l0.6-0.1v-0.3l0.9-0.1l0.4-0.4l0.6-0.4h0.4l0.6-0.4l0.6-0.4l0.3-0.1l0.4-0.1l0.6-0.4l0.9-0.3l0.3-0.1l0.3-0.1l0.9-0.3l0.3-0.3
		l0.9-0.1l0.3-0.1l0.4-0.1l0.6-0.6l0.1-0.3l0.4-0.3l0.6-0.4l0.7-0.1l0.4-0.4l0.1-0.6l0.9-0.1l0.3-0.6l0.9-0.3l0.3-0.4l0.7-0.4
		l0.4-0.1l0.1-0.4l0.1-0.3l0.4-0.1h0.3l0.3-0.3l0.1,0.1l0.4-0.1h0.1v-0.3h0.1l0.3,0.1l0.4-0.3h-0.1h0.1l0.1-0.3v-0.3h0.1l0.3-0.1
		h0.4h0.3h0.4l0.3,0.1l0.4-0.1l0.6-0.1l0.4-0.1l0.6-0.1l0.4-0.3l-0.3-0.3V322l-0.1,0.1v-0.6h-0.3h-0.1H469l-0.1-0.1l0.4-0.1v-0.4
		l0.1-0.3h-0.1h0.3v-0.1l-0.1-0.3l0.1-0.1v-0.3h0.1l0.6-0.1h0.3l0.3-0.3l0.6-0.3l0.1-0.4l0.4-0.1l0.4,0.1l0.7-0.1h0.3l0.4-0.1
		l0.3-0.6l0.1,0.1l0.4-0.1h0.3l0.3-0.1l0.4-0.1l0.6,0.1l0.4-0.6l0.3-0.3l0.4-0.1l0.4-0.1v-0.3l0.4-0.3l0.4-0.1l0.3,0.1l0.1,0.1
		l0.4-0.3l0.1-0.1l0.4-0.1l0.3-0.3l0.4-0.4h0.3l0.3-0.3l0.1-0.1l0.4-0.4l0.3-0.1l0.3-0.3l0.4-0.4l0.3-0.3l0.4-0.6v-0.3l0.3-0.3
		l0.3-0.6l0.3-0.3l0.3-0.6v-0.1l0.3-0.3 M459.9,149l-0.1-0.1h0.3l-0.1-0.1v0.1l-0.1,0.1h-0.3l-0.1-0.1h-0.1l-0.1-0.1l-0.3-0.3h0.1
		h-0.1l-0.1-0.1h-0.1l-0.3-0.1l-0.3-0.4l-0.1-0.1l-0.4-0.4l-0.1-0.1l-0.1-0.3l-0.3-0.3l-0.4-0.3l-0.1-0.1H456l-0.4-0.3l-0.3-0.4
		l0.1-0.1l-0.4-0.4l-0.4-0.1l0.1-0.3h-0.3V144l-0.1,0.1V144l-0.4-0.1l-0.4-0.3l-0.3-0.1l-0.3-0.1l-0.3-0.1l-0.3,0.4l-0.7,0.3H451
		h-0.7L450,144h-0.6l-0.1-0.3h-0.4l-0.1-0.1l-0.3-0.3h-0.3H448l-0.4-0.4h-0.3l0.1,0.1l-0.1-0.1l-0.1,0.1l-0.3,0.1l-0.3,0.1l-0.3,0.3
		l-0.3,0.1v0.3h-0.3l-0.4,0.1l-0.1,0.1l-0.1-0.1v0.1l0.1-0.1h-0.1l0.1,0.1v0.3h-0.1v0.4l-0.1,0.1l-0.1,0.4l-0.6-0.1h0.1h-0.1h-0.1
		h-0.1h0.1l-0.1-0.3h0.3h-0.3h-0.1l-0.1,0.1l-0.1,0.1v0.1l0.1,0.1l-0.1,0.3v0.3l0.1,0.7l0.1,0.6l-0.3,0.3l0.1,0.3v0.6l0.1,0.1
		l0.1,0.4l0.3,0.3l0.4,0.1l0.4,0.3l0.1,0.4l0.7,0.4l0.1,0.6l0.1,0.1h0.3l0.4,0.6l0.1,0.6l0.7,0.6l0.3,0.3l0.6,0.1l0.1,0.3l0.1,0.3
		v0.3l0.1,0.4l0.4,0.4l0.1,0.1l0.3,0.3l0.1,0.3l0.1,0.6l0.1,0.3l0.3,0.3l0.1,0.3l0.4,0.4l0.1,0.3l0.3,0.3l0.1,0.4v0.3l-0.1,0.3
		l0.1,0.3l0.1,0.1l-0.1,0.6v0.4h-0.4l-0.4,0.3l0.1,0.4l-0.1,0.1l-0.3,0.1l-0.3,0.3h-0.1l0.7,0.4l0.4,0.3l0.4,0.3l0.3,0.1l0.3,0.4
		l0.3,0.3l0.1,0.4l0.6,0.1l0.4,0.1l0.3,0.1l0.4,0.3v0.9l-0.1,0.1v0.4l0.1,0.6l0.3,0.1l-0.1,0.6l0.1,0.1l0.1,0.1v0.1l0.3,0.4v0.4h0.3
		v0.1l0.1,0.3v0.3l0.3,0.1l0.3,0.1l0.3,0.1l0.3,0.1l0.1-0.1l0.1,0.3v0.3l0.1,0.1h0.6h0.1l0.1,0.1 M461.8,169h0.1l0.1-0.1l0.1-0.1
		l0.1,0.1l-0.1,0.1l-0.1-0.1l0.1-0.1l-0.1-0.3l-0.1-0.1h0.1l-0.1-0.1h-0.1l-0.1-0.4v-0.6l-0.1-0.1l-0.1-0.3l-0.1-0.3l-0.1-0.3
		l-0.3-0.1v-0.1l-0.3-0.3l-0.1-0.3l-0.1-0.3v-0.3l-0.1-0.4l-0.1-0.3v-0.3l0.1-0.1l0.1,0.1v-0.1l-0.1-0.3l-0.3-0.3l-0.4-0.3l-0.1-0.1
		H459h-0.1l-0.6,0.3h-0.4l-0.3,0.1l-0.4-0.1h-0.3h-0.1h-0.1l-0.1-0.4v-0.1l-0.3-0.3l-0.3-0.1l-0.1-0.1l-0.1-0.1v0.1l-0.1,0.1
		l-0.1,0.1v0.4l-0.1,0.1l-0.3,0.1h-0.1h-0.1l0.6-0.1v-0.1l0.1-0.1h0.3v0.1l0.1,0.1l0.1,0.1v0.1l0.1,0.1v0.4l-0.1-0.1l-0.1-0.1
		l-0.1-0.1l0.1,0.1v-0.1l0.1-0.1h0.1l0.1-0.1v-0.3l0.1,0.1v0.1l0.3,0.1v0.3l0.3,0.4l0.1,0.4v1l0.3,0.3l0.1,0.1l0.4,0.3l0.3,0.3
		l0.4,0.3l0.6,0.1l0.3,0.7l0.3,0.3l0.6,0.4l-0.1,0.3l0.7,0.6l0.4,0.3l0.4,0.6l0.6,0.1l0.6,0.1l0.3,0.3v0.6l0.1,0.4l0.3,0.4l0.3,0.3
		l0.3,0.3l0.1,0.3l0.1,0.4l0.1,0.6l0.3,0.1l0.3,0.1l0.3,0.4l0.3,0.3l-0.1,0.3l0.3,0.6v0.1l0.1,0.3l0.1,0.3l0.1,0.4v0.1l-0.1,0.4
		l-0.3,0.1l-0.3,0.1l0.3,0.4l-0.1-0.1l-0.1,0.3h-0.4l0.3,0.1l0.4,0.1l0.4,0.4l0.6,0.4h0.3l0.3,0.3l0.6,0.3l0.1,0.1l0.4,0.3l0.6,0.3
		h0.3h0.6h0.3v0.1l0.1,0.3l-0.1,0.1v0.1l0.1,0.4l0.1,0.1l0.1,0.1l0.3,0.3v0.3l0.3,0.4l0.3,0.1h0.1l0.1,0.3l0.1,0.3h0.1l0.3,0.3
		l0.3,0.1h0.1l0.3,0.3h0.3l0.4,0.1l0.3,0.1l0.3-0.1h0.1l0.4,0.1l0.1,0.1h0.1h0.1l0.4,0.1 M476.4,177.8h0.3l0.1-0.3l0.3-0.3H477h0.1
		h0.1h0.1l-0.1,0.1l0.1-0.3h-0.3l0.1-0.3v-0.4l0.3-0.1l-0.1-0.1l-0.1-0.1l-0.1-0.6v-0.3l-0.1-0.6l-0.1-0.3v-0.3l-0.1-0.4v-0.3
		l-0.4-0.1l-0.1-0.4l-0.1-0.3v-0.4l-0.1-0.6l0.1-0.3v-0.3l0.1-0.3l0.3-0.1v0.1l-0.1-0.3v-0.3l-0.1-0.4l-0.4-0.3l0.1-0.3l-0.1-0.1
		l-0.4,0.1l-0.3,0.3h-0.3l-0.4-0.1h-0.3l-0.3-0.3l-0.1-0.1v-0.7l-0.1-0.3l-0.3-0.6l-0.1-0.3v0.1l-0.1-0.1l0.1-0.1l-0.1,0.1h-0.1
		l-0.1,0.1h-0.1l-0.1,0.1l-0.3-0.1l0.1-0.1l0.3-0.1h0.1l0.4-0.3v-0.3l0.1-0.1h0.3h0.1h0.1l0.1,0.1l-0.1-0.1l0.3,0.3l-0.1,0.1h-0.1
		v-0.3l-0.1-0.1l0.1-0.1v-0.1l0.1-0.1v-0.1l0.1-0.1l0.1-0.1v-0.4l0.1-0.1l0.1-0.1l-0.1-0.1l0.1-0.1l0.1,0.1l0.1,0.1v0.1l0.4,0.6
		l0.1,0.3l0.1,0.4v0.6l0.4,0.1l0.1,0.3l0.3,0.1l0.4,0.3l0.3,0.3l0.6,0.3l0.4,0.4l0.3,0.3l0.4,0.4l0.4,0.6l0.6,0.4l0.6,0.3l0.1,0.4
		h0.9l0.3,0.1l0.1,0.1l-0.1,0.4v0.3l0.3,0.4l0.6,0.4l-0.1,0.3l0.4,0.3v0.4l0.3,0.4v0.1l0.4,0.4l0.1,0.3l0.4,0.1l0.1,0.3v0.6l0.1,0.1
		l0.1,0.4l0.1,0.3v0.1l0.1,0.4l-0.1,0.1l-0.3-0.1l-0.3,0.3l0.1,0.6l-0.3-0.1v-0.1v0.1l0.4,0.3l0.6,0.4l0.4,0.1l0.4,0.1l0.3,0.3
		l0.3,0.1l0.3,0.1l0.7,0.1l0.1,0.1l0.4-0.1l0.7,0.1l0.1,0.1v0.3l0.1,0.3l0.3,0.1l0.4,0.1l0.1,0.4l-0.1,0.3h0.3l0.3,0.1l0.3,0.1h0.1
		h0.1l0.4,0.1v0.3l0.1-0.3l0.4,0.1h0.6h0.1h0.1h0.3h0.3h0.1h0.3h0.1h0.3 M172.2,110.9l0.9-0.6l1-0.3l0.9-0.6l0.6-0.3l1.3-0.6
		l0.9-0.6l0.7-0.4l0.7-0.4l0.1-1.3l1-0.6l0.9-0.7l0.7-0.6l1.3-0.4l1-0.7l0.9-0.6l0.7-0.7l1-0.9l1.3-0.6l0.9-0.6l0.4-0.7l1-0.4l1-0.7
		l0.3-0.4l0.9-0.4l0.6-0.4l0.7-0.6l0.6-0.3l0.7-0.4l0.6-0.7l0.7-0.6l0.9-0.6l0.6-0.6l0.7-0.4l0.6-0.4L200,91l0.4-0.4l0.6-0.3
		l0.4-0.3l0.3-0.3l0.4-0.3l0.4-0.4l0.7-0.4l0.3-0.4l0.6-0.4l0.4-0.3l0.3-0.4l0.9-0.4v-0.1l0.9-0.7l0.4-0.1l0.7-0.4l0.3-0.4l0.6-0.3
		l0.4-0.4l0.4-0.1l0.3-0.1l0.6-0.3l0.1-0.3l0.1-0.3l0.3-0.1l0.3-0.3l0.4-0.1V82l0.1-0.1V81h-0.3l-0.1-0.3l-0.1-0.3L211,80v-0.7
		l0.3-0.6l0.3-0.6v-0.4l0.1-0.1l0.1-0.6l0.1-0.3l0.1-0.1l0.1-0.3l0.3-0.3l0.1-0.3l0.3-0.4l0.1-0.3l0.3-0.3l0.4-0.4v-0.3l0.1-0.3
		l0.4-0.6l0.1-0.3l0.4-0.3l0.3-0.4v-0.3l0.1-0.4v-0.1l0.3-0.3l0.3-0.3l0.1-0.6l0.1-0.1l0.4-0.3v-0.3l0.3-0.3l0.1-0.3l0.3-0.3
		l0.3-0.3l0.6-0.3l0.3-0.3l0.6-0.3l0.6-0.4l0.4-0.3l0.1-0.4l0.4-0.1l0.3-0.3l0.4-0.3l0.3-0.3l0.6-0.3l0.4-0.1l0.4-0.6l0.3-0.3
		l0.7-0.3l0.6-0.4l0.7-0.4l0.6-0.4l0.6-0.6l0.7-0.6l0.6-0.3l0.4-0.3l1-0.6l0.3-0.6l0.6-0.4l0.3-0.4l0.9-0.6l0.6-0.6l0.9-0.4l0.4-0.4
		l0.9-0.4l0.6-0.6l0.7-0.4l0.6-0.3l0.6-0.6l0.9-0.4l0.7-0.6l0.6-0.3l1-0.6l0.4-0.4l0.4-0.4l0.7-0.3l0.6-0.1l0.4-0.4L243,50l0.7-0.4
		l0.3-0.4l0.7-0.4l0.6-0.4l0.7-0.4l0.4-0.3l0.9-0.4l0.7,0.1l0.3-0.6l0.3-0.4l0.4-0.3v-0.4l0.1-0.4l0.3-0.3l0.3-0.4l0.1-0.4l0.3-0.3
		l0.6,0.3v-1.3l0.7,0.1 M176.5,232.6l0.1-0.6v-1.2l0.4-0.6l0.3-0.4l0.1-0.4l0.3-0.4v-0.3l-0.6-1l-0.1-0.6v-0.9l-0.3-0.4l-0.3-0.6
		l0.1-0.6v-1.2l-0.1-0.9V222l-0.3-0.6l-0.1-0.3l-0.3-0.4l-0.1-0.7v-0.3l-0.1-0.4l-0.1-0.6v-0.4l-0.1-0.4v-0.3l-0.1-0.7l-0.4-0.6
		l-0.3-0.6l-0.1-0.3v-1l-0.1-0.6v-0.1l-0.3-0.4l-0.1-0.1l-0.4-0.4l-0.1-0.3v-1.7l-0.1-0.6l-0.4-0.4l-0.3-0.6l-0.3-0.4l-0.1-0.6
		l-0.3-0.4v-0.7l-0.4-0.4l-0.3-0.4l-0.4-0.6l-0.3-0.6l-0.6-0.3l-0.1-0.3l-0.4-0.4l-0.3-0.4l-0.3-0.4l-0.1-0.3l-0.6-0.4l-0.4-0.3
		l-0.1-0.3l-0.4-0.1l-0.6-0.3l-0.3-0.3l-0.9-0.3l-0.1-0.1l-0.6-0.1l-0.6-0.1l-0.9-0.6l-0.4-0.4l-1.3-1l-0.9-1l-0.6-0.9l-0.6-0.7
		l-0.4-0.6l-0.7-0.7l-0.1-0.6l-0.1-0.4l-0.4-0.4l-0.1-0.6l-0.3-0.6l-0.3-0.4v-0.6l-0.4-0.4l-0.3-0.6l-0.4-0.4l-0.7-0.9l-0.4-0.6
		l-0.7-0.6l-0.3-0.6l-0.4-0.4l-0.4-0.7l-0.4-0.4l-0.3-0.4l-0.6-0.6l-0.4-0.6l-0.4-0.4l-0.3-0.6l-0.4-0.4l-0.3-0.6l-0.4-0.6l-0.3-0.4
		l-0.4-0.3l-0.3-0.6l-0.1-0.7l-0.3-0.4l-0.1-0.6l-0.4-0.6l-0.1-0.7l-0.1-0.3l-0.3-0.4l-0.4-0.4v-0.6l-0.1-0.4v-0.9l-0.1-0.6l0.1-0.4
		l-0.3-0.7l0.1-0.6v-1.3l0.1-0.6v-0.9l0.1-0.9l0.1-0.1v-0.9l0.1-0.6v-0.4l0.3-0.9v-0.7l0.3-0.6l0.3-0.9l0.1-0.7l0.1-0.6l0.4-0.7
		l0.1-0.9l0.3-0.4l0.1-0.6l0.4-1l0.4-0.7l0.3-0.4l0.3-0.9l0.4-0.9l0.1-0.3l0.1-0.4v-0.6l0.3-0.6l0.3-0.6l0.3-0.4l0.3-0.7l0.3-0.6
		v-0.6l0.3-0.6l0.6-0.4l0.3-0.6l0.6-0.4l-0.1-0.6l0.1-0.6l0.1-0.4v-0.6l-0.1-0.3v-0.7l0.1-0.6l0.1-0.6l0.3-0.3l0.3-0.3l-0.3-1
		l0.4-0.4 M195.8,389.1l-0.9-3.9l0.3-0.9l0.4-0.4l0.3-0.3l0.9-0.1l0.3-0.1h0.7l0.3,0.1v-0.4l0.3,0.1h0.3h0.1l0.9,0.1h0.3l1.2,0.3
		l0.7,0.1l1.5,0.7l2.2,1l3.8,1.9l6.7,3.8l4.3,1.7l0.1-0.6l-0.3-0.6v-0.3l-0.3-0.1l-0.3-0.3l-0.4-0.4h-0.3l-0.3-0.3l-0.4-0.3
		l-0.6-0.3l-0.3-0.1l-0.1-0.3l-0.6-0.1h-0.3v0.1l-0.3-0.1h-0.1l-0.6-0.6l0.3-0.1l0.1-0.1l-0.3-0.1v-0.4l-0.1,0.1l-0.1-0.1v-0.1h-0.3
		l-0.4-0.1l-0.3,0.1l-0.3-0.1h-0.3h-0.1l-0.1,0.1H213l0.3,0.1v0.3l0.3,0.1v0.1l0.1,0.3l0.3,0.1l0.1,0.4l0.1,0.3l0.3,0.4l0.3,0.3
		l0.4,0.3l0.4,0.3h0.6l0.1-0.4v-1l-0.3-1l0.1-0.7v-0.4l0.1-0.6v-0.9l0.3-0.3l0.3-0.4v-0.2l0.1-0.3l-0.1-0.3v-0.7l-0.3-0.1l-0.3-0.1
		l-0.3-0.1l-0.3-0.3l-0.3-0.3l-0.4-0.1l-0.1-0.1l-0.1-0.3l-0.1-0.1l-0.1-0.1l-0.4-0.1l-0.3-0.1h-0.3l-0.3-0.3l-0.1,0.1H213l-0.3,0.1
		l-0.3-0.1H212h-0.4h-0.3L211,381l-0.7,0.3h-0.1h-0.3h-0.4l-0.3-0.1H209h-0.3h-0.3H208h-0.3h-0.6l-0.4-0.3h-0.4h-0.6l-0.6-0.1
		l-0.6,0.1h-0.6h-0.6l-0.6,0.1l-0.4-0.1h-0.6l-0.3-0.1h-0.3l-0.6-0.3l-0.3-0.3h-0.4l-0.4-0.1h-0.6l-0.6-0.1H198h-0.4l-0.7-0.1h-0.6
		h-0.4h-0.6l-0.6,0.3l-0.6,0.3l-0.1,0.1l-0.4,0.1l-0.4,0.1l-0.4,0.1h-0.1l-0.7-0.1l-0.1,0.1h-0.3H191h-0.6h-0.1v0.3l-0.4-0.3h-0.1
		h0.1l-0.1,0.3V381l-0.1-0.1h-0.1l-0.1-0.3l0.3,0.3l-0.4-0.4v0.1 M211,399.7l0.3-5.7l0.4-0.6l0.4-0.6h0.1l0.7-0.1h0.3l0.6,0.1h0.4
		l-0.1-0.4h0.4l0.3,0.1h0.1l0.4,0.3l0.7,0.3l0.6,0.1l1,0.1l1.4,0.7l2.2,0.6l4.5,1.3l8.3,1l5.4-0.9l-0.1-0.1l-0.1-0.1l-0.3-0.1
		l-0.3,0.3h-0.6l-0.3-0.3v-0.3h-0.7l-0.4-0.1l-0.6-0.1l-0.4-0.1l-0.1-0.1h-0.3h-0.3l-0.3,0.1h-0.1l-0.1,0.1h-0.3l0.1-0.1l-0.1-0.3
		l-0.3-0.3v-0.3h-0.3l-0.1-0.1l-0.1-0.3l0.4-0.1l-0.4-0.1H233l-0.4-0.1l-0.4,0.1H232h-0.3l-0.1,0.1h0.1l-0.1-0.1l0.1,0.1l0.1,0.1
		l-0.1-0.1h0.1h0.3l0.3-0.1l0.6,0.1l0.3-0.1h0.1l0.1,0.1h0.7l0.3,0.1h0.6l0.6-0.4l0.3-0.6l-0.1-1.2l0.1-1.3l-0.1-1v-0.6l0.1-0.7
		l0.1-0.4l0.4-0.7v-0.1l0.1-0.9l0.3-0.3v-1.6l-0.3-0.1l-0.1-0.3v-0.3l-0.4-0.3l-0.3-0.1l-0.3-0.4l-0.3-0.1l-0.1-0.4h-0.3l-0.1-0.3
		l-0.1-0.3v-0.3h-0.1l-0.1-0.1l-0.4,0.1l-0.3,0.3l-0.3,0.1h-0.4l0.1,0.3l-0.1,0.1l-0.7,0.1h-0.3l-0.4-0.1l-0.4,0.1h-0.3L230,382
		l-0.1-0.1h-0.1h-0.3l-0.4-0.1l-0.1,0.1l-0.4-0.1h-0.6l-0.4,0.1l-0.4-0.1l-0.4-0.1l-0.6,0.1l-0.4-0.1l-0.7,0.1h-0.4h-0.9l-0.4,0.1
		h-0.4h-0.7h-0.1l-0.6-0.1h-0.3l-0.3-0.3l-0.6-0.3h-0.4l-0.3,0.1l-0.7-0.1l-0.4,0.1l-0.3-0.1h-0.7l-0.6-0.3l-0.6,0.1l-0.4-0.1
		l-0.7,0.1l-0.4,0.6l-0.4,0.1l-0.4,0.1l-0.3,0.1h-0.4l-0.3,0.1H212l-0.1,0.3l-0.7-0.1h-0.3l-0.1,0.1h-0.4H210l0.1,0.3l-0.3-0.3
		l-0.3,0.1v-0.4v0.1l-0.1-0.1l-0.3-0.3h0.1H209h0.3l-0.3-0.4v0.4 M211.9,364.1l-3.2,9l0.3-0.9l0.4-0.3l0.6-0.3l0.6-0.1h0.7l0.1,0.1
		h0.6v-0.7l0.1-0.1l0.9,0.1h0.4l0.7,0.1l0.6,0.4l0.9,0.1l1.4,0.4l1.9,0.7l2.5,1.4l3.6,1.9l1.5,0.6l0.6-0.1l0.6-0.6l0.1-0.3h0.1
		l0.1-0.1h-0.4l-0.1-0.4l-0.3-0.1l-0.3-0.1l-0.4-0.1l-0.3-0.1l-0.1-0.1l-0.1-0.1h-0.1h0.1l-0.1,0.1l-0.3-0.1l-0.3-0.4h0.1l0.1-0.4
		l-0.1-0.1v-0.3h-0.1l-0.1-0.1h-0.3h-0.1l-0.1-0.1l-0.4-0.1h-0.3l-0.3,0.1l-0.1-0.1l-0.3,0.3h-0.1h-0.1h-0.3v0.1h-0.3v0.3l-0.1,0.1
		l-0.4,0.3v0.7l0.1,0.1l-0.1-0.3l0.1-0.3l-0.3-1.2l-0.4-1.2l-0.4-0.9v-0.3l-0.1-0.7v-0.4l-0.3-0.4v-1l-0.6-0.1l-0.1-0.3V367
		l-0.3-0.1l-0.4-0.1l-0.1-0.1l-0.4-0.3l-0.1-0.3h-0.6l-0.4-0.4l-0.1-0.1l-0.3-0.1l-0.1-0.3h-0.3l-0.1-0.3l-0.1-0.1l0,0v-0.3v0.1
		h-0.3h-0.4h-0.1h-0.3h-0.3h-0.7h-0.1h-0.3l-0.4,0.1l-0.4-0.1h-0.1l-0.3-0.1l-0.4,0.1h-0.3h-0.3l-0.1-0.1l-0.7,0.1l-0.3-0.4
		l-0.6,0.1l-0.6-0.1l-0.6-0.1l-0.4,0.1l-0.6,0.4l-0.6-0.3l-0.3-0.1h-0.7v-0.1l-0.3-0.1h-0.7l-0.4-0.1l-0.1-0.3l-0.4,0.1l-0.6-0.3
		l-0.4,0.1h-0.4l-0.4-0.1h-0.6l-0.4-0.1l-0.7,0.1h-0.6l-0.1,0.1l-0.9,0.4h-0.3l-0.3,0.1h-0.6l-0.3,0.1h-0.1h-0.4h-0.6l-0.1,0.1h-0.3
		l-0.4-0.1l-0.3,0.1l0.3,0.9l-0.3-0.7h-0.4h-0.3v0.1l-0.4-0.1h0.1l-0.3-0.1h-0.1l0.4,0.4l-0.7-0.9l0.1,0.4 M305.1,223.3l6.8,9.9
		l-1,0.1l-0.1,0.3v0.6l0.1,0.6l0.3,0.3v0.4l-1.7-1l0.1,0.4l-0.1,0.3l0.1,0.6l0.3,0.1v0.1l0.1,0.3l0.1,0.4h0.1l0.4,0.1h0.1l0.3,0.1
		l0.1,0.3l0.4,0.4l-0.1,0.1l0.6,0.3l0.1,0.4l0.4,0.3l0.6,0.7l0.4,0.3l0.1,0.6l1.5,1.4l3.8-0.3h2.2l1.2-0.1l1-0.1h0.4h0.9h0.4
		l0.6,0.3l0.4-0.1l0.9-0.3l0.6-0.1h0.7l0.4,0.1l0.6,0.3l0.3-0.1h0.6h0.1l0.4,0.1l0.6,0.1l0.4,0.6l0.3-0.1l0.1,0.3l0.4,0.6h0.3
		l0.1,0.4h0.4l0.3,0.4l0.3-0.1l0.4,0.3h0.1l0.3,0.1l0.7,0.3h-0.4l0.6,0.3l-0.1-0.3l-0.1,0.1v-0.1l0.6,0.3l-0.3-0.6h0.1l0.3-0.1
		l0.3-0.7l0.3-0.3l0.7-0.4l0.1-0.6h0.3l0.6-0.4l0.1-0.3l0.6-0.1h0.6h0.6l0.6-0.3l0.1-0.3l0.7-0.3l0.4,0.1h0.4h-0.1h0.1h-0.1l0.1-0.1
		l0.1-0.1l0.3-0.1l0.3-0.1l0.3-0.1l-0.1-0.1l0.4,0.1h0.1h0.4l0.3,0.3v0.4l0.7,0.1h-0.3l0.1,0.3l0.1,0.4h0.1l0.1,0.1l-0.3,0.1v0.3
		l0.1,0.3l0.6,0.1v0.3l0.1,0.1v0.1l0.6,0.1l0.3,0.3v0.3l0.6,0.1H348l0.6,0.3v0.1h-0.3l-0.1,0.4l0.6,0.1h-0.4l0.6,0.4l0.6,0.3
		l-0.3-0.1l0.6,0.1h0.9h-0.4l0.4,0.1l0.6,0.3l0.3,0.4l0.3-0.1l0.4,0.1l0.1,0.1l0.1,0.4h0.6l0.1,0.6l0.1,0.6l0.4,0.4h0.1h-0.1l1,0.6
		l0.3,0.1l0.1,0.4l0.1,0.6l0.6,0.1l0.7,0.1h0.7l0.6,0.1l0.4,0.6l0.9,0.3l1.7,1l-0.3-0.1l0.4-0.1l0.6,0.4v0.1l0.4,0.1h0.3l0.6,0.1
		h0.4l1.5,0.6l-1.7-1.2l2.2,1 M323.8,407l-2.5,5.9l-1.6,2.6l-2,2l-0.9,1l-1.9,1.4l-1.5,0.6l-1.9,0.7l-1,0.1l-1.9,0.3H307l-2-0.9
		l-1-0.4H301l-2.6-1l-3.2-1.2l-2.9-0.9l-4.6-1.3l-6.1-1.6l-8.7-2.8l-13.2-3.5l-3.3-1.9l-0.7,0.3l-0.3,0.3l-0.7,0.3l-0.9,0.6
		l-0.3,0.4l-0.7-0.1l-0.3,0.1l-0.9-0.1h-0.3l-0.9-0.1h-0.1l-0.6-0.1h-0.4h-0.4v-0.1l-0.1-0.3h-0.1l-0.3-0.6l0.3-0.4l-0.3-0.4
		l-0.3-0.3v-0.4l-0.1-0.1l0.1-0.3h-0.6l-0.4-0.3l0.1,0.3l-0.7-0.1l0.1-0.3l-0.4-0.1l-0.1-0.1l0.1-0.1l0.1,0.1l0.3-0.3h0.3l0.1,0.1
		l0.4-0.3h0.3l0.7-0.3l0.1-0.1l0.3,0.3l0.3-0.3l0.6,0.1h0.3l0.7-0.1l0.6-0.6l0.3-0.4l0.1-1.6l0.3-1.3l-0.1-1l0.1-0.7v-0.9l0.3-0.7
		l0.3-0.9l0.3-0.1v-1l0.9-0.7l0.4-0.6l-0.1-0.6l0.3-0.4V391l0.1-0.1l-0.1-0.4l-0.1-0.4l-0.6-0.6l-0.3-0.1l-0.3-0.4l-0.1-0.4
		l-0.1-0.1l-0.1-0.7v-0.1l-0.1-0.3l-0.3-0.3h-0.3l0.3-0.1h-0.9h0.1h-0.1l-0.6,0.1l-0.3,0.3V387l-0.9,0.3l-0.4-0.1l-0.1-0.3l-0.4,0.4
		l-0.6-0.1h-0.1l-0.1-0.1h-0.4H247l-0.1-0.1l-0.3,0.1h-0.4h-0.3h-0.4h-0.9l-0.4,0.1l-0.3-0.3l-0.9,0.1h-0.4l-0.7,0.3h-0.9l-0.1,0.1
		h-0.9l-0.4-0.3H239l-0.6-0.1H238l-0.4-0.1h-0.4l-0.7,0.1l-0.3-0.1h-1l-0.6-0.1l-0.7,0.1h-0.1l-1.2,0.3l-0.3,0.1l-0.6,0.4h-0.3
		l-0.3,0.1l-0.7,0.3H230l-0.3-0.1l-0.1,0.3H229h-0.1h-0.1l-0.9,0.3v0.1l0.3,1l-0.6-1.2h-0.4l0.1,0.4l-0.1-0.3l-0.1-0.1h-0.1l0.4,0.7
		l-0.7-1.3l0.3,0.9 M329.9,249.4l-8-1.9h-0.1l-0.1,0.1l0.1,0.3l0.3,0.1l0.1,0.4l0.4,0.3l0.1,0.1l-1-0.6l0.1,0.3l-0.1,0.3l0.1,0.3
		l0.1,0.1l0.1,0.1h0.3l0.1,0.3h0.3l0.3,0.1l0.3,0.1h0.4l0.3,0.3l0.4,0.1l0.3,0.1l0.6,0.1h0.4h0.7l0.7,0.1l0.7,0.3l0.9-0.6l1.3-0.1
		l2.8-0.4l4.2-0.4l1.6,0.4h0.9l0.9,0.1h0.7l0.6,0.1l0.4-0.1l0.7,0.3h0.1l1-0.1l1-0.1l0.6-0.1l0.3,0.1l0.4,0.1h0.6h0.3h0.3l0.9,0.4
		l0.1-0.1l0.6,0.3l0.3,0.1l0.1,0.4l0.3,0.1l0.3,0.1l0.1,0.3l0.4,0.1l0.4,0.1h0.3l0.1,0.1h0.7l0.3,0.1l0.4,0.1l0.4-0.1l0.1,0.1
		l-0.3-0.1l0.3,0.1l0.1-0.1l0.3-0.3V252l0.3-0.1l0.3-0.6l0.3-0.4l0.4-0.7l0.3-0.1l0.4-0.4l0.3-0.6l0.7-0.1h0.3l0.6-0.3l0.7-0.3
		l0.4-0.1l0.3-0.3l0.4,0.1l0.7-0.1l0.1-0.1v-0.1l0.4-0.3v-0.1h0.3h0.1l0.3-0.3h0.1l0.1-0.1l0.3-0.1l0.3-0.1l0.1,0.1h0.1l0.3-0.1
		l0.1,0.3l0.3,0.3v0.1l0.1,0.1l0.1,0.1l0.1,0.1l0.1,0.3l0.1,0.1v0.4l0.1,0.3l0.6,0.1l0.1,0.1l0.4,0.1l0.4,0.1l0.4,0.4v0.1l0.1,0.1
		l0.3,0.3l0.3,0.1v0.1l-0.1,0.3l0.1,0.1v0.7l0.1,0.1l0.3-0.1l0.6,0.1h0.1h0.1l0.6,0.1h0.1l0.3,0.1l0.4,0.1l0.1,0.3l0.6,0.1h0.1
		l0.3,0.1l0.3,0.1l0.3,0.6l0.4,0.3l0.3,0.3l0.1,0.4l0.3,0.1l0.1,0.3l0.4,0.1l0.4,0.4h0.4l0.4-0.3l0.9-0.6l0.7,0.3l0.7,0.4l0.4,0.3
		l0.7,0.1l0.3,0.1l1.3,0.7l-0.1-0.1h0.4l0.1,0.1l0.4,0.1l0.3-0.1l0.3,0.1h0.4l0.6,0.1l0.3-0.1l1.2,0.6l-0.4-0.4l1.2,0.3
		 M333.8,265.8l-3.9-2.6l-0.3-0.3l0.3,0.1h0.1l0.7,0.3l0.1,0.3l0.7,0.3h0.3l-0.3-0.4l0.4,0.4l0.1,0.1v-0.1l0.4,0.3h0.1l0.6,0.3
		l0.3-0.1l0.6,0.1l0.4-0.1l0.6,0.3l0.4-0.3h0.9l0.3,0.1l1-0.1l0.7-0.1l0.7-0.1l1.2-0.4l1.2-0.3l1.3-0.1l1.4-1l2.3-1.3l4.5-2.5
		l3.9-0.9l1.6,0.7l0.9,0.1l0.9,0.1l0.3,0.1l0.7,0.1h0.4l0.4,0.1h0.6h0.9l0.6-0.3h0.9l0.3,0.3h0.6l0.3,0.1h0.6h0.3l0.6,0.1l0.3,0.4
		l0.4,0.3l0.1,0.1l0.3,0.3v0.1l0.7,0.3l0.1,0.1l0.3-0.1l0.6,0.3h0.3h0.1h0.7h0.3l0.4,0.1h0.3h0.4v-0.1l0.3-0.1l0.1-0.1l0.1-0.4
		l0.3-0.3l0.1-0.3l0.4-0.6l0.3-0.6l0.6-0.4l0.1-0.6l0.4-0.3l0.6-0.3l0.3-0.4l0.4-0.3l0.7-0.3l0.6-0.1l0.7-0.1v-0.3l0.9-0.1l0.3-0.1
		l0.7-0.1l0.1-0.1l0.1-0.3l0.1-0.1v-0.1l0.1-0.1l0.4-0.3l0.4-0.1l0.1-0.1l0.1-0.1h0.4l0.3-0.1h0.1l0.1,0.1l0.1,0.1v-0.1l0.3,0.3
		l0.3,0.3l0.3,0.3l0.1,0.1l0.1,0.1v0.3l0.4,0.3h0.3h0.1l0.4,0.3l0.3,0.1l0.6,0.1l0.1,0.1l0.1,0.3h0.3l0.3,0.3l0.1,0.1l-0.1,0.3
		l0.3,0.3v0.3h0.1l0.3,0.1l0.3-0.1l0.4,0.1h0.1h0.3l0.4,0.1l0.1,0.1l0.3,0.1l0.1,0.1l0.7,0.1h0.1l0.3,0.3l0.3,0.3l0.7,0.3v0.3
		l0.1,0.4l0.1,0.1l0.4,0.4l0.3,0.1l0.4,0.4h0.4l0.4,0.3h0.3l0.9,0.4l0.4,0.3l0.7,0.4l0.4,0.3l0.4,0.1h0.6l0.6,0.7l0.4-0.1h0.4h0.6
		h0.4h0.4h0.4h0.3h0.6l0.7,0.4l0.1-0.7l0.4,0.4 M352.5,263.8l-4.9-6.2l-0.1-0.1v-0.1h0.4l0.3,0.1l0.4,0.1l0.1,0.1h0.4l-0.4-0.4v-0.1
		l0.1,0.1l0.3-0.1h0.1l0.6-0.3l0.3-0.1l0.4-0.1h0.4l0.4-0.3v-0.6l0.4-0.1l0.9-0.7v-0.1l0.9-0.6l0.9-0.4l0.4-0.9l1-0.9l0.9-1.3l1.2-2
		l2.2-3.8l3.8-1.5v0.6l1-0.4l0.7,0.7h0.6h0.3l0.7,0.3l0.1-0.1h0.6l0.9-0.1h0.7h0.6h0.6l0.3,0.3h0.4h0.4l0.4-0.1l0.4,0.6h0.4l0.4,0.3
		v0.1l0.3,0.3l0.1,0.3l0.4,0.1l0.4,0.1l0.6,0.1h0.3h0.1l0.4-0.1l0.4,0.1l0.1,0.1l0.4-0.3v0.3l0.3-0.1l-0.3-0.4h0.1l0.3-0.1l-0.1-0.6
		l0.1-0.1l0.1-0.3l0.4-0.6l0.4-0.6l0.4-0.7l0.1-0.4l0.3-0.3l0.6-0.1l0.4-0.6l0.6-0.1l0.4-0.4l0.4-0.1l0.4-0.3h0.4l0.6-0.3l0.6-0.1
		l0.1-0.1l0.1-0.1v-0.1l0.1-0.1v-0.1l0.1-0.4h0.1l0.3-0.3l0.1-0.3l0.1-0.1l0.1,0.1l0.6-0.1l-0.1-0.1h0.3h0.1h0.1l0.3,0.1l0.3,0.3
		l0.1,0.1l0.1,0.3v0.4l0.3,0.1l0.3,0.1l0.3,0.1l0.6,0.1h0.3v0.3l0.3,0.4h0.1h0.1l0.1,0.3h-0.3l0.1,0.1v0.4h-0.1l0.1,0.3l0.3-0.1
		l0.4-0.3v0.3h0.3h0.1l0.4,0.3l0.4-0.1l0.1,0.1l0.1,0.1h0.1l0.3,0.1l0.4,0.1l0.1,0.3l0.3,0.3l0.1,0.1l0.3,0.3v0.1l0.3,0.4l-0.1-0.1
		l0.3,0.1l-0.1-0.1l-0.1,0.1v-0.1l0.1-0.1l0.3,0.6l0.1,0.3l0.3,0.4l0.3,0.4l0.3,0.4l1,0.7l-0.3-0.1h0.4l0.1,0.1l0.3,0.1l0.3-0.1h0.1
		h0.4l0.6,0.1l0.3-0.1l0.9,0.4l-0.4-0.7l0.9,0.6 M417.4,166.9v0.7l0.1,0.9l0.1,1.2l0.3,0.6l0.1,1v2.3l-0.6,0.1v2.8l-0.1,1.2v1.2
		l-0.1,1.2l-0.1,0.9v2.5l-0.4,1.3l-0.4,0.9l-0.4,1.3l-0.6,1.6l-0.6,1.6l-0.7,1.5l-0.7,1.6l-1.3,2.2l-1.5,2.5l-2,2.5l-2.8,3.3
		l-4.6,5.4l-9.4,10.3l-17.1,8.8l-2.5-0.6l-0.1-0.3l-1.2,0.1l0.3,0.1l0.3,0.3l0.3-0.1l0.1,0.1h0.3l0.9-0.1l0.4-0.3l0.7,0.1h0.3h0.1
		l0.4,0.3l0.3-0.1l0.3,0.3l0.4,0.1l0.3,0.1h0.4l0.3,0.1l-0.1,0.4l0.3,0.3l0.4,0.3h0.1l0.3-0.1l0.4,0.1h0.4l0.3,0.3l0.6-0.1h0.4
		l0.3,0.1l0.1,0.1h0.3l0.3-0.4h-0.3v-0.9l0.1-0.3l0.1-0.4l0.4-0.3l0.4-0.7l0.1-0.7l0.3-0.1l0.3-0.6l0.6-0.1l0.4-0.4l0.3-0.4l0.6-0.1
		l0.3-0.1l0.4-0.3l0.4-0.3l0.6-0.3l0.3,0.1l0.3-0.3l0.1-0.1l-0.1-0.3h0.1v-0.3l0.1-0.3l0.1-0.4v-0.1l0.1-0.3l0.3,0.1h0.3v-0.4
		l0.3,0.1l0.1,0.1l-0.1-0.1l0.3,0.1l0.1,0.1l0.3,0.1l0.3,0.3l0.1,0.3v0.1l-0.3,0.1l0.1,0.1h0.1l0.1,0.1l0.1,0.1h0.3l0.3,0.3h0.3v0.1
		l0.1,0.1v0.4l0.1,0.3l-0.1,0.3l0.1,0.1l0.1,0.1h0.1h0.3l0.4,0.1l0.1-0.1h0.4l0.4,0.3l0.3,0.1l0.3,0.1l0.3,0.1l0.3,0.4l0.4,0.3
		l0.4,0.1h0.3l0.1,0.4v0.3v-0.3l0.3,0.4l0.4-0.1h0.7l0.9,0.1h0.3l-0.6,0.3l-0.3,0.3L397,228l0.3,0.4l0.4,0.3l0.7,0.9l-0.3-0.4
		l0.1-0.1v0.3l0.3,0.4l0.3-0.4h0.1l0.3,0.1l0.4,0.1h0.4l1,0.6l-0.6-1l0.7,0.6 M179.1,354.8l-0.1-0.3v-0.6l-0.3-0.4l-0.1-0.6V352
		l-0.1-0.4V351l-0.4-0.4l-0.1-0.7l-0.3-0.4l-0.3-0.6l-0.1-0.4l-0.4-0.6l0.1-0.1l-0.3-0.6l0.1-0.4l-0.3-0.3l0.1-0.3v-0.3l0.1-0.4
		l-0.1-0.3l0.1-0.3v-0.4l-0.1-0.4v-0.1l-0.1-0.3l-0.3-0.3l0.1-0.3l-0.1-0.4l-0.1-0.6l-0.3-0.3l-0.1-0.7l-0.1-0.3l-0.1-0.6l-0.3-0.6
		l-0.3-0.6v-0.4l0.1-0.6v-0.6l0.1-0.4l0.1-0.4l-0.1-0.4v-0.4l-0.3-0.6l0.1-0.3l-0.3-0.7v-0.3l-0.1-0.7v-1l-0.1-0.1l-0.3-0.9
		l-0.4-0.3l-0.3-0.9v-0.9l0.4-0.9l0.3-0.4l0.6-0.7l0.3-0.7l0.1-0.9l0.1-0.3l0.1-0.6v-0.9l-0.1-0.3l-0.4-0.4v-0.4l-0.1-0.4v-0.6
		l-0.1-0.3l-0.1-0.4v-0.7l-0.3-0.1l-0.1-0.7l-0.1-0.4l-0.1-0.4v-0.3l-0.1-0.7l-0.1-0.1l-0.1-0.3v-0.7l-0.4-0.7h0.1l-0.1-0.6
		l-0.1-0.3l-0.3-0.4l-0.1-0.4l-0.1-0.4l-0.1-0.6l-0.3-0.6l-0.1-0.4l-0.1-0.3l-0.3-0.4l-0.3-0.6l-0.1-0.3l-0.3-0.6l-0.1-0.7l-0.3-0.6
		l0.1-0.6l-0.3-0.4l0.3-0.7v-0.4l0.1-0.4l0.1-0.4l0.4-0.6l0.3-0.4l0.1-0.3l0.3-0.3l0.1-0.7v-0.4l-0.1-0.4l0.1-0.3l-0.1-0.6l-0.6-0.6
		l0.6-0.1l-0.1-0.4l-0.3-0.6l-0.1-0.7v-1l0.1-0.7v-0.9l-0.1-0.3l-0.1-0.4v-0.3l0.1-0.3l-0.1-0.3v-0.9l-0.1-0.3v-0.3l-0.1-0.4h0.1
		v-0.4l0.1-0.4v-0.1l0.1-0.1V291l0.3-0.3v-0.1l0.1-0.1h0.3h0.3v-0.3h0.1l-0.1-0.1l-0.1-0.3l0.1-0.3l-0.4-0.1L171,289l-0.1-0.3
		l-0.3-0.3l-0.1-0.1l-0.6-0.3l-0.1-0.3l-0.3-0.3l-0.1-0.1l-0.3-0.4l-0.3-0.3v-0.1l-0.3-0.3h0.1h-0.1l0.1-0.3v-0.3l-0.1-0.1l0.3-0.1
		l-0.1-0.4v0.1v-0.1l-0.3-0.1v-0.1l-0.3-0.3 M179.3,337.3l0.4,0.1l-0.3-0.4v-1.2l0.1-0.4v-0.7l-0.1-0.6l-0.3-0.7V333l-0.4-0.7
		l-0.1-0.4l-0.1-0.4V331l-0.1-0.4v-1.4l0.1-0.3v-0.4l0.1-0.3l-0.1-0.3v-0.7l-0.1-0.3l-0.1-0.4l0.1-0.3v-0.1l-0.1-0.4v-0.6l-0.3-0.6
		l-0.3-0.3l-0.1-0.6V323l-0.3-0.6v-1.2l0.1-0.6v-0.4l0.1-0.6v-1.3l0.1-0.7v-0.1l-0.3-0.7v-0.4l-0.1-0.4v-1.3l-0.4-0.7l-0.3-0.7
		l-0.4-0.7l0.3-1l0.3-0.7l0.4-0.4l0.6-0.7l0.3-0.9l0.3-0.4l0.4-0.7l0.1-0.3l0.1-0.4l0.1-0.3v-0.9l-0.1-0.6v-0.3l-0.1-0.3l0.1-0.7
		l-0.3-0.4v-0.7l-0.1-0.6v-0.4l-0.1-0.4v-0.7l-0.3-0.3v-0.9l-0.1-0.4V298l-0.1-0.6l-0.3-0.4v-0.3l-0.1-0.6l-0.1-0.6l-0.3-0.4
		l-0.1-0.4l-0.1-0.6v-0.4l-0.4-0.3l-0.1-0.4l-0.4-0.6l-0.1-0.6V291l-0.1-0.1l0.1-0.9v-0.4l0.1-0.6l0.1-0.3V288l0.3-0.1l0.6-0.1
		l0.1-0.4l0.3-0.6l0.3-0.4v-0.9l-0.1-0.6l-0.3-0.3l-0.1-0.9h0.1l0.1-0.3l-0.3-0.7l-0.6-0.7l0.1-0.3l0.3-0.1v-1.6l-0.1-0.4l0.1-0.6
		l-0.4-0.3v-0.1l0.1-0.4l-0.1-0.4v-0.3l-0.1-0.4l0.1-0.3l-0.3-0.3v-0.7h-0.1l0.1-0.3l0.1-0.4v-0.1l0.1-0.1l0.1-0.3l-0.1-0.3v0.1
		l0.3-0.3l0.1-0.1h0.1l0.1-0.1v-0.3l-0.1,0.1V273l-0.1-0.3v-0.3l-0.1-0.3l-0.3-0.1l-0.4-0.1l-0.1-0.1l-0.4-0.3l-0.1-0.3l-0.4-0.1
		l-0.1-0.1l-0.3-0.4l-0.1-0.4l-0.1-0.1l-0.4-0.3l0.1-0.1l-0.1-0.1V269l-0.1-0.3l0.1-0.1v-0.1l-0.1-0.3H173l-0.1-0.1l-0.1-0.1
		l-0.1-0.1l-0.1-0.3 M196.4,78.1l1.3-0.3l0.7-0.3l1-0.3l0.9-0.6l1.3-0.3l0.6-0.6l0.9-0.3l1-0.6l1.2-0.4l0.7-0.6l1-0.4l0.9-0.6l1-0.4
		l0.6-0.7l0.7-0.3l0.7-0.6l0.9-0.3l0.4-0.3l0.9-0.4l0.7-0.3l0.6-0.4l0.7-0.4l0.7-0.3l0.6-0.6l0.6-0.1l0.4-0.4l0.6-0.4l0.9-0.1
		l0.7-0.3l0.7-0.4l1-0.3l1-0.7l1.3-0.4l0.9-0.4l1-0.6l1.2-0.6l1.2-0.6l0.6-0.6l1.3-0.9l1-0.7l0.9-0.6l0.7-0.4l1-0.6l1-0.6l1.3-0.6
		l0.9-0.4l1.4-0.7l1.5-0.6l1.3-0.9l0.7-0.4l1.3-0.7l1.2-0.6l1-0.7l0.7-0.4l1.9-0.7l1.7-0.7l1.7-0.9l1.5-0.4l1.7-0.9l1.7-0.6l2.2-0.6
		l1.6-0.7l1.9-0.6l2-0.7l2-0.6l1.4-0.4l2-0.6l2.3-0.4l1.9-0.6l1.9-0.3l2.2-0.6l2-0.6l2.2-0.6l1.9-0.4l2.5-0.6l2.5-0.3l2.5-0.6
		l2.3-0.3l2.6-0.4l3-0.4l3-0.3l2.6-0.4l4.1-0.3l4.2-0.1h4.2l7.2,0.1l12.5,1.2l14.6,0.9l0.6-0.3l1.2-0.4l1.3-0.4l1.2-0.6l1.2-0.4
		l1.2-0.4l1.3-0.4l1.4-0.4l0.7-0.4L363,34l1.4-0.4l1.5-0.4l1-0.3l1.6-0.4l1.6-0.1l1.2-0.4l0.9-0.4l1.3-0.4l1.2-0.6l1.7-0.1l0.6-0.4
		l1.3-0.4l1.2-0.6l0.9-0.4l0.7-0.3l1.3-0.1l1.5-0.4l0.7-0.6l1.7,0.3l1.3-0.1l1-0.3l0.9-0.1h1.2h1.6l1.3-0.1l1.3-0.1l1-0.1l1.4-0.1
		h1.2h1.3h0.7l1.2-0.3l1.3-0.1l0.9-0.1l0.7-0.3l0.7-0.1l0.9-0.3h1l0.4-0.3l1-0.3l1-0.3l0.6-0.6l0.7-0.1l0.9-0.1l0.6-0.4l0.6-0.4h0.3
		l0.6-0.3l0.6-0.3l0.4-0.3l0.3-0.3l0.4-0.1l0.6-0.1l0.4-0.3h0.4l0.6-0.1l0.9-0.1L419,20l0.7,0.1l0.4-0.3l1,0.1h0.7h0.6l1,0.1h0.9
		l0.7-0.1h0.7l0.9,0.1l0.7-0.1l0.9-0.1h0.6l0.4-0.3l0.9-0.1l0.4-0.1l0.4-0.1l0.6-0.1l0.4-0.1l0.6-0.1h0.4l0.4-0.1l0.4-0.3h0.3h0.6
		l0.6,0.1 M199,354.2h0.1l-0.3-0.4l-0.3-0.4l-0.1-0.7V352l-0.1-0.4l0.1-0.6l-0.3-0.4l-0.3-0.4l-0.4-0.4l-0.1-0.6l-0.3-0.4l-0.1-0.3
		l-0.1-0.4l-0.1-0.4v-1.3l-0.1-0.1l0.3-0.3l-0.1-0.6v-0.1l-0.1-0.3v-0.3l-0.1-0.3l-0.1-0.3v-0.1l-0.1-0.4l-0.1-0.4v-0.3l-0.3-0.6
		l-0.3-0.3l-0.3-0.6l-0.1-0.6l-0.3-0.4l0.1-0.6l-0.1-0.4l0.3-0.4v-1.2l0.1-0.7l-0.1-0.3l-0.1-0.4l-0.4-0.4v-0.4l-0.1-0.6v-0.9
		l0.1-0.6l-0.3-0.4l-0.6-0.7l-0.3-0.6l-0.1-0.9l0.3-0.7l0.7-0.6l0.3-0.6l0.3-0.4l-0.1-0.7l0.4-0.3l0.1-0.6v-0.4l-0.1-0.1l-0.3-0.3
		l-0.1-0.3l-0.1-0.4l-0.1-0.4l-0.1-0.1l0.1-0.6l-0.1-0.6l-0.3-0.4l-0.1-0.3l-0.1-0.3l-0.3-0.6l-0.1-0.3v-0.7l-0.3-0.3v-0.6l-0.1-0.1
		l-0.1-0.4L192,319l0.1-0.3l-0.3-0.4l-0.1-0.3l-0.1-0.6l-0.1-0.1v-0.6l-0.4-0.4l-0.3-0.6l-0.1-0.4l-0.1-0.4l-0.1-0.3l-0.3-0.6
		l-0.1-0.4l-0.3-0.4l-0.4-0.6v-2.3l0.1-0.4v-1l0.4-0.3l0.6-0.3v-0.6l0.4-0.3v-0.7l0.1-0.4v-0.3l-0.1-0.4v-0.6l-0.4-0.6l0.4-0.1
		l-0.1-0.4l-0.3-0.6l-0.3-0.7v-1.7l0.4-0.3v-0.4l-0.3-0.4l-0.1-0.3l-0.1-0.4l0.1-0.3l-0.1-0.4l0.1-0.4l-0.1-0.4v-0.3l-0.1-0.3
		l0.1-0.3l-0.1-0.4l0.1-0.3l0.1-0.4v-0.3l0.1-0.3l0.1-0.1l0.1-0.1l0.6-0.3v-0.1h0.1l0.1-0.3V293l-0.1-0.1l-0.1-0.3v-0.4l-0.3-0.1
		l-0.1-0.3l-0.3-0.4H190l-0.3-0.4h-0.4l-0.3-0.4v-0.3l-0.3-0.3l-0.3-0.3l0.1-0.3l-0.1-0.3v-0.1l-0.1-0.1l0.1-0.1l-0.1-0.1l0.1-0.1
		V288l0.1-0.1v-0.1l-0.1-0.3l-0.3-0.3h-0.3l-0.1-0.4 M204.5,198l0.4,0.6v-0.3l0.3-0.3l0.1-0.3l0.1-0.1l0.1-0.3l0.3-0.3l0.1-0.3v-0.7
		l0.3-0.1h-0.1v-1.7l0.1-0.1l0.1-0.3v-0.4l0.1-0.1l0.1-0.3v-0.1l-0.1-0.3l-0.3-0.1l-0.1-0.4l-0.1-0.1v-0.1l-0.1-0.4l-0.1-0.1v-0.1
		l-0.1-0.4v-0.4l-0.3-0.6l0.3-0.4l-0.1-0.6v-0.9l-0.1-0.7l0.1-0.9v-0.3l-0.1-0.7l0.1-0.4l-0.1-0.6l0.1-0.6l-0.1-0.4l0.4-0.4v-0.6
		l0.1-0.4v-0.9l-0.3-0.6l0.1-0.6v-0.6l-0.4-0.6v-0.6l0.6-0.6l0.3-0.9l0.6-0.6l0.3-0.6l0.6-0.7l0.4-1l0.6-0.7l0.7-0.6l0.4-0.6
		l0.4-0.9l0.6-0.4l0.3-0.6l-0.1-0.3l0.4-0.7V168l0.1-0.6l0.3-0.4l-0.1-0.7l0.4-0.7l0.1-0.4l0.3-0.6l-0.1-0.6l0.3-0.6V163l0.1-0.7
		l-0.1-0.4l0.3-0.6l0.1-0.4l-0.1-0.6l0.1-0.6l-0.3-0.4v-0.6l0.1-0.7l-0.1-0.7l-0.3-0.4l0.3-0.7v-0.7l-0.1-0.6v-0.6l-0.1-0.4
		l-0.1-0.7l-0.3-0.4l-0.3-0.7v-0.6l-0.1-0.7v-0.9l-0.1-0.6v-1.5l-0.3-0.6v-1l-0.1-0.4h0.4l-0.4-0.9v-1.3l-0.1-0.7l-0.3-0.4l0.1-0.9
		l-0.3-0.6l-0.7-1h0.1l-0.1-0.6l-0.1-0.9l-0.6-0.9l-0.1-0.4v-0.4l-0.4-0.9l0.1-0.7l-0.1-0.7v-0.7l-0.1-0.7l-0.3-0.7l-0.4-0.6
		l-0.4-0.6l-0.1-0.6l-0.3-0.7l-0.4-0.6l-0.3-1l-0.4-0.4l-0.3-0.6l-0.3-0.3l-0.4-0.9l-0.1-0.6l-0.1-0.6L204,124l-0.3-0.1l-0.4-0.7
		l-0.3-0.6l-0.1-0.3l-0.4-0.4l-0.4-0.4l-0.1-0.4l-0.4-0.1l-0.3-0.7l-0.4-0.3l-0.3-0.7l-0.6-0.3l-0.4-0.7v-0.4l-0.7-0.7l-0.3-0.1v-1
		l-0.1-0.6l-0.4-0.6l-0.1-0.6l-0.4-0.6l-0.3-0.6l-0.3-0.4l-0.3-0.6l-0.3-0.9l-0.3-0.7l-0.6-0.4l-0.4-0.4V109l-0.4-0.7l-0.4-0.3
		l-0.3-0.7l-0.3-0.3l-0.4-0.6l-0.1-0.7l-0.3-0.4l-0.4-0.3l-0.3-0.6l-0.1-0.6l-0.1-0.4l-0.3-0.7 M216.4,361.2l0.1,0.6v-0.3l-0.6-0.6
		l0.1-0.4l-0.1-0.3l-0.1-0.4v-0.3l-0.1-0.3l-0.1-0.7l-0.3-0.1l-0.6-0.6l-0.1-0.4l-0.3-0.1l-0.1-0.6l-0.4-0.3v-0.3l-0.1-0.4l0.1-0.1
		l-0.1-0.4l0.1-0.3v-0.1l-0.1-0.3l0.1-0.3l-0.3-0.3l0.1-0.3l-0.1-0.1v-0.4l-0.1-0.1v-0.1l-0.3-0.3l-0.3-0.4l-0.3-0.4l-0.3-0.4
		l-0.3-0.1l0.1-0.7l-0.4-0.6l-0.3-0.4v-1.9l0.3-0.4l-0.3-0.6v-0.4l-0.3-0.3l-0.1-0.4l-0.1-0.4l-0.1-0.3l-0.1-0.7l-0.1-0.3v-0.4
		l-0.1-0.6l-0.3-0.9l-0.6-0.4l-0.1-1l0.4-0.6l0.4-0.3l0.3-0.9l0.1-0.4v-0.9l0.1-0.1l-0.1-0.4l-0.3-0.1l0.1-0.1l-0.3-0.3l-0.3-0.1
		v-0.6h-0.4l-0.3-0.4l-0.1-0.4v-0.9l-0.4-0.1l-0.1-0.7V332l-0.4-0.1v-0.4h-0.1l-0.3-0.4l-0.1-0.4l-0.3-0.4v-0.3l-0.4-0.6l0.1-0.1
		l-0.3-0.4l-0.3-0.4v-0.4l-0.6-0.4l-0.1-0.3v-1l-0.6-0.3l-0.3-0.6l-0.1-0.1l-0.1-0.6l-0.4-0.6v-0.7l-0.1-0.4l-0.1-0.6v-0.6l0.1-0.3
		l0.1-0.4l0.4-0.4l0.1-0.6h0.6v-0.4l0.3-0.6v-0.4l0.1-0.7l-0.1-0.3v-0.3l-0.1-0.7l-0.1-0.4l0.3-0.3l0.1-0.1l-0.4-0.9l-0.6-0.6
		l0.3-0.3v-0.1l0.1-0.7v-1.7l-0.3-0.4v-1.2l0.1-0.3l-0.4-0.4l0.3-0.4l0.1-0.4l-0.4-0.1l0.3-0.6v-0.6l0.6-0.6v-0.9h0.3h0.3l0.1-0.1
		h0.1l0.1-0.1l0.1-0.4l-0.1-0.1l0.3-0.1v-0.1l-0.3-0.1v-0.6l-0.3-0.3l-0.1-0.3l-0.4-0.4h-0.1l-0.3-0.3l-0.4-0.3v-0.3l-0.3-0.3
		l-0.3-0.6v-0.7l-0.1-0.3l0.1-0.1V299l0.1-0.1v-0.7l-0.1-0.1v-0.6l-0.1-0.3 M326.5,18.8l1.3,1l1,0.3l1.2,0.4l1.3,0.6l1.3,0.7l1,0.4
		l1.2,0.6l1.3,0.9l1.4,0.9l1,0.7l1.3,1.4l1.4,1.3l1.5,1.9l0.9,1.9l1.6,3.8l1.6,6.5l3,13.2l0.6-0.1l0.7-0.3l0.6-0.6l0.6-0.3l0.4-0.6
		l0.4-0.3l0.4-0.6l0.4-0.4l0.3-0.3l0.4-0.4l0.6-0.4l0.6-0.1l0.4-0.4l0.9-0.1L358,50l1.2-0.6l0.7-0.3l1-0.4l1-0.6l0.7-0.6l0.7-0.6
		l1-0.7l0.7-0.6l0.6-0.7l0.6-0.3l0.7-0.4l0.9-0.6l0.9-0.4l0.9-0.3l1-0.4l1-0.6l1-0.6l0.9-0.4l0.9-0.4l0.9-0.4l0.6-0.9l0.4-0.6
		l1.4-0.1L379,38l1.4-0.3l1-0.3l1.3-0.3l1.3-0.1l1.7-0.1l1-0.1l1.5-0.1l1.4-0.3h1.2l1.2-0.1l1.6,0.3h1.2h1.3l1.2,0.1l1.2-0.1h1.3
		l1.2-0.1l1.2-0.1h1h1.2h1.2h0.9l0.9,0.1l0.9-0.1l0.9,0.1h0.4l0.4,0.1l0.1,0.3l-0.1,0.1l-1.2,0.7l-4.1,1.4l-6.7-0.1l0.4-0.4l1-0.4
		l1.3-0.4l1.2-0.4l1-0.1l1.4-0.4l1.2-0.1l1.3-0.1l0.9-0.3l1.6-0.1l1.4-0.1h1.6l0.7-0.4h1.7h1.6h1.2l0.9-0.1l1.3-0.3l1-0.1h1.4
		l0.7-0.3l1.3-0.1l1-0.3l0.9-0.1l0.9-0.1h1.2l1.2,0.1l0.9-0.1l1.4,0.3l1,0.3h1.3l0.9,0.1l1,0.1l1.5,0.4h1.3l1.3,0.1l1,0.1l1.2,0.3
		l1.3,0.1l1.2,0.1h0.6l1.2,0.1h1l1,0.1l0.7-0.1l0.6-0.1h0.7l0.9,0.1l0.7-0.1l0.9-0.1l0.7-0.1l1-0.1l0.4-0.1l0.9-0.3l0.4-0.3l0.6-0.3
		h0.3l0.4-0.3l0.6-0.1l0.3-0.3l0.4-0.1l0.4-0.1l0.4-0.1h0.7l0.1-0.1l0.7-0.1l0.6,0.1l0.9-0.1l0.3,0.1h0.9l0.9,0.3h0.6l0.6,0.3
		l0.7,0.1h0.9l1,0.1h0.4h0.9h0.6l0.9,0.1h0.4l0.9-0.1l0.3-0.1l0.6-0.1l0.4-0.1h0.4l0.4-0.1h0.4h0.7l0.1-0.1l0.4-0.1l0.6,0.1h0.3
		l0.9,0.1 M343.2,121.4l0.7-0.4l0.1-0.4l0.3-0.9l0.6-0.9l0.6-0.9l0.3-0.6l0.6-1.3l0.4-1.3l0.4-1.4l0.3-1.2l0.1-1.9l0.4-2.2l0.1-2.8
		l0.3-2.3l0.1-4.6l0.3-8l0.7-14.6l0.3-0.1l0.3-0.6l0.4-0.4l0.4-0.3l0.3-0.6l0.4-0.1l0.3-0.7l0.3-0.3l0.3-0.4l0.3-0.3l0.4-0.4
		l0.3-0.4l0.4-0.1l0.6-0.3l0.7-0.4l0.9-0.3l0.7-0.4l1-0.6l0.6-0.3l0.9-0.7l0.7-0.6l0.7-0.7l0.7-0.7l0.6-0.6l0.6-0.4l0.4-0.4l0.7-0.4
		l0.9-0.4l0.6-0.3l1-0.6l0.9-0.6l0.9-0.6l0.7-0.3l0.6-0.7l0.7-0.6l0.4-0.4l0.3-0.7l1.2-0.1l1.5-0.4l1.2-0.3l0.7-0.3l1-0.4l1-0.1
		l1.3-0.1l1.2-0.3l1-0.3l0.9-0.3l1-0.1h0.9l1.2-0.1l1,0.1l1-0.1h0.4l1-0.3l0.7-0.4l0.7-0.1l0.4-0.1l0.7-0.3l0.6-0.4l0.7-0.1l0.3-0.3
		l0.3-0.4l0.1-0.4V52l-0.4-0.3l-0.4-0.7l-1.2-1l-1.5-0.9l-2.8-1.9l-6.2-2.9l-7.2-1.2h0.6l1-0.6l1.2-0.4l1.2-0.6l1-0.1l1.2-0.4
		l1.3-0.4l1.2-0.4l1-0.3l1.6-0.3l1.4-0.4l1.6-0.1l0.9-0.3l1.6-0.4l1.3-0.3l1.2-0.1l0.9-0.4l1.2-0.3l1.2-0.3l1.6-0.3l0.7-0.4l1.3-0.3
		l1-0.3l0.9-0.4l0.7-0.1l1.2-0.1l1-0.1l1.2-0.4l1.5,0.3h1h1.2l0.9-0.3l1,0.1l1.5,0.3l1.3-0.1h1.3h1.2h1.2h1.3l0.9,0.1l0.9-0.1h1h1
		h1.2l0.4-0.1l0.9-0.3h0.6l0.9-0.1h0.7l0.9-0.3l0.9-0.1l0.9-0.3l0.4-0.3l1-0.3l0.3-0.3l0.6-0.3l0.3-0.3l0.6-0.1l0.4-0.1l0.6-0.3h0.1
		l0.6-0.3l0.3-0.3l0.6-0.1h0.4l0.6-0.1l0.6-0.1l0.7,0.1l0.4-0.1h0.9l0.9,0.1h0.6l0.7,0.3h0.7l0.9,0.1h1l0.3-0.1l0.9,0.1l0.9-0.1
		l0.6,0.1l0.6-0.1l0.7-0.1l0.4-0.3h0.6l0.3-0.1h0.6l0.4-0.3h0.6l0.6-0.1h0.3l0.4-0.1h0.3h0.4l0.7,0.1 M420,242.3l2.2,1h0.4l0.1,0.1
		l0.4,0.1h0.3h-0.1h-0.1l-0.6-0.1l-2-0.4l-4.5,0.3l-0.6-0.4h0.1l0.3,0.1l0.4,0.1l0.7-0.4h0.6l0.7-0.1h0.7l0.6-0.1h1l0.7-0.1l0.6-0.1
		l1-0.1h0.7l0.9,0.1l0.7-0.3l0.7,0.1h0.7h1l0.9,0.1l1,0.1l0.7,0.1h1.2h0.4l1.2-0.1l0.9,0.1l1-0.1h0.7l1.3-0.3l1.2-0.3l1.3-0.1
		l0.6,0.1h1.3l1,0.4l1.3-0.1h0.7l1.2,0.1l0.9-0.1h1h0.9h1.3l0.7,0.1h0.7l-0.3-0.6l1.7,0.6l1,0.3l1.6,0.7h1.3l1.6,0.4l1.3,0.7
		l1.6,0.6l1.5,0.4l1,0.3l1.9,0.9l1.7,0.7l1.2,0.3l2,1l1.9,1l2.2,0.3l1.3,1l2.6,0.9l2.9,1.3l5.1,1.9l6.7,3l9.7,2.2l3.5,0.7l2.5,0.4
		l2.6,0.1l3.9,0.6l3.8,1l6.2-0.3l4.1-1.2h1.7l0.6-0.3l1-0.1l0.3,0.6l1-0.1l0.6,0.1l0.6,0.6l1.2,0.1l0.3,0.7l0.9,0.4l0.6,0.3l0.6,0.6
		l0.9,0.3l0.3,1v0.6l1,0.4l0.3,0.6l0.6,1l0.4,0.1l0.7,1l0.7,0.6l0.9,0.7l0.3,0.6l0.9,0.1l1,0.7l1.2,0.6l0.9,0.1l1,0.6l1,0.3l0.4,0.9
		l0.7,0.1l0.4,0.9l0.7,0.4l0.4,0.3l0.6,0.7l0.4,0.4l0.4,0.7l0.6,1l0.3,0.1l0.7,1.3l0.4,0.4l0.7,0.7l0.4,0.3l0.4,0.9l0.3,0.6l0.6,0.3
		v0.4l0.6,0.1l0.6,0.3l0.6,0.4l0.3-0.1l0.3,0.6l0.1,0.4l0.6,0.1h0.4v0.6l0.4,0.1l0.7-0.3l0.1,0.1l0.7-0.3h0.3l-0.1,0.3l1-0.7
		l0.4,0.1l1-0.7h0.1v0.3l0.3-0.3l0.7-0.3l0.1,0.1v-0.3l0.1,0.6h0.3h0.1l0.3-0.3l-0.1,0.6l-0.6,0.6l0.4,0.1l0.6-0.3l0.4,0.3l-0.1-0.1
		l0.3,0.1l-0.1,0.3l0.1-0.3h0.6l-0.6,0.3l0.7-0.3v0.1l0.7-0.3l0.3-0.3v0.6l0.4-0.4h-0.1h0.1l0.3-0.3l0.4-0.1h-0.1 M440,238.4
		l1.2,0.4h0.3l0.6,0.3l0.3,0.3l0.1,0.1l0.1,0.1l-0.1,0.3l-0.6,0.1l-1.9,0.6l-4.2,0.9l-0.6,0.1v0.3h0.6l0.4,0.1l0.4-0.1l0.9-0.1
		l0.9-0.1h0.4l0.9-0.1h0.9l0.9-0.4l0.7,0.1l0.6-0.1l0.7-0.3h1.2l0.4-0.1h0.7l1,0.1l0.9-0.1l0.6,0.1l1.2,0.1l1,0.3l0.9,0.1l0.6-0.1
		l0.9-0.1l1-0.1l0.9,0.1l0.9-0.3l1.3-0.1l1-0.3h1.2h1.2h1l1.2,0.1l0.7,0.3l1-0.1h1.2l0.9-0.1h1.3l0.7-0.1h0.9l1.2-0.1l0.9,0.1h0.7
		l1.3,0.3l1.4,0.3l1.5,0.4l1.4,0.3l1.6,0.4l1.2,0.7l1.9,0.6l1.2,0.4l1.7,0.7l1.4,0.6l1.6,0.7l1.4,0.7l1.6,0.7l2,0.7l1.7,1l1.7,0.9
		l2.8,1l3,1.6l4.6,1.9l6.8,2.8l8.3-2.8l2.5-1.3l1.9-0.6l1.6-0.4l2.5-0.1l2.9-0.7l3.8-1l1.7-1.9l1.9,0.1l1-0.1h0.9l0.7,0.3l0.9,0.1
		l0.9,0.4l0.6,0.1l0.7,0.9l0.7,0.4l0.7,0.6l0.9,0.3l0.7,0.6l0.6,0.4l0.6,0.7l0.6,0.3l0.4,0.9l0.7,0.9l1,0.4l0.3,0.7l0.9,0.7l0.4,0.7
		l0.9,0.6l0.9,0.6l1.2,0.4l0.6,0.9l1.3,0.3l0.9,0.4l1.2,0.4l0.9,0.6l0.6,0.4l0.9,0.6l0.6,0.4l0.7,0.7l0.6,0.4l0.6,0.6l0.6,0.7
		l0.7,0.7l0.6,0.7l0.4,0.7l1,0.4l0.7,0.9l0.4,0.9l0.4,0.6l0.4,0.6l0.3,0.7l0.1,0.6v0.3l0.4,0.4l0.3,0.4l0.3,0.6l0.1,0.3l0.1,0.1
		l0.3,0.9v0.3l0.1,0.1l0.4,0.4l0.1,0.1l0.1,0.3l0.1-0.1l0.3,0.1l0.3-0.1v0.4l0.4-0.4v-0.6 M450.2,208.7l1.4,0.9h0.6l0.4,0.4h0.6
		l0.9,0.4l0.3,0.4l0.6,0.3l0.3,0.6l-0.4,0.9l-2.5,1.5l-0.6,0.7h0.4l0.1,0.3l0.4,0.1l0.6-0.1l1.2-0.3l0.6,0.1h0.6l0.9-0.1l0.6-0.3
		l1-0.1l0.3-0.1h1l0.6-0.3l0.6-0.1l0.7,0.1l0.6-0.3l0.9,0.1h0.7l0.7-0.1l1,0.3h1.2h0.7h0.7h1l0.9-0.1l0.7-0.1l0.9,0.1l1-0.4l1.3-0.4
		l1,0.1l0.9-0.1h1l1,0.1l1,0.1l0.9-0.1l1.2,0.1l1.2,0.1l0.9-0.3l0.9-0.1l0.7-0.1h0.7l0.7-0.1l0.4-0.4l1,0.3l1.2,0.3l1.6,0.4l1.2,0.3
		l1.6,0.6l1.6,0.4l1.9,0.3l1.2,0.9l1.9,0.7l1.6,0.6l1.4,0.9l1.6,0.4l1.7,0.9l2.2,0.9l2,1.3l1.9,0.7l2.6,1.2l3.5,1.6l3.9,2l4.3,1.9
		l0.6-4.2l-2.3-1.7l-0.7-0.6l-0.4-0.1l-0.6,0.3l-0.4,0.3l-0.9,0.3l0.1-0.9l0.6,0.6l1-0.3l1,0.1h1.2l1,0.3l1,0.3l0.6,0.3l0.9,0.4
		l1,0.1l0.9,0.6l1,0.3l0.9,0.6l0.4,0.4l1.2,0.6l0.4,0.6l1,0.7l1,0.4l1.2,0.7l0.7,0.3l0.7,0.7l1.2,0.6l1,0.6l0.7,0.7l1.3,0.1l1.3,0.7
		l1.4,0.4l0.7,0.3l1.3,0.4l1,0.6l1.2,0.3l0.6,0.4l0.9,0.6l0.9,0.7l0.4,0.3l1.2,0.7l0.6,0.4l1.2,0.7l0.3,0.4l0.9,0.6l0.9,0.9l1,0.7
		l0.9,0.6l0.4,0.7l0.9,0.6l0.9,0.6l0.1,0.3l0.9,0.4l0.6,0.3l0.7,0.6l0.6,0.1l0.6,0.3h0.3l0.9,0.4l0.3,0.4l0.7-0.1l0.6,0.3l0.9,0.3
		l0.9-0.1l0.6,0.1h0.3h0.7l0.7-0.4h0.1l0.6-0.6l0.4-0.3l0.1-0.1l0.4,0.1v-0.4l0.4,0.1h0.1l0.4-0.3v0.4l0.1,0.3v-0.1l0.4,0.1v1h0.4
		v0.6 M454.8,225.5l1.2,0.4l0.6,0.3l0.4,0.3l0.4,0.3l0.4,0.3l0.3,0.4v0.4l-0.1,0.4l-1.5,1.2l-3.5,1.7l-0.4,0.4l0.1,0.1l0.4,0.3h0.4
		l0.4-0.1h0.9l0.7-0.3l0.6,0.1l0.9-0.1l0.7-0.1l0.9-0.1l0.6-0.1l0.6-0.1l1-0.1l0.7-0.1l0.6-0.1h0.9h0.7h0.9h1h1l0.6,0.1h0.9h0.9h0.9
		l0.9-0.1h1l0.9-0.1l1.2-0.3h1.2l1-0.3l1-0.1l1,0.1l1.2,0.1l1,0.1l1-0.1h1h1.2h1h0.9l0.9-0.1l0.7-0.3l1-0.1l0.6-0.3l1.3,0.1l1.3,0.1
		l1.4,0.9h1.3l1.6,0.3l1.4,0.9l1.6,0.3l1.5,0.6l1.9,1l1.2,0.4l2,0.9l1.2,0.9l1.7,0.6l2,1l1.9,1l1.7,0.7l2.5,1.3l3.3,1.3l4.6,2.2
		l5.7,1.5l4.5-5.8l0.3-2.6l0.6-1.4l0.7-0.4l0.6-1l0.6-1.2l1-1.3l0.6-1.7h1.2l1.3-0.4l0.3,0.1h1l0.9,0.4l1.3,0.1l0.9,0.4l1,0.3
		l0.7,0.7l0.9,0.6l1,0.4l0.4,0.4l0.9,0.6l0.9,0.6l0.7,0.4l0.6,0.9l0.6,1l1.6,0.6l0.4,0.7l0.9,0.6l1.2,0.6l0.9,0.7l0.4,0.6l1.5,0.6
		l1.2,0.6l0.9,0.4l1.2,0.3l1.2,0.7l1.3,0.4l0.9,0.4l0.6,0.6l0.9,0.7l1.3,0.6l1,0.6l0.1,0.6l0.4,0.7l0.6,0.4l0.3,0.9l0.3,0.6l0.6,0.7
		l0.6,0.7l0.3,0.9l0.4,0.7l0.4,0.6l0.3,0.6l0.6,0.9v0.1l0.3,0.9l0.3,0.1v0.6l0.4,0.6 M460.3,241.3l0.7,0.6l0.4,0.1l0.3,0.3l0.3,0.1
		l0.3,0.7l-0.1,0.1l-0.1,0.4l-0.6,0.7l-1.9,1.2l-4.8,1.7l-0.6,0.6l0.1,0.1l0.3,0.1l0.3,0.1h0.7l0.6-0.1h0.7l0.3-0.1l1-0.1l0.9-0.1
		l0.7-0.1l0.9-0.1h0.7l0.7-0.3h1l0.6-0.3h0.7l0.9-0.1h1l0.9,0.1l0.9,0.1l1,0.1l0.9-0.1l0.6,0.1l1-0.1l1-0.1l1-0.1h0.9l1.3-0.3
		l1.2-0.3h1.2h0.9h1.2l1.3-0.1l0.9,0.1l1,0.3l0.9-0.1l1.2-0.1h1.2l1-0.1h0.9l1-0.1l1-0.1l0.9-0.1h1.5l1.7,0.4l1.4,0.4l1.2,0.3
		l1.6,0.6l1.5,0.3l1.9,0.9l1,0.4l1.6,0.7l1.7,0.7l1.5,0.7l1.2,0.7l1.9,0.9l1.7,0.9l2,1l1.6,0.9l2.5,1.2l3.2,1.6l4.8,1.9l7.5,1.3
		l8.4-6.2l2.5-3.3l1.6-1.9l1.6-1.5l1.7-1.7l2.5-2l2.6-3.3l1.2-2.2l1.4-0.7h1l0.9,0.1l0.7,0.1l0.9,0.4l0.9,0.4l1,0.3l0.7,0.6l0.9,0.7
		l1,0.4l0.6,0.7l1,0.6l1,0.6l0.4,0.6l0.3,0.7l0.6,0.9l0.4,0.9l0.4,0.7l0.3,0.6l0.4,0.7l0.3,0.9l0.6,0.7l0.1,0.6l0.7,0.9l0.4,0.9
		l0.7,0.7l0.4,0.4l0.4,0.6l0.4,0.9l0.6,0.6v1 M130.9,147.5l0.4-0.6l0.4-0.4l0.4-0.7l1.2-1l0.6-0.6l1-0.7l0.9-0.6l0.6-0.4l0.6-0.6
		l0.7-0.4l0.6-0.4l0.4-0.6l0.6-0.6l0.4-0.7l0.4-0.4l-0.3-1.2l0.7-0.6l0.6-0.4l0.6-0.7l0.4-0.4l0.4-0.6l0.7-0.3l0.4-0.4l0.3-0.1
		l0.4-0.6l0.1-0.4l0.7-0.1l0.3-0.1l0.4-0.3l0.6-0.3l0.3-0.6l0.3-0.4 M215.2,420.4l-0.3-0.4l-0.1-0.6l-0.3-0.7l-0.3-0.4l-0.1-0.4
		l-0.4-0.3l-0.3-0.3L213,417l-0.3-0.3l-0.4-0.4l-0.3-0.4l-0.1-0.4l-0.3-0.1l-0.6-0.4l-0.4-0.3l-0.7-0.4v-0.1l-0.4-0.3l-0.6-0.6h-0.1
		h-0.3l-0.6-0.1h-0.3v-0.3H207l-0.4-0.1v-0.1h-0.3h-0.1h-0.1l-0.1-0.3l-0.3,0.1 M231.7,429.4l-0.3-0.3l-0.1-0.6l-0.1-0.6l-0.4-0.6
		l-0.3-0.3l-0.4-0.3l-0.3-0.1l-0.3-0.1l-0.4-0.4l-0.4-0.3l-0.4-0.3l-0.1-0.3l-0.6-0.4l-0.4-0.1l-0.4-0.1l-0.3-0.6l-0.4-0.3l-0.3-0.3
		l-0.6-0.3l-0.3,0.1l-0.6-0.1l-0.1-0.1l-0.4-0.1h-0.3h-0.3l-0.1-0.1h-0.6l-0.3-0.1l-0.1,0.3l-0.1-0.3h-0.3 M259.3,260.3l2-1.4
		l3.6-2.9l5.9-7.4l8-9.4l1.3,0.4l1.9,0.6l1.9,0.7l1.7,0.7l2.6,1.3l3.2,1.5l4.3,2.3l6.7,3.8l5.4,1.6l0.9,0.4l0.9,0.1l-0.9-0.6l1,0.3
		l1.3,0.1l0.4,0.3l0.4,0.3h0.1l1.2,0.6l0.6,0.3l0.4,0.4l0.6,0.3l0.3,0.4l0.4,0.3l0.6,0.4h0.4l0.7,0.1l0.7,0.3h0.4 M299.4,198l-1.6,2
		l-2.5,3.8l-4.9,9l-5.2,11l0.9,0.4l1.7,0.4l1.7,0.9l1.6,0.6l2.6,1.2l3,1.7l4.6,2.2l7.4,4.1l3.8,1l1.5,0.4l1,0.4l-0.1-1h0.9l0.7,0.6
		l0.9,0.1l0.4,0.3l0.3,0.6l0.7,0.1l0.6,0.6l0.6,0.3l0.4,0.1l0.7,0.3l0.3,0.4h0.6l0.7,0.3l0.7,0.4h0.3l0.3,0.3 M375.4,282.2l-3-1.4
		l-1.6-1.3l-1-0.9l-0.6-0.7l-0.7-0.7l-1-1.2l-1.6-1.4l-1.3-1.3l-2.6-1.6l-4.2-2.5l-8.3-4.3L333,257l-8.1-1.2l1,0.6l0.7,0.4l-0.6-0.7
		l0.9,0.7l0.9,0.3l0.6,0.3l0.7,0.3l0.1,0.3l0.6,0.3l0.9,0.6l0.3,0.3l0.7,0.4l0.1,0.3l0.9,0.3l0.4,0.3l0.9,0.6l0.4,0.1l0.7,0.1
		l0.3,0.1 M559.7,179.6l0.9,0.6l1,0.3l0.7,1l1.5,0.6l0.7,0.4l1,0.9l1.2,0.6l0.7,0.4l0.9,0.6l1,0.4l1.2,0.6l0.6,0.4l1,0.6l0.6,0.9
		l0.3,0.1l0.3,0.3l0.4,0.6l0.1,0.7l0.3,0.7l0.3,0.1l0.1,0.6l0.3,0.1l0.1,0.3l0.3,0.4l0.3,0.4l0.1,0.3l0.3-0.3 M573.9,164.6l0.6,0.3
		l0.4,0.9l0.1,0.6l0.6,0.7l0.3,1.4 M574.5,149.3l0.6,0.3v0.6l0.4,0.6l0.4,0.4 M120.1,394.5l-1.9-4.8l-1.2-2.9l-0.9-4.1l-0.3-4.3
		l1.3-5.1l2.6-5.7l3.3,6.7l-0.3-1.9v-2.6l0.1-1.3l0.3-1l0.9-1l0.6-0.6l0.7-0.4l1.2-0.4l1-0.3h0.7l1.3,0.1h1.5l0.4-0.4l1.3,0.3l2,0.7
		l1.3,0.6l1.5,0.6l1.3,0.7l1.7,0.6l1.7,0.6l1.9,0.7l1.4,0.7l1.6,0.9l2,1l1.6,1l1.2,0.6l1.7,1l1.4,1.2l2,0.9l1.4,0.9l1.9,1.5l1.6,1.4
		l1.6,1l1.4,1.2l2,1.2l1.3,1.3l1.4,1l1.5,1.3l1.7,1.3l1.5,1.2l1,0.9l1.6,1.2l1.3,1l1.4,1.2l1.3,0.9l1.5,1.3l1.9,1l1.3,1l0.7,1.2
		l1.7,1.3l1.5,1.3l1.9,1l0.9,1l2,1.2l1.3,1l1,1.2l1,0.9l1.2,1l1.3,1l0.7,1l1.7,0.9l0.7,1.2l1.6,0.9l1.2,1.3l1,0.9l1.3,0.9l1.2,0.7
		l1.6,0.9l1.2,0.4l1,0.7l1.7,0.4l1,0.7l1.3,0.6l1.4,0.4l1.3,0.9l1.7,0.9l1.2,0.6l1.7,0.9l1.3,0.7l1,0.7l1,0.7l1.2,0.6l1.5,0.9
		l0.7,0.4l0.6,0.6l1.9,0.6l0.9,0.6l2,0.4l1,0.3l1.7,0.4l1.4,0.3l1.7,0.4l1,0.4l1.5,0.6l1.9,0.7l1.6,0.3l1,0.4l1.6,0.4l1.9,0.3
		l1.7,0.3l1.2,0.6l2.3,0.4l1.5,0.4l2.2,0.3l1.5,0.3l2.2,0.3l2.6,0.3l2.2,0.4l2.2,0.3h3.3h4.2l4.5,0.1l4.5,0.1l8.7-0.1 M129.4,145.9
		l4.1-2.2l3-0.7l3.8,0.1l2.9,0.6l2.6,1l1.3,1l2,1.3l1.4,1.4l1.3,1.3l0.7,1l0.6,1.5l0.7,1.3l0.6,1.4l0.3,0.9l0.3,1.2l-0.1,1.2l-0.1,1
		v0.9l-0.3,1l-0.4,1l-0.4,0.9l-0.1,1l-0.1,0.7l-0.1,1.2v0.7l-0.3,0.7l-0.1,0.7v1.5l-0.1,0.4l-0.1,0.6l-0.1,0.6l0.3,0.4l-0.3,0.3
		l-0.1,0.4l0.1,0.4l-0.3,0.9l0.1,0.1l-0.1,0.6v1l-0.1,0.3v2.5l0.1,0.4v0.1l0.3,0.6v0.3l0.4,0.4l0.3,0.6l-0.1,0.4l0.3,0.4v0.1
		l0.3,0.9v0.4l0.3,0.6l0.1,0.3l0.3,0.4l-0.3,0.4l0.6,0.4l0.1,0.4l0.1,0.6l0.4,0.4l0.3,0.6l0.3,0.3v0.4l0.4,0.6l0.4,0.6l0.3,0.3
		l0.3,0.3l0.6,0.4l0.4,0.3v0.1l0.7,0.6l0.6,0.1l0.4,0.3l0.4,0.4l0.7,0.1h0.6l0.6,0.6l0.6,0.4l0.4,0.4l0.7,0.4l0.6,0.3l0.6,0.3
		l0.4,0.4l0.7,0.3l0.7,0.4l0.4,0.3l1.6,0.4l0.6,0.1l0.3,0.4l0.4,0.1l0.4,0.4l0.6,0.4l0.4,0.4l0.4,0.3l0.9,0.4l0.6,0.7l0.7,0.1
		l0.4,0.6l0.7,0.3l0.4,0.1l0.9,0.6l0.3,0.1l0.7,0.3l0.6,0.4l0.6,0.4l0.4,0.3l0.3,0.1l0.7,0.3l0.7,0.6h0.1l1,0.3l0.3,0.4l0.6,0.3
		l0.7,0.1l0.6,0.1l0.9,0.3l0.4,0.3l0.6,0.4l0.4,0.4l0.7,0.3l0.4,0.4l0.4,0.4l0.6,0.3l0.6,0.7l0.6,0.4l0.3,0.3l0.9,0.4l0.3,0.3
		l0.9,0.6l0.1,0.1l0.9,0.6l0.3,0.4l0.4,0.6l0.7,0.3l0.3,0.6l0.6,0.4l0.9,0.6l0.1,0.1l1,0.7l0.1,0.3l0.4,0.4l0.6,0.4l0.6,0.6l0.6,0.4
		l0.4,0.6h0.7l0.4,0.7l0.1,0.1h0.3l0.6,0.3l0.6,0.3l0.6,0.3l0.7,0.3l0.9,0.4l0.4,0.3l1.2,0.4l0.6,0.4l1-0.1l0.7,0.4l1,0.3l1,0.3
		l0.4,0.4l1,0.6l0.7,0.1l0.9,0.6l0.4,0.3l0.7,0.3l0.4,0.6l0.6,0.6l0.3,0.3l0.9,0.4l0.6,0.1l0.6,0.6l0.7,0.1l0.4,0.4l0.7,0.4l0.4,0.4
		l0.9,0.3l0.1,0.3l0.7,0.1l0.6,0.3l0.7,0.3l0.3,0.1l0.6,0.6h0.7 M135.8,404.6l-5.1-1.7l-3.5-1.9l-3.8-3l-3.2-3.5l-1.6-4.8l0.1-5.5
		 M167.1,545.5l-5.2,0.7l-4.8,1.2l-7,1.7l-7,2.2l-6.8,2.8l-5.8,2.9l-8.7,5.5l-0.4-4.5 M180.6,307.2l-13.5,9.1l-5.1,2.9l-2.3,3.3
		l-1.2,4.3l-1.6,5.9l-3.8,6.7l-9.4,11.3l2-0.9h2l1.9,0.1l2.2,0.9l2,1.2l2.2,1.3l1.9,1l1.6,1.9l1.7,1.9l1.7,2l1.2,1.4l1.5,2.2l1.3,2
		l0.7,1.4l1.2,1.3l1.3,2.3l1.2,2l1.3,1.7l1.2,1.5l1,1.7l1.4,1.7l1.3,1.4l1.3,1.4l1.3,1.4l1.6,1.7l1.6,1.7l0.7,0.9l1.2,1.3l1.7,1.3
		l1.4,1.6l1.5,1.3l1.2,1.5l1.7,1.7l1.5,1.4l1.3,1.3l1.2,1.3l1.6,1.7l1.3,1l1.6,1.6l1.5,1.2l1.3,1.2l1,1.3l1.2,1.2l1.7,1.3l1.3,1.2
		l0.9,0.7l2,1.5l1.2,1l1.5,1.3l1.2,0.9l1.5,1.2l1.9,1.7l1.4,0.9l1.2,1l1.2,1.2l1.7,1.2l1.5,0.9l0.7,0.9l1.3,1.2l1.5,0.9l1.3,1
		l0.9,0.9l1.4,1l1,1l1.7,1l1.2,0.6l1.5,1.2l1.3,0.4l1.5,1l1.2,0.3l1,0.7l1.7,0.4l1.3,0.9l0.9,0.4l1.6,0.1l1.7,1l1.7,0.6l1.2,0.7
		l1.3,0.6l1.5,0.7l1.3,0.6l1.2,0.7h1.5l1.2,1l1.2,0.7l0.9,0.4l1.4,0.7l1.2,0.4l2.2,0.6l1,0.1l1.4-0.1l1.9,0.4l1.6,0.4l1.2,0.1l2,0.3
		l1.3,0.1l1.4,0.7l1.9,0.3l1.6,0.3l2,0.4l1.9,0.1l1,0.1l2.2,0.4l2,0.3h2h1.6l2.5,0.1l2.6,0.1l2.5-0.1l2.5,0.1l3.5-0.1l4.1-0.1
		l5.2-0.6l4.6-0.6l9.3-0.9l16.7-2 M183.6,534.2l-5.8,0.6l-4.8,1.3l-7,0.9l-7.5,1.6l-7.5,2.2l-7.1,2.8 M272,175.4l-8.3,13.8l-3.9,9.9
		l-1.6,13.3l2.2,12.5l8.4,12.3l9,8.1v8.5l0.1,7.8l0.3,7.4l0.4,5.5l0.7,7.1l0.9,6.8l1,6.5l0.6,4.9l1,6.4l1,6.2l1.3,5.9l0.4,4.5
		l1.2,5.9l1.3,5.8l1.6,5.1l1.3,3.9l1.5,5.8l1.7,4.9l1.7,5.4l1.2,3.6l1.7,4.8l2.2,4.2l1.9,4.6l1.7,3l2.2,4.2l2.3,3.8l2,3.9l1.7,2.5
		l2.3,3.2l2.2,2.9l2.2,3.5l1.9,2.3l2.5,2.9l2.3,2.9l2.3,2.5l1.7,2l2.3,2.6l2.2,2.3l1.7,1.7l2.2,1.9l2.2,2l2.2,1.9l1.6,1.3l2,1.4
		l2.2,1.6l2.2,1.6l1.3,0.9l2.5,1l2,1.7l2.3,1l1.6,0.7l2,1l2,1.2l1.9,0.9l1.6,0.6l2,1l1.9,0.4l1.7,0.9l1.5,0.6l1.6,0.3l1.7,0.7
		l1.7,0.6l1.2,0.4l1.7,0.7l1.3,0.3h1.6l1.3,0.6l1.3,0.1h1.3l1.6,0.1h1h1.3h1.6l1.2-0.1l0.9,0.1l1.4-0.1l1.3,0.1h1.3l1.3-0.1l1.2-0.1
		h1.3l1,0.1l0.7-0.1l0.9-0.1h1l0.4-0.1l0.7,0.1h0.6l1-0.4l0.7-0.1l0.9-0.4l0.9-0.4l1.2-0.3l1.2-0.1l0.4-0.1l0.7-0.4l0.9-0.4h0.7
		l0.6-0.4l0.6-0.4l0.7-0.3l0.4-0.1V446l0.4-0.3l0.4-0.3l0.3-0.3v-0.3l0.3-0.4l-0.1-0.4v-0.9l-0.3-0.7l-0.7-1l-1-0.7l-1.5-0.9
		l-3.5-1.5l-8-1.4l-9,3.2l-10.1-0.1l-0.3-1.2l0.4-0.9l-0.9-1.2v-1.3l1-0.7l1.3-0.4l0.7-0.4l0.7-0.3l0.9-0.1l0.9-0.1l0.6-0.3h1
		l0.3-0.1l0.7-0.1h1l0.7-0.1l0.9-0.3l0.9-0.1l0.9-0.4l0.7-0.3l0.7-0.4l0.9-0.3l0.7-0.4l0.6-0.3l1-0.3l0.7-0.6l0.9-0.3l0.3-0.4
		l1.2-0.4l0.6-0.4l0.9-0.4l0.3-0.3l0.6-0.4l0.6-0.6l0.6-0.4l0.6-0.4l0.9-0.3l0.4-0.3l0.4-0.4l0.4-0.1l0.6-0.3l0.6-0.3l0.7-0.3
		l0.6-0.1l0.9-0.3l0.4-0.4l0.7-0.3h0.7l0.1-0.4l0.9-0.6l0.6-0.1l0.1-0.3l0.9-0.6l0.4-0.3l0.7-0.4l0.4-0.6l0.7-0.3l0.9-0.1l0.6-0.4
		l0.6-0.4l0.6-0.4l0.9-0.6l0.4-0.6l0.6-0.3l0.7-0.6l0.7-0.6l0.4-0.4 M301.6,238.8l11.4-3.3l1.6-2.5l-2,2.5l-3.6,3.2l-5.7,4.1
		l-5.4,3.9l0.3,7.2l0.1,6.4l0.3,6.2l0.1,4.8l0.3,5.9l0.4,5.9l0.9,5.8l0.6,4.2l0.4,5.8l0.6,5.4l0.7,5.7l0.4,4.1l0.9,5.4l1,5.4
		l1.3,4.9l1,3.9l1,5.1l1.4,4.9l1.4,4.8l1,3.6l1.6,4.2l1.6,4.5l2,4.1l1.3,2.9l2,4.1l2,3.6l1.7,3.5l1.6,2.5l2,3l2,3.2l2,2.8l1.6,2.3
		l2.2,2.6l2.2,2.8l1.9,2.6l1.7,1.9l2,2.3l2.2,2l1.4,1.7l1.9,1.7l1.9,2l1.9,1.7l1.4,1.2l1.7,1.6l1.9,1.4l2,1.5l1.2,1l2.2,1.2l2.2,1.2
		l1.6,0.9l1.5,0.9l2,0.9l1.7,1l1.9,0.9l1.2,0.3l1.7,0.9l1.7,0.9l1.6,0.7l1.3,0.3l1.4,0.6l1.4,0.3l1.2,0.7l1.4,0.3l1.2,0.3l1.6,0.3
		l1.2,0.4l0.9,0.1l1.2,0.1l1.5,0.3h1.2l0.9-0.1h1.2h1.2l1.2-0.1h0.7l1-0.1h1.2h1.2l1.2-0.1l1.2,0.1l0.9-0.1h0.7l0.6-0.3l0.7-0.1h0.6
		l0.7,0.1l0.3-0.1l0.3-0.1h0.9l0.6-0.3l0.6-0.1l0.6-0.9h0.9l1-0.3l0.1-0.4l0.4-0.1l0.7-0.3l0.6-0.3l0.3-0.1l0.4-0.3l0.3-0.3
		l-0.1-0.3l0.1-0.1v-0.4l-0.3-0.3l-0.1-0.4l-0.4-0.4l-0.7-0.1l-0.3-0.6l-1.2-0.4l-1.6-0.9l-2-0.6l-2.2-0.3l-5.1-0.4 M309.3,416.5
		l16.4,1.3l10.4,2.5l12.9,3l11.6,3l10.7,2.9l7.4,2l9.7,2.3l9.1,2.2l8,1.7l5.8,1l7,1.6l6.8,1.2l6.8,1.2l4.5,0.4l6.2,0.7l5.7,0.6
		l5.7,0.4l4.3,0.3l5.1,0.1l5.4-0.1h4.8h3.6l4.9-0.3l4.8-0.3l4.2-0.6l3.2-0.3l3.9-0.6l4.1-0.6l3.9-0.6l2.8-0.6l4.1-0.6l3-1.2l3.6-0.6
		l2.5-0.7l3-0.9l3-0.9l3-1.2l2.3-0.9l2.8-0.9l3-1.4l3-1.2l1.7-1l2.8-1.3l2.3-1.3l1.9-0.9l2.5-1.4l2.2-1.3l2.3-1.3l1.3-1.2l2.2-1.2
		l2-1.2l1.7-1.3l1.5-1l2.3-1.5l1.9-1.4l0.9-1.6l0.7-1.3l0.9-1.4l0.7-1.6l0.7-1.3l0.6-0.7l0.6-1.3 M347.8,195.2l-7.5,9.9l-4.6,3.8
		l-3.5,2l-4.5,3l-4.8,4.5l-4.3,4.3l-4.8,5.1l-3.3,5.4l-2.8,5.7l-1.7,4.2l-1.9,5.8l-1.5,5.8l-1.2,5.8l-0.4,4.2l-1,5.7l-0.9,5.8
		l-0.6,5.5l-0.3,4.2l-0.3,5.5v5.5l-0.9,4.8l0.3,4.1l0.9,5.5l0.7,5.2l0.4,4.8l0.6,3.6l1,4.6l1,4.5l1.3,4.5l1,3l1.5,4.2l1.4,3.9
		l1.3,3.9l0.7,2.3l1.6,3.3l1.6,3.3l1.6,3.3l1.3,2.2l1.6,3l1.7,3l1.6,2.9l1.3,1.9l1.6,2.6l1.9,2.3l1,1.9l1.4,2.2l1.6,2l1.9,1.9l1,1.4
		l1.4,1.9l1.5,1.6l1.7,1.6l1.2,1.2l1.6,1.4l1.7,1.5l1.7,1.3l1.3,0.7l1.3,1.3l1.9,1l1.5,1.2l1,0.7l1.6,0.9l1.3,1l1.6,0.9l0.7,0.7
		l1.4,0.7l1.2,0.9l1.3,0.7l0.7,0.4l1.2,0.6l1.2,0.7l1.2,0.3l0.9,0.4l0.9,0.6l1.3,0.3l1,0.1l0.6,0.3l1.2,0.1l1,0.1l1,0.3h0.6l1,0.3
		h0.7h1.3l0.7,0.3l1,0.1l0.7,0.3l1,0.1l0.3,0.1l0.1,0.1l0.4,0.1l0.6,0.4h0.3l0.3,0.3h0.6l0.4-0.1h0.3l0.9-0.1h0.6h0.7l0.1,0.1h0.3
		l0.4,0.1l0.3-0.1l0.1,0.1h0.4h0.1l-0.1,0.4l-0.1,0.3l-0.1,0.1l-0.3,0.4l-0.3-0.1l-0.3,0.3l-0.4,0.3l-0.9,0.3l-0.4,0.3l-1.3,0.4
		l-1.3,0.4l-2,0.6l-2.5,0.7l-5.1,1.7l6.8-8.1v-4.2l1-3v-2.5l0.3-1l0.6-1.6l0.3-1l0.7-0.6l0.4-0.4l0.7-0.3l0.3-0.1l0.7-0.3l0.7-0.1
		l0.4-0.1l0.6-0.1l0.6,0.1l0.4-0.1h0.6l0.6-0.1l1-0.1l0.6-0.1l0.9-0.4l0.4-0.3h1l0.6-0.6l0.7-0.3l0.9-0.3l0.1-0.6l0.9-0.3l0.6-0.4
		l0.7-0.3l0.3-0.3l0.7-0.6l0.9-0.3l0.4-0.3l0.3-0.6l0.9-0.4l0.6-0.6l0.6-0.1l0.4-0.4l0.6-0.3l0.4-0.3l0.6-0.4l0.4-0.1l0.6-0.1
		l0.6-0.3l0.7-0.1l0.4-0.4l0.9-0.3l0.7-0.3l0.4-0.4l0.3-0.3l0.6-0.3l0.6-0.4l0.3-0.1l0.9-0.4l0.6-0.4l0.7-0.1v-0.3l1-0.6l0.7-0.3
		l0.6-0.3l0.4-0.3l0.6-0.4l0.3-0.7l1-0.4l0.1-0.4l1-0.3l0.3-0.7l0.9-0.4 M441.9,553.5l4.2,4.6l3.8,4.1l5.5,5.5 M450.6,569.7l4.6,4.8
		l4.1,3.8l6.1,2.9l-2.6-6.7l12.9,6.4 M470.9,571.2l4.6,4.3l3.9,3.8l6.1,2.5 M491.2,574.7l4.5,3.9l4.3,2.5 M527.3,360.9l3.9-3l3-1.4
		l2.5-2l2.6-2.3l2.2-2.5l1.2-1.7l2-2.6l1.4-2.8l0.9-2.8l0.7-1.6l0.7-2.9l0.3-2l0.3-2.5l0.3-1.9v-2.2l-0.1-2.5l-0.3-2.3l-0.6-1.6
		l-0.7-2.3l-0.4-2l-1.2-2l-0.7-1.4l-0.6-2.2l-1.3-1.7l-1.2-1.7l-1-1.3l-1-1.4l-1.9-1.5l-1-1.3l-1.4-1l-1.5-1.2l-1.3-1l-1.7-1l-1.7-1
		l-1-0.9l-1.9-0.9l-1.6-0.7l-1.2-0.4l-1.9-0.9l-1.7-0.4l-1.6-0.4l-1.3-0.4l-1.4-0.3l-1.7-0.4l-1.2-0.1l-1.6-0.3l-1.6-0.3h-1.4h-1.3
		h-1.3l-1,0.1h-1.2l-0.7,0.1h-1.2h-1.3h-1l-0.7,0.1h-1.2h-0.9l-1,0.1l-0.7,0.3l-1,0.1l-0.9,0.3h-0.6l-0.6,0.1l-0.7,0.4l-0.7,0.4
		L490,292l-0.4,0.1l-0.7,0.1l-0.6,0.4l-0.6,0.3l-0.1,0.1l-0.6,0.4l-0.4,0.3l-0.1,0.1h-0.6l-0.1,0.1l-0.1,0.1v0.4l0.1,0.1l-0.1,0.1
		v0.1l-0.1,0.1l0.1,0.1v0.4l-0.3,0.3v1.2l0.1,0.1l0.3-0.1h0.7h0.1l0.3,0.1h0.3l0.3,0.1h0.1h0.1h0.4l0.6,0.1l0.3,0.4l0.1,0.1l0.3,0.3
		l0.4,0.4l0.3,0.3l0.3,0.1h0.6l0.4,0.4h0.3l0.1,0.3h0.7l0.6,0.1h0.6h0.4l0.4,0.6l0.7,0.3l0.9,0.6l0.1,0.1l0.7,0.3l1,0.3l0.4,0.3h0.4
		l0.7,0.1l0.9,0.1h0.6h0.6l1,0.1l0.7,0.3l0.9,0.3l0.4,0.3l0.9,0.4l1,0.4l1,0.3l1,0.3l1.2,0.1l1.6,0.3l1.9,0.1l1.7,0.3l3,0.3l4.1,0.9
		l8.8,1.9l5.2,1.7l0.6-0.7l0.3-0.4v-0.6l0.3-0.3l0.1-0.9l0.1-0.3v-0.7l0.3-0.6l-0.1-0.3l0.1-0.3l0.1-0.4l0.1-0.1l0.1-0.4l0.4-0.1
		h0.1l0.3-0.1l0.1,0.1l0.7-0.3h0.1l0.1-0.1l0.1-0.3v-0.3l0.1-0.4l0.1-0.1l0.1-0.3l0.1-0.3v-0.1l0.3-0.1l0.1-0.1v-0.1l0.3-0.3v-0.3
		l0.1-0.1l-0.1-0.3l0.1-0.4v-1l0.1-0.3l0.1-0.3l-0.3-0.4 M541,372.8l4.1-2.9l3.5-1.6l2.9-2.9l3.5-2.9l2.5-2.9l1.9-2.3l2-3.2l1.7-3.3
		l1.6-2.9l0.9-2.6l1-3l1-3.2l0.6-3l0.4-2.5l0.4-2.9l-0.3-3.2l-0.3-2.8l-0.4-2.3l-0.9-2.8l-0.6-2.8l-0.7-2.8l-0.9-2.2l-0.9-2.5
		l-1.2-2.8l-1.3-2.2l-1-1.6l-1.6-2l-1.4-2l-1.7-2l-1.3-1.2l-1.5-1.7l-2-1.6l-1.9-1.7l-1.4-1l-1.7-1.3l-2-1.2l-1.9-1.3l-1.6-0.9
		l-1.9-1l-2-0.9l-2.2-0.9l-1.3-0.7l-2-0.7l-2-0.7l-1.6-0.6l-1.9-0.6l-2-0.6l-1.9-0.3l-1.2-0.1l-1.9-0.3l-1.6-0.1l-1.6-0.1l-1.2-0.3
		h-1.4l-1.5-0.1l-1.6-0.1l-1.2-0.1l-1.2-0.3H506l-1.3-0.1h-1h-1.3l-1.2,0.1H500h-0.9l-1,0.4h-0.7l-1,0.3h-1l-0.9,0.1l-0.7,0.1
		l-0.9,0.3l-0.7,0.3l-0.6,0.3l-0.9,0.1l-0.4-0.1l-0.6,0.3l-0.3-0.1l-0.4,0.1l-0.3,0.1l-0.4,0.3H488h0.1H488l-0.3,0.1l-0.6,0.3H487
		l-0.1,0.1l-0.3,0.1l-0.1,0.3v0.3l-0.4,0.4l-0.3,0.7h-0.1h0.1h-0.1l0.3-0.1l0.1,0.1l0.1,0.1l0.4,0.1h0.1h0.1h0.3l0.1,0.1l0.3,0.3
		l0.3,0.1l0.1,0.4l0.1,0.4l0.4,0.3l0.4,0.1h0.1l0.3,0.3h0.3l0.6,0.1l0.3,0.3h0.4l0.4,0.1l0.4,0.3l0.4,0.1l0.7,0.6l0.4,0.3l0.6,0.3
		l0.4,0.3l0.7,0.3l0.6,0.1h0.3l0.6,0.1l0.6,0.1l0.6,0.1l0.6,0.3h0.7l0.7,0.1l0.7,0.3l0.3,0.4l0.9,0.4l0.6,0.4l0.7,0.4l0.6,0.1
		l0.9,0.6l1.2,0.1l1.3,0.3l1,0.6l1.9,0.7l2.6,1.4l5.7,3.6l4.8,1.9l0.9-0.6l0.6-0.7l0.1-0.7l0.1-0.4l0.1-0.6l0.1-0.6l0.1-0.4
		l-0.1-0.6v-0.1l0.3-0.4l0.3-0.3l0.1-0.4v-0.3l0.4-0.3l0.3-0.1l0.1-0.3h0.6h0.1l0.1,0.1l0.3-0.3l0.1-0.3l0.3-0.1l0.3-0.4v-0.4
		l0.1-0.3V290l0.3-0.1l0.3-0.3H529l0.3-0.3l0.3-0.1h-0.1v-0.9l0.1-0.3l0.1-0.6l-0.1-0.1v-0.6l0.3-0.6l-0.1-0.1"/>
</g>
</svg>
