<?xml version="1.0" encoding="utf-8"?>
<!-- Generator: Adobe Illustrator 16.0.0, SVG Export Plug-In . SVG Version: 6.00 Build 0)  -->
<!DOCTYPE svg PUBLIC "-//W3C//DTD SVG 1.1//EN" "http://www.w3.org/Graphics/SVG/1.1/DTD/svg11.dtd">
<svg version="1.1" id="Layer_1" xmlns="http://www.w3.org/2000/svg" xmlns:xlink="http://www.w3.org/1999/xlink" x="0px" y="0px"
	 width="312.9px" height="401.6px" viewBox="0 0 312.9 401.6" enable-background="new 0 0 312.9 401.6" xml:space="preserve">
<g opacity="0.7">
	<g>
		<path opacity="0.7" fill="none" stroke="#EF25B2" stroke-width="0.75" stroke-linejoin="round" stroke-miterlimit="10" d="
			M190.3,271.5l0.2-0.2h-0.1h0.2l-0.1-0.1V271l-0.1,0.3l-0.2-0.1l0.2-0.1l-0.2,0.1l0.2-0.1l-0.9-18.1l-1.8-4.1 M312,20.4l0.1,0.2
			l-6.5-1.7l0.9-4.4l-1.6,7.8v0.5l7.2-6l-4.7,4.4 M191.3,277.3l-0.2-0.3l-0.4-0.3h-0.1l0.1-0.3l-0.1,0.2l0.1-0.1l-0.1,0.2v-0.2
			l0.1-1.1l-0.1,1.4l-0.2-5.3l0.2-0.2l-0.3,0.2l0.2-0.2h-0.2h0.1l0.1-0.1l-0.2,0.2l0.1-0.1l0.2,0.1 M22.8,339.5l1.7-2.6L22.8,339.5
			l0.2-1.2l0.6,2.8l-0.7-2.3l0.5-0.7l0.3,3.6l-0.2-0.3l-1.1-1.8l0.7-0.9l-0.2,0.2v-0.2v0.1l0.2-0.2l-0.1,0.1l0.1-0.7L0.5,364.2
			l-0.3,0.2 M23.1,338.2l0.5-0.9l-0.8,3.3l-0.1,0.3v-1.6l0.8-1.3l-0.1,2.6l-1.1-0.1l0.4,0.4l0.2-0.2l0.5-0.4l-0.8-1.1l-9.8,4.9
			l-7.2-3.7l-2.2,7.6 M135.2,261.8l0.2-0.1L135.2,261.8l0.2-0.1L135.2,261.8l0.2-0.1L135.2,261.8l0.2-0.1l-0.3-0.2h0.1l-0.2-0.2
			l0.3,0.2l-0.1,0.2l1.1-0.5l-0.2,0.8l-3.1-7.8l3.3,6.5l-0.5,0.9l-0.2,1h-0.2l0.6-0.7l0.2-0.2l0.4-0.8l-0.1,0.2l-0.5,0.4l-0.4,1
			l0.8-2.2l-0.6,2l0.4-10.1l-0.4,8.9 M191.3,277.5v-0.7l-0.2,0.6l0.2-0.5l1.3-1.7v0.2L192,276l0.2-0.2l-0.2-0.5l0.1,0.6l-0.1-0.2
			l0.2,0.3l-0.4-1.8l-0.3-0.6l0.1,0.4l-2.9-1.5v-0.2l-1.8,1.2 M312,20.4l-5.5,1.2L305,25v-0.2h0.1l0.5-2.2l1.9-10.9l4.4,2.2
			l-3.2,1.7l2.5,7 M129.8,247.6v-0.3V247.6l0.2-0.6l-0.2,0.2l-0.5,5.3l0.7-1.4l-0.3,0.2l-0.1-0.1l2.8-8.8l-2.2,4.9l1.8-4.4v-0.2
			l-2.1,4.3h-0.1l-0.2,2 M189.3,274v0.2l-0.2,1.1 M129.5,249.2l-0.6,2.2l0.1,0.1l0.2-2.4 M311.9,9l-2.5-0.2l1-0.6l0.8-2.7 M311.8,9
			l0.5,0.2l-2.7-0.2l0.8-0.7l-1.2-2 M312.1,9.1l-1-0.3l1,0.2l-1.7-0.8l1.9-7.8l0.2,2.4 M312.2,9.3l0.3,0.6l-2.1-1.7 M129.8,247.8
			l-0.8,3.3l-0.8,1.8l0.4-0.8l0.2-0.3l0.4-0.8l-0.8,1.2l0.2-0.3l0.2,1.4l0.1-1.4l0.2,0.2l-0.2-0.3l-0.1-1.5l-0.8-0.5l0.2,3l0.1-0.3
			v1.4l0.4-1.2 M23.1,341l0.2-3.4l-0.3,1.1l0.2-0.8l-0.1,0.6l0.5-1.1l0.7-0.7l-1.7,2.5l0.7-0.8l-0.1-0.2l1.1-1.2l-1.3,1.9l1.8-1.2
			l-0.1-0.4l-1.8,1.6l-0.2,1l2.5-2l-0.4-0.8v0.3l-0.2,63.8l-2.6-59.8l1.8,0.8l-0.1-0.1h0.1l0.9-2.5l0.2-1.8l-0.3,1.2"/>
	</g>
</g>
</svg>
