<?xml version="1.0" encoding="utf-8"?>
<!-- Generator: Adobe Illustrator 16.0.0, SVG Export Plug-In . SVG Version: 6.00 Build 0)  -->
<!DOCTYPE svg PUBLIC "-//W3C//DTD SVG 1.1//EN" "http://www.w3.org/Graphics/SVG/1.1/DTD/svg11.dtd">
<svg version="1.1" id="Layer_1" xmlns="http://www.w3.org/2000/svg" xmlns:xlink="http://www.w3.org/1999/xlink" x="0px" y="0px"
	 width="850px" height="850px" viewBox="0 0 850 850" enable-background="new 0 0 850 850" xml:space="preserve">
<polyline fill="none" stroke="#EF25B2" stroke-width="0.75" stroke-linejoin="round" stroke-miterlimit="10" points="85.6,370.4 
	81.6,385.1 81.9,386.3 84,389.7 76.4,408.9 79.8,400.1 82.5,377.2 76.7,398.3 84.7,399.2 75.5,402.5 78.5,400.3 73.3,434.3 
	77,389.3 75.8,398.5 78.5,393.9 77.9,393.7 77.9,386.9 80.7,392.4 78.5,383.6 80.3,390.3 74.8,402.8 77.6,396.4 81.6,384.5 
	74.8,396.7 80.7,401.6 83.4,383.6 84.9,380.8 79.2,382.3 79.4,379.9 76.7,388.8 80.3,392.4 76.4,399.8 79.4,392.8 73,398.8 
	70,411.9 72.4,407.7 71.2,402.5 73.3,389.1 73.9,385.7 74.3,386 74.6,394.6 73.7,397.9 69.3,401.6 71.5,402.8 70,410.4 76.4,406.2 
	71.8,409.2 72.8,401.3 74.3,401.6 71.2,403.4 71.8,397.6 80.1,385.1 78.3,387.8 77.6,385.7 77.9,386 75.8,402.8 74.3,397 71.5,415 
	80.1,393.9 76.1,390 82.5,387.5 75.5,393 75.2,405.5 76.1,386 78.8,407.7 74.6,396.7 80.3,381.8 79.2,393.9 75.5,398.3 77.6,377.2 
	77,400.7 77.9,392.8 82.5,397.9 77.9,393.3 77.3,390.6 77.9,406.2 78.5,394.3 80.1,393 78.5,389.7 75.2,397.6 72.1,406.2 
	72.8,397.6 76.7,404 71.8,404 79.2,387.5 73.9,393.3 74.8,390.3 68.5,400.1 75.2,390.9 73.7,392.1 75.8,393 70.3,390.3 73.7,391.5 
	74.8,384.2 75.8,388.4 72.4,404.6 72.8,400.7 70.9,396.1 70.9,395.8 67.6,400.1 77.9,386 77.6,385.4 77.3,391.5 78.5,382.7 
	74.6,389.1 69.3,392.8 75.8,388.2 77,389.1 77.9,393.3 70,401.6 68.5,397.6 73.3,388.2 77,378.1 70.9,387.8 78.5,370.2 68.5,400.3 
	72.1,401 70.9,397.9 66.9,397.3 68.5,398.5 68.2,404.9 70,393.7 66.7,398.3 69.7,380.2 60.5,398.5 62.7,400.7 66.7,394.6 
	76.7,367.7 74.6,376.5 65.1,382.9 69.3,391.8 69.3,396.7 66.9,394.3 67.3,394.6 65.1,409.2 64.5,398.5 68.5,392.1 69.7,395.5 
	73.7,379 63.9,392.8 68.2,381.1 65.8,379.6 70.3,371.7 68.2,377.8 63,398.3 61.4,402.5 63.6,392.8 65.4,390.9 62.1,392.1 
	53.8,421.4 58.7,416.8 63.6,400.1 66.3,400.1 62.3,396.4 52.6,409.8 64.8,405.3 65.8,390.9 60.8,402.5 61.2,402.2 53.2,412.6 
	63,401 66,398.8 56.3,397.6 61.2,398.8 61.8,402.2 58.7,410.8 65.4,394.3 64.2,394.3 70,374.7 61.2,401.3 60.3,411 56.8,396.1 
	57.8,398.5 66.9,394.3 66.9,399.2 60.5,401 63.6,391.5 61.8,389.7 64.5,388.4 57.5,414.1 57.5,418.3 62.1,399.2 58.7,390.3 
	62.3,397.6 60.5,403.1 62.7,389.3 62.3,393.7 59.6,400.1 61.2,404.3 57.5,390.3 55.3,392.1 55,402.2 53.5,410.1 57.8,394.8 
	63.6,395.5 59.9,390.9 56.8,404.3 60.3,404.3 57.8,401.9 55,389.1 52,403.4 53.2,411.9 58.1,404.3 55.3,401.3 57.2,395.8 
	56.3,392.1 55.3,402.8 57.8,401.9 56.8,397.3 62.1,396.4 55,392.8 58.1,399.8 57.2,394.3 61.8,384.5 59.9,386 62.1,401 57.5,391.8 
	53.8,397.9 54.1,433.3 59,400.1 57.5,401.3 54.4,396.1 57.8,388.8 64.5,394.8 48,397.6 47.1,402.8 51.7,397 50.2,394.8 52,389.1 
	48.9,390.9 50.2,394.6 52,403.4 49.5,409.5 52.6,399.2 62.1,394.6 61.2,394.6 52.9,407.7 43.8,413.2 51.3,400.3 50.8,394.3 
	48.6,396.4 52.6,402.2 52.9,406.8 52.3,393 46.5,411.9 46.2,417.2 49.8,405.8 53.2,400.1 53.8,393.9 49.8,392.8 44,393.3 48,417.4 
	41,410.8 50.2,393.7 47.7,402.2 48,410.4 46.8,407.7 49.8,400.3 50.8,390 48.6,402.2 49.3,391.2 49.5,393.9 48,400.3 54.4,395.5 
	48.6,399.2 48.6,403.4 42.8,411.7 43.8,400.3 48.9,397.9 50.8,397.6 51.7,397.6 48.6,397 49.8,395.8 44,404.3 47.4,402.5 
	52.6,397.6 48.3,392.4 43.1,408.9 44.7,404.3 46.2,393.9 47.1,389.1 48,390.9 52,391.5 47.1,388.4 46.8,396.1 48.6,387.3 
	42.8,395.2 48.3,379.6 46.2,396.4 47.1,389.3 57.8,366.5 48.9,386.3 53.8,378.7 44,397 47.4,379.6 68.5,348.2 68.8,340.8 
	53.8,365.8 46.5,388.4 43.1,389.1 "/>
<polyline fill="none" stroke="#EF25B2" stroke-width="0.75" stroke-linejoin="round" stroke-miterlimit="10" points="114.6,419 
	110.9,418.1 125.8,386.3 122.8,399.8 124.9,393.7 123.8,386 122.5,383.8 121,397 119.2,403.1 117.9,399.8 120.7,392.4 121.9,380.2 
	121,379.3 117,394.6 116.7,405.8 116.7,406.4 118.3,400.3 119.4,394.6 116.7,399.8 111.8,418.7 116.1,402.5 117.9,396.1 
	117.9,399.8 118.8,405.5 120.3,406.4 118.3,400.7 112.1,404.6 113,403.7 112.8,417.4 117.6,408 122.2,394.8 116.7,389.3 
	117.6,399.4 118.5,397.3 117.6,413.5 123.4,398.8 122.8,408.9 124.3,390.6 110.6,412.6 117,400.1 114.6,404.3 119.2,413.5 
	115.2,406.2 121.6,383.3 121.6,401.9 127.7,396.4 119.2,408.9 123.8,394.3 126.8,384.2 122.8,395.5 118.5,405.8 118.5,401.9 
	116.1,411 115.5,419.6 118.3,414.4 114.8,410.4 119.4,403.4 123.4,389.3 122.5,392.4 111.2,392.4 120.3,391.8 121.9,407.1 
	124.9,374.7 117.6,392.8 112.8,398.8 113.7,388.8 117.6,403.7 119.2,405.3 115.8,393.9 112.4,404.9 109.7,398.8 114.6,404.6 
	109.7,395.5 120.1,387.5 116.1,391.2 118.5,389.1 116.7,389.7 118.8,389.7 118.3,402.8 122.2,382.9 121.6,387.8 107.3,417.4 
	113.9,395.8 104.5,412.3 107.8,400.1 115.2,388.4 110.9,388.8 110.6,394.3 110.9,401.3 113,398.5 108.8,401.6 116.1,389.7 
	111.2,396.7 109.7,408.6 102.7,419 111.8,391.8 112.4,393.7 107.3,406.8 110.3,399.4 109.7,394.3 110,398.5 110.6,388.2 
	114.3,389.1 115.5,384.5 110,397.3 110,403.7 112.4,394.6 115.5,383.8 107.3,393.7 104.8,406.4 110.3,393.9 107.5,397 104.2,413.2 
	109.1,395.8 108.4,418.1 112.1,414.4 108.8,399.8 106.6,408.6 108.2,388.8 110,388.4 113.7,393.3 116.1,393.7 107.3,405.8 
	104.5,397.6 101.8,399.2 106.3,405.3 103.8,410.1 106.6,388.8 104.8,393.9 104.5,389.7 102.1,401.9 104.2,401.6 104.5,400.7 
	103.8,399.4 107.8,386.6 103.3,397.3 107.5,401.3 103.8,406.8 106.3,377.4 107.5,391.2 99.3,398.5 96.6,402.5 104.2,396.7 
	105.4,408 103.3,407.1 101.4,423.3 101.4,400.3 102.7,413.8 95.3,425.1 99.6,407.1 104.5,391.2 101.4,398.5 96.8,412.3 101.2,398.8 
	98.4,408.9 100.5,402.8 102.9,388.8 101.2,403.7 100.5,403.4 105.4,399.4 99.9,405.3 97.8,408.3 101.4,408.6 105.7,397.6 
	102.3,403.1 104.8,397.6 102.1,395.8 104.2,391.2 101.4,391.2 99.3,401 97.5,396.7 100.3,399.2 97.5,405.3 100.8,393.3 103.3,395.8 
	97.2,396.7 101.8,397.6 105.1,388.4 100.8,394.3 100.8,392.1 101.2,393.7 101.4,400.1 101.2,404 99.9,407.7 95.9,413.2 97.2,398.3 
	94.8,407.7 97.5,393.9 98.4,392.4 98.4,396.7 105.7,379 99,400.3 94.8,398.8 96.8,396.1 101.8,389.7 110,375.3 103.8,383.6 
	97.8,404.3 100.8,397.9 95.9,411 94.4,409.2 93.5,393.7 95.3,401 95.9,411.3 100.5,388.4 102.7,376.3 98.1,385.4 102.3,389.3 
	95.3,399.4 100.8,392.1 99.3,387.3 98.4,386 97.8,386 96.6,390.6 98.7,388.4 89.3,401.3 87.4,413.5 92.3,410.4 99.3,401 
	104.5,396.4 109.3,386 106,388.4 104.5,401.3 98.7,395.8 106.3,386.6 98.4,389.7 95.3,392.8 96.3,394.8 95.3,393.3 94.1,397 
	93.2,401 91.1,405.3 91.3,393 96.8,397.9 99,381.8 92.9,407.1 93.8,391.2 86.5,379.9 88.6,386 92.3,391.5 92.6,389.3 90.8,394.6 
	94.4,393.9 95.9,404.9 95.7,387.3 92.6,404 90.8,395.8 92,390.3 93.5,406.4 94.1,381.8 93.2,388.4 90.8,394.8 94.1,389.7 
	88.9,393.9 84.9,397.6 83.4,403.4 81,422.9 86.5,398.5 85.6,390.9 90.4,381.1 90.8,384.8 92.6,387.8 87.1,387.5 82.5,387.5 
	88.3,390.6 84.9,392.4 85.8,379.3 78.8,398.3 83.1,405.8 79.4,407.7 77.3,404.3 84,397 84,393 88,386 87.4,395.5 84.9,396.7 
	76.7,400.3 78.5,387.3 84.3,379.3 81,386 79.2,384.8 83.4,376.3 81.9,389.1 84,382.9 102.1,375 81,387.5 81.9,389.1 78.3,393.3 
	84.3,382.7 85.3,374.4 81.9,376.3 83.4,375.6 74.6,383.6 82.5,389.7 79.4,384.8 81.6,377.8 84,381.8 79.2,382.3 80.1,386.3 
	85.6,370.4 "/>
<polyline fill="none" stroke="#EF25B2" stroke-width="0.75" stroke-linejoin="round" stroke-miterlimit="10" points="152.4,412.8 
	153.9,404.9 157.6,388.4 153.9,407.1 159.4,396.4 158.3,396.4 154.8,396.1 159.4,392.4 162.2,379.9 153.3,404.3 154.3,407.3 
	157,404 153.9,394.8 152.1,395.8 150.3,404.9 152.1,394.8 153,399.4 156.7,391.8 149.7,404 154.3,401.6 152.1,403.7 153.9,400.1 
	155.8,391.2 150.3,393.9 150.3,396.4 151.5,394.6 153.7,398.3 149.1,400.7 144.5,401.3 150.9,399.2 150,397.3 150,401.9 
	146.3,406.8 153.9,394.8 148.4,397 158.5,395.5 152.1,408.6 149.7,390.9 148.4,398.3 150.3,406.4 153.7,401.9 148.4,413.5 
	148.4,411 156.4,399.8 151.8,402.5 145.1,410.8 150.3,405.8 152.4,413.2 152.8,401.3 150.6,411 149.1,416.5 143.6,415.6 
	149.3,410.8 150.9,421.4 154.6,400.7 148.2,419 147.8,415.3 147.5,411 145.4,406.8 145.7,415.3 145.7,417.4 144.5,399.4 
	145.7,411.3 146.6,412.8 145.1,413.2 146.9,399.2 146.9,407.7 144.8,419.6 144.5,403.7 145.4,407.3 144.8,405.8 148.8,398.8 
	146.9,405.3 143.6,408.3 146.9,399.2 142.3,408.6 144.2,407.3 146.3,408.3 143.3,407.1 147.3,411 146.3,409.8 142,407.1 
	140.5,418.1 143.3,407.1 146.6,401.9 145.1,407.3 142.7,404 138.3,412.8 145.1,406.4 143.6,415.9 146.3,411 145.7,406.8 
	144.5,408.3 143.3,416.5 143.6,412.8 141.4,419.9 140.5,404.6 147.5,409.5 146.3,401.6 147.8,399.2 142.3,431.2 140.5,409.5 
	140.2,404.3 139,415.9 135.3,418.7 143.3,402.2 139,410.8 136.5,419.3 137.8,416.8 137.4,421.4 146.9,415.6 144.2,408.6 
	142.7,408.9 146.9,392.8 137.4,403.7 141.4,401 136.8,401.6 139.3,400.1 141.1,397.9 137.4,406.4 138.7,399.4 139.3,401.3 
	141.1,388.8 143.8,396.4 141.4,410.1 140.8,405.5 138.3,408.3 141.1,407.1 137.2,418.1 135.9,416.8 138.1,404.3 143.6,408.6 
	143.6,405.8 144.5,395.8 143.6,400.1 145.7,393 138.3,403.4 137.2,402.8 139.3,402.8 134.1,410.8 137.8,401.3 142.9,393.7 
	143.3,397 138.1,404 142.7,400.7 140.8,404 139,404.9 138.7,405.5 139.6,401.3 140.5,408 136.5,415.6 136.8,403.4 136.3,397 
	135.9,406.8 137.2,406.2 137.8,405.8 139.9,417.8 136.5,411.3 134.1,406.8 137.4,412.8 142.7,411.3 137.2,403.7 135.3,419.3 
	132,422.3 136.5,420.2 135.3,422.7 140.2,422 135.6,418.1 137.8,401.9 137.2,406.2 140.2,398.5 132.6,408.9 139,390 140.8,390.6 
	140.2,398.8 137.8,406.8 139.6,400.7 133.5,410.4 132.9,406.8 131.3,406.4 138.3,391.2 135.6,399.2 139,398.8 138.7,400.7 
	133.8,401.3 133.5,402.8 136.5,412.6 133.8,411.7 137.4,402.2 134.8,408.3 124.3,433 128.6,416.5 137.4,397.3 140.8,399.4 
	139.3,398.8 133.8,405.8 138.3,385.1 137.2,398.5 134.8,393.3 134.8,398.3 135.3,395.8 135.9,398.3 139,401.6 130.8,386.6 
	135,395.5 135.9,396.4 134.1,397 131.1,405.5 132.6,401.3 132.3,402.2 129.8,396.4 136.3,400.7 134.4,382.3 135.9,398.3 
	134.8,401.6 130.4,402.2 130.4,394.6 134.8,390.9 136.8,400.1 132.9,405.8 129.5,399.4 134.4,385.4 129.5,394.3 127.4,396.1 
	132,389.3 135,387.3 135.3,395.2 133.5,392.1 129.5,393.3 133.5,391.5 130.4,398.3 132,401.3 131.1,399.2 128.6,400.1 125.3,403.7 
	130.8,390 127.7,405.3 129.3,397.6 126.8,382.3 126.2,385.7 127.1,391.8 123.4,401.9 128.9,394.8 131.1,383.3 129.3,390.6 
	126.5,396.7 126.2,395.8 122.5,409.5 119.4,404.6 122.8,400.3 125.8,385.4 127.4,386 124.7,391.8 124.7,397.9 125.3,397.9 
	122.5,414.7 123.1,396.4 122.5,393 124,401.6 123.1,401.3 126.2,408.9 125.8,400.1 129.3,393 129.5,390.3 128.9,395.8 131.3,394.6 
	126.8,393.3 123.8,402.8 122.5,398.5 121.6,394.6 121.9,392.4 124.3,396.1 121,396.4 120.7,395.8 123.8,395.8 121,409.2 
	113.9,415.9 116.4,405.5 120.1,404.6 122.5,395.2 121,404.9 121.3,408.3 121.6,407.3 113.9,424.2 118.8,421.4 123.8,411.9 
	116.7,415.3 118.5,399.8 118.8,399.4 122.8,400.1 121.9,408.3 121.6,403.1 123.8,397.9 126.2,382.9 123.1,393.3 121.6,385.4 
	121.9,393 119.2,399.2 121.6,395.8 114.6,419 "/>
<polyline fill="none" stroke="#EF25B2" stroke-width="0.75" stroke-linejoin="round" stroke-miterlimit="10" points="195.2,401.3 
	192.8,401.9 199.4,388.4 197,394.8 192.4,398.5 194.3,398.5 190.6,391.8 187.8,399.8 192.4,408.9 195.8,397.3 191.8,409.5 
	192.1,398.5 194.3,393.7 193,404 195.5,401.9 195.5,397.9 196.1,395.2 194.3,406.8 188.2,407.1 188.8,409.5 194.3,427.5 190,419.3 
	189.3,411.9 191.8,409.5 190.3,413.2 193,421.8 197.3,399.8 189.7,403.7 185.1,412.8 187.8,404 189.1,432.4 193,405.8 187.5,411.9 
	186.3,409.5 187.8,404.6 183.6,408 185.1,411 188.2,406.4 182.3,413.8 188.2,419.9 188.2,398.8 186,413.2 189.3,410.4 189.3,401 
	182.9,416.8 188.2,409.2 189.7,405.5 193,398.8 188.4,407.3 193.3,407.1 188.4,392.1 190,404.6 188.8,403.4 184.8,407.7 
	183.8,405.5 186,394.8 184.8,404.6 185.1,407.1 180.5,419.6 182.9,408.6 184.8,414.1 185.7,401.9 184.2,398.3 189.3,392.4 
	178.1,407.1 181.1,415 170.8,437.3 178.7,434.3 179,411 181.8,404.6 182.7,400.1 184.8,416.5 180.2,418.7 187.8,416.3 184.2,414.4 
	188.2,400.3 181.1,414.4 186.6,403.4 185.1,400.1 184.2,408 186.6,394.3 179.6,402.5 186.3,395.5 178.3,397.9 181.1,402.5 
	192.8,392.1 188.8,388.8 183.8,392.8 186.9,378.7 183.3,390.9 181.1,399.4 183.8,397.3 180.5,408.6 188.4,389.3 183.6,403.4 
	187.5,404.3 185.7,397 182,400.7 180.5,403.1 183.3,396.1 181.1,396.7 182.3,397.6 178.7,418.3 183.3,400.7 175,411.3 185.4,406.8 
	181.4,404.9 181.1,398.5 184.5,397.6 181.4,400.1 186.3,391.5 179,405.3 182.7,415.9 178.3,405.8 173.5,407.1 181.1,389.1 
	185.4,386 179.6,398.5 186,386.9 180.2,394.3 177.4,403.7 181.8,401.9 184.2,395.2 180.5,411.7 182.7,402.2 181.4,406.8 
	181.1,409.2 179,410.4 186.3,397.6 182.3,407.7 183.3,404.3 190.3,404.6 183.8,408.9 190.9,434.8 182.7,419.3 180.2,414.1 
	185.1,410.1 177.2,411.7 179.6,408.3 179.9,421.8 176.5,424.5 182,402.8 180.8,421.1 179.6,419.6 179.6,422.3 184.2,405.3 
	186.3,409.5 207.3,379.6 193,379 189.7,383.3 187.5,387.5 184.8,387.5 181.8,401.9 179.6,392.1 177.8,395.8 185.4,392.8 
	187.8,399.4 182.9,402.2 176.5,401.6 176.8,390.6 178.1,400.1 174.4,409.5 177.8,397 175.6,405.8 177.8,407.3 177.2,408.3 
	170.1,422.9 169.5,411.7 176.8,399.4 182.7,391.2 181.1,401.6 179.9,398.5 180.5,392.1 175.9,395.5 171.9,405.3 169.8,401.9 
	172.6,399.8 173.5,397.6 171.3,408 172.3,404 173.5,406.4 174.4,392.1 175.3,397.9 171.9,397 173.8,391.8 178.1,388.8 174.4,396.1 
	174.7,393 175.9,393.9 170.1,401 173.5,392.8 170.4,416.3 170.4,410.8 172.8,407.7 172.3,389.1 171.3,392.8 170.1,397.6 
	168.3,389.1 171.3,391.2 171.3,397.3 169.5,394.8 168,378.1 166.2,393 165.8,400.1 167.1,387.3 162.5,402.2 158.3,418.1 
	165.3,392.8 167.1,394.6 164,393.3 169.5,396.7 166.5,390 168.9,382.9 166.2,385.7 172.3,379 167.7,388.4 165.8,404.3 167.7,405.8 
	162.2,405.8 161.3,398.5 171,381.4 167.4,387.3 164.3,391.8 160.7,393.3 166.2,396.1 170.8,386.6 169.2,378.1 167.7,388.8 
	163.1,403.1 162.2,398.3 164.9,400.3 167.1,408.3 166.5,399.2 168.9,390.9 165.6,398.8 164.3,401.6 162.5,401.9 167.1,396.1 
	162.2,406.8 161.6,403.4 164.7,394.3 163.8,392.4 162.5,396.1 163.4,392.4 165.8,395.2 164.3,394.8 168.3,378.1 161.6,402.8 
	165.8,382.3 166.5,386.3 165.8,380.8 166.2,404.6 165.6,386.3 160.7,395.8 164.9,389.1 161.3,396.1 161.6,395.8 156.7,416.5 
	156.7,408.6 161.6,401 154.8,408.3 160.1,397 159.4,394.8 158.8,392.1 153.3,401.3 161.9,390 164.9,399.2 158.5,415 158.3,402.5 
	163.8,389.1 162.5,416.5 162.8,397.9 156.1,404.3 160.3,416.5 158.3,409.2 156.4,401.3 160.3,399.4 152.8,403.7 160.1,403.7 
	158.5,393.3 158.5,401.3 157.9,403.7 155.2,411 157,405.3 155.5,407.7 156.7,394.8 160.3,398.8 159.8,401.3 158.3,421.8 
	160.3,410.8 154.6,403.7 159.2,395.8 157.6,406.8 157.9,401.9 151.2,413.8 163.8,397.6 161,408.3 154.8,403.4 156.7,400.3 
	152.4,412.8 "/>
<polyline fill="none" stroke="#EF25B2" stroke-width="0.75" stroke-linejoin="round" stroke-miterlimit="10" points="234.5,389.3 
	232.4,381.1 230.6,381.1 230.6,393.3 232.8,394.8 230.9,397 233.9,387.5 236.3,386.3 231.5,386.3 234.5,408.9 230,416.3 
	227.5,413.5 227.5,410.1 231.2,419.6 234.8,398.8 230,390.3 230.9,401.6 230.9,404.6 230.3,399.8 233.9,384.5 233.3,387.8 
	234.8,389.1 241.8,390.3 237.3,388.8 236.3,389.7 235.4,384.8 232.1,384.5 235.2,388.4 234.3,394.3 238.5,387.3 235.2,398.5 
	235.2,383.3 233,384.8 233.9,393 237.3,406.4 233,396.4 235.8,388.8 232.4,384.8 231.2,405.3 233.9,430.3 225.7,408.9 229.7,393 
	237.6,385.7 239.4,377.8 239.4,383.8 234.5,393.3 233.7,402.8 240.3,391.5 228.2,418.3 228.4,415 230,414.1 229.7,402.2 
	237.3,392.8 233.3,395.8 233.9,397.3 233,391.2 229.3,393.3 228.4,398.5 231.2,402.2 230,404 237.6,377.8 237.9,377.8 236.3,386.3 
	235.4,376.8 235.8,386.3 233.9,384.2 234.5,395.8 229.7,404.6 228.4,399.2 229.1,399.4 235.4,387.8 231.2,401.6 237.9,398.8 
	231.5,398.5 232.4,386.9 231.2,383.8 229.1,382.7 228.2,390 228.8,390.9 228.4,396.4 232.1,390 233.9,386.9 234.8,386 239.4,379 
	233,386.9 231.8,392.8 228.2,398.3 229.3,396.1 233.9,385.1 235.4,387.5 230.3,390.3 231.8,394.8 229.7,387.5 230.3,385.1 
	225.7,391.2 230.3,387.8 224.2,401.3 225.7,418.1 215.3,442.8 225.1,401 232.4,392.1 226.9,399.2 219.3,411.3 233.9,397 228.4,393 
	229.3,393.3 234.5,403.4 225.7,413.2 225.7,410.4 224.5,400.1 226.9,388.8 231.2,375.6 233.7,381.8 224.5,390 228.4,375.3 
	228.8,384.5 225.1,395.2 230.9,390.9 224.5,377.2 225.1,368.6 218.1,387.3 219.9,384.2 222.3,381.4 223.3,380.8 226,372.3 
	221.4,394.6 209.8,390.6 225.7,379.3 228.4,386 224.5,390 222,390.9 221.1,398.5 217.8,397 225.4,398.5 219.9,391.8 215.3,401 
	221.4,393.9 219.9,388.8 214.4,413.8 215.9,395.5 211.3,404 217.4,400.7 218.7,410.1 222.9,396.4 213.8,399.2 210.1,396.1 
	207.3,406.8 208.6,401 214.7,397.6 210.8,414.4 208,401.9 210.1,391.2 209.2,399.4 214.1,391.8 217.2,392.1 218.1,400.1 
	217.8,389.7 210.4,407.3 201.8,419.3 203.4,412.8 214.1,403.7 203.4,418.7 211.3,414.1 208.6,411.7 209.8,412.3 213.8,411.9 
	207.1,420.8 211.3,415.9 210.8,403.7 206.8,420.2 203.7,412.8 210.8,390.9 211.3,389.7 215.3,391.5 210.8,406.2 208.3,406.8 
	207.1,422 211,404.3 203.4,414.7 208.9,415.3 207.1,408.6 213.2,406.2 208.6,410.1 211.3,402.8 212.8,395.5 215.6,399.4 
	211.9,399.4 209.5,416.3 207.3,411 206.4,409.2 205.5,399.4 206.2,401 204.9,410.1 201.6,409.2 204,406.2 207.7,395.5 206.2,399.2 
	204,418.7 202.2,411.9 216.8,404 208.6,404 212.8,387.3 207.1,394.8 218.3,382.9 204.3,402.5 209.2,399.2 207.1,383.8 204,401.6 
	203.4,422.9 203.7,399.2 199.4,409.5 209.2,392.1 209.5,402.2 208.9,394.6 204,411.7 207.3,400.1 200.3,414.7 203.7,391.5 
	207.3,397.3 201.3,408.3 205.8,412.3 204,419.3 204.3,410.1 209.2,401.3 207.3,394.6 205.8,414.4 207.3,405.8 205.3,406.2 
	204.3,404 208.6,403.1 209.5,404.3 204.3,406.4 202.2,399.2 207.3,406.8 204.6,404.9 206.2,418.3 206.8,392.1 202.8,397.6 
	207.1,401.3 203.1,388.4 202.8,413.5 201,398.8 205.3,411.3 203.1,410.4 209.2,398.8 207.1,393 213.5,380.5 205.3,404 209.2,389.1 
	208.6,381.8 205.5,394.3 205.8,401.6 202.5,408.3 206.4,403.1 208.3,393 205.3,410.8 205.3,402.2 206.2,414.7 196.4,419.3 
	202.5,416.8 206.2,402.5 205.5,404.9 203.4,397 196.1,399.4 195.8,411 195.8,401.6 199.2,407.7 203.7,391.8 201.6,397 197,397.9 
	200.1,394.3 204.9,408 202.5,396.1 201,405.8 197.6,398.8 207.1,394.6 205.8,398.3 196.1,405.3 197,405.3 203.1,397.6 201,405.8 
	189.7,409.8 194.8,393.7 198.5,403.1 191.8,418.3 192.1,409.8 188.4,419 189.7,418.3 184.8,412.8 191.5,406.4 200.7,403.1 
	194.6,403.1 196.4,398.5 193.3,412.3 193.7,409.2 192.4,408 193.7,398.3 196.4,397.3 197.9,403.4 195.2,401.3 "/>
<polyline fill="none" stroke="#EF25B2" stroke-width="0.75" stroke-linejoin="round" stroke-miterlimit="10" points="273.6,395.5 
	274.5,402.2 273.3,405.3 273.3,424.2 274.3,416.5 275.8,415.3 273,419.9 266.9,415.9 271.8,408.6 272.7,401.3 273.6,401 
	276.1,396.4 275.8,381.8 283.4,371.9 269.9,384.2 274.8,389.1 269,398.5 271.2,397.3 269.9,399.4 277,400.7 273,398.8 272.1,391.2 
	270.6,397.3 278.2,387.3 280.9,373.5 272.7,389.3 272.7,390.6 275.2,382.9 270.6,394.3 274.8,380.5 271.2,380.5 272.7,374.4 
	274.8,376.3 271.5,385.7 270.3,382.3 272.1,384.8 269.9,389.7 278.5,392.4 273.6,386.9 272.1,387.8 269,382.7 273.3,376.8 
	271.8,385.4 267.8,393 271.2,392.8 273.6,387.3 271.5,387.3 271.5,393.3 270.3,381.8 271.5,381.8 272.1,384.5 268.4,395.5 
	266.6,403.1 266.3,397.9 266,399.4 262.9,394.6 263.8,389.7 268.1,386 269.9,368.6 272.4,367.1 267.3,377.8 266,376.3 265.4,390 
	270.6,372.3 267.8,373.5 263.8,377.2 265.7,388.2 257.2,364.3 264.2,378.7 262,396.7 262.7,375.3 261.1,379.9 261.8,382.3 
	258.3,392.4 266.3,380.8 269,375.6 260.8,385.1 261.4,393.7 264.5,402.2 267.8,399.2 258.7,386.6 262,380.2 264.5,385.7 
	264.5,396.4 264.8,382.3 267.8,375.3 266,390.9 265.7,387.8 264.2,384.8 263.3,367.1 262.7,370.4 261.1,380.2 262,379.6 
	261.4,376.5 258.1,385.7 254.1,397.3 260.5,397.3 263.3,401.9 248.9,404.3 255.9,387.8 257.8,381.8 261.1,382.3 262.3,396.7 
	251.9,397.6 248,407.3 253.2,401.9 251.3,394.6 258.7,385.7 258.3,393 260.5,397.3 251.7,397 256.5,387.5 258.1,384.2 259.9,390.9 
	259.6,393.3 259.3,400.3 258.3,393.3 255.6,387.5 258.7,390.9 262.7,382 259.9,381.4 261.8,385.4 251.9,396.1 255.9,400.1 
	259.6,404.3 264.2,393.9 250.8,426.9 258.3,403.1 262.7,389.7 262.3,385.1 266,376.3 259.6,396.1 259.6,409.2 255.3,406.8 
	258.7,388.2 258.7,377.2 256.8,393.3 257.4,395.5 254.4,391.8 255,397 256.5,400.3 262,390.9 261.4,384.8 262.7,379 259.6,377.2 
	260.5,389.3 255.6,384.5 263.6,382.7 257.8,379.6 258.1,385.1 255.9,394.6 259,382.9 256.3,381.4 254.4,397.6 261.1,393.7 
	258.3,404.6 259.9,384.2 254.7,408.3 262.3,376.8 256.8,385.4 257.8,396.4 256.8,395.5 257.4,394.8 265.1,386.6 262,382.3 
	259.9,397.6 257.2,394.8 258.7,411 255.6,396.1 257.8,388.2 257.8,393.9 259.6,381.8 255.9,383.3 258.1,383.3 256.3,398.5 
	252.6,404.9 253.8,394.6 255.9,398.5 246.2,404.3 248,411.7 258.7,393.3 252.8,391.5 257.8,382.9 256.5,390 251.7,403.7 
	255.6,400.3 251.9,384.8 248.6,386 247.7,403.7 254.4,398.8 257.8,380.2 252.3,385.1 252.8,389.7 260.5,402.5 261.4,384.8 
	247.7,410.8 252.6,391.5 251,383.8 251.9,392.4 247.3,404 248.9,378.1 253.2,382.7 252.3,386.3 247.3,397.6 248.6,407.3 
	248.9,401.9 251.9,387.8 245.8,395.2 245.8,401.3 251.9,391.8 252.8,392.8 251.9,378.1 254.1,385.4 247.7,391.5 251.3,382.7 
	245.8,401.9 248,391.2 248.9,384.5 240.3,397.3 246.2,387.5 250.4,368.9 252.3,371.7 248.9,396.1 243.7,399.8 242.8,403.7 
	241.6,395.8 243.7,409.8 244.6,388.8 242.8,399.2 242.5,390.6 247.3,386.6 242.2,391.8 234.8,406.4 241.6,391.5 242.2,400.7 
	243.1,395.8 240.7,395.5 242.8,400.1 242.2,388.2 240.9,390.6 240.3,392.8 244,395.2 241.6,386.9 236.7,396.7 237.9,393.7 
	239.4,390.6 240,395.8 237,407.3 235.4,405.8 235.8,409.2 236.1,399.8 237.3,389.1 238.8,379.9 240.3,390 239.1,398.8 237.3,389.1 
	235.4,397 237.3,394.3 236.1,398.8 236.1,393 243.7,390.9 241.3,393.3 241.3,392.8 240.3,395.5 237.9,395.2 235.8,408.3 
	239.8,394.3 233,410.1 234.8,405.3 239.4,403.1 239.1,396.7 233.9,395.5 238.8,399.2 236.7,404.3 234.3,408.6 234.8,403.4 
	237,393.9 236.3,405.5 233.7,407.1 233.3,412.8 229.7,416.3 226.9,411.9 225.1,426.6 226,412.6 226.6,416.3 234.3,391.8 230,382.7 
	227.5,404.6 232.1,390.9 230.6,393 233.9,386.6 230,390 232.4,386.6 229.7,395.8 235.8,384.5 229.1,393.7 220.5,399.8 222,393.9 
	239.1,389.1 234.5,389.3 "/>
<polyline fill="none" stroke="#EF25B2" stroke-width="0.75" stroke-linejoin="round" stroke-miterlimit="10" points="305.1,407.3 
	308.8,394.3 307.2,397 303.8,403.4 309.9,390.9 306.6,387.3 305.7,410.1 303.3,403.4 306.9,394.6 303.3,410.8 304.2,396.4 
	306.6,409.8 306.3,399.2 310.3,384.2 311.8,385.4 308.1,387.8 304.4,402.8 304.2,401 313.9,379 315.4,379.9 311.2,387.5 
	310.8,380.8 310.3,382 306.9,394.8 308.4,390 315.2,395.8 306.9,381.1 312.1,364.9 309.7,378.7 309,384.8 306,380.8 306.6,379.3 
	299.6,400.1 306.6,384.5 314.3,374.1 305.3,382.9 307.2,381.1 307.8,374.4 304.2,386.6 306,385.7 307.5,383.3 304.4,394.8 
	300.8,388.2 302.9,383.6 300.8,389.3 299,390.3 300.5,395.5 305.1,388.2 304.8,384.2 313,364.9 309,395.5 297.2,399.2 302.9,386.6 
	308.8,397.3 309,382 306.6,386 308.8,380.5 306,403.1 307.8,393.9 306.6,391.2 304.8,396.1 312.7,392.1 303.8,389.7 297.8,408.3 
	302,393.9 306.6,389.3 303.5,391.5 309.3,371.7 306,397 303.8,394.6 297.4,414.4 302.9,393.7 305.1,387.3 306.9,391.2 302.9,391.5 
	306.6,389.1 301.4,388.8 299.3,401.6 303.5,393 298.7,404 301.1,397.6 297.4,403.1 301.7,407.1 310.3,395.2 300.8,397.9 
	299.9,405.8 298.3,414.4 300.8,397.9 303.8,398.5 301.7,409.2 292.8,408 304.4,383.6 305.1,386.6 297.8,400.1 300.5,394.8 
	305.1,399.2 303.3,390 291.7,414.7 298.1,391.8 306.6,396.1 301.7,396.1 300.8,392.8 301.4,400.3 298.1,394.3 295.6,401.9 
	301.4,381.4 297.8,398.3 294.7,405.8 294.4,410.1 306,380.8 301.1,394.3 297.4,393.9 305.3,402.8 294.1,407.1 295.3,402.5 
	298.7,396.4 298.1,387.5 303.5,387.3 302,395.5 299,394.6 295.9,398.3 300.5,398.5 292.3,404 295.6,391.5 293.5,396.4 294.7,407.7 
	293.8,404.3 291.7,402.5 293.2,411.7 293.8,413.5 297.8,390.3 297.2,395.5 298.3,398.5 292.3,401.6 295.9,400.7 292.3,404 
	292.6,401.9 299.9,409.8 289.5,413.2 298.1,397.3 296.5,403.7 300.5,391.5 297.2,391.2 292.6,391.5 292.3,396.4 289.5,402.5 
	294.4,417.4 297.2,383.8 297.2,387.3 290.4,412.8 290.8,405.5 294.7,398.5 292.8,400.3 288.9,408.9 289.2,400.7 290.1,388.8 
	292.6,402.5 294.7,379 296.5,390.3 292.6,400.7 294.1,392.1 295.9,394.6 285.5,403.7 289.8,392.4 291.3,390.3 291,397 295.3,394.8 
	286.4,398.5 284.3,410.4 290.4,401 289.8,404.9 291.9,399.8 293.5,396.1 289.2,393.7 284.6,401.9 285.5,409.5 283.4,408.6 
	286.8,391.2 288.6,394.8 286.2,397.3 289.2,393.7 283.1,411.3 284.3,399.2 288,390 284.3,393.7 289.5,386.3 285.8,397.6 
	290.1,396.7 279.4,406.2 289.2,397 284.3,401.3 289.5,398.5 287.3,393 280.3,403.7 282.8,398.5 286.4,405.3 282.8,404.3 
	278.2,409.2 282.8,396.7 288.9,389.7 284,407.7 285.8,400.3 289.8,402.5 288.9,411.3 284.3,401.6 281.3,398.5 280.3,408.3 
	287.3,399.8 293.8,385.1 284.6,399.4 281.3,400.7 282.8,399.8 277.3,406.4 279.1,399.8 280.7,406.2 277.6,408 279.1,401 
	288.3,388.2 277.9,415.3 274.8,425.7 280.9,405.8 277,422.7 278.2,404.6 283.4,394.3 282.8,392.4 283.4,371.3 284.6,381.8 
	281.6,386.3 280.3,394.3 272.4,405.3 276.7,399.8 283.4,395.2 282.5,390.9 277.3,395.5 273.3,393.9 282.5,395.2 278.2,405.5 
	282.8,383.6 281.8,388.2 281.6,396.4 276.3,397.9 273.3,395.8 280,388.4 281.8,388.2 279.4,386.6 275.2,398.5 278.2,386.3 
	276.1,387.8 279.4,381.1 275.4,387.8 272.1,390.3 278.8,385.7 277,382 270.6,396.1 273,390.3 269.7,383.8 274.5,382.7 271.2,403.7 
	280.9,390.6 277.9,405.5 276.7,397.9 269,397.3 275.2,397.9 280.3,393.9 276.7,398.5 273.9,403.7 277.3,387.8 280,379.6 
	276.3,383.8 278.5,377.2 272.7,385.4 273.6,387.5 275.8,385.1 274.5,391.8 273.9,393.9 288,402.8 277.3,384.2 271.2,394.6 
	273.9,394.3 275.4,390 279.8,380.2 278.5,387.5 273,396.4 277.9,381.1 278.5,388.2 280,384.2 278.5,393 279.8,381.4 277.9,387.8 
	274.5,393.7 278.8,383.6 284.6,376.5 277.9,385.1 281.6,384.8 281.8,380.2 280,375.9 272.4,390 268.8,396.4 276.1,390.3 
	273.6,395.5 "/>
<polyline fill="none" stroke="#EF25B2" stroke-width="0.75" stroke-linejoin="round" stroke-miterlimit="10" points="340.5,403.4 
	340.8,405.3 341.7,398.5 336.8,417.4 344.4,402.5 338.7,412.8 340.8,408.3 335.6,416.3 335,415.6 342,402.5 338,407.3 337.4,405.5 
	342.6,398.8 338.9,405.8 337.4,416.3 342,401.3 344.2,403.1 342.6,402.5 342.6,409.2 344.8,405.8 346.9,385.1 340.5,393 
	343.8,399.2 349.9,390.9 347.8,388.2 346,400.1 344.8,394.8 342.3,397 335.9,411.3 343.5,404 342.6,404.3 346.6,397 352.7,382.3 
	346.9,393.3 344.4,398.8 346,405.5 348.1,388.4 343.8,402.2 339.8,404 332.8,410.1 338.3,401.3 347.2,397 341.1,406.8 338.9,412.6 
	340.2,404.3 345.1,393.9 338.9,400.7 339.8,397.6 341.4,401.6 344.2,403.4 348.4,387.3 342.6,388.2 348.4,392.1 338.9,395.5 
	339.6,392.4 340.8,399.8 342.6,399.8 339.8,408.9 344.4,391.8 341.7,386 343.3,392.1 342.6,399.4 334.7,424.5 336.8,410.4 
	338.3,409.8 337.1,401.6 337.4,406.2 341.1,408.3 333.5,416.3 346.6,396.7 342.6,396.7 342.6,392.8 340.8,398.3 338.3,410.1 
	341.4,399.2 338.7,406.4 329.5,409.2 339.6,393 337.4,397 348.4,383.8 337.4,406.8 339.8,408.6 338.7,402.8 341.1,396.4 
	342.6,401.3 337.4,400.1 335.3,391.8 340.2,388.4 342.3,403.7 341.4,390.9 338.3,407.3 334.7,398.3 334.1,407.3 334.7,403.4 
	339.3,422 338.3,408 329.2,413.5 339.8,400.1 340.2,390.3 339.8,394.3 337.8,389.3 336.8,399.2 339.6,405.8 345.3,392.1 337.4,411 
	341.7,398.3 338.3,405.3 335.9,412.6 335.6,404 335.3,403.4 338,393.3 334.1,399.2 339.6,404.6 338.3,401.3 337.8,401.9 
	334.7,405.5 337.8,396.1 336.2,390.9 338.9,402.5 335.3,397.9 328.9,404.3 328.6,413.8 329.8,406.8 329.8,396.7 328.3,395.2 
	328.3,401 328.9,394.3 329.8,398.3 328.6,403.7 325.8,407.7 322.5,413.5 324.3,411.3 328.6,407.3 324.6,407.7 327.1,406.4 
	327.3,408.9 332.6,405.3 320.3,412.6 327.7,398.3 326.2,403.7 330.4,396.7 331.7,390.3 336.5,380.5 331.3,397.3 329.8,387.3 
	333.5,392.1 327.1,404 331.9,394.3 323.7,408.3 324.3,412.3 325.8,411.7 330.1,396.1 332.8,381.8 334.1,378.3 330.4,388.4 
	324.3,404 331.9,385.7 330.4,384.2 326.4,397 324.3,412.6 328.6,412.3 320,416.3 326.8,406.4 322.5,400.3 327.1,406.2 319.8,414.1 
	323.1,409.5 321.6,411 327.1,401.9 319.8,419.3 328.9,405.3 326.4,400.7 324.9,394.6 324.6,394.6 324.6,388.8 320.7,399.4 328,382 
	331.3,393.3 326.4,394.8 320,402.5 324.6,391.8 321.8,393 324.9,407.3 325.8,399.4 329.5,397.9 314.3,406.2 320.7,390.3 
	321.8,398.5 316.3,401.3 317.3,405.8 323.1,387.5 324.3,386.6 318.5,404.9 317.6,408.9 318.8,412.3 323.4,400.7 323.4,385.7 
	323.1,398.8 320.3,394.6 315.2,401.6 321.3,406.4 324,393.7 315.8,407.3 317.9,426 319.4,410.4 317,398.3 319.8,410.4 317.6,399.4 
	316.7,420.8 321.8,410.8 320,408 321.6,406.2 316.3,424.2 317.3,409.2 318.2,408.9 319.4,393.3 319.4,397 322.2,397.9 324.3,405.5 
	317,395.5 324.9,409.5 320.3,384.5 316.3,408.6 312.1,413.2 314.5,403.1 314.5,402.2 313.9,407.1 320.7,392.4 321.3,393 
	320.9,390.9 322.2,392.4 321.8,388.2 326.2,391.8 324,383.3 320,386.9 320.3,393.3 316.3,388.8 318.8,384.5 318.8,395.2 317.9,393 
	320.7,383.3 320.3,386.9 320.7,410.1 320,402.8 327.3,394.8 312.7,411 316.7,394.8 320.7,391.8 315.8,394.6 314.5,400.7 324,390 
	321.3,384.8 321.8,382.9 319.1,387.8 318.8,389.3 316.1,403.1 317,397.3 313,412.6 315.4,407.7 313.9,390.6 321.3,395.8 320,391.8 
	323.4,398.3 319.4,394.8 317.6,398.8 315.2,422.3 314.5,406.8 315.8,401.6 311.5,400.3 319.1,387.8 317.9,396.4 319.1,396.4 
	315.8,378.3 320.9,393.7 313,403.1 316.1,401.9 320,382.3 320.7,383.6 322.2,388.2 317.9,401.6 315.4,389.7 309,409.8 311.5,418.7 
	316.1,413.8 307.2,411.7 313.6,407.1 319.1,400.3 314.3,396.1 318.2,386 316.3,397 312.7,401.9 315.8,405.3 317.6,399.2 314.8,397 
	314.8,393.3 320,381.4 316.3,395.2 314.8,391.5 316.1,395.8 305.1,407.3 "/>
<polyline fill="none" stroke="#EF25B2" stroke-width="0.75" stroke-linejoin="round" stroke-miterlimit="10" points="375.6,413.5 
	380.5,417.8 376.8,427.3 372.3,423.6 378.7,443.7 369.8,425.7 378.3,402.8 378.9,422.3 378.9,422.9 376.2,409.5 378.7,418.1 
	373.4,421.8 376.8,433 375.6,438.2 377.8,411.7 366.2,441.3 373.4,422 371.6,422 370.7,419.6 368.6,412.3 367,420.2 366.2,445.3 
	366.4,426 366.8,446.4 374.1,425.7 368.3,435.5 369.2,438.2 371.9,426.9 365.3,438.8 370.4,422.9 369.5,431.8 371.9,416.8 
	383.8,396.7 381.7,394.8 379.3,396.4 377.4,405.8 387.5,359.8 389.9,370.2 388.1,369.3 380.5,391.8 387.5,367.1 382.6,390.9 
	381.1,405.3 385.1,410.8 392.7,355.8 386.3,358.5 393.6,358.3 385.7,362.8 387.8,363.1 389,370.2 392.7,359.4 387.5,378.1 
	389.3,371.3 390.6,380.8 384.8,379.6 385.3,361.9 385.1,368.9 385.7,365.8 386,375 378.7,386.3 387.2,379.3 383.5,403.7 
	374.7,405.5 373.2,414.1 378.3,402.5 372.8,410.4 377.8,404 376.8,398.3 377.4,398.8 375.6,403.4 370.7,410.1 372.8,407.7 
	374.3,402.8 372.3,407.3 374.3,399.4 372.8,408 368.8,419.9 365.8,430.6 367.3,418.3 369.8,410.4 371.6,409.2 377.4,388.4 
	378,389.1 377.4,396.1 372.8,398.8 374.7,398.3 377.4,390.3 377.1,394.6 373.2,387.5 369.2,395.8 371.6,394.3 375.6,397.6 
	372.8,400.3 370.1,399.8 371,393 372.5,397 371.9,398.8 369.2,394.8 371,402.2 367.9,404.6 368.6,398.3 368.8,397.6 368.8,401.6 
	370.7,396.4 372.8,396.1 366.8,401.6 369.2,401.6 370.7,396.1 369.2,395.2 370.7,404 373.4,390 375.6,382 375.6,396.7 374.1,400.7 
	371.9,402.5 371,391.5 370.1,402.2 372.3,391.5 370.1,404 369.2,404.9 367.3,402.2 368.6,394.3 367.3,386.9 367.9,393.7 
	365.8,397.3 367.9,407.7 367.7,404 376.8,396.7 372.8,378.7 382.6,385.4 366.8,392.1 371.9,390 371,398.8 371.9,392.1 370.4,399.8 
	368.3,407.3 367,400.1 370.7,399.4 358.8,406.8 364.3,403.1 367.7,407.3 365.3,389.1 366.2,397.6 363.4,398.5 359.8,392.1 
	368.8,393.3 364.3,405.5 365.8,401 360,407.1 364.6,401.9 369.5,402.8 371.9,376.5 367.3,379.9 369.8,389.1 360.9,401.3 
	364.6,407.7 364.3,410.8 361.3,404.6 368.3,393.3 360.3,397.9 365.5,402.5 361.6,394.8 359.4,403.4 361.6,397.3 369.2,388.4 
	358.8,406.2 359.1,397 357.3,402.5 364,399.2 366.8,387.3 364.3,399.2 366.8,394.6 367.7,395.8 363.1,400.1 368.3,404.3 
	363.7,399.4 367.3,395.2 361.6,406.2 357,425.4 358.5,408.3 357.9,413.8 369.5,397.3 362.8,399.2 364.9,385.4 361.3,396.1 
	351.2,413.8 357,402.5 356.7,407.3 361.3,404.6 360,414.7 354.5,411.7 362.8,397.3 359.1,411.9 365.3,408.6 364,409.8 356.1,411.3 
	367,405.3 359.4,416.3 351.5,419.3 357.9,407.1 355.4,398.3 357,406.2 358.2,405.5 355.2,398.8 357.9,403.7 367,398.3 357.6,412.3 
	360,382.7 359.1,393.9 359.1,395.2 355.8,396.1 359.8,391.2 346.6,400.1 354.5,390.3 356.7,398.8 357.6,414.4 356.3,388.4 
	359.4,392.8 353,398.5 358.2,384.5 357.9,379.3 356.7,385.7 345.3,401 356.7,399.8 348.4,435.2 353.6,398.8 357.3,397.9 
	368.3,398.5 354.5,397.6 351.8,391.8 352.4,389.7 352.1,381.8 354.5,377.4 356.3,377.8 352.4,396.4 353,393.9 348.4,395.2 
	352.1,394.8 353.9,394.3 355.4,407.7 349.3,390.6 354.3,405.5 356.3,400.3 357.9,401.6 350.8,397.6 350.3,392.8 341.4,413.2 
	347.5,396.7 342.9,404.9 346.3,396.1 343.8,402.2 345.1,407.7 344.8,402.8 349,388.2 351.2,396.1 352.1,402.2 343.8,405.3 
	348.1,401.9 350.6,381.1 347.8,390 346,393.3 348.1,393.9 341.7,405.3 349,395.2 350.3,400.1 343.5,396.4 344.2,401.3 354.3,376.5 
	351.8,390 345.3,389.1 349.7,398.3 345.1,406.4 340.5,417.4 342.6,409.8 343.8,406.8 344.4,404.6 348.1,390.3 341.4,402.2 
	349.3,394.8 342,386.3 340.2,391.8 345.3,390.3 342.6,397.6 338.3,419.6 346.3,394.6 344.8,390.6 347.5,382.7 345.7,385.1 
	342,383.3 339.6,390.9 340.5,397.6 343.3,387.8 337.1,401.9 337.1,407.1 338.9,403.4 341.7,395.5 341.1,397.3 336.2,402.5 
	342.3,392.4 340.5,403.4 "/>
<polyline fill="none" stroke="#EF25B2" stroke-width="0.75" stroke-linejoin="round" stroke-miterlimit="10" points="409.5,426 
	407.9,422.9 408.8,435.5 408.8,437.6 409.5,436.1 415.3,428.4 411.6,421.1 417.1,427.8 414.1,417.2 415,437 410.1,438.8 
	410.7,424.8 413.2,426.9 413.4,428.4 406.4,441.3 404.9,436.1 407.7,438.5 415,436.7 406.4,441.3 403.7,448 407,442.5 417.1,422.7 
	407.9,420.5 401.5,430.3 405.2,426.6 406.4,421.4 404.6,419.3 404.9,427.3 406.4,421.1 433,456.5 410.7,401 408.8,411.3 
	406.4,423.3 401.5,425.4 403.7,425.7 407.9,421.4 411.9,415.3 410.4,425.1 406.1,431.5 411.3,420.2 407,426.3 405.2,432.4 
	402.8,441.6 399.4,444.6 402.4,426.6 408.6,417.4 402.8,429.1 406.4,420.8 400,430 400.6,430.6 395.4,431.8 400,421.1 402.2,411.7 
	408.6,410.1 404.3,418.1 400.3,416.3 399.4,417.2 397,411.9 399.1,415.3 398.2,427.8 399.4,426.3 399.4,429.7 398.8,436.1 
	400.9,418.7 398.8,405.5 396.3,418.7 401.3,407.3 403.3,402.5 399.1,403.1 398.2,412.3 401.8,414.7 401.3,407.7 397.3,408.6 
	397.9,415.3 392.7,421.1 396.1,417.8 401.8,417.2 399.1,422.3 396.3,428.2 396.7,419.9 396.3,443.1 403.3,417.8 397.3,409.5 
	399.4,414.4 401.5,430.3 399.8,416.8 400.6,418.7 399.8,412.8 396.3,411 402.2,404.6 400.3,408 397.3,419.9 398.5,412.8 
	399.8,403.4 401.5,409.5 401.8,407.3 398.8,404.9 399.1,412.3 397.3,419.6 398.5,413.2 390.8,415.3 398.5,414.7 393.9,404.6 
	396.7,401.3 397.9,396.1 402.8,408.6 399.4,416.8 408.3,400.7 400.3,400.3 409.5,388.4 409.8,396.1 404.3,392.8 401.8,400.1 
	400,396.4 400.3,388.4 397.6,406.2 393.6,418.3 401.8,398.5 400.3,398.8 397.9,391.8 399.4,397.6 403.1,406.4 400,402.5 
	404.3,390.3 404.9,399.4 403.3,383.3 397,411.7 399.1,411.9 399.1,400.7 403.3,406.4 396.3,397.3 395.2,408.3 400.6,395.5 
	399.4,401.9 398.8,403.7 397.6,405.5 398.5,405.8 396.7,408.9 403.7,398.5 400.9,398.8 396.1,411.7 390.6,413.2 396.3,413.8 
	396.3,403.1 393.9,398.8 391.2,428.4 390.6,408 396.1,411.7 395.4,422.7 391.2,420.5 393.9,421.1 390.6,426.6 391.5,422.9 
	386.6,429.7 386,421.4 384.4,422.7 387.8,403.4 394.8,405.3 395.8,398.8 396.7,401 394.3,402.5 391.8,408.9 389.3,401.3 
	391.8,412.6 400.6,397.6 395.2,417.2 390.3,406.2 392.4,412.8 396.7,404 396.1,397.3 391.8,409.2 382.9,425.7 386.6,411.3 
	388.8,413.2 386.9,412.8 387.8,406.2 390.8,417.4 391.2,414.1 391.8,410.4 394.3,417.8 393.9,413.8 384.8,422.3 393.6,404.9 
	393,399.8 384.2,413.8 386.9,417.2 385.1,428.4 387.8,399.4 394.5,393.7 388.8,396.7 393,397.3 398.2,391.2 393.6,410.1 
	388.1,410.4 384.8,419.6 379.8,416.3 385.7,413.2 400.6,417.8 383.3,411.3 382.9,412.6 385.7,405.5 384.4,397.3 384.8,408 
	383.5,409.5 383.5,407.1 384.8,408.3 380.8,411 385.7,405.3 388.4,410.4 383.5,412.8 382,407.1 385.7,405.5 385.3,400.7 
	391.5,395.2 383.8,411 385.1,410.4 388.8,409.2 378.3,421.1 379.6,411.9 377.4,427.5 380.5,411.9 383.3,401.3 388.8,394.8 
	377.4,409.2 378.7,407.1 386,391.5 385.1,379.9 382.6,398.3 381.7,395.2 383.5,395.2 389.9,385.7 388.1,376.8 390.6,389.7 
	384.8,397 384.2,395.2 380.8,407.7 380.2,400.7 381.4,402.8 380.2,398.5 382,399.4 386.9,397.3 382.3,398.3 378,402.8 374.1,411 
	381.4,400.7 378.9,402.5 377.8,405.8 382,407.3 378.3,401 381.4,409.8 383.8,398.5 368.6,433.9 372.5,415.9 376.2,411.9 
	375.6,409.2 376.2,408.3 379.6,392.4 376.2,399.2 377.4,412.8 380.8,401 376.2,410.8 378.9,404.6 376.5,408.6 372.5,417.2 
	375.9,407.7 378.7,388.8 383.3,396.1 375.3,408.6 379.3,414.1 380.2,416.3 379.6,410.4 380.8,399.4 379.3,401 382.3,398.3 
	381.4,408.6 378,414.7 380.5,401.3 379.6,411.9 376.5,413.2 374.3,421.8 381.1,412.3 375.6,417.2 374.7,422.7 375.9,418.1 
	378.9,412.8 377.4,422.9 379.8,412.3 386.9,410.4 379.8,420.5 378.3,407.1 377.1,419.6 375.3,419.6 376.5,426.3 373.4,429.7 
	382,410.1 375.9,424.2 380.5,427.8 383.8,420.2 378,422.7 375.6,413.5 "/>
<polyline fill="none" stroke="#EF25B2" stroke-width="0.75" stroke-linejoin="round" stroke-miterlimit="10" points="450.1,420.5 
	450.7,417.2 444.9,424.5 445.2,409.2 445.8,412.6 449.8,417.4 447,421.8 450.1,411 444.3,429.1 449.8,423.3 450.1,422 445.8,432.8 
	447.9,419.9 447.3,414.4 447.9,414.7 451.3,406.2 448.3,404 449.8,411.7 448.6,407.7 449.8,410.8 450.4,416.5 445.5,417.4 
	440.6,418.3 446.8,418.1 436,434.8 440,439.4 438.5,423.3 438.8,430.9 438.8,434.8 432.4,439.4 437.6,422.7 436.7,423.3 
	435.1,443.7 443.1,412.3 443.7,401.3 441.3,411.9 439.7,415.6 438.8,426.9 439.1,408.3 442.2,412.8 437.3,425.1 438.2,420.5 
	448.3,401.6 440,413.2 429.9,423.8 435.1,419.3 440.3,424.2 434.2,427.5 439.7,429.1 434.5,416.8 440.3,417.2 440.6,411.7 
	442.8,419 438.5,408.3 440.9,405.3 441.5,415.6 439.1,416.3 439.4,419.6 440.9,415.6 440.3,417.2 436.3,419 432.1,426.3 
	434.2,410.1 439.4,409.5 437.6,407.3 435.1,421.4 440.9,404.6 439.1,402.5 442.2,396.1 440.9,391.5 445.8,397.3 441.8,399.2 
	437.8,411.9 438.8,405.3 436.3,417.2 436.9,419 440.9,411.3 435.8,410.8 441.3,406.4 437.8,415.6 443.1,417.2 436,420.5 440,412.8 
	433.9,415 434.2,411.9 442.2,400.3 438.5,402.5 435.4,409.2 429.9,413.8 427.8,431.5 437.3,406.2 436.3,404 436.7,402.5 
	437.8,397.9 437.8,409.8 433.9,416.3 426,423.8 424.4,435.5 428.4,438.8 431.5,418.1 433.9,432.1 433,419.6 436.9,407.1 
	428.4,430.3 442.8,415 433.3,415.3 436.7,415 429.9,421.1 436.3,417.4 432.7,413.5 436,403.4 439.7,389.7 432.7,412.6 434.5,414.4 
	437.6,423.3 430.6,410.8 433,410.4 436,411.7 429.7,421.8 432.4,409.5 440.6,408 423.8,419.9 439.1,406.4 436.3,407.7 433.6,413.2 
	426.3,425.4 435.4,411.3 435.4,409.8 435.1,406.2 435.4,421.8 433,421.8 437.3,396.4 434.8,408 422.6,413.2 426.3,431.5 
	427.8,419.9 425.1,415.9 429.9,413.8 430.6,414.7 430.3,398.5 431.5,411 427.2,415.3 423.8,420.8 423.5,414.1 431.2,414.4 
	426.6,416.5 422,425.7 426,419 430.6,424.5 433.9,418.7 426,423.3 426,416.3 429,414.4 427.8,415 432.4,408 433.9,419 425.1,422 
	424.4,421.4 424.4,413.2 424.2,404 428.4,407.7 428.4,415.9 427.5,420.2 433.3,404.3 433,405.3 427.2,409.5 420.2,423.3 
	424.2,424.5 422.9,421.4 421.7,423.6 421.4,413.2 426.3,413.2 430.6,409.2 422.3,422.7 424.4,419.6 426.9,429.1 420.2,429.7 
	425.1,424.5 419.6,417.2 421.4,416.3 415.9,420.8 422.3,416.5 428.8,413.5 426.3,411.3 428.8,406.8 422.3,430 431.8,406.4 
	431.2,410.4 426.3,414.4 418.3,423.3 419.8,413.2 418.7,442.5 433.9,401 420.2,431.8 422.9,416.5 416.8,426.9 418,419 416.5,425.1 
	418.3,422.3 421.1,409.8 416.5,420.2 417.1,427.8 427.2,407.7 424.4,393.7 423.3,406.4 423.8,412.3 428.4,400.1 411.9,418.3 
	420.5,416.5 418,414.7 425.1,419.9 414.3,442.8 418.9,419.9 429.3,408.9 420.2,402.5 414.3,425.7 425.1,426.9 423.3,426 
	425.3,407.3 420.5,415 421.7,412.8 424.4,410.1 420.8,424.2 418.9,420.2 419.8,413.8 422.6,418.7 421.4,404.3 418.3,426.3 
	415.6,416.5 415,422.7 420.5,419.6 421.4,410.1 420.2,414.7 418.3,423.3 414.1,432.8 411.3,440.7 416.5,425.1 416.5,437.6 
	418.7,414.4 418.9,412.8 420.5,433.7 418.3,427.3 416.8,425.4 421.1,417.4 414.7,423.6 413.8,435.5 414.1,426 415.6,413.5 
	420.5,422 413.4,420.8 408.6,426.6 414.7,410.8 418.7,404.6 406.4,428.4 412.3,426.6 412.8,421.8 413.8,416.5 410.1,430.9 
	404.9,419.6 413.8,406.4 418,412.3 415.6,418.7 415.9,414.7 427.5,404.3 411.6,423.3 402.2,434.8 405.8,432.1 407.9,430.6 
	410.4,434.3 409.2,431.2 415.6,415.9 411.3,431.2 407.3,430.9 405.2,429.1 411,424.8 413.4,422 413.2,419.9 411.3,421.4 
	410.4,418.7 410.1,414.1 402.2,433.3 405.5,436.1 413.8,435.2 403.1,451 407,435.5 407.3,437 405.5,441.6 400.9,447.7 416.2,435.5 
	402.2,431.5 411,424.2 408.6,434.8 401.8,438.5 406.1,441.3 405.5,431.2 405.5,430.9 407,419.6 410.7,418.1 408.3,435.5 409.5,426 
	"/>
<polyline fill="none" stroke="#EF25B2" stroke-width="0.75" stroke-linejoin="round" stroke-miterlimit="10" points="487.9,405.5 
	484.3,412.6 485.2,418.7 488.3,411.3 492.8,420.2 487.9,405.3 484.9,406.4 491.6,399.2 477.3,422 479.1,425.1 483.1,417.8 
	476.7,417.2 484.9,410.4 483.3,407.1 487.9,404.6 485.2,421.1 480,417.4 482.4,422.7 486.1,408.3 484.9,412.6 482.4,415 
	480.3,410.1 482.2,422.7 481.8,415.6 479.7,418.7 476.9,415.3 481.8,411.7 474.2,418.1 478.5,421.8 478.2,417.4 478.8,418.7 
	476.7,418.3 480.6,413.2 482.2,419 478.5,416.8 476.7,417.4 470.5,418.3 472.1,416.5 481.5,405.5 487.7,409.8 480,416.8 476,426.9 
	480.3,422 480.9,413.2 474.8,434.8 479.7,419 479.7,424.2 476.3,428.2 475.8,429.1 480.3,416.3 486.8,416.3 476.7,421.8 
	472.3,432.4 472.1,440.9 468.4,435.8 477.6,415 481.5,408.3 479.1,418.1 480.9,412.8 471.4,434.3 476.3,419.6 481.8,409.8 
	474.8,414.1 474.5,425.4 476,436.7 477.3,425.7 477.8,420.5 478.8,419.6 475.8,412.8 476.3,408.6 481.8,398.5 480.9,420.2 
	475.4,419.6 469.9,420.5 471.2,426.3 472.7,422.7 476.9,418.1 481.3,407.1 485.8,397 475.4,418.7 476.7,435.8 475.4,418.1 
	475.4,421.4 473.9,428.4 479.4,415.3 479.4,399.2 478.5,406.8 475.4,414.7 476.9,410.1 479.1,414.4 473.3,420.8 465.3,417.4 
	465.3,419 477.6,413.2 475.1,419 475.1,400.7 474.8,408.9 476.9,411 475.4,412.3 476.3,416.3 471.4,425.4 474.2,432.4 474.5,420.8 
	472.1,419.9 471.8,419.9 480,402.5 476.9,406.4 473,411.3 474.5,404.3 472.3,417.4 476.9,398.5 476.3,407.1 468.7,419.6 
	469.9,405.5 469.6,407.3 470.3,423.3 473.9,409.2 470.8,414.1 467.2,422.7 465.7,430.3 465.9,426 466.8,412.6 473,414.1 
	470.8,416.3 470.5,415.6 472.7,411 469,420.8 469.6,402.5 469.6,419 467.8,403.4 471.2,413.2 476.7,399.4 474.2,408.3 476,404.3 
	475.8,413.8 477.8,385.4 473,389.3 468.7,411 474.5,413.8 467.5,418.3 469,412.6 471.4,419.3 468.1,422 463.5,422 455,433.3 
	461.1,422 471.8,398.8 467.5,408.9 465.7,422 465.3,416.3 469.9,407.3 463.3,419.9 464.2,417.4 458.7,408.9 467.5,426 460.5,411 
	465.7,411.3 467.8,415.6 469.3,414.4 462.6,413.2 462.6,436.1 469.6,412.6 458,429.3 461.7,430 459.6,423.6 466.6,424.8 
	463.5,420.2 458.9,419.9 465.1,415.9 460.2,432.4 459.8,440.9 458.9,414.7 461.7,415.9 467.2,428.4 456.5,424.5 461.7,414.7 
	458.3,421.4 467.8,418.7 461.1,422.9 456.2,422 459.3,428.2 458.9,433 463.8,418.3 461.4,416.5 459.8,428.2 455.6,437.6 
	454.3,441.8 461.4,439.8 461.1,428.2 457.8,420.8 464.8,428.8 458,426 458.3,414.4 462,406.2 453.4,426.6 460.2,439.8 460.2,422.9 
	459.8,429.7 456.8,415.3 456.8,424.8 459.8,432.8 458.9,422.3 453.8,429.3 456.8,441.8 454.3,434.3 459.3,442.5 456.5,436.4 
	454.7,430.3 456.2,424.5 459.3,423.8 452.5,444.6 454.7,422 455.9,431.5 459.6,428.4 456.2,437.3 458.3,426.6 460.2,426.6 
	452.3,437 452.3,437.3 455.3,443.1 455.3,422.3 454.7,437.6 452.8,443.7 458.7,424.2 447.9,441.6 453.8,435.8 456.2,435.8 
	450.4,428.4 455,429.3 452.5,424.2 450.7,439.1 454.1,434.6 444.9,446.2 454.1,425.7 455.6,415 457.1,430.9 451.9,433.3 
	450.7,437.9 451.3,437.6 448.6,440.3 451.3,445.5 449.8,438.5 456.5,413.2 460.8,426.9 455.6,426.3 451.9,433.7 449.5,442.8 
	463.3,453.2 458.9,420.2 451.6,431.2 459.6,420.2 455.3,424.5 457.1,425.7 454.1,429.3 455.6,418.7 452.3,433.9 456.2,424.5 
	453.2,434.6 455,430.9 459.3,425.7 454.7,420.2 462.3,418.1 456.5,424.2 454.3,434.6 458.3,426 458,419.9 450.1,432.4 457.8,432.1 
	457.1,426 455.6,425.4 459.8,423.8 453.4,437 449.8,423.6 449.2,440.9 450.7,445.3 453.4,433.9 460.2,430.6 454.1,424.5 
	461.1,424.5 451.9,430.3 448.8,431.2 457.8,410.1 455,415.3 452.8,415.3 455,409.8 452.8,403.1 456.8,408.9 453.2,419.3 
	452.5,412.6 459.6,416.8 452.8,413.5 451.9,416.8 453.2,431.5 441.8,423.3 441.5,434.3 438.8,434.8 444.9,421.4 450.1,418.7 
	447.3,422 450.1,420.5 "/>
<polyline fill="none" stroke="#EF25B2" stroke-width="0.75" stroke-linejoin="round" stroke-miterlimit="10" points="516.9,420.2 
	520.3,414.1 519.7,419.3 520.6,423.6 522.4,421.1 517.3,420.2 515.8,419.9 519.4,419.9 519.1,425.7 520,403.4 519.4,414.1 
	522.8,420.2 518.8,418.7 520.3,418.7 526.4,427.3 519.7,419.6 517.8,426.9 520,455.3 520.3,416.3 515.4,427.3 518.8,426.9 
	517.8,433.9 521.5,418.7 519.1,415.6 518.2,412.3 519.7,406.4 516.3,420.8 514.5,429.7 519.4,419.9 526.8,397.9 523.3,404 
	525.8,404.6 521.3,411.9 515.4,426 513.9,426 508.7,419.3 519.1,418.7 520,426.9 513,431.2 520.3,423.3 516.7,430.3 519.1,431.8 
	521.8,419 521.8,411.7 524.6,423.8 512.1,432.1 522.4,417.4 520.9,424.2 516.9,423.6 520.3,419.3 516,416.8 517.8,420.2 
	514.5,437.9 513.3,424.2 514.2,422 508.1,443.1 511.4,425.4 514.5,423.6 507.2,430.3 520,424.2 510.5,437.6 516.7,423.3 
	516.3,432.4 522.2,422.7 518.8,419 519.1,424.8 515.4,435.2 518.5,443.1 504.1,451.9 510.3,428.4 514.2,436.4 509.3,418.7 
	511.8,426.9 514.5,408 515.1,418.3 513.9,435.5 515.1,420.5 512.1,412.8 515.4,406.4 508.4,419.3 513.3,412.6 509.9,424.5 
	509.6,415 509.3,420.2 514.2,417.8 510.5,425.1 517.3,411 513.3,417.2 515.1,413.5 516.3,415.6 508.7,411 513.6,419.3 503.5,423.8 
	508.4,413.2 513.6,420.8 511.2,419 512.3,404.3 505.9,422.9 502.9,426.3 510.5,412.6 515.1,412.3 514.8,398.5 501.3,409.8 
	515.1,410.1 513.3,414.1 503.2,423.8 509.9,419 507.2,410.4 509.3,419.3 516.9,414.1 504.8,422.7 508.7,420.8 502.9,429.7 
	510.8,405.8 515.8,412.3 515.4,412.6 516.9,407.7 507.5,429.3 511.2,413.8 509,421.8 506.8,421.4 504.8,424.2 508.1,422.3 
	506.3,420.2 504.8,423.6 513,410.4 509.6,426.9 509.3,407.7 505.9,414.7 507.8,417.4 510.8,412.3 512.1,395.2 508.1,408.6 
	512.3,408.3 511.8,412.6 513.6,414.4 511.2,424.5 502.9,417.2 509.6,410.4 504.4,420.2 508.4,420.8 507.8,421.4 514.2,421.4 
	509,426 504.1,425.1 504.8,428.2 506.6,422 507.8,416.8 502,421.1 505.3,415 506.6,416.8 509,425.4 508.1,418.3 500.4,427.8 
	505.9,429.3 510.5,420.2 511.8,403.7 505.3,421.4 502.9,423.8 503.5,422.3 505.9,424.5 501.1,424.8 502.6,444.9 500.2,436.7 
	504.4,425.1 500.4,433.9 500.8,431.8 501.3,436.7 505,434.6 500.2,433.3 505,424.2 501.1,425.4 502,426.6 503.5,426.3 504.4,419.3 
	504.4,415.6 502.6,429.3 500.8,425.4 502.9,430.6 503.5,427.3 505,420.8 505,417.8 506.3,423.8 505.9,419 506.6,429.3 503.2,422 
	502.9,426 499.8,432.1 504.4,426.6 505.3,415.6 500.8,422 504.4,428.8 502.9,425.7 500.4,420.5 502.3,427.5 493.8,434.8 
	490.1,446.2 495.6,433.3 498.7,441.6 495.3,449.5 502.3,424.5 497.1,430 499.5,438.2 500.8,425.1 505.7,417.2 499.3,433.9 
	505.9,420.8 493.2,422 491.3,426.3 505.3,425.1 498.3,423.3 502.6,414.4 504.4,422.9 502,414.4 501.7,412.6 501.3,413.2 
	506.3,413.2 510.3,404 493.2,424.2 502.6,415.6 509.6,405.8 509,409.2 507.8,409.8 513.9,404 511.8,404.3 505.7,411 498.9,408.3 
	505,395.5 499.8,411.7 505.7,409.8 524.9,404.6 505,413.8 505,424.2 500.2,422.9 498,426 497.1,418.7 500.4,422.7 498.7,423.3 
	500.4,406.8 500.4,407.7 498.9,411.7 499.3,404.6 502.9,416.3 499.5,427.8 497.8,432.1 501.1,420.8 496.8,420.5 499.3,417.8 
	499.5,418.7 496.2,416.3 500.4,415 498,405.3 504.8,400.7 508.1,394.3 502,407.3 497.4,394.3 494.7,398.5 498.9,401.3 498,394.6 
	489.2,418.1 492.8,423.3 500.8,400.3 499.3,389.7 489.2,403.1 490.1,418.3 490.7,417.8 489.5,419.9 486.8,415.3 491.9,417.4 
	490.4,429.7 494.7,426.6 494.1,412.6 498.7,415.6 495,411 496.8,409.2 496.5,412.8 496.2,401 491.9,425.4 496.2,431.5 487.7,458.7 
	491,422.9 488.3,424.2 483.3,444.3 492.5,408.6 490.1,406.4 493.4,401.6 498.7,386.6 494.7,397.3 484.9,402.5 483.3,402.5 
	484.9,404.6 479.4,416.8 486.8,405.3 489.2,405.8 482.4,415.9 481.5,407.7 489.8,414.7 490.1,402.8 489.5,404 487.9,405.5 "/>
<polyline fill="none" stroke="#EF25B2" stroke-width="0.75" stroke-linejoin="round" stroke-miterlimit="10" points="558.2,419 
	565.2,406.8 558.8,419.6 557.6,424.5 560.6,414.1 558.8,415.6 563.1,422 563.1,409.5 563.3,411.9 559.1,414.4 563.3,416.5 
	560.9,409.8 560.3,411 556.3,417.2 558.2,418.1 563.3,432.1 556.7,423.6 554.2,437.3 558.5,437.3 564.9,411.9 564,411.9 
	559.1,418.1 553.3,424.2 561.8,424.2 562.4,420.8 553.3,426.9 548.1,442.2 564.9,410.1 554.2,430.3 552.1,405.3 554.2,427.8 
	562.8,415.9 556.7,429.3 553.6,424.5 558.5,419 555.8,425.7 561.3,413.5 554.8,432.1 556,440.3 552.7,421.1 559.4,399.8 558.2,411 
	557.3,413.2 558.2,392.8 555.4,428.2 548.1,425.1 558.2,410.1 562.8,400.7 552.1,433 554.5,413.2 547.8,413.5 555.1,418.1 
	559.1,402.5 556.9,416.8 551.4,425.1 548.4,412.3 550.8,406.2 551.4,419.6 553.9,422.3 556.3,413.2 556.9,420.2 555.1,429.3 
	550.5,424.8 550.8,418.1 557.8,404 553.3,428.2 553,421.8 548.1,436.4 555.1,417.4 554.8,421.1 550.5,411.7 548.4,415.6 
	548.1,420.2 547.5,434.3 551.4,432.8 544.1,424.2 554.8,431.5 555.4,413.5 548.1,422.9 546.3,418.3 542.9,440.7 545.9,422 
	544.4,435.8 544.8,427.5 548.1,418.3 548.1,425.7 548.7,432.1 551.8,427.5 552.7,418.1 549,416.8 547.5,427.3 548.4,433 
	552.1,426.3 549.6,435.2 545.3,432.8 546.6,428.8 540.4,429.3 542,427.3 546.3,432.8 548.1,430.9 550.5,418.7 548.1,427.3 
	542.9,435.8 545.3,436.4 548.4,415.3 550.8,421.4 547.2,425.1 549,430.6 548.7,421.4 543.2,422.9 544.4,433.3 545.3,438.5 
	542.3,430.3 544.4,429.3 545,426.6 546.6,426.3 552.3,410.8 551.2,410.1 547.2,419.3 541.1,435.8 546.8,429.3 542.6,422.7 
	547.2,420.8 544.4,426.3 537.4,434.6 537.1,433.7 534.3,443.4 533.8,430.9 538.3,423.8 536.8,440 547.8,424.5 541.1,426.9 
	539.5,427.3 543.2,422.9 544.4,422.3 546.8,421.4 541.1,428.2 545,422.3 542,420.5 543.5,422.3 549.6,438.8 543.8,425.4 531,488.6 
	540.4,434.8 537.4,450.4 534,448 540.4,434.6 531.6,460.8 544.4,437 547.5,433.3 541.7,440.7 542.6,424.2 529.2,450.1 535.3,461.8 
	548.4,428.8 547.5,419 547.5,416.8 550.8,453.5 534.9,472.7 550.3,423.6 543.8,424.5 551.2,427.5 542.3,430.9 538.6,434.6 
	542.6,428.8 542.6,425.1 540.4,423.8 546.6,420.8 537.7,446.2 540.4,432.1 541.3,422.3 540.2,434.6 537.7,445.8 536.2,448 
	543.2,422.3 539.5,417.8 539.3,434.6 539.8,421.8 543.2,416.5 545,417.8 552.1,442.8 547.8,419 547.5,420.8 551.4,427.3 
	537.4,437.3 543.8,423.6 542.9,424.8 542.3,423.3 537.1,437.9 541.1,427.5 539.8,428.4 539.3,437.9 534.3,433.9 540.8,424.8 
	539.5,419.9 538.6,417.4 543.5,416.8 537.1,423.3 536.2,437.3 537.7,429.7 540.8,421.8 536.5,427.8 542,437.6 537.7,440.9 
	535.6,433.7 531.3,426.3 541.1,411.7 533.4,433.3 534.7,424.2 542.3,415 534.3,437.3 527.7,433.3 528.6,415.9 541.3,419.6 
	539.8,415.3 534.3,427.3 527.7,426.3 535.6,410.4 533.4,416.5 529.5,418.3 530.1,414.7 532.5,405.3 530.7,422 536.5,416.8 
	524.9,431.5 532.2,407.7 533.4,418.3 526.4,427.3 527.9,426 529.5,419.3 537.4,411.7 534.9,419.3 536.2,427.5 525.2,441.3 
	526.8,431.2 530.4,418.7 532.5,416.3 528.8,419 528.3,411 524.3,437.3 525.5,429.7 536.5,417.2 528.8,420.8 534.9,420.5 
	525.2,425.7 530.1,409.5 528.3,408 526.4,414.4 534.7,404.9 530.1,408.9 528.3,408.9 533.4,410.4 532.2,412.8 531.9,416.5 
	533.8,408.6 532.8,414.1 530.7,415 532.8,415 519.4,426 525.5,426.6 526.8,426 529.5,419 533.8,415 525.5,420.8 526.8,422.9 
	527.7,424.5 523.1,415.9 522.8,427.5 524.6,423.3 527.9,412.3 527.7,419.6 522.8,428.8 520.9,419.3 522.4,446.4 527.9,409.5 
	529.8,406.8 525.5,424.2 529.2,420.5 527.7,410.1 530.7,417.2 525.2,415 529.2,415.3 525.2,425.7 523.1,426.3 513.9,445.3 
	529.2,416.5 527.7,416.8 521.8,422.3 522.2,407.7 522.4,411 519.1,425.1 522.4,424.5 521.5,419.3 525.8,407.7 514.2,431.2 
	522.8,415.9 520.6,410.8 525.2,405.8 522.8,422 516.9,420.2 "/>
<polyline fill="none" stroke="#EF25B2" stroke-width="0.75" stroke-linejoin="round" stroke-miterlimit="10" points="593.3,417.8 
	595.4,421.1 599.7,416.8 597.3,429.3 594.5,437.9 596.3,426.3 599.7,427.3 595.8,432.4 599.1,416.5 594.2,440.3 592.1,435.5 
	598.8,416.8 600.3,411.9 599.1,422.7 597.6,426.3 594.5,431.8 595.1,440.3 600.3,409.5 595.4,440 598.4,416.8 601.8,424.5 
	589,445.5 591.8,432.4 593.9,431.8 591.8,429.1 590.8,430.6 592.7,430 586.6,428.4 593.6,430.9 588.1,419.6 596,432.8 589.9,433.7 
	594.2,434.3 588.7,450.4 590.3,434.3 599.7,433.3 590.3,435.5 584.4,446.4 586.6,440.7 592.7,432.1 587.8,446.2 589.3,429.3 
	589.6,430.9 588.7,430.9 590.5,442.5 588.4,435.8 586.3,432.8 592.7,426.6 590.5,434.3 588.7,440.9 581.3,466 584.4,444.6 
	588.4,430 589,450.4 582.6,441.8 585.7,446.2 585.9,430.6 585.9,428.8 583.2,437 586.8,434.3 587.5,435.5 594.2,415.6 591.4,426.6 
	599.7,411.9 591.2,433.7 587.5,434.3 584.8,442.2 587.5,441.8 588.1,440.7 589.9,445.3 589.9,441.8 584.4,434.6 586.3,431.5 
	590.5,424.2 595.4,409.5 589.9,423.3 589.3,433.9 589.9,438.5 585,451.3 582.6,438.5 597.6,437.9 594.2,438.8 602.1,431.5 
	591.4,437 586.8,429.7 586.3,441.6 577.4,454.1 585.3,434.6 582.9,440.7 583.2,448.6 588.4,434.8 582.6,447.1 586.8,429.3 
	585.3,425.4 583.2,438.8 578.3,431.5 589,429.7 589.6,423.6 591.4,435.8 584.4,429.3 586.6,424.2 582.9,427.5 578,432.1 
	585.9,425.4 588.1,436.1 582.3,441.3 592.1,425.4 590.8,423.6 584.4,428.2 584.1,426 585.9,434.6 584.4,431.2 584.4,430.9 
	581.1,437.9 592.7,423.3 590.3,430 591.2,430.3 589.9,429.7 582.9,440 587.2,435.5 588.1,426.6 585.9,428.4 582.3,439.1 
	589.9,432.1 589.9,436.4 590.3,443.1 588.7,441.6 589.6,436.7 580.8,457.4 582.3,443.7 585,433.9 586.6,445.3 583.5,432.8 
	580.4,421.4 586.8,419.6 586.8,417.8 587.2,418.7 588.1,421.8 588.1,417.2 587.8,415.6 584.4,421.8 586.8,421.8 582.9,419.9 
	582.6,433.9 589.9,414.1 592.7,407.3 584.1,422.9 585.9,427.8 597.3,404.6 591.4,417.4 588.4,422.3 585,418.1 591.2,415.6 
	587.2,418.3 589,411.3 581.3,422 587.5,409.8 584.8,412.6 590.8,410.4 586.3,398.5 578.6,419.9 574,415.6 576.2,415.3 576.5,428.4 
	583.5,403.1 589,411 582.9,425.7 582.9,423.3 582.3,422 584.1,414.1 588.7,401 581.3,403.1 577.4,418.3 572.5,419 581.3,413.8 
	572.5,434.3 575.6,415.3 573.1,415.6 578.6,414.1 588.7,420.5 586.3,404.6 580.8,414.1 576.5,423.8 578.6,430.6 580.4,429.3 
	589,392.1 580.2,418.3 578.6,431.5 578.9,424.8 585.7,430 582,430.9 572.5,428.8 582,417.8 578.3,436.1 578.6,424.8 568.8,437.6 
	578.9,424.2 581.7,424.8 577.7,429.1 582,431.5 584.4,425.4 581.1,423.3 578,426.6 574.9,432.8 573.1,433 576.5,435.5 578.6,435.5 
	573.8,433.3 577.7,435.8 568.5,431.8 570.7,418.3 573.1,426 571.9,431.5 566.4,434.6 573.8,418.1 568.3,424.2 577.4,429.3 
	569.8,431.8 566.7,449.5 568.5,431.5 564.3,431.5 572.8,419.3 573.4,425.1 573.4,417.8 575.3,424.5 567,445.8 569.4,423.6 
	574.7,419.6 572.5,427.5 571,419.3 574.7,410.4 572.8,413.8 572.8,416.3 568.5,426.3 568.3,420.5 564.9,424.5 564,429.1 
	566.1,434.6 573.4,417.4 570.7,409.2 572.8,408 573.4,413.2 566.7,423.6 567.9,419.6 569.8,421.8 571,423.8 564,427.8 560,432.4 
	567.9,431.2 564.3,439.8 564.9,435.5 570.7,422.3 566.4,414.1 571.3,419.9 556.3,434.8 564.3,440.3 567.9,427.3 566.4,422.7 
	564,420.2 567.9,418.3 568.5,419.9 567,422.3 565.8,422.7 565.2,421.1 568.8,424.5 566.7,429.7 566.1,430 564.3,421.4 565.2,416.5 
	563.3,429.7 558.5,441.8 562.4,432.4 568.3,421.8 564.9,412.6 563.1,412.8 564.6,428.4 564.6,422.3 576.2,415.9 563.3,425.1 
	564.6,419.3 565.8,424.8 565.2,406.8 568.8,403.4 568.3,409.8 560.3,414.7 557.8,423.8 574.3,401.9 575.6,401.9 573.1,400.1 
	566.4,380.8 568.8,393.7 562.2,422.7 560.6,420.2 564.9,411.7 560.9,414.7 559.7,424.5 565.8,417.2 562.2,430.6 560.3,423.6 
	558.2,419 "/>
<polyline fill="none" stroke="#EF25B2" stroke-width="0.75" stroke-linejoin="round" stroke-miterlimit="10" points="636.6,422.9 
	632,430.9 636.6,415.9 637.3,431.2 636.3,430.9 637.8,428.4 640.6,432.4 632.9,429.3 639.3,430 639.7,424.5 639.7,430.3 
	637.8,435.2 640.9,443.1 632.7,440 638.4,427.3 640.9,421.4 638.8,424.8 639.3,426.3 641.2,418.7 635.4,429.1 636.6,425.1 
	640,412.3 636,446.4 629.6,431.8 641.8,419.9 641.5,420.5 644.8,421.8 636.6,422.3 645.8,411 642.4,416.8 638.4,432.1 641.8,422.3 
	639.7,426.3 638.2,422.9 642.4,413.5 640.9,427.5 633.6,423.3 634.5,417.4 650.7,397 638.8,409.8 637.3,426.9 640.9,426.6 
	639.3,427.5 640.6,429.3 637.8,430.9 639.1,421.4 638.4,428.4 635.1,440.3 637.5,423.6 637.8,415 640.9,422.9 632,428.4 
	636.3,435.8 627.2,445.8 633.3,429.1 630.5,444.9 631.2,433 633.6,424.8 641.5,422.9 632.9,438.8 632,431.2 638.4,426.3 
	635.7,430.6 628.1,448.6 632.7,423.8 638.8,424.5 642.4,415.3 633.3,427.8 638.8,418.3 634.8,433.7 639.3,426.6 630.8,443.7 
	627.8,433.7 632,430 630.3,439.4 629.9,440.9 630.5,424.8 637.3,419 630.5,432.4 631.2,429.1 637.8,420.5 631.4,422.9 630.8,420.5 
	636.9,404.3 639.1,405.8 629.9,411.3 630.3,419.6 630.5,418.3 623.8,411.7 632.7,402.2 638.2,412.8 640.6,409.2 644.6,409.8 
	628.7,419.6 632.9,421.4 639.7,401.3 635.7,401 633.3,407.1 628.4,412.3 632.7,414.7 631.4,415.6 628.1,414.4 629.9,417.8 
	630.8,413.8 628.4,415 628.1,422.7 637.5,417.8 631.2,412.3 625.9,405.8 624.1,408.6 625.7,419.6 623.5,415.6 625.7,407.3 
	622.9,410.4 630.3,396.4 633.3,399.4 627.5,401.9 629,401.6 629.9,419.6 622.6,444.9 627.5,412.6 628.1,404.6 626.8,407.3 
	629.6,398.5 631.2,404 627.5,398.8 621.1,407.3 625.9,403.1 625.3,405.8 622.3,403.7 625.9,412.3 630.3,396.1 624.4,390 
	623.8,402.8 627.2,401.6 626.8,378.7 625.7,399.4 621.3,412.3 622.3,421.4 625.7,405.5 624.8,410.1 628.1,400.1 622.9,389.1 
	619.8,416.3 620.8,404.9 624.8,393.9 632,398.3 626.8,408 622.6,401.3 626.3,402.5 621.3,405.8 626.8,390.9 620.4,412.8 622,406.4 
	623.8,411 620.2,411 625.7,425.7 627.2,405.3 622,398.3 627.8,399.4 620.4,416.8 622.6,422.7 616.2,423.6 623.5,414.4 624.8,407.1 
	620.4,407.1 623.5,407.7 620.2,406.4 619.5,408.9 628.1,401.6 622.6,393 618.3,425.7 614.9,419.6 626.6,418.3 624.8,408.9 
	623.8,433 618.9,414.1 621.1,415.9 614.9,415.6 616.2,404.6 611.3,422.9 616.8,416.5 619.8,409.8 613.4,407.7 616.2,410.8 
	616.8,422 614,426.9 618.6,417.8 619.3,410.4 616.2,413.8 612.5,416.5 618.6,406.8 616.2,406.2 617.7,419.3 613.8,420.8 
	613.1,432.4 608.5,411.3 604.8,431.2 609.8,414.4 623.8,429.7 616.8,415.6 620.4,411.3 614.7,418.7 604.8,423.8 618.3,403.7 
	610.1,420.5 613.1,425.7 612.2,418.1 611.6,418.3 608.3,429.7 604.8,433.9 608.8,423.6 607,421.1 613.1,408.9 612.8,417.2 
	609.4,420.5 609.4,409.5 607.3,424.8 611,417.8 611.6,414.1 609.4,412.8 611,412.8 608.5,405.3 613.1,412.3 606.1,424.5 
	609.4,414.4 613.8,417.8 618,399.2 614,422.9 617.4,415.9 606.1,412.3 607.3,424.8 607.3,414.1 614,419 615.6,421.8 617.1,425.1 
	608.3,428.4 607.3,420.5 609.2,426 612.8,423.6 601.2,433 607.6,420.5 609.2,413.8 608.5,424.2 605.2,426 608.5,418.7 609.2,413.2 
	604.8,426 609.8,401 603,422.9 603.9,429.7 604.6,424.5 611.9,415.9 616.2,403.1 615.8,386.3 605.2,398.3 610.1,394.8 611.3,405.8 
	611,402.8 620.2,376.5 596.9,430.3 605.8,433 603.3,420.8 601.8,424.8 599.7,416.8 607.3,419.3 601.8,408.6 597.8,412.6 
	607.3,417.8 604.6,428.4 600.6,424.8 600.6,427.5 609.2,411.7 600.6,417.4 603.3,419.6 602.8,424.5 595.4,416.8 595.4,433.9 
	589,445.3 602.4,421.8 602.4,412.6 600.9,444.9 596.3,425.7 596,426.6 594.5,425.4 599.1,429.1 601.2,431.2 596,436.7 593.3,422.7 
	592.7,428.4 600,423.8 594.2,430.3 595.4,423.8 603.9,420.2 600.6,426.3 595.4,423.3 593.6,425.4 600.9,415 594.2,433.7 
	593.3,417.8 "/>
<polyline fill="none" stroke="#EF25B2" stroke-width="0.75" stroke-linejoin="round" stroke-miterlimit="10" points="676.3,415.3 
	683.7,419.3 677.5,421.1 673.3,427.3 677.8,425.4 673.6,415.6 679.7,422.7 679.1,424.2 682.4,411.7 679.3,418.3 684.6,412.6 
	676.3,417.2 670.5,419.9 677.5,427.5 680.3,407.1 678.2,407.3 680.3,437 682.4,413.8 688.5,419.9 682.1,405.3 683.3,402.5 
	683,408.9 687.3,400.3 673.8,402.2 672,410.4 672.3,400.7 683.7,404.3 678.2,411.9 677.8,411.7 675.1,405.5 678.2,410.1 
	670.5,414.4 678.2,403.4 673.6,418.3 679.3,396.4 679.1,410.4 677.3,420.8 680.3,413.8 673.8,411 670.8,422.3 677.5,422.7 
	674.5,420.2 676,413.8 682.1,387.8 682.1,392.1 680.3,403.1 679.1,409.2 681.2,408 681.8,400.1 677.8,408.9 673.6,406.4 
	681.5,395.5 672.7,409.2 669,410.8 674.2,409.5 672.9,384.2 675.7,392.8 670.2,418.3 675.4,398.8 678.4,407.7 676.9,392.4 
	675.1,395.2 670.2,399.2 668.7,414.7 671.1,409.5 672.7,404.3 672.3,402.5 674.5,415.9 676,411.9 684.8,408 669.9,421.4 
	671.4,414.7 670.8,415.9 675.7,414.7 676.3,396.4 674.2,404.6 671.1,414.1 668.7,408.3 670.2,401.9 664.1,405.8 671.8,418.3 
	670.5,428.2 664.4,411.9 658.3,418.1 678.4,401.3 670.5,397 657.1,425.7 658.9,416.5 660.4,412.8 664.4,412.3 661.3,407.7 
	666.5,408.6 664.4,410.1 662.3,403.1 660.8,414.1 663.5,407.1 672,407.3 663.8,420.8 664.1,411.7 659.3,411.9 662.3,405.3 
	664.1,411 672.7,408.3 688.5,393.3 665.9,409.2 665.9,400.3 664.1,411 661.1,401 668.1,394.8 669.6,393.7 671.4,404 677.8,412.8 
	664.1,401.3 661.7,409.5 658.9,424.5 655.3,418.3 660.4,415.3 652.5,428.2 669,419.9 658.9,408 664.7,409.2 669.3,406.2 
	665.3,426.3 656.2,415.9 663.2,424.5 652.2,437.6 658.3,416.8 681.8,466.3 658,423.8 658,415.9 655.6,425.4 654.7,413.2 663.2,408 
	659.5,385.7 654,409.5 660.8,410.4 665.3,415.6 662,402.5 656.5,404 658.6,404.9 665.6,389.3 657.4,390.3 658.6,399.2 664.7,400.7 
	654.7,401.3 657.1,423.6 657.7,419.3 654.9,407.1 658.6,400.3 667.4,417.2 651.9,404.6 662,411.3 658.3,407.3 664.4,389.1 
	664.7,402.8 652.8,399.8 661.7,406.8 661.1,396.1 660.4,393.9 657.1,404.6 657.1,407.3 647.6,412.8 655.8,415 658.6,409.5 
	662,400.1 652.8,403.7 649.4,415 656.5,406.8 659.5,402.8 662,394.3 655.3,406.8 657.1,404.6 657.4,399.2 656.2,412.3 647,421.4 
	652.5,406.2 658.6,409.2 658.3,404.6 658.9,406.2 657.4,406.8 656.5,402.5 650.7,415.9 650.7,416.5 660.4,399.4 655.8,424.8 
	657.7,407.3 656.5,408.9 649.8,417.8 659.3,416.8 654.9,408.9 655.6,416.3 655.3,412.3 661.7,404.9 655.6,404.6 653.1,408.9 
	656.8,407.3 658.6,411.7 654.3,400.1 657.4,407.3 657.1,409.5 646.1,413.5 650.7,411.3 651.6,423.6 647.6,423.6 657.7,411 
	646.7,415.6 658.6,408.6 654.7,418.3 656.8,406.8 656.2,408.6 654.7,410.8 656.8,418.1 650.7,412.8 650.3,421.8 657.7,399.2 
	650.1,419 662.9,374.4 654.7,409.5 653.4,420.8 654.7,417.2 655.8,418.3 650.1,422.3 650.3,418.1 647,420.8 648.5,420.2 
	635.7,419.3 650.3,415.9 639.7,435.5 643.7,429.7 646.4,424.8 645.5,421.4 648.5,418.1 651.6,422.7 648.3,424.5 645.5,419.6 
	645.5,445.8 639.7,441.8 655.6,426.3 654,413.2 649.8,411.7 646.7,419 641.2,434.6 643,419.6 645.2,414.4 646.4,423.8 636.9,424.5 
	649.8,414.4 641.2,439.8 648.5,418.7 649.8,421.8 654.3,404 642.1,421.8 641.8,433.7 645.5,419.9 646.4,423.6 635.7,412.3 
	643.9,430 642.4,420.5 634.2,433.3 648.5,425.4 652.2,406.4 640.3,429.3 647.3,405.5 643,420.2 640.3,424.8 641.5,426.3 640.3,430 
	645.5,409.5 642.1,418.1 637.5,440.3 639.7,430.9 644.3,421.1 641.8,417.4 650.3,425.7 634.8,441.6 639.3,428.8 637.5,419 
	644.3,424.5 636,419.3 642.1,419.6 648.8,433.7 643,425.7 638.4,430.3 646.1,422.9 646.1,433.7 643.9,429.1 648.3,419.6 
	644.3,423.6 641.2,429.1 642.8,428.2 644.3,431.2 643.7,413.2 650.3,410.1 643.7,420.5 638.4,424.5 640.9,431.2 643.9,428.2 
	644.6,420.2 642.8,411.7 636.6,422.9 "/>
<polyline fill="none" stroke="#EF25B2" stroke-width="0.75" stroke-linejoin="round" stroke-miterlimit="10" points="702.3,420.5 
	720.3,411 710.5,417.2 712,411.3 717.3,404.9 720.9,405.3 712.9,423.8 709,419 722.1,416.8 718.8,425.1 712.3,429.7 709.9,423.8 
	718.2,433 717.8,404.6 711.1,419 712.3,414.7 713.3,406.2 716,408.9 713.6,422.7 713.8,422 710.2,425.4 705.9,431.5 712.7,426.9 
	711.1,430 713.3,415.9 712.7,421.1 706.8,405.8 706.5,414.4 715.4,409.5 710.8,410.8 712.3,410.4 714.5,418.7 709.6,423.3 
	704.7,429.1 703.8,419 710.2,412.3 716.3,398.5 711.1,404.3 712,411.3 714.2,404.6 698.9,419.3 736.4,408.9 706.5,409.8 712,408 
	712.3,405.8 704.7,424.2 711.4,407.1 716.9,392.8 707.8,399.2 703.2,408.6 712.7,402.5 714.5,391.8 707.4,404.9 712.3,417.8 
	712.3,416.3 707.2,409.8 703.8,406.2 714.8,385.7 716.3,380.8 702.6,407.3 707.8,399.2 707.2,430.6 707.4,421.8 709.9,401 
	707.8,401.9 709.3,404 698.6,412.6 709.9,406.8 708.7,397.3 705.3,401.3 705.6,414.4 703.5,417.2 698.9,422.9 705.6,423.8 
	706.8,438.8 697.1,411.3 706.8,406.8 704.1,422.3 705.9,429.1 705.3,402.8 706.3,403.7 707.2,408 705.9,411.9 704.7,414.4 
	727.3,401 703.2,416.8 705.3,419.6 705,408.9 694.9,423.8 710.2,428.4 695.3,419.3 698,426.6 701.7,414.7 706.3,422.3 692.8,428.2 
	698.3,424.8 690.7,425.4 706.3,413.5 699.8,414.7 694.9,430.3 687.9,565.5 695.8,431.8 696.5,414.4 694,408.6 699.5,411.7 
	701.7,411 698.6,415 700.1,417.8 690.7,411.9 694,422.7 693.4,421.1 698.6,416.3 701.9,412.8 694.9,444.6 697.1,411.3 698.3,408.3 
	700.8,395.8 695.3,399.4 703.5,407.3 698.3,408.3 705.9,406.4 697.1,418.3 698,408 690.7,426.9 692.8,408 695.6,416.8 697.7,427.5 
	699.8,402.8 701,416.3 695.6,415.6 693.1,421.8 693.4,410.4 699.5,409.8 694,422.3 701.3,421.4 688.3,435.2 696.5,418.3 
	695.6,407.3 702.8,417.4 707.4,421.8 702.8,410.4 705,395.2 701.7,411 695.3,424.8 689.8,427.5 698.3,422.7 691.9,424.2 
	692.2,416.8 691.6,417.2 686.4,421.4 692.8,418.7 692.2,417.2 689.2,420.5 685.8,418.7 691.6,403.1 690.7,420.5 693.4,400.7 
	682.1,411.9 686.1,436.7 686.4,412.6 694,421.8 684.6,433.7 679.3,435.2 688.3,433 690.7,424.8 694.7,422.3 687.9,421.1 
	688.5,423.6 691.3,429.3 689.8,431.2 687,426.3 684.6,433.3 696.8,405.8 691,417.4 690.3,420.8 689.8,429.3 686.1,422.9 
	691.3,432.8 683.3,444.9 698,419.9 696.5,411.7 682.4,430.3 692.5,430.6 687.9,426.6 685.2,435.5 686.7,434.6 681.5,441.6 
	681.2,433.9 682.8,430.3 677.5,431.8 693.1,426.9 690.3,429.1 681.2,425.7 682.8,429.7 687,432.1 687.9,420.2 676.3,432.1 
	679.1,437 683.7,429.1 676,442.2 679.1,435.2 680.6,439.4 678.8,460.5 678.2,437 678.8,433 676.9,427.3 678.2,438.2 673.8,423.8 
	682.1,430.9 674.2,436.7 681.5,430 680.9,424.2 684.8,418.1 672,452.3 672.7,453.5 668.3,442.5 680,428.4 671.8,440.3 672.7,426.6 
	679.3,426.6 672,430.3 676.9,437.6 667.8,437.6 672.3,441.3 675.1,430 679.3,428.8 680,437.3 677.8,436.4 688.3,415.9 680.3,424.2 
	674.8,432.4 682.8,434.6 684.8,421.8 682.1,430.3 670.8,433.3 681.5,424.2 673.3,425.4 676.3,436.4 667.8,419.3 679.1,419.9 
	687.9,417.2 686.4,429.3 693.1,413.2 687.9,421.4 682.4,430.3 677.8,422.7 678.4,428.4 682.8,418.3 675.4,416.8 676.3,427.5 
	680.3,425.4 682.4,430.3 684.8,423.8 682.1,428.4 684.8,417.2 682.1,429.1 682.1,426.9 685.5,415.6 681.5,428.4 680.6,430 
	681.2,415.6 676.9,423.8 683.3,418.7 672.9,430.3 680.9,424.2 676,433.7 678.2,425.4 677.8,422 682.4,418.1 673.6,420.2 
	667.8,438.2 665.9,433 680,421.1 680,413.5 668.3,427.5 675.1,422.3 679.3,422 671.4,411.9 683.7,405.5 676.3,415 675.4,437.3 
	684.3,417.4 679.1,422.3 674.5,414.4 688.5,407.1 677.5,404.6 680.3,404.3 681.8,413.2 689.2,416.8 676,416.5 675.1,412.3 
	676,421.8 674.2,407.3 676.9,426.9 676,413.5 680.9,430 683.7,405.3 683,412.3 681.8,412.6 676.3,415.3 "/>
<polyline fill="none" stroke="#EF25B2" stroke-width="0.75" stroke-linejoin="round" stroke-miterlimit="10" points="768.2,423.6 
	756.6,428.8 759.3,450.1 762.8,416.3 757.8,421.1 763.9,419 751.8,428.8 752.9,425.4 761.2,413.2 753.8,436.1 776.8,432.1 
	764.5,422.7 762.4,424.5 753.6,436.4 761.8,411.3 762.4,414.7 756.6,419.9 758.8,413.2 760,416.8 758.8,412.8 767,415.3 
	757.5,424.5 755.4,419.6 759.1,421.8 757.3,426.6 770,408.9 764.8,414.7 765.4,418.7 764.3,419.9 756.6,433.3 762.1,420.8 
	764.3,416.5 759.7,403.7 760,408.9 759.1,412.8 763.6,424.5 758.8,426.3 766.3,415 761.2,421.1 757.8,415.9 755.1,419 760.3,415.3 
	760.9,407.7 768.2,397.3 764.5,404 758.2,422.3 762.1,420.8 756.3,417.2 758.8,403.7 759.3,413.2 752,418.7 761.2,415 760.9,417.8 
	756.6,417.2 755.7,428.4 763,409.2 759.7,407.1 763.6,403.4 767.6,401.6 750.5,433 757.5,413.2 768.8,428.8 753.8,410.1 
	751.4,419.9 752.7,417.2 758.8,407.3 762.4,404 762.4,397 759.7,415 760.9,392.4 755.4,389.1 767.6,393 758.8,401.6 764.5,402.5 
	763.6,403.7 761.8,414.4 760,415.9 757.5,399.4 760.9,413.8 759.1,390.9 756.6,402.5 758.2,402.8 758.8,393.7 758.2,406.4 
	754.2,405.3 750.8,410.8 752.7,406.8 746.3,421.4 755.1,407.7 755.1,401 760,393.7 753.3,423.8 752.9,416.8 759.7,399.8 
	759.3,399.8 754.2,412.6 752.7,415.3 751.4,410.4 750.2,412.3 754.2,424.8 752.3,402.2 745,410.8 753.6,410.8 754.5,403.7 
	747.2,423.6 745.3,416.5 748.1,411.7 749.3,423.8 750.5,422.3 745.6,418.7 756,405.8 750.5,422 741.9,420.2 754.2,390 746.3,419 
	763,388.4 760.9,384.5 766.3,392.8 748.7,417.2 752.9,423.3 744.7,418.3 759.7,392.1 749.6,416.5 756.6,421.4 752.9,414.1 
	752.9,409.5 751.8,408 752.3,412.6 757.3,415.6 756.3,432.8 747.2,403.4 749,411 753.6,408.9 747.2,413.8 752,471.5 748.1,405.5 
	746.5,437.6 752.7,420.8 741.7,432.4 729.2,441.3 725.8,429.3 729.2,438.8 725.2,442.8 726.7,441.3 734.9,424.5 727.3,427.5 
	724.3,427.5 719.7,458.3 726.7,430.9 734,427.3 730.1,432.4 726.1,424.5 730.3,430.6 726.7,444.6 716.3,450.1 726.7,435.5 
	722.1,422.9 724.3,429.7 725.2,428.2 720.9,440.9 732.5,413.8 726.1,425.4 723.9,431.8 721.2,430.3 725.5,430.6 725.8,425.1 
	726.7,422.7 722.1,437.9 715.7,450.1 717.8,444.3 721.2,428.2 718.8,433.9 724.6,426.6 717.3,419 715.4,423.6 714.8,436.7 
	721.8,443.4 723.3,429.3 719.7,424.8 722.4,425.7 727.6,434.6 718.2,460.5 723,433.9 726.4,423.6 719.1,430 725.5,417.2 
	718.8,427.3 720,427.5 720,435.5 717.8,432.8 718.8,430.6 725.2,416.3 723,427.3 725.8,420.5 721.8,418.7 723.9,417.4 721.8,426.9 
	723.7,415 728.3,404.3 717.5,428.2 721.8,426 722.8,417.8 718.2,440.3 723.9,433 718.4,431.8 722.4,426 727,418.3 720.3,429.3 
	722.8,434.8 716,430 725.8,416.8 722.8,415.9 719.1,441.3 716,426.9 721.8,430 726.7,417.4 723,411.9 715.7,422.7 723.9,413.5 
	720.3,421.8 717.5,416.8 721.8,415.3 715.7,446.8 725.2,406.2 718.4,419.9 714.5,428.8 738.9,415.9 724.3,415.9 723.9,414.7 
	720.6,425.1 720.3,437.9 723.7,438.2 730.9,412.3 729.2,414.1 728.8,418.1 724.6,413.2 722.8,430.3 716.3,438.2 721.2,428.2 
	721.5,423.3 723,431.5 717.5,441.8 719.3,429.3 718.8,416.3 722.1,415.3 712.3,435.5 714.8,422.9 714.2,430.9 715.1,432.8 
	717.8,423.6 714.8,435.2 719.1,418.7 720.6,431.5 710.5,443.1 712.7,433.9 714.2,428.4 717.8,433.3 717.3,427.5 716.6,417.4 
	714.2,420.2 720.9,406.4 719.3,410.8 713.6,420.2 707.8,425.1 713.6,421.8 716,418.3 712.3,433.3 703.8,430 712.3,426.3 
	716.6,420.8 709,427.8 719.3,409.5 723,413.5 728.8,451.3 717.5,433 711.4,444.3 731.6,419.6 712,430.3 722.8,399.4 720,417.8 
	723,406.8 728.5,414.4 723.7,408 715.1,409.8 708.1,438.8 714.2,415.9 709,426 710.8,413.5 719.1,406.4 710.5,420.5 824.7,412.6 
	713.3,436.7 712.7,407.7 712.3,418.1 711.4,419.3 713.3,416.8 712.9,421.1 717.3,419.9 707.2,410.4 702.3,420.5 "/>
<polyline fill="none" stroke="#EF25B2" stroke-width="0.75" stroke-linejoin="round" stroke-miterlimit="10" points="791.4,403.4 
	782.3,410.4 781.7,417.2 780.1,427.5 778.6,427.8 784.4,425.4 777.1,435.8 780.4,420.5 774.3,430.6 775.3,415.3 779.8,423.8 
	782.3,425.1 774.3,430 775.3,434.6 782.3,426.9 781.9,413.8 786.8,422.3 781.3,431.2 775.5,437.9 766.7,429.7 772.8,452.3 
	775.8,426.9 779.8,421.1 778.9,414.4 773.4,426 770.3,433.9 772.2,427.8 774.3,432.1 777.1,433.3 777.7,422 779.8,422 774.6,436.4 
	772.5,435.8 777.7,419.3 770.9,424.8 772.5,410.8 775.5,412.8 773.7,417.8 772.5,422.3 773.1,426.6 774.9,420.5 781,408 
	768.8,420.5 773.7,420.8 763.6,426 774,428.4 789,411.9 775.8,416.5 776.8,411.7 781.3,401.3 777.1,417.8 775.3,405.8 777.7,409.2 
	770.3,419.6 778.6,403.7 778,411.7 775.5,419 771.3,422.3 781.3,419.3 783.5,403.1 781,410.4 786.3,403.4 767,409.8 771.6,401.3 
	773.4,419.9 774.9,424.8 788.3,422.9 778,425.7 777.1,415.6 775.3,418.3 783.5,401.9 780.8,414.1 779.5,419 771.8,415.3 779.5,415 
	779.5,418.1 776.2,417.4 781.9,412.8 779.2,411.3 778.6,411.9 774,416.8 778.3,415.9 771.3,433.9 772.8,412.6 772.2,419.9 
	773.1,423.8 774.9,428.4 774.6,423.8 776.2,412.3 769.4,418.7 772.8,420.2 775.8,415.9 774.9,428.2 773.7,410.8 772.5,406.4 
	778.6,401.3 774,413.5 775.8,422.9 770.7,430.3 763,443.7 770.7,424.8 768.5,426.9 764.3,416.5 764.5,426.6 762.4,419.3 
	761.5,430.9 768.5,435.8 764.5,432.8 776.2,406.2 781,403.1 773.4,405.3 770.7,429.3 765.4,410.8 761.5,408.9 760.3,421.4 
	773.1,417.2 767.6,410.8 773.1,418.7 766.3,426.6 760.3,416.5 768.8,419.3 761.2,422.3 761.5,422 769.8,412.8 760.9,419 
	763.3,428.8 763.6,432.4 765.4,433 763.3,422.7 766.1,405.3 769.1,415.9 770.3,419.9 774.6,421.4 770.7,421.4 765.8,422.7 
	774.3,422.9 764.8,422.7 765.4,430.9 760.6,430.6 759.7,443.4 776.4,420.5 767.6,417.2 762.8,424.2 766.3,407.3 757.3,415.6 
	758.8,424.8 761.8,429.1 762.8,412.3 768.2,423.6 "/>
</svg>
